  0
SECTION
  2
HEADER
  9
$ANGBASE
  50
0.0
  9
$ANGDIR
  70
1
  9
$MEASUREMENT
  70
0
  0
ENDSEC
  0
SECTION
  2
TABLES
  0
TABLE
  2
LTYPE
  70
4
  0
LTYPE
  5
40F
  2
CONTINUOUS
  70
0
  3
Solid line
  72
65
  73
0
  40
0.0
  0
LTYPE
  5
410
  2
DASHDOT
 70
0
  3
Dash Dot ____ _ ____ _
 72
65
 73
4
 40
2.0
 49
1.25
 49
-0.25
 49
0.25
 49
-0.25
  0
LTYPE
  5
411
  2
DASHED
 70
0
  3
Dashed __ __ __ __ __
 72
65
 73
2
 40
0.75
 49
0.5
 49
-0.25
  0
LTYPE
  5
43B
  2
DOTTED
 70
0
  3
Dotted .  .  .  .
 72
65
 73
2
 40
0.2
 49
0.0
 49
-0.2
  0
ENDTAB
  0
TABLE
  2
STYLE
  70
4
  0
STYLE
  2
KICAD
  70
0
  40
0
  41
1
  42
1
  50
0
  71
0
  3
isocp.shx
  0
STYLE
  2
KICADB
  70
0
  40
0
  41
1
  42
1
  50
0
  71
0
  3
isocp.shx
  0
STYLE
  2
KICADI
  70
0
  40
0
  41
1
  42
1
  50
15
  71
0
  3
isocp.shx
  0
STYLE
  2
KICADBI
  70
0
  40
0
  41
1
  42
1
  50
15
  71
0
  3
isocp.shx
  0
ENDTAB
  0
TABLE
  2
LAYER
  70
1
  0
LAYER
  2
BLACK
  70
0
  62
7
  6
CONTINUOUS
  0
ENDTAB
  0
ENDSEC
  0
SECTION
  2
ENTITIES
0
LINE
8
BLACK
6
CONTINUOUS
10
4.45843
20
-3.7302
11
4.47671
21
-3.73777
0
LINE
8
BLACK
6
CONTINUOUS
10
4.47671
20
-3.73777
11
4.47671
21
-3.73777
0
LINE
8
BLACK
6
CONTINUOUS
10
4.47671
20
-3.73777
11
4.49316
21
-3.74876
0
LINE
8
BLACK
6
CONTINUOUS
10
4.49316
20
-3.74876
11
4.50715
21
-3.76275
0
LINE
8
BLACK
6
CONTINUOUS
10
4.50715
20
-3.76275
11
4.51814
21
-3.7792
0
LINE
8
BLACK
6
CONTINUOUS
10
4.51814
20
-3.7792
11
4.51814
21
-3.7792
0
LINE
8
BLACK
6
CONTINUOUS
10
4.51814
20
-3.7792
11
4.52571
21
-3.79748
0
LINE
8
BLACK
6
CONTINUOUS
10
4.52571
20
-3.79748
11
4.52957
21
-3.81688
0
LINE
8
BLACK
6
CONTINUOUS
10
4.52957
20
-3.81688
11
4.52957
21
-3.83666
0
LINE
8
BLACK
6
CONTINUOUS
10
4.52957
20
-3.83666
11
4.52571
21
-3.85607
0
LINE
8
BLACK
6
CONTINUOUS
10
4.52571
20
-3.85607
11
4.51814
21
-3.87434
0
LINE
8
BLACK
6
CONTINUOUS
10
4.51814
20
-3.87434
11
4.51814
21
-3.87434
0
LINE
8
BLACK
6
CONTINUOUS
10
4.51814
20
-3.87434
11
4.50715
21
-3.89079
0
LINE
8
BLACK
6
CONTINUOUS
10
4.50715
20
-3.89079
11
4.49316
21
-3.90478
0
LINE
8
BLACK
6
CONTINUOUS
10
4.49316
20
-3.90478
11
4.47671
21
-3.91577
0
LINE
8
BLACK
6
CONTINUOUS
10
4.47671
20
-3.91577
11
4.47671
21
-3.91577
0
LINE
8
BLACK
6
CONTINUOUS
10
4.47671
20
-3.91577
11
4.47671
21
-3.91577
0
LINE
8
BLACK
6
CONTINUOUS
10
4.47671
20
-3.91577
11
4.45843
21
-3.92335
0
LINE
8
BLACK
6
CONTINUOUS
10
4.45843
20
-3.92335
11
4.43903
21
-3.9272
0
LINE
8
BLACK
6
CONTINUOUS
10
4.43903
20
-3.9272
11
4.41924
21
-3.9272
0
LINE
8
BLACK
6
CONTINUOUS
10
4.41924
20
-3.9272
11
4.39984
21
-3.92335
0
LINE
8
BLACK
6
CONTINUOUS
10
4.39984
20
-3.92335
11
4.38156
21
-3.91577
0
LINE
8
BLACK
6
CONTINUOUS
10
4.38156
20
-3.91577
11
4.38156
21
-3.91577
0
LINE
8
BLACK
6
CONTINUOUS
10
4.38156
20
-3.91577
11
4.38156
21
-3.91577
0
LINE
8
BLACK
6
CONTINUOUS
10
4.38156
20
-3.91577
11
4.36511
21
-3.90478
0
LINE
8
BLACK
6
CONTINUOUS
10
4.36511
20
-3.90478
11
4.35112
21
-3.89079
0
LINE
8
BLACK
6
CONTINUOUS
10
4.35112
20
-3.89079
11
4.34013
21
-3.87434
0
LINE
8
BLACK
6
CONTINUOUS
10
4.34013
20
-3.87434
11
4.34013
21
-3.87434
0
LINE
8
BLACK
6
CONTINUOUS
10
4.34013
20
-3.87434
11
4.33256
21
-3.85607
0
LINE
8
BLACK
6
CONTINUOUS
10
4.33256
20
-3.85607
11
4.3287
21
-3.83666
0
LINE
8
BLACK
6
CONTINUOUS
10
4.3287
20
-3.83666
11
4.3287
21
-3.81688
0
LINE
8
BLACK
6
CONTINUOUS
10
4.3287
20
-3.81688
11
4.33256
21
-3.79748
0
LINE
8
BLACK
6
CONTINUOUS
10
4.33256
20
-3.79748
11
4.34013
21
-3.7792
0
LINE
8
BLACK
6
CONTINUOUS
10
4.34013
20
-3.7792
11
4.34013
21
-3.7792
0
LINE
8
BLACK
6
CONTINUOUS
10
4.34013
20
-3.7792
11
4.35112
21
-3.76275
0
LINE
8
BLACK
6
CONTINUOUS
10
4.35112
20
-3.76275
11
4.36511
21
-3.74876
0
LINE
8
BLACK
6
CONTINUOUS
10
4.36511
20
-3.74876
11
4.38156
21
-3.73777
0
LINE
8
BLACK
6
CONTINUOUS
10
4.38156
20
-3.73777
11
4.38156
21
-3.73777
0
LINE
8
BLACK
6
CONTINUOUS
10
4.38156
20
-3.73777
11
4.39984
21
-3.7302
0
LINE
8
BLACK
6
CONTINUOUS
10
4.39984
20
-3.7302
11
4.41924
21
-3.72634
0
LINE
8
BLACK
6
CONTINUOUS
10
4.41924
20
-3.72634
11
4.43903
21
-3.72634
0
LINE
8
BLACK
6
CONTINUOUS
10
4.43903
20
-3.72634
11
4.45843
21
-3.7302
0
LINE
8
BLACK
6
CONTINUOUS
10
2.10804
20
-3.7302
11
2.12631
21
-3.73777
0
LINE
8
BLACK
6
CONTINUOUS
10
2.12631
20
-3.73777
11
2.12631
21
-3.73777
0
LINE
8
BLACK
6
CONTINUOUS
10
2.12631
20
-3.73777
11
2.14276
21
-3.74876
0
LINE
8
BLACK
6
CONTINUOUS
10
2.14276
20
-3.74876
11
2.15675
21
-3.76275
0
LINE
8
BLACK
6
CONTINUOUS
10
2.15675
20
-3.76275
11
2.16774
21
-3.7792
0
LINE
8
BLACK
6
CONTINUOUS
10
2.16774
20
-3.7792
11
2.16774
21
-3.7792
0
LINE
8
BLACK
6
CONTINUOUS
10
2.16774
20
-3.7792
11
2.17531
21
-3.79748
0
LINE
8
BLACK
6
CONTINUOUS
10
2.17531
20
-3.79748
11
2.17917
21
-3.81688
0
LINE
8
BLACK
6
CONTINUOUS
10
2.17917
20
-3.81688
11
2.17917
21
-3.83666
0
LINE
8
BLACK
6
CONTINUOUS
10
2.17917
20
-3.83666
11
2.17531
21
-3.85607
0
LINE
8
BLACK
6
CONTINUOUS
10
2.17531
20
-3.85607
11
2.16774
21
-3.87434
0
LINE
8
BLACK
6
CONTINUOUS
10
2.16774
20
-3.87434
11
2.16774
21
-3.87434
0
LINE
8
BLACK
6
CONTINUOUS
10
2.16774
20
-3.87434
11
2.15675
21
-3.89079
0
LINE
8
BLACK
6
CONTINUOUS
10
2.15675
20
-3.89079
11
2.14276
21
-3.90478
0
LINE
8
BLACK
6
CONTINUOUS
10
2.14276
20
-3.90478
11
2.12631
21
-3.91577
0
LINE
8
BLACK
6
CONTINUOUS
10
2.12631
20
-3.91577
11
2.12631
21
-3.91577
0
LINE
8
BLACK
6
CONTINUOUS
10
2.12631
20
-3.91577
11
2.12631
21
-3.91577
0
LINE
8
BLACK
6
CONTINUOUS
10
2.12631
20
-3.91577
11
2.10804
21
-3.92335
0
LINE
8
BLACK
6
CONTINUOUS
10
2.10804
20
-3.92335
11
2.08863
21
-3.9272
0
LINE
8
BLACK
6
CONTINUOUS
10
2.08863
20
-3.9272
11
2.06885
21
-3.9272
0
LINE
8
BLACK
6
CONTINUOUS
10
2.06885
20
-3.9272
11
2.04944
21
-3.92335
0
LINE
8
BLACK
6
CONTINUOUS
10
2.04944
20
-3.92335
11
2.03117
21
-3.91577
0
LINE
8
BLACK
6
CONTINUOUS
10
2.03117
20
-3.91577
11
2.03117
21
-3.91577
0
LINE
8
BLACK
6
CONTINUOUS
10
2.03117
20
-3.91577
11
2.03117
21
-3.91577
0
LINE
8
BLACK
6
CONTINUOUS
10
2.03117
20
-3.91577
11
2.01472
21
-3.90478
0
LINE
8
BLACK
6
CONTINUOUS
10
2.01472
20
-3.90478
11
2.00073
21
-3.89079
0
LINE
8
BLACK
6
CONTINUOUS
10
2.00073
20
-3.89079
11
1.98974
21
-3.87434
0
LINE
8
BLACK
6
CONTINUOUS
10
1.98974
20
-3.87434
11
1.98974
21
-3.87434
0
LINE
8
BLACK
6
CONTINUOUS
10
1.98974
20
-3.87434
11
1.98217
21
-3.85607
0
LINE
8
BLACK
6
CONTINUOUS
10
1.98217
20
-3.85607
11
1.97831
21
-3.83666
0
LINE
8
BLACK
6
CONTINUOUS
10
1.97831
20
-3.83666
11
1.97831
21
-3.81688
0
LINE
8
BLACK
6
CONTINUOUS
10
1.97831
20
-3.81688
11
1.98217
21
-3.79748
0
LINE
8
BLACK
6
CONTINUOUS
10
1.98217
20
-3.79748
11
1.98974
21
-3.7792
0
LINE
8
BLACK
6
CONTINUOUS
10
1.98974
20
-3.7792
11
1.98974
21
-3.7792
0
LINE
8
BLACK
6
CONTINUOUS
10
1.98974
20
-3.7792
11
2.00073
21
-3.76275
0
LINE
8
BLACK
6
CONTINUOUS
10
2.00073
20
-3.76275
11
2.01472
21
-3.74876
0
LINE
8
BLACK
6
CONTINUOUS
10
2.01472
20
-3.74876
11
2.03117
21
-3.73777
0
LINE
8
BLACK
6
CONTINUOUS
10
2.03117
20
-3.73777
11
2.03117
21
-3.73777
0
LINE
8
BLACK
6
CONTINUOUS
10
2.03117
20
-3.73777
11
2.04944
21
-3.7302
0
LINE
8
BLACK
6
CONTINUOUS
10
2.04944
20
-3.7302
11
2.06885
21
-3.72634
0
LINE
8
BLACK
6
CONTINUOUS
10
2.06885
20
-3.72634
11
2.08863
21
-3.72634
0
LINE
8
BLACK
6
CONTINUOUS
10
2.08863
20
-3.72634
11
2.10804
21
-3.7302
0
LINE
8
BLACK
6
CONTINUOUS
10
5.82457
20
-3.7302
11
5.84285
21
-3.73777
0
LINE
8
BLACK
6
CONTINUOUS
10
5.84285
20
-3.73777
11
5.84285
21
-3.73777
0
LINE
8
BLACK
6
CONTINUOUS
10
5.84285
20
-3.73777
11
5.8593
21
-3.74876
0
LINE
8
BLACK
6
CONTINUOUS
10
5.8593
20
-3.74876
11
5.87329
21
-3.76275
0
LINE
8
BLACK
6
CONTINUOUS
10
5.87329
20
-3.76275
11
5.88428
21
-3.7792
0
LINE
8
BLACK
6
CONTINUOUS
10
5.88428
20
-3.7792
11
5.88428
21
-3.7792
0
LINE
8
BLACK
6
CONTINUOUS
10
5.88428
20
-3.7792
11
5.89185
21
-3.79748
0
LINE
8
BLACK
6
CONTINUOUS
10
5.89185
20
-3.79748
11
5.89571
21
-3.81688
0
LINE
8
BLACK
6
CONTINUOUS
10
5.89571
20
-3.81688
11
5.89571
21
-3.83666
0
LINE
8
BLACK
6
CONTINUOUS
10
5.89571
20
-3.83666
11
5.89185
21
-3.85607
0
LINE
8
BLACK
6
CONTINUOUS
10
5.89185
20
-3.85607
11
5.88428
21
-3.87434
0
LINE
8
BLACK
6
CONTINUOUS
10
5.88428
20
-3.87434
11
5.88428
21
-3.87434
0
LINE
8
BLACK
6
CONTINUOUS
10
5.88428
20
-3.87434
11
5.87329
21
-3.89079
0
LINE
8
BLACK
6
CONTINUOUS
10
5.87329
20
-3.89079
11
5.8593
21
-3.90478
0
LINE
8
BLACK
6
CONTINUOUS
10
5.8593
20
-3.90478
11
5.84285
21
-3.91577
0
LINE
8
BLACK
6
CONTINUOUS
10
5.84285
20
-3.91577
11
5.84285
21
-3.91577
0
LINE
8
BLACK
6
CONTINUOUS
10
5.84285
20
-3.91577
11
5.84285
21
-3.91577
0
LINE
8
BLACK
6
CONTINUOUS
10
5.84285
20
-3.91577
11
5.82457
21
-3.92335
0
LINE
8
BLACK
6
CONTINUOUS
10
5.82457
20
-3.92335
11
5.80517
21
-3.9272
0
LINE
8
BLACK
6
CONTINUOUS
10
5.80517
20
-3.9272
11
5.78538
21
-3.9272
0
LINE
8
BLACK
6
CONTINUOUS
10
5.78538
20
-3.9272
11
5.76598
21
-3.92335
0
LINE
8
BLACK
6
CONTINUOUS
10
5.76598
20
-3.92335
11
5.7477
21
-3.91577
0
LINE
8
BLACK
6
CONTINUOUS
10
5.7477
20
-3.91577
11
5.7477
21
-3.91577
0
LINE
8
BLACK
6
CONTINUOUS
10
5.7477
20
-3.91577
11
5.7477
21
-3.91577
0
LINE
8
BLACK
6
CONTINUOUS
10
5.7477
20
-3.91577
11
5.73125
21
-3.90478
0
LINE
8
BLACK
6
CONTINUOUS
10
5.73125
20
-3.90478
11
5.71726
21
-3.89079
0
LINE
8
BLACK
6
CONTINUOUS
10
5.71726
20
-3.89079
11
5.70627
21
-3.87434
0
LINE
8
BLACK
6
CONTINUOUS
10
5.70627
20
-3.87434
11
5.70627
21
-3.87434
0
LINE
8
BLACK
6
CONTINUOUS
10
5.70627
20
-3.87434
11
5.6987
21
-3.85607
0
LINE
8
BLACK
6
CONTINUOUS
10
5.6987
20
-3.85607
11
5.69484
21
-3.83666
0
LINE
8
BLACK
6
CONTINUOUS
10
5.69484
20
-3.83666
11
5.69484
21
-3.81688
0
LINE
8
BLACK
6
CONTINUOUS
10
5.69484
20
-3.81688
11
5.6987
21
-3.79748
0
LINE
8
BLACK
6
CONTINUOUS
10
5.6987
20
-3.79748
11
5.70627
21
-3.7792
0
LINE
8
BLACK
6
CONTINUOUS
10
5.70627
20
-3.7792
11
5.70627
21
-3.7792
0
LINE
8
BLACK
6
CONTINUOUS
10
5.70627
20
-3.7792
11
5.71726
21
-3.76275
0
LINE
8
BLACK
6
CONTINUOUS
10
5.71726
20
-3.76275
11
5.73125
21
-3.74876
0
LINE
8
BLACK
6
CONTINUOUS
10
5.73125
20
-3.74876
11
5.7477
21
-3.73777
0
LINE
8
BLACK
6
CONTINUOUS
10
5.7477
20
-3.73777
11
5.7477
21
-3.73777
0
LINE
8
BLACK
6
CONTINUOUS
10
5.7477
20
-3.73777
11
5.76598
21
-3.7302
0
LINE
8
BLACK
6
CONTINUOUS
10
5.76598
20
-3.7302
11
5.78538
21
-3.72634
0
LINE
8
BLACK
6
CONTINUOUS
10
5.78538
20
-3.72634
11
5.80517
21
-3.72634
0
LINE
8
BLACK
6
CONTINUOUS
10
5.80517
20
-3.72634
11
5.82457
21
-3.7302
0
LINE
8
BLACK
6
CONTINUOUS
10
4.50299
20
-3.36815
11
4.3415
21
-3.36815
0
LINE
8
BLACK
6
CONTINUOUS
10
4.3415
20
-3.36815
11
4.3415
21
-3.24602
0
LINE
8
BLACK
6
CONTINUOUS
10
4.3415
20
-3.24602
11
4.50299
21
-3.24602
0
LINE
8
BLACK
6
CONTINUOUS
10
4.50299
20
-3.24602
11
4.50299
21
-3.36815
0
LINE
8
BLACK
6
CONTINUOUS
10
4.50299
20
-3.13193
11
4.3415
21
-3.13193
0
LINE
8
BLACK
6
CONTINUOUS
10
4.3415
20
-3.13193
11
4.3415
21
-3.0098
0
LINE
8
BLACK
6
CONTINUOUS
10
4.3415
20
-3.0098
11
4.50299
21
-3.0098
0
LINE
8
BLACK
6
CONTINUOUS
10
4.50299
20
-3.0098
11
4.50299
21
-3.13193
0
LINE
8
BLACK
6
CONTINUOUS
10
3.92666
20
-2.85111
11
3.93248
21
-2.85352
0
LINE
8
BLACK
6
CONTINUOUS
10
3.93248
20
-2.85352
11
3.93773
21
-2.85703
0
LINE
8
BLACK
6
CONTINUOUS
10
3.93773
20
-2.85703
11
3.94219
21
-2.86149
0
LINE
8
BLACK
6
CONTINUOUS
10
3.94219
20
-2.86149
11
3.94569
21
-2.86673
0
LINE
8
BLACK
6
CONTINUOUS
10
3.94569
20
-2.86673
11
3.9481
21
-2.87255
0
LINE
8
BLACK
6
CONTINUOUS
10
3.9481
20
-2.87255
11
3.94933
21
-2.87874
0
LINE
8
BLACK
6
CONTINUOUS
10
3.94933
20
-2.87874
11
3.94933
21
-2.88504
0
LINE
8
BLACK
6
CONTINUOUS
10
3.94933
20
-2.88504
11
3.9481
21
-2.89123
0
LINE
8
BLACK
6
CONTINUOUS
10
3.9481
20
-2.89123
11
3.94569
21
-2.89705
0
LINE
8
BLACK
6
CONTINUOUS
10
3.94569
20
-2.89705
11
3.94219
21
-2.90229
0
LINE
8
BLACK
6
CONTINUOUS
10
3.94219
20
-2.90229
11
3.93773
21
-2.90675
0
LINE
8
BLACK
6
CONTINUOUS
10
3.93773
20
-2.90675
11
3.93248
21
-2.91025
0
LINE
8
BLACK
6
CONTINUOUS
10
3.93248
20
-2.91025
11
3.92666
21
-2.91267
0
LINE
8
BLACK
6
CONTINUOUS
10
3.92666
20
-2.91267
11
3.92048
21
-2.9139
0
LINE
8
BLACK
6
CONTINUOUS
10
3.92048
20
-2.9139
11
3.91417
21
-2.9139
0
LINE
8
BLACK
6
CONTINUOUS
10
3.91417
20
-2.9139
11
3.90799
21
-2.91267
0
LINE
8
BLACK
6
CONTINUOUS
10
3.90799
20
-2.91267
11
3.90216
21
-2.91025
0
LINE
8
BLACK
6
CONTINUOUS
10
3.90216
20
-2.91025
11
3.89692
21
-2.90675
0
LINE
8
BLACK
6
CONTINUOUS
10
3.89692
20
-2.90675
11
3.89246
21
-2.90229
0
LINE
8
BLACK
6
CONTINUOUS
10
3.89246
20
-2.90229
11
3.88896
21
-2.89705
0
LINE
8
BLACK
6
CONTINUOUS
10
3.88896
20
-2.89705
11
3.88654
21
-2.89123
0
LINE
8
BLACK
6
CONTINUOUS
10
3.88654
20
-2.89123
11
3.88531
21
-2.88504
0
LINE
8
BLACK
6
CONTINUOUS
10
3.88531
20
-2.88504
11
3.88531
21
-2.87874
0
LINE
8
BLACK
6
CONTINUOUS
10
3.88531
20
-2.87874
11
3.88654
21
-2.87255
0
LINE
8
BLACK
6
CONTINUOUS
10
3.88654
20
-2.87255
11
3.88896
21
-2.86673
0
LINE
8
BLACK
6
CONTINUOUS
10
3.88896
20
-2.86673
11
3.89246
21
-2.86149
0
LINE
8
BLACK
6
CONTINUOUS
10
3.89246
20
-2.86149
11
3.89692
21
-2.85703
0
LINE
8
BLACK
6
CONTINUOUS
10
3.89692
20
-2.85703
11
3.90216
21
-2.85352
0
LINE
8
BLACK
6
CONTINUOUS
10
3.90216
20
-2.85352
11
3.90799
21
-2.85111
0
LINE
8
BLACK
6
CONTINUOUS
10
3.90799
20
-2.85111
11
3.91417
21
-2.84988
0
LINE
8
BLACK
6
CONTINUOUS
10
3.91417
20
-2.84988
11
3.92048
21
-2.84988
0
LINE
8
BLACK
6
CONTINUOUS
10
3.92048
20
-2.84988
11
3.92666
21
-2.85111
0
LINE
8
BLACK
6
CONTINUOUS
10
4.03296
20
-2.85111
11
4.03878
21
-2.85352
0
LINE
8
BLACK
6
CONTINUOUS
10
4.03878
20
-2.85352
11
4.04403
21
-2.85703
0
LINE
8
BLACK
6
CONTINUOUS
10
4.04403
20
-2.85703
11
4.04848
21
-2.86149
0
LINE
8
BLACK
6
CONTINUOUS
10
4.04848
20
-2.86149
11
4.05199
21
-2.86673
0
LINE
8
BLACK
6
CONTINUOUS
10
4.05199
20
-2.86673
11
4.0544
21
-2.87255
0
LINE
8
BLACK
6
CONTINUOUS
10
4.0544
20
-2.87255
11
4.05563
21
-2.87874
0
LINE
8
BLACK
6
CONTINUOUS
10
4.05563
20
-2.87874
11
4.05563
21
-2.88504
0
LINE
8
BLACK
6
CONTINUOUS
10
4.05563
20
-2.88504
11
4.0544
21
-2.89123
0
LINE
8
BLACK
6
CONTINUOUS
10
4.0544
20
-2.89123
11
4.05199
21
-2.89705
0
LINE
8
BLACK
6
CONTINUOUS
10
4.05199
20
-2.89705
11
4.04848
21
-2.90229
0
LINE
8
BLACK
6
CONTINUOUS
10
4.04848
20
-2.90229
11
4.04403
21
-2.90675
0
LINE
8
BLACK
6
CONTINUOUS
10
4.04403
20
-2.90675
11
4.03878
21
-2.91025
0
LINE
8
BLACK
6
CONTINUOUS
10
4.03878
20
-2.91025
11
4.03296
21
-2.91267
0
LINE
8
BLACK
6
CONTINUOUS
10
4.03296
20
-2.91267
11
4.02677
21
-2.9139
0
LINE
8
BLACK
6
CONTINUOUS
10
4.02677
20
-2.9139
11
4.02047
21
-2.9139
0
LINE
8
BLACK
6
CONTINUOUS
10
4.02047
20
-2.9139
11
4.01429
21
-2.91267
0
LINE
8
BLACK
6
CONTINUOUS
10
4.01429
20
-2.91267
11
4.00846
21
-2.91025
0
LINE
8
BLACK
6
CONTINUOUS
10
4.00846
20
-2.91025
11
4.00322
21
-2.90675
0
LINE
8
BLACK
6
CONTINUOUS
10
4.00322
20
-2.90675
11
3.99876
21
-2.90229
0
LINE
8
BLACK
6
CONTINUOUS
10
3.99876
20
-2.90229
11
3.99526
21
-2.89705
0
LINE
8
BLACK
6
CONTINUOUS
10
3.99526
20
-2.89705
11
3.99284
21
-2.89123
0
LINE
8
BLACK
6
CONTINUOUS
10
3.99284
20
-2.89123
11
3.99161
21
-2.88504
0
LINE
8
BLACK
6
CONTINUOUS
10
3.99161
20
-2.88504
11
3.99161
21
-2.87874
0
LINE
8
BLACK
6
CONTINUOUS
10
3.99161
20
-2.87874
11
3.99284
21
-2.87255
0
LINE
8
BLACK
6
CONTINUOUS
10
3.99284
20
-2.87255
11
3.99526
21
-2.86673
0
LINE
8
BLACK
6
CONTINUOUS
10
3.99526
20
-2.86673
11
3.99876
21
-2.86149
0
LINE
8
BLACK
6
CONTINUOUS
10
3.99876
20
-2.86149
11
4.00322
21
-2.85703
0
LINE
8
BLACK
6
CONTINUOUS
10
4.00322
20
-2.85703
11
4.00846
21
-2.85352
0
LINE
8
BLACK
6
CONTINUOUS
10
4.00846
20
-2.85352
11
4.01429
21
-2.85111
0
LINE
8
BLACK
6
CONTINUOUS
10
4.01429
20
-2.85111
11
4.02047
21
-2.84988
0
LINE
8
BLACK
6
CONTINUOUS
10
4.02047
20
-2.84988
11
4.02677
21
-2.84988
0
LINE
8
BLACK
6
CONTINUOUS
10
4.02677
20
-2.84988
11
4.03296
21
-2.85111
0
LINE
8
BLACK
6
CONTINUOUS
10
3.92666
20
-2.77631
11
3.93248
21
-2.77872
0
LINE
8
BLACK
6
CONTINUOUS
10
3.93248
20
-2.77872
11
3.93773
21
-2.78222
0
LINE
8
BLACK
6
CONTINUOUS
10
3.93773
20
-2.78222
11
3.94219
21
-2.78668
0
LINE
8
BLACK
6
CONTINUOUS
10
3.94219
20
-2.78668
11
3.94569
21
-2.79193
0
LINE
8
BLACK
6
CONTINUOUS
10
3.94569
20
-2.79193
11
3.9481
21
-2.79775
0
LINE
8
BLACK
6
CONTINUOUS
10
3.9481
20
-2.79775
11
3.94933
21
-2.80393
0
LINE
8
BLACK
6
CONTINUOUS
10
3.94933
20
-2.80393
11
3.94933
21
-2.81024
0
LINE
8
BLACK
6
CONTINUOUS
10
3.94933
20
-2.81024
11
3.9481
21
-2.81642
0
LINE
8
BLACK
6
CONTINUOUS
10
3.9481
20
-2.81642
11
3.94569
21
-2.82225
0
LINE
8
BLACK
6
CONTINUOUS
10
3.94569
20
-2.82225
11
3.94219
21
-2.82749
0
LINE
8
BLACK
6
CONTINUOUS
10
3.94219
20
-2.82749
11
3.93773
21
-2.83195
0
LINE
8
BLACK
6
CONTINUOUS
10
3.93773
20
-2.83195
11
3.93248
21
-2.83545
0
LINE
8
BLACK
6
CONTINUOUS
10
3.93248
20
-2.83545
11
3.92666
21
-2.83786
0
LINE
8
BLACK
6
CONTINUOUS
10
3.92666
20
-2.83786
11
3.92048
21
-2.83909
0
LINE
8
BLACK
6
CONTINUOUS
10
3.92048
20
-2.83909
11
3.91417
21
-2.83909
0
LINE
8
BLACK
6
CONTINUOUS
10
3.91417
20
-2.83909
11
3.90799
21
-2.83786
0
LINE
8
BLACK
6
CONTINUOUS
10
3.90799
20
-2.83786
11
3.90216
21
-2.83545
0
LINE
8
BLACK
6
CONTINUOUS
10
3.90216
20
-2.83545
11
3.89692
21
-2.83195
0
LINE
8
BLACK
6
CONTINUOUS
10
3.89692
20
-2.83195
11
3.89246
21
-2.82749
0
LINE
8
BLACK
6
CONTINUOUS
10
3.89246
20
-2.82749
11
3.88896
21
-2.82225
0
LINE
8
BLACK
6
CONTINUOUS
10
3.88896
20
-2.82225
11
3.88654
21
-2.81642
0
LINE
8
BLACK
6
CONTINUOUS
10
3.88654
20
-2.81642
11
3.88531
21
-2.81024
0
LINE
8
BLACK
6
CONTINUOUS
10
3.88531
20
-2.81024
11
3.88531
21
-2.80393
0
LINE
8
BLACK
6
CONTINUOUS
10
3.88531
20
-2.80393
11
3.88654
21
-2.79775
0
LINE
8
BLACK
6
CONTINUOUS
10
3.88654
20
-2.79775
11
3.88896
21
-2.79193
0
LINE
8
BLACK
6
CONTINUOUS
10
3.88896
20
-2.79193
11
3.89246
21
-2.78668
0
LINE
8
BLACK
6
CONTINUOUS
10
3.89246
20
-2.78668
11
3.89692
21
-2.78222
0
LINE
8
BLACK
6
CONTINUOUS
10
3.89692
20
-2.78222
11
3.90216
21
-2.77872
0
LINE
8
BLACK
6
CONTINUOUS
10
3.90216
20
-2.77872
11
3.90799
21
-2.77631
0
LINE
8
BLACK
6
CONTINUOUS
10
3.90799
20
-2.77631
11
3.91417
21
-2.77508
0
LINE
8
BLACK
6
CONTINUOUS
10
3.91417
20
-2.77508
11
3.92048
21
-2.77508
0
LINE
8
BLACK
6
CONTINUOUS
10
3.92048
20
-2.77508
11
3.92666
21
-2.77631
0
LINE
8
BLACK
6
CONTINUOUS
10
2.83911
20
-2.64819
11
2.84499
21
-2.64936
0
LINE
8
BLACK
6
CONTINUOUS
10
2.84499
20
-2.64936
11
2.85145
21
-2.65203
0
LINE
8
BLACK
6
CONTINUOUS
10
2.85145
20
-2.65203
11
2.85726
21
-2.65591
0
LINE
8
BLACK
6
CONTINUOUS
10
2.85726
20
-2.65591
11
2.8622
21
-2.66085
0
LINE
8
BLACK
6
CONTINUOUS
10
2.8622
20
-2.66085
11
2.86608
21
-2.66666
0
LINE
8
BLACK
6
CONTINUOUS
10
2.86608
20
-2.66666
11
2.86875
21
-2.67312
0
LINE
8
BLACK
6
CONTINUOUS
10
2.86875
20
-2.67312
11
2.87012
21
-2.67997
0
LINE
8
BLACK
6
CONTINUOUS
10
2.87012
20
-2.67997
11
2.87012
21
-2.68696
0
LINE
8
BLACK
6
CONTINUOUS
10
2.87012
20
-2.68696
11
2.86875
21
-2.69381
0
LINE
8
BLACK
6
CONTINUOUS
10
2.86875
20
-2.69381
11
2.86608
21
-2.70027
0
LINE
8
BLACK
6
CONTINUOUS
10
2.86608
20
-2.70027
11
2.8622
21
-2.70608
0
LINE
8
BLACK
6
CONTINUOUS
10
2.8622
20
-2.70608
11
2.85726
21
-2.71102
0
LINE
8
BLACK
6
CONTINUOUS
10
2.85726
20
-2.71102
11
2.85145
21
-2.7149
0
LINE
8
BLACK
6
CONTINUOUS
10
2.85145
20
-2.7149
11
2.84499
21
-2.71757
0
LINE
8
BLACK
6
CONTINUOUS
10
2.84499
20
-2.71757
11
2.83911
21
-2.71874
0
LINE
8
BLACK
6
CONTINUOUS
10
2.83911
20
-2.71874
11
2.83814
21
-2.71894
0
LINE
8
BLACK
6
CONTINUOUS
10
2.83814
20
-2.71894
11
2.83115
21
-2.71894
0
LINE
8
BLACK
6
CONTINUOUS
10
2.83115
20
-2.71894
11
2.83018
21
-2.71874
0
LINE
8
BLACK
6
CONTINUOUS
10
2.83018
20
-2.71874
11
2.8243
21
-2.71757
0
LINE
8
BLACK
6
CONTINUOUS
10
2.8243
20
-2.71757
11
2.81784
21
-2.7149
0
LINE
8
BLACK
6
CONTINUOUS
10
2.81784
20
-2.7149
11
2.81203
21
-2.71102
0
LINE
8
BLACK
6
CONTINUOUS
10
2.81203
20
-2.71102
11
2.80709
21
-2.70608
0
LINE
8
BLACK
6
CONTINUOUS
10
2.80709
20
-2.70608
11
2.80321
21
-2.70027
0
LINE
8
BLACK
6
CONTINUOUS
10
2.80321
20
-2.70027
11
2.80054
21
-2.69381
0
LINE
8
BLACK
6
CONTINUOUS
10
2.80054
20
-2.69381
11
2.79917
21
-2.68696
0
LINE
8
BLACK
6
CONTINUOUS
10
2.79917
20
-2.68696
11
2.79917
21
-2.67997
0
LINE
8
BLACK
6
CONTINUOUS
10
2.79917
20
-2.67997
11
2.80054
21
-2.67312
0
LINE
8
BLACK
6
CONTINUOUS
10
2.80054
20
-2.67312
11
2.80321
21
-2.66666
0
LINE
8
BLACK
6
CONTINUOUS
10
2.80321
20
-2.66666
11
2.80709
21
-2.66085
0
LINE
8
BLACK
6
CONTINUOUS
10
2.80709
20
-2.66085
11
2.81203
21
-2.65591
0
LINE
8
BLACK
6
CONTINUOUS
10
2.81203
20
-2.65591
11
2.81784
21
-2.65203
0
LINE
8
BLACK
6
CONTINUOUS
10
2.81784
20
-2.65203
11
2.8243
21
-2.64936
0
LINE
8
BLACK
6
CONTINUOUS
10
2.8243
20
-2.64936
11
2.83018
21
-2.64819
0
LINE
8
BLACK
6
CONTINUOUS
10
2.83018
20
-2.64819
11
2.83115
21
-2.64799
0
LINE
8
BLACK
6
CONTINUOUS
10
2.83115
20
-2.64799
11
2.83814
21
-2.64799
0
LINE
8
BLACK
6
CONTINUOUS
10
2.83814
20
-2.64799
11
2.83911
21
-2.64819
0
LINE
8
BLACK
6
CONTINUOUS
10
2.83911
20
-2.54819
11
2.84499
21
-2.54936
0
LINE
8
BLACK
6
CONTINUOUS
10
2.84499
20
-2.54936
11
2.85145
21
-2.55203
0
LINE
8
BLACK
6
CONTINUOUS
10
2.85145
20
-2.55203
11
2.85726
21
-2.55591
0
LINE
8
BLACK
6
CONTINUOUS
10
2.85726
20
-2.55591
11
2.8622
21
-2.56085
0
LINE
8
BLACK
6
CONTINUOUS
10
2.8622
20
-2.56085
11
2.86608
21
-2.56666
0
LINE
8
BLACK
6
CONTINUOUS
10
2.86608
20
-2.56666
11
2.86875
21
-2.57312
0
LINE
8
BLACK
6
CONTINUOUS
10
2.86875
20
-2.57312
11
2.87012
21
-2.57997
0
LINE
8
BLACK
6
CONTINUOUS
10
2.87012
20
-2.57997
11
2.87012
21
-2.58696
0
LINE
8
BLACK
6
CONTINUOUS
10
2.87012
20
-2.58696
11
2.86875
21
-2.59381
0
LINE
8
BLACK
6
CONTINUOUS
10
2.86875
20
-2.59381
11
2.86608
21
-2.60027
0
LINE
8
BLACK
6
CONTINUOUS
10
2.86608
20
-2.60027
11
2.8622
21
-2.60608
0
LINE
8
BLACK
6
CONTINUOUS
10
2.8622
20
-2.60608
11
2.85726
21
-2.61102
0
LINE
8
BLACK
6
CONTINUOUS
10
2.85726
20
-2.61102
11
2.85145
21
-2.6149
0
LINE
8
BLACK
6
CONTINUOUS
10
2.85145
20
-2.6149
11
2.84499
21
-2.61757
0
LINE
8
BLACK
6
CONTINUOUS
10
2.84499
20
-2.61757
11
2.83911
21
-2.61874
0
LINE
8
BLACK
6
CONTINUOUS
10
2.83911
20
-2.61874
11
2.83814
21
-2.61894
0
LINE
8
BLACK
6
CONTINUOUS
10
2.83814
20
-2.61894
11
2.83115
21
-2.61894
0
LINE
8
BLACK
6
CONTINUOUS
10
2.83115
20
-2.61894
11
2.83018
21
-2.61874
0
LINE
8
BLACK
6
CONTINUOUS
10
2.83018
20
-2.61874
11
2.8243
21
-2.61757
0
LINE
8
BLACK
6
CONTINUOUS
10
2.8243
20
-2.61757
11
2.81784
21
-2.6149
0
LINE
8
BLACK
6
CONTINUOUS
10
2.81784
20
-2.6149
11
2.81203
21
-2.61102
0
LINE
8
BLACK
6
CONTINUOUS
10
2.81203
20
-2.61102
11
2.80709
21
-2.60608
0
LINE
8
BLACK
6
CONTINUOUS
10
2.80709
20
-2.60608
11
2.80321
21
-2.60027
0
LINE
8
BLACK
6
CONTINUOUS
10
2.80321
20
-2.60027
11
2.80054
21
-2.59381
0
LINE
8
BLACK
6
CONTINUOUS
10
2.80054
20
-2.59381
11
2.79917
21
-2.58696
0
LINE
8
BLACK
6
CONTINUOUS
10
2.79917
20
-2.58696
11
2.79917
21
-2.57997
0
LINE
8
BLACK
6
CONTINUOUS
10
2.79917
20
-2.57997
11
2.80054
21
-2.57312
0
LINE
8
BLACK
6
CONTINUOUS
10
2.80054
20
-2.57312
11
2.80321
21
-2.56666
0
LINE
8
BLACK
6
CONTINUOUS
10
2.80321
20
-2.56666
11
2.80709
21
-2.56085
0
LINE
8
BLACK
6
CONTINUOUS
10
2.80709
20
-2.56085
11
2.81203
21
-2.55591
0
LINE
8
BLACK
6
CONTINUOUS
10
2.81203
20
-2.55591
11
2.81784
21
-2.55203
0
LINE
8
BLACK
6
CONTINUOUS
10
2.81784
20
-2.55203
11
2.8243
21
-2.54936
0
LINE
8
BLACK
6
CONTINUOUS
10
2.8243
20
-2.54936
11
2.83018
21
-2.54819
0
LINE
8
BLACK
6
CONTINUOUS
10
2.83018
20
-2.54819
11
2.83115
21
-2.54799
0
LINE
8
BLACK
6
CONTINUOUS
10
2.83115
20
-2.54799
11
2.83814
21
-2.54799
0
LINE
8
BLACK
6
CONTINUOUS
10
2.83814
20
-2.54799
11
2.83911
21
-2.54819
0
LINE
8
BLACK
6
CONTINUOUS
10
2.83911
20
-2.44819
11
2.84499
21
-2.44936
0
LINE
8
BLACK
6
CONTINUOUS
10
2.84499
20
-2.44936
11
2.85145
21
-2.45203
0
LINE
8
BLACK
6
CONTINUOUS
10
2.85145
20
-2.45203
11
2.85726
21
-2.45591
0
LINE
8
BLACK
6
CONTINUOUS
10
2.85726
20
-2.45591
11
2.8622
21
-2.46085
0
LINE
8
BLACK
6
CONTINUOUS
10
2.8622
20
-2.46085
11
2.86608
21
-2.46666
0
LINE
8
BLACK
6
CONTINUOUS
10
2.86608
20
-2.46666
11
2.86875
21
-2.47312
0
LINE
8
BLACK
6
CONTINUOUS
10
2.86875
20
-2.47312
11
2.87012
21
-2.47997
0
LINE
8
BLACK
6
CONTINUOUS
10
2.87012
20
-2.47997
11
2.87012
21
-2.48696
0
LINE
8
BLACK
6
CONTINUOUS
10
2.87012
20
-2.48696
11
2.86875
21
-2.49381
0
LINE
8
BLACK
6
CONTINUOUS
10
2.86875
20
-2.49381
11
2.86608
21
-2.50027
0
LINE
8
BLACK
6
CONTINUOUS
10
2.86608
20
-2.50027
11
2.8622
21
-2.50608
0
LINE
8
BLACK
6
CONTINUOUS
10
2.8622
20
-2.50608
11
2.85726
21
-2.51102
0
LINE
8
BLACK
6
CONTINUOUS
10
2.85726
20
-2.51102
11
2.85145
21
-2.5149
0
LINE
8
BLACK
6
CONTINUOUS
10
2.85145
20
-2.5149
11
2.84499
21
-2.51757
0
LINE
8
BLACK
6
CONTINUOUS
10
2.84499
20
-2.51757
11
2.83911
21
-2.51874
0
LINE
8
BLACK
6
CONTINUOUS
10
2.83911
20
-2.51874
11
2.83814
21
-2.51894
0
LINE
8
BLACK
6
CONTINUOUS
10
2.83814
20
-2.51894
11
2.83115
21
-2.51894
0
LINE
8
BLACK
6
CONTINUOUS
10
2.83115
20
-2.51894
11
2.83018
21
-2.51874
0
LINE
8
BLACK
6
CONTINUOUS
10
2.83018
20
-2.51874
11
2.8243
21
-2.51757
0
LINE
8
BLACK
6
CONTINUOUS
10
2.8243
20
-2.51757
11
2.81784
21
-2.5149
0
LINE
8
BLACK
6
CONTINUOUS
10
2.81784
20
-2.5149
11
2.81203
21
-2.51102
0
LINE
8
BLACK
6
CONTINUOUS
10
2.81203
20
-2.51102
11
2.80709
21
-2.50608
0
LINE
8
BLACK
6
CONTINUOUS
10
2.80709
20
-2.50608
11
2.80321
21
-2.50027
0
LINE
8
BLACK
6
CONTINUOUS
10
2.80321
20
-2.50027
11
2.80054
21
-2.49381
0
LINE
8
BLACK
6
CONTINUOUS
10
2.80054
20
-2.49381
11
2.79917
21
-2.48696
0
LINE
8
BLACK
6
CONTINUOUS
10
2.79917
20
-2.48696
11
2.79917
21
-2.47997
0
LINE
8
BLACK
6
CONTINUOUS
10
2.79917
20
-2.47997
11
2.80054
21
-2.47312
0
LINE
8
BLACK
6
CONTINUOUS
10
2.80054
20
-2.47312
11
2.80321
21
-2.46666
0
LINE
8
BLACK
6
CONTINUOUS
10
2.80321
20
-2.46666
11
2.80709
21
-2.46085
0
LINE
8
BLACK
6
CONTINUOUS
10
2.80709
20
-2.46085
11
2.81203
21
-2.45591
0
LINE
8
BLACK
6
CONTINUOUS
10
2.81203
20
-2.45591
11
2.81784
21
-2.45203
0
LINE
8
BLACK
6
CONTINUOUS
10
2.81784
20
-2.45203
11
2.8243
21
-2.44936
0
LINE
8
BLACK
6
CONTINUOUS
10
2.8243
20
-2.44936
11
2.83018
21
-2.44819
0
LINE
8
BLACK
6
CONTINUOUS
10
2.83018
20
-2.44819
11
2.83115
21
-2.44799
0
LINE
8
BLACK
6
CONTINUOUS
10
2.83115
20
-2.44799
11
2.83814
21
-2.44799
0
LINE
8
BLACK
6
CONTINUOUS
10
2.83814
20
-2.44799
11
2.83911
21
-2.44819
0
LINE
8
BLACK
6
CONTINUOUS
10
2.83911
20
-2.34819
11
2.84499
21
-2.34936
0
LINE
8
BLACK
6
CONTINUOUS
10
2.84499
20
-2.34936
11
2.85145
21
-2.35203
0
LINE
8
BLACK
6
CONTINUOUS
10
2.85145
20
-2.35203
11
2.85726
21
-2.35591
0
LINE
8
BLACK
6
CONTINUOUS
10
2.85726
20
-2.35591
11
2.8622
21
-2.36085
0
LINE
8
BLACK
6
CONTINUOUS
10
2.8622
20
-2.36085
11
2.86608
21
-2.36666
0
LINE
8
BLACK
6
CONTINUOUS
10
2.86608
20
-2.36666
11
2.86875
21
-2.37312
0
LINE
8
BLACK
6
CONTINUOUS
10
2.86875
20
-2.37312
11
2.87012
21
-2.37997
0
LINE
8
BLACK
6
CONTINUOUS
10
2.87012
20
-2.37997
11
2.87012
21
-2.38696
0
LINE
8
BLACK
6
CONTINUOUS
10
2.87012
20
-2.38696
11
2.86875
21
-2.39381
0
LINE
8
BLACK
6
CONTINUOUS
10
2.86875
20
-2.39381
11
2.86608
21
-2.40027
0
LINE
8
BLACK
6
CONTINUOUS
10
2.86608
20
-2.40027
11
2.8622
21
-2.40608
0
LINE
8
BLACK
6
CONTINUOUS
10
2.8622
20
-2.40608
11
2.85726
21
-2.41102
0
LINE
8
BLACK
6
CONTINUOUS
10
2.85726
20
-2.41102
11
2.85145
21
-2.4149
0
LINE
8
BLACK
6
CONTINUOUS
10
2.85145
20
-2.4149
11
2.84499
21
-2.41757
0
LINE
8
BLACK
6
CONTINUOUS
10
2.84499
20
-2.41757
11
2.83911
21
-2.41874
0
LINE
8
BLACK
6
CONTINUOUS
10
2.83911
20
-2.41874
11
2.83814
21
-2.41894
0
LINE
8
BLACK
6
CONTINUOUS
10
2.83814
20
-2.41894
11
2.83115
21
-2.41894
0
LINE
8
BLACK
6
CONTINUOUS
10
2.83115
20
-2.41894
11
2.83018
21
-2.41874
0
LINE
8
BLACK
6
CONTINUOUS
10
2.83018
20
-2.41874
11
2.8243
21
-2.41757
0
LINE
8
BLACK
6
CONTINUOUS
10
2.8243
20
-2.41757
11
2.81784
21
-2.4149
0
LINE
8
BLACK
6
CONTINUOUS
10
2.81784
20
-2.4149
11
2.81203
21
-2.41102
0
LINE
8
BLACK
6
CONTINUOUS
10
2.81203
20
-2.41102
11
2.80709
21
-2.40608
0
LINE
8
BLACK
6
CONTINUOUS
10
2.80709
20
-2.40608
11
2.80321
21
-2.40027
0
LINE
8
BLACK
6
CONTINUOUS
10
2.80321
20
-2.40027
11
2.80054
21
-2.39381
0
LINE
8
BLACK
6
CONTINUOUS
10
2.80054
20
-2.39381
11
2.79917
21
-2.38696
0
LINE
8
BLACK
6
CONTINUOUS
10
2.79917
20
-2.38696
11
2.79917
21
-2.37997
0
LINE
8
BLACK
6
CONTINUOUS
10
2.79917
20
-2.37997
11
2.80054
21
-2.37312
0
LINE
8
BLACK
6
CONTINUOUS
10
2.80054
20
-2.37312
11
2.80321
21
-2.36666
0
LINE
8
BLACK
6
CONTINUOUS
10
2.80321
20
-2.36666
11
2.80709
21
-2.36085
0
LINE
8
BLACK
6
CONTINUOUS
10
2.80709
20
-2.36085
11
2.81203
21
-2.35591
0
LINE
8
BLACK
6
CONTINUOUS
10
2.81203
20
-2.35591
11
2.81784
21
-2.35203
0
LINE
8
BLACK
6
CONTINUOUS
10
2.81784
20
-2.35203
11
2.8243
21
-2.34936
0
LINE
8
BLACK
6
CONTINUOUS
10
2.8243
20
-2.34936
11
2.83018
21
-2.34819
0
LINE
8
BLACK
6
CONTINUOUS
10
2.83018
20
-2.34819
11
2.83115
21
-2.34799
0
LINE
8
BLACK
6
CONTINUOUS
10
2.83115
20
-2.34799
11
2.83814
21
-2.34799
0
LINE
8
BLACK
6
CONTINUOUS
10
2.83814
20
-2.34799
11
2.83911
21
-2.34819
0
LINE
8
BLACK
6
CONTINUOUS
10
2.87012
20
-2.31894
11
2.79917
21
-2.31894
0
LINE
8
BLACK
6
CONTINUOUS
10
2.79917
20
-2.31894
11
2.79917
21
-2.24799
0
LINE
8
BLACK
6
CONTINUOUS
10
2.79917
20
-2.24799
11
2.87012
21
-2.24799
0
LINE
8
BLACK
6
CONTINUOUS
10
2.87012
20
-2.24799
11
2.87012
21
-2.31894
0
LINE
8
BLACK
6
CONTINUOUS
10
5.82457
20
-1.98217
11
5.84285
21
-1.98974
0
LINE
8
BLACK
6
CONTINUOUS
10
5.84285
20
-1.98974
11
5.84285
21
-1.98974
0
LINE
8
BLACK
6
CONTINUOUS
10
5.84285
20
-1.98974
11
5.8593
21
-2.00073
0
LINE
8
BLACK
6
CONTINUOUS
10
5.8593
20
-2.00073
11
5.87329
21
-2.01472
0
LINE
8
BLACK
6
CONTINUOUS
10
5.87329
20
-2.01472
11
5.88428
21
-2.03117
0
LINE
8
BLACK
6
CONTINUOUS
10
5.88428
20
-2.03117
11
5.88428
21
-2.03117
0
LINE
8
BLACK
6
CONTINUOUS
10
5.88428
20
-2.03117
11
5.89185
21
-2.04944
0
LINE
8
BLACK
6
CONTINUOUS
10
5.89185
20
-2.04944
11
5.89571
21
-2.06885
0
LINE
8
BLACK
6
CONTINUOUS
10
5.89571
20
-2.06885
11
5.89571
21
-2.08863
0
LINE
8
BLACK
6
CONTINUOUS
10
5.89571
20
-2.08863
11
5.89185
21
-2.10804
0
LINE
8
BLACK
6
CONTINUOUS
10
5.89185
20
-2.10804
11
5.88428
21
-2.12631
0
LINE
8
BLACK
6
CONTINUOUS
10
5.88428
20
-2.12631
11
5.88428
21
-2.12631
0
LINE
8
BLACK
6
CONTINUOUS
10
5.88428
20
-2.12631
11
5.87329
21
-2.14276
0
LINE
8
BLACK
6
CONTINUOUS
10
5.87329
20
-2.14276
11
5.8593
21
-2.15675
0
LINE
8
BLACK
6
CONTINUOUS
10
5.8593
20
-2.15675
11
5.84285
21
-2.16774
0
LINE
8
BLACK
6
CONTINUOUS
10
5.84285
20
-2.16774
11
5.84285
21
-2.16774
0
LINE
8
BLACK
6
CONTINUOUS
10
5.84285
20
-2.16774
11
5.84285
21
-2.16774
0
LINE
8
BLACK
6
CONTINUOUS
10
5.84285
20
-2.16774
11
5.82457
21
-2.17531
0
LINE
8
BLACK
6
CONTINUOUS
10
5.82457
20
-2.17531
11
5.80517
21
-2.17917
0
LINE
8
BLACK
6
CONTINUOUS
10
5.80517
20
-2.17917
11
5.78538
21
-2.17917
0
LINE
8
BLACK
6
CONTINUOUS
10
5.78538
20
-2.17917
11
5.76598
21
-2.17531
0
LINE
8
BLACK
6
CONTINUOUS
10
5.76598
20
-2.17531
11
5.7477
21
-2.16774
0
LINE
8
BLACK
6
CONTINUOUS
10
5.7477
20
-2.16774
11
5.7477
21
-2.16774
0
LINE
8
BLACK
6
CONTINUOUS
10
5.7477
20
-2.16774
11
5.7477
21
-2.16774
0
LINE
8
BLACK
6
CONTINUOUS
10
5.7477
20
-2.16774
11
5.73125
21
-2.15675
0
LINE
8
BLACK
6
CONTINUOUS
10
5.73125
20
-2.15675
11
5.71726
21
-2.14276
0
LINE
8
BLACK
6
CONTINUOUS
10
5.71726
20
-2.14276
11
5.70627
21
-2.12631
0
LINE
8
BLACK
6
CONTINUOUS
10
5.70627
20
-2.12631
11
5.70627
21
-2.12631
0
LINE
8
BLACK
6
CONTINUOUS
10
5.70627
20
-2.12631
11
5.6987
21
-2.10804
0
LINE
8
BLACK
6
CONTINUOUS
10
5.6987
20
-2.10804
11
5.69484
21
-2.08863
0
LINE
8
BLACK
6
CONTINUOUS
10
5.69484
20
-2.08863
11
5.69484
21
-2.06885
0
LINE
8
BLACK
6
CONTINUOUS
10
5.69484
20
-2.06885
11
5.6987
21
-2.04944
0
LINE
8
BLACK
6
CONTINUOUS
10
5.6987
20
-2.04944
11
5.70627
21
-2.03117
0
LINE
8
BLACK
6
CONTINUOUS
10
5.70627
20
-2.03117
11
5.70627
21
-2.03117
0
LINE
8
BLACK
6
CONTINUOUS
10
5.70627
20
-2.03117
11
5.71726
21
-2.01472
0
LINE
8
BLACK
6
CONTINUOUS
10
5.71726
20
-2.01472
11
5.73125
21
-2.00073
0
LINE
8
BLACK
6
CONTINUOUS
10
5.73125
20
-2.00073
11
5.7477
21
-1.98974
0
LINE
8
BLACK
6
CONTINUOUS
10
5.7477
20
-1.98974
11
5.7477
21
-1.98974
0
LINE
8
BLACK
6
CONTINUOUS
10
5.7477
20
-1.98974
11
5.76598
21
-1.98217
0
LINE
8
BLACK
6
CONTINUOUS
10
5.76598
20
-1.98217
11
5.78538
21
-1.97831
0
LINE
8
BLACK
6
CONTINUOUS
10
5.78538
20
-1.97831
11
5.80517
21
-1.97831
0
LINE
8
BLACK
6
CONTINUOUS
10
5.80517
20
-1.97831
11
5.82457
21
-1.98217
0
LINE
8
BLACK
6
CONTINUOUS
10
3.6041
20
-1.98217
11
3.62238
21
-1.98974
0
LINE
8
BLACK
6
CONTINUOUS
10
3.62238
20
-1.98974
11
3.62238
21
-1.98974
0
LINE
8
BLACK
6
CONTINUOUS
10
3.62238
20
-1.98974
11
3.63883
21
-2.00073
0
LINE
8
BLACK
6
CONTINUOUS
10
3.63883
20
-2.00073
11
3.65281
21
-2.01472
0
LINE
8
BLACK
6
CONTINUOUS
10
3.65281
20
-2.01472
11
3.66381
21
-2.03117
0
LINE
8
BLACK
6
CONTINUOUS
10
3.66381
20
-2.03117
11
3.66381
21
-2.03117
0
LINE
8
BLACK
6
CONTINUOUS
10
3.66381
20
-2.03117
11
3.67138
21
-2.04944
0
LINE
8
BLACK
6
CONTINUOUS
10
3.67138
20
-2.04944
11
3.67524
21
-2.06885
0
LINE
8
BLACK
6
CONTINUOUS
10
3.67524
20
-2.06885
11
3.67524
21
-2.08863
0
LINE
8
BLACK
6
CONTINUOUS
10
3.67524
20
-2.08863
11
3.67138
21
-2.10804
0
LINE
8
BLACK
6
CONTINUOUS
10
3.67138
20
-2.10804
11
3.66381
21
-2.12631
0
LINE
8
BLACK
6
CONTINUOUS
10
3.66381
20
-2.12631
11
3.66381
21
-2.12631
0
LINE
8
BLACK
6
CONTINUOUS
10
3.66381
20
-2.12631
11
3.65281
21
-2.14276
0
LINE
8
BLACK
6
CONTINUOUS
10
3.65281
20
-2.14276
11
3.63883
21
-2.15675
0
LINE
8
BLACK
6
CONTINUOUS
10
3.63883
20
-2.15675
11
3.62238
21
-2.16774
0
LINE
8
BLACK
6
CONTINUOUS
10
3.62238
20
-2.16774
11
3.62238
21
-2.16774
0
LINE
8
BLACK
6
CONTINUOUS
10
3.62238
20
-2.16774
11
3.62238
21
-2.16774
0
LINE
8
BLACK
6
CONTINUOUS
10
3.62238
20
-2.16774
11
3.6041
21
-2.17531
0
LINE
8
BLACK
6
CONTINUOUS
10
3.6041
20
-2.17531
11
3.58469
21
-2.17917
0
LINE
8
BLACK
6
CONTINUOUS
10
3.58469
20
-2.17917
11
3.56491
21
-2.17917
0
LINE
8
BLACK
6
CONTINUOUS
10
3.56491
20
-2.17917
11
3.54551
21
-2.17531
0
LINE
8
BLACK
6
CONTINUOUS
10
3.54551
20
-2.17531
11
3.52723
21
-2.16774
0
LINE
8
BLACK
6
CONTINUOUS
10
3.52723
20
-2.16774
11
3.52723
21
-2.16774
0
LINE
8
BLACK
6
CONTINUOUS
10
3.52723
20
-2.16774
11
3.52723
21
-2.16774
0
LINE
8
BLACK
6
CONTINUOUS
10
3.52723
20
-2.16774
11
3.51078
21
-2.15675
0
LINE
8
BLACK
6
CONTINUOUS
10
3.51078
20
-2.15675
11
3.49679
21
-2.14276
0
LINE
8
BLACK
6
CONTINUOUS
10
3.49679
20
-2.14276
11
3.4858
21
-2.12631
0
LINE
8
BLACK
6
CONTINUOUS
10
3.4858
20
-2.12631
11
3.4858
21
-2.12631
0
LINE
8
BLACK
6
CONTINUOUS
10
3.4858
20
-2.12631
11
3.47823
21
-2.10804
0
LINE
8
BLACK
6
CONTINUOUS
10
3.47823
20
-2.10804
11
3.47437
21
-2.08863
0
LINE
8
BLACK
6
CONTINUOUS
10
3.47437
20
-2.08863
11
3.47437
21
-2.06885
0
LINE
8
BLACK
6
CONTINUOUS
10
3.47437
20
-2.06885
11
3.47823
21
-2.04944
0
LINE
8
BLACK
6
CONTINUOUS
10
3.47823
20
-2.04944
11
3.4858
21
-2.03117
0
LINE
8
BLACK
6
CONTINUOUS
10
3.4858
20
-2.03117
11
3.4858
21
-2.03117
0
LINE
8
BLACK
6
CONTINUOUS
10
3.4858
20
-2.03117
11
3.49679
21
-2.01472
0
LINE
8
BLACK
6
CONTINUOUS
10
3.49679
20
-2.01472
11
3.51078
21
-2.00073
0
LINE
8
BLACK
6
CONTINUOUS
10
3.51078
20
-2.00073
11
3.52723
21
-1.98974
0
LINE
8
BLACK
6
CONTINUOUS
10
3.52723
20
-1.98974
11
3.52723
21
-1.98974
0
LINE
8
BLACK
6
CONTINUOUS
10
3.52723
20
-1.98974
11
3.54551
21
-1.98217
0
LINE
8
BLACK
6
CONTINUOUS
10
3.54551
20
-1.98217
11
3.56491
21
-1.97831
0
LINE
8
BLACK
6
CONTINUOUS
10
3.56491
20
-1.97831
11
3.58469
21
-1.97831
0
LINE
8
BLACK
6
CONTINUOUS
10
3.58469
20
-1.97831
11
3.6041
21
-1.98217
  0
ENDSEC
  0
EOF
