  0
SECTION
  2
HEADER
  9
$ANGBASE
  50
0.0
  9
$ANGDIR
  70
1
  9
$MEASUREMENT
  70
0
  0
ENDSEC
  0
SECTION
  2
TABLES
  0
TABLE
  2
LTYPE
  70
4
  0
LTYPE
  5
40F
  2
CONTINUOUS
  70
0
  3
Solid line
  72
65
  73
0
  40
0.0
  0
LTYPE
  5
410
  2
DASHDOT
 70
0
  3
Dash Dot ____ _ ____ _
 72
65
 73
4
 40
2.0
 49
1.25
 49
-0.25
 49
0.25
 49
-0.25
  0
LTYPE
  5
411
  2
DASHED
 70
0
  3
Dashed __ __ __ __ __
 72
65
 73
2
 40
0.75
 49
0.5
 49
-0.25
  0
LTYPE
  5
43B
  2
DOTTED
 70
0
  3
Dotted .  .  .  .
 72
65
 73
2
 40
0.2
 49
0.0
 49
-0.2
  0
ENDTAB
  0
TABLE
  2
STYLE
  70
4
  0
STYLE
  2
KICAD
  70
0
  40
0
  41
1
  42
1
  50
0
  71
0
  3
isocp.shx
  0
STYLE
  2
KICADB
  70
0
  40
0
  41
1
  42
1
  50
0
  71
0
  3
isocp.shx
  0
STYLE
  2
KICADI
  70
0
  40
0
  41
1
  42
1
  50
15
  71
0
  3
isocp.shx
  0
STYLE
  2
KICADBI
  70
0
  40
0
  41
1
  42
1
  50
15
  71
0
  3
isocp.shx
  0
ENDTAB
  0
TABLE
  2
LAYER
  70
1
  0
LAYER
  2
BLACK
  70
0
  62
7
  6
CONTINUOUS
  0
ENDTAB
  0
ENDSEC
  0
SECTION
  2
ENTITIES
0
LINE
8
BLACK
6
CONTINUOUS
10
5.90556
20
-1.96752
11
5.90556
21
-1.96752
0
LINE
8
BLACK
6
CONTINUOUS
10
5.90556
20
-1.96752
11
5.9057
21
-1.96753
0
LINE
8
BLACK
6
CONTINUOUS
10
5.9057
20
-1.96753
11
5.90589
21
-1.96759
0
LINE
8
BLACK
6
CONTINUOUS
10
5.90589
20
-1.96759
11
5.90606
21
-1.96768
0
LINE
8
BLACK
6
CONTINUOUS
10
5.90606
20
-1.96768
11
5.90621
21
-1.9678
0
LINE
8
BLACK
6
CONTINUOUS
10
5.90621
20
-1.9678
11
5.90633
21
-1.96795
0
LINE
8
BLACK
6
CONTINUOUS
10
5.90633
20
-1.96795
11
5.90643
21
-1.96813
0
LINE
8
BLACK
6
CONTINUOUS
10
5.90643
20
-1.96813
11
5.90648
21
-1.96831
0
LINE
8
BLACK
6
CONTINUOUS
10
5.90648
20
-1.96831
11
5.9065
21
-1.9685
0
LINE
8
BLACK
6
CONTINUOUS
10
5.9065
20
-1.9685
11
5.9065
21
-1.96855
0
LINE
8
BLACK
6
CONTINUOUS
10
5.9065
20
-1.96855
11
5.9065
21
-3.93696
0
LINE
8
BLACK
6
CONTINUOUS
10
5.9065
20
-3.93696
11
5.9065
21
-3.93701
0
LINE
8
BLACK
6
CONTINUOUS
10
5.9065
20
-3.93701
11
5.9065
21
-3.93706
0
LINE
8
BLACK
6
CONTINUOUS
10
5.9065
20
-3.93706
11
5.9065
21
-3.93706
0
LINE
8
BLACK
6
CONTINUOUS
10
5.9065
20
-3.93706
11
5.90648
21
-3.9372
0
LINE
8
BLACK
6
CONTINUOUS
10
5.90648
20
-3.9372
11
5.90643
21
-3.93739
0
LINE
8
BLACK
6
CONTINUOUS
10
5.90643
20
-3.93739
11
5.90633
21
-3.93756
0
LINE
8
BLACK
6
CONTINUOUS
10
5.90633
20
-3.93756
11
5.90621
21
-3.93771
0
LINE
8
BLACK
6
CONTINUOUS
10
5.90621
20
-3.93771
11
5.90606
21
-3.93783
0
LINE
8
BLACK
6
CONTINUOUS
10
5.90606
20
-3.93783
11
5.90589
21
-3.93792
0
LINE
8
BLACK
6
CONTINUOUS
10
5.90589
20
-3.93792
11
5.9057
21
-3.93798
0
LINE
8
BLACK
6
CONTINUOUS
10
5.9057
20
-3.93798
11
5.90551
21
-3.938
0
LINE
8
BLACK
6
CONTINUOUS
10
5.90551
20
-3.938
11
5.90546
21
-3.93799
0
LINE
8
BLACK
6
CONTINUOUS
10
5.90546
20
-3.93799
11
1.96855
21
-3.93799
0
LINE
8
BLACK
6
CONTINUOUS
10
1.96855
20
-3.93799
11
1.9685
21
-3.938
0
LINE
8
BLACK
6
CONTINUOUS
10
1.9685
20
-3.938
11
1.96831
21
-3.93798
0
LINE
8
BLACK
6
CONTINUOUS
10
1.96831
20
-3.93798
11
1.96813
21
-3.93792
0
LINE
8
BLACK
6
CONTINUOUS
10
1.96813
20
-3.93792
11
1.96795
21
-3.93783
0
LINE
8
BLACK
6
CONTINUOUS
10
1.96795
20
-3.93783
11
1.9678
21
-3.93771
0
LINE
8
BLACK
6
CONTINUOUS
10
1.9678
20
-3.93771
11
1.96768
21
-3.93756
0
LINE
8
BLACK
6
CONTINUOUS
10
1.96768
20
-3.93756
11
1.96759
21
-3.93739
0
LINE
8
BLACK
6
CONTINUOUS
10
1.96759
20
-3.93739
11
1.96753
21
-3.9372
0
LINE
8
BLACK
6
CONTINUOUS
10
1.96753
20
-3.9372
11
1.96751
21
-3.93701
0
LINE
8
BLACK
6
CONTINUOUS
10
1.96751
20
-3.93701
11
1.96752
21
-3.93696
0
LINE
8
BLACK
6
CONTINUOUS
10
1.96752
20
-3.93696
11
1.96752
21
-1.96855
0
LINE
8
BLACK
6
CONTINUOUS
10
1.96752
20
-1.96855
11
1.96751
21
-1.9685
0
LINE
8
BLACK
6
CONTINUOUS
10
1.96751
20
-1.9685
11
1.96753
21
-1.96831
0
LINE
8
BLACK
6
CONTINUOUS
10
1.96753
20
-1.96831
11
1.96759
21
-1.96813
0
LINE
8
BLACK
6
CONTINUOUS
10
1.96759
20
-1.96813
11
1.96768
21
-1.96795
0
LINE
8
BLACK
6
CONTINUOUS
10
1.96768
20
-1.96795
11
1.9678
21
-1.9678
0
LINE
8
BLACK
6
CONTINUOUS
10
1.9678
20
-1.9678
11
1.96795
21
-1.96768
0
LINE
8
BLACK
6
CONTINUOUS
10
1.96795
20
-1.96768
11
1.96813
21
-1.96759
0
LINE
8
BLACK
6
CONTINUOUS
10
1.96813
20
-1.96759
11
1.96831
21
-1.96753
0
LINE
8
BLACK
6
CONTINUOUS
10
1.96831
20
-1.96753
11
1.96846
21
-1.96752
0
LINE
8
BLACK
6
CONTINUOUS
10
1.96846
20
-1.96752
11
1.96846
21
-1.96752
0
LINE
8
BLACK
6
CONTINUOUS
10
1.96846
20
-1.96752
11
1.9685
21
-1.96751
0
LINE
8
BLACK
6
CONTINUOUS
10
1.9685
20
-1.96751
11
1.96855
21
-1.96752
0
LINE
8
BLACK
6
CONTINUOUS
10
1.96855
20
-1.96752
11
5.90546
21
-1.96752
0
LINE
8
BLACK
6
CONTINUOUS
10
5.90546
20
-1.96752
11
5.90551
21
-1.96751
0
LINE
8
BLACK
6
CONTINUOUS
10
5.90551
20
-1.96751
11
5.90556
21
-1.96752
0
LINE
8
BLACK
6
CONTINUOUS
10
1.96949
20
-1.96949
11
1.96949
21
-3.93602
0
LINE
8
BLACK
6
CONTINUOUS
10
1.96949
20
-3.93602
11
5.90453
21
-3.93602
0
LINE
8
BLACK
6
CONTINUOUS
10
5.90453
20
-3.93602
11
5.90453
21
-1.96949
0
LINE
8
BLACK
6
CONTINUOUS
10
5.90453
20
-1.96949
11
1.96949
21
-1.96949
  0
ENDSEC
  0
EOF
