M48
; DRILL file {KiCad (5.1.5)-3} date 3/29/2021 6:53:51 PM
; FORMAT={-:-/ absolute / inch / decimal}
; #@! TF.CreationDate,2021-03-29T18:53:51-07:00
; #@! TF.GenerationSoftware,Kicad,Pcbnew,(5.1.5)-3
; #@! TF.FileFunction,Plated,1,4,PTH
FMAT,2
INCH
T1C0.0157
T2C0.0300
T3C0.0394
T4C0.0984
%
G90
G05
T1
X1.9922Y-2.9409
X2.0039Y-2.1181
X2.0039Y-2.2874
X2.0063Y-2.159
X2.0079Y-2.9882
X2.0115Y-2.3648
X2.0115Y-2.4127
X2.0118Y-2.248
X2.0119Y-2.1971
X2.0143Y-2.3264
X2.0276Y-2.5079
X2.052Y-2.4505
X2.063Y-3.3898
X2.0748Y-2.2677
X2.0854Y-2.4695
X2.0906Y-3.3465
X2.0981Y-2.5074
X2.0984Y-3.1732
X2.1024Y-3.252
X2.1102Y-3.3031
X2.1305Y-2.5281
X2.1555Y-2.5574
X2.1782Y-2.6157
X2.1869Y-2.1967
X2.189Y-2.7677
X2.189Y-2.8465
X2.2064Y-2.6418
X2.2101Y-2.464
X2.2244Y-3.3031
X2.2296Y-2.5012
X2.2351Y-2.6016
X2.2442Y-2.6492
X2.2598Y-2.8465
X2.2677Y-3.685
X2.3425Y-1.9961
X2.3425Y-2.1882
X2.3425Y-2.4016
X2.3425Y-2.6614
X2.3425Y-2.8465
X2.3583Y-3.7362
X2.3583Y-3.7874
X2.3585Y-2.279
X2.3732Y-2.3334
X2.374Y-2.2244
X2.3976Y-2.3031
X2.4097Y-2.3457
X2.4213Y-1.9961
X2.4213Y-2.0882
X2.4213Y-2.1882
X2.4213Y-2.3882
X2.4449Y-2.2598
X2.5Y-1.9961
X2.5Y-2.0882
X2.5Y-2.1882
X2.5Y-2.2882
X2.5Y-2.4606
X2.5Y-2.6614
X2.5Y-2.8465
X2.5039Y-3.7283
X2.5472Y-3.7283
X2.5787Y-1.9961
X2.5787Y-2.0882
X2.5787Y-2.1882
X2.5787Y-2.2882
X2.5787Y-2.3882
X2.5787Y-2.4606
X2.5787Y-2.6614
X2.5787Y-2.8465
X2.5906Y-3.7283
X2.6575Y-1.9961
X2.6575Y-2.063
X2.6575Y-2.1882
X2.6575Y-2.2882
X2.6575Y-2.3882
X2.6575Y-2.4606
X2.6575Y-2.6614
X2.7087Y-2.0945
X2.7638Y-3.2087
X2.7953Y-3.5433
X2.815Y-2.9213
X2.8346Y-3.1772
X2.8402Y-3.548
X2.9016Y-3.4764
X2.9134Y-3.5433
X2.937Y-3.2638
X2.9862Y-3.2165
X3.0198Y-3.0837
X3.0669Y-3.4488
X3.0704Y-3.2525
X3.0787Y-2.0551
X3.1614Y-3.2087
X3.189Y-3.5394
X3.2008Y-2.9213
X3.2283Y-3.1772
X3.2393Y-3.545
X3.2874Y-2.248
X3.2992Y-3.4724
X3.3071Y-3.5472
X3.3307Y-3.2717
X3.3533Y-2.6454
X3.3543Y-2.752
X3.3543Y-2.8543
X3.3543Y-2.9567
X3.374Y-2.437
X3.3799Y-3.2157
X3.3969Y-2.6454
X3.3976Y-2.752
X3.3976Y-2.8543
X3.3976Y-2.9567
X3.4213Y-3.0827
X3.4409Y-2.752
X3.4449Y-2.9567
X3.4606Y-3.4449
X3.4646Y-3.2559
X3.4803Y-2.4961
X3.4843Y-2.752
X3.4882Y-2.9567
X3.5315Y-2.6457
X3.5315Y-2.8622
X3.563Y-2.7598
X3.5669Y-2.6457
X3.5669Y-2.9646
X3.5709Y-2.2953
X3.5748Y-2.8622
X3.6024Y-2.7598
X3.6063Y-2.9646
X3.6299Y-2.8465
X3.6325Y-2.6454
X3.6417Y-2.7598
X3.6496Y-2.9646
X3.9803Y-2.8465
X3.9843Y-2.8031
X4.0236Y-2.8031
X4.315Y-2.0945
X4.3386Y-2.1378
X4.3583Y-2.0945
X4.3819Y-2.1378
X4.4016Y-2.0945
X4.4252Y-2.1378
X4.4449Y-2.0945
X4.4685Y-2.1378
X4.4882Y-2.0945
X4.5118Y-2.1378
X4.5315Y-2.0945
X4.5591Y-2.1378
X4.5827Y-2.5906
X4.5827Y-2.6299
X4.5827Y-2.6693
X4.6024Y-2.3622
X4.6102Y-2.1969
X4.6102Y-2.4567
X4.6417Y-2.3937
X4.6417Y-2.437
X4.6552Y-2.1854
X4.6882Y-2.1638
X4.7165Y-2.5748
X4.7165Y-2.6142
X4.7165Y-2.6535
X4.7165Y-2.6929
X4.7283Y-2.2992
X4.7441Y-2.1417
X4.748Y-2.5079
X4.7559Y-2.5748
X4.7559Y-2.6142
X4.7559Y-2.6535
X4.7559Y-2.6929
X4.7953Y-2.5748
X4.7953Y-2.6142
X4.7953Y-2.6535
X4.7953Y-2.6929
X4.811Y-2.3898
X4.815Y-2.126
X4.8189Y-2.4843
X4.8189Y-2.5276
X4.8579Y-2.2217
X4.8583Y-2.3701
X4.861Y-2.0213
X4.8622Y-2.2608
X4.8858Y-2.1142
X4.8976Y-2.2913
X4.9291Y-2.1102
X4.937Y-2.2323
X4.9803Y-2.2323
X5.0276Y-2.2953
X5.063Y-2.2953
X5.0984Y-2.2953
X5.1339Y-2.2953
X5.2087Y-2.0118
X5.2087Y-2.0472
X5.2087Y-2.0827
X5.2087Y-2.1181
X5.3976Y-2.063
T2
X3.9173Y-2.8071
X3.9173Y-2.8819
X4.0236Y-2.8819
T3
X2.8346Y-2.2835
X2.8346Y-2.3835
X2.8346Y-2.4835
X2.8346Y-2.5835
X2.8346Y-2.6835
T4
X5.7953Y-2.0787
X5.7953Y-3.8268
X3.5748Y-2.0787
X4.4291Y-3.8268
X2.0787Y-3.8268
T0
M30
