G04 #@! TF.GenerationSoftware,KiCad,Pcbnew,(5.1.5)-3*
G04 #@! TF.CreationDate,2021-03-29T18:53:01-07:00*
G04 #@! TF.ProjectId,PatchV2,50617463-6856-4322-9e6b-696361645f70,rev?*
G04 #@! TF.SameCoordinates,Original*
G04 #@! TF.FileFunction,Copper,L2,Inr*
G04 #@! TF.FilePolarity,Positive*
%FSLAX46Y46*%
G04 Gerber Fmt 4.6, Leading zero omitted, Abs format (unit mm)*
G04 Created by KiCad (PCBNEW (5.1.5)-3) date 2021-03-29 18:53:01*
%MOMM*%
%LPD*%
G04 APERTURE LIST*
%ADD10C,5.000000*%
%ADD11C,1.524000*%
%ADD12O,1.700000X1.700000*%
%ADD13R,1.700000X1.700000*%
%ADD14C,0.800000*%
%ADD15C,0.228600*%
%ADD16C,0.177800*%
G04 APERTURE END LIST*
D10*
X90800000Y-52800000D03*
X112500000Y-97200000D03*
X147200000Y-52800000D03*
X147200000Y-97200000D03*
X52800000Y-97200000D03*
D11*
X102200000Y-73200000D03*
X99500000Y-73200000D03*
X99500000Y-71300000D03*
D12*
X72000000Y-68160000D03*
X72000000Y-65620000D03*
X72000000Y-63080000D03*
X72000000Y-60540000D03*
D13*
X72000000Y-58000000D03*
D14*
X117900000Y-60800000D03*
X117900000Y-61900000D03*
X117100000Y-62400000D03*
X122400000Y-63100000D03*
X122400000Y-64200000D03*
X116400000Y-65800000D03*
X116400000Y-66800000D03*
X116400000Y-67800000D03*
X127700000Y-58300000D03*
X128600000Y-58300000D03*
X129500000Y-58300000D03*
X130400000Y-58300000D03*
X55547198Y-55797198D03*
X92200000Y-72300000D03*
X92264844Y-67192110D03*
X51500000Y-63700000D03*
X59500000Y-50700000D03*
X61500000Y-50700000D03*
X63500000Y-50700000D03*
X65500000Y-50700000D03*
X67500000Y-50700000D03*
X61500000Y-53040000D03*
X63500000Y-53040000D03*
X65500000Y-53040000D03*
X59500000Y-55580000D03*
X61500000Y-55580000D03*
X63500000Y-55580000D03*
X65500000Y-55580000D03*
X67500000Y-55580000D03*
X63500000Y-58120000D03*
X65500000Y-58120000D03*
X67500000Y-58120000D03*
X65500000Y-60660000D03*
X67500000Y-60660000D03*
X67500000Y-52400000D03*
X63500000Y-62500000D03*
X65500000Y-62500000D03*
X67500000Y-62500000D03*
X59500000Y-67600000D03*
X63500000Y-67600000D03*
X65500000Y-67600000D03*
X67500000Y-67600000D03*
X65500000Y-72300000D03*
X63500000Y-72300000D03*
X59500000Y-72300000D03*
X57400000Y-72300000D03*
X55600000Y-72300000D03*
X55600000Y-70300000D03*
X132300000Y-51100000D03*
X132300000Y-52000000D03*
X132300000Y-52900000D03*
X132300000Y-53800000D03*
X92700000Y-75300000D03*
X91600000Y-75300000D03*
X90600000Y-75300000D03*
X92500000Y-70100000D03*
X91500000Y-70100000D03*
X90500000Y-70100000D03*
X121800000Y-65400000D03*
X120800000Y-65400000D03*
X119800000Y-65400000D03*
X119800000Y-66400000D03*
X120800000Y-66400000D03*
X121800000Y-66400000D03*
X121800000Y-67400000D03*
X120800000Y-67400000D03*
X119800000Y-67400000D03*
X119800000Y-68400000D03*
X120800000Y-68400000D03*
X121800000Y-68400000D03*
X59900000Y-96200000D03*
X57600000Y-93600000D03*
X56500000Y-83900000D03*
X53600000Y-83900000D03*
X51092110Y-60066376D03*
X51092110Y-61282960D03*
X50960604Y-54839396D03*
X59500000Y-61000000D03*
X82000000Y-80700000D03*
X85849997Y-81677736D03*
X75849989Y-81700000D03*
X85200000Y-69900000D03*
X87400000Y-69900000D03*
X86300000Y-69900000D03*
X72000000Y-80700000D03*
X88500000Y-69900000D03*
X51101026Y-55807072D03*
X52700000Y-57600000D03*
X78200000Y-52200000D03*
X87900000Y-87500000D03*
X83800000Y-88200000D03*
X81000000Y-89900000D03*
X71000000Y-90000000D03*
X74600000Y-82900000D03*
X84600000Y-83100000D03*
X77900000Y-87600000D03*
X70200000Y-81500000D03*
X71500000Y-74200000D03*
X81300000Y-74200000D03*
X85200000Y-72500000D03*
X86300000Y-72500000D03*
X89700000Y-72700000D03*
X90800000Y-72700000D03*
X89700000Y-67200000D03*
X90600000Y-67200000D03*
X80300000Y-81500000D03*
X73700000Y-88300000D03*
X86280124Y-67192110D03*
X85173057Y-67192110D03*
X85200000Y-75100000D03*
X86300000Y-75100000D03*
X87500000Y-75100000D03*
X84000000Y-90100000D03*
X88000000Y-82700000D03*
X86900000Y-78300000D03*
X74000000Y-90000000D03*
X76702532Y-78325010D03*
X77987881Y-82613201D03*
X82277165Y-90042911D03*
X72139998Y-90119998D03*
X88600000Y-75100000D03*
X51100000Y-57100000D03*
X51000000Y-75900000D03*
X50602800Y-74700000D03*
X50900000Y-58100000D03*
X120100000Y-58400000D03*
X120500000Y-54400000D03*
X122300000Y-54000000D03*
X125400000Y-56700000D03*
X126500000Y-56700000D03*
X110200000Y-54300000D03*
X111300000Y-54300000D03*
X110700000Y-53200000D03*
X109600000Y-53200000D03*
X111800000Y-53200000D03*
X112900000Y-53200000D03*
X114000000Y-53200000D03*
X115100000Y-53200000D03*
X112400000Y-54300000D03*
X113500000Y-54300000D03*
X114600000Y-54300000D03*
X115800000Y-54300000D03*
X117100000Y-55800000D03*
X102200000Y-71200000D03*
X101200000Y-71200000D03*
X101100000Y-72300000D03*
X125200000Y-53600000D03*
X120600000Y-63700000D03*
X137100000Y-52400000D03*
X56632890Y-63531302D03*
X53300000Y-80600000D03*
X53290622Y-63687217D03*
X53400000Y-82600000D03*
X54115018Y-64213037D03*
X53100000Y-85000000D03*
X52970161Y-62725717D03*
X52400000Y-86100000D03*
X52120124Y-62242444D03*
X51162912Y-59091131D03*
X59900000Y-94900000D03*
X68800000Y-53200000D03*
X50900000Y-53800000D03*
X63600000Y-94700000D03*
X60280144Y-59268365D03*
X64700000Y-94700000D03*
X61206755Y-59580627D03*
X61500000Y-60660000D03*
X65800000Y-94700000D03*
X124100000Y-53700000D03*
X119079530Y-54961595D03*
X118242876Y-55509348D03*
X123468256Y-51340010D03*
X60300000Y-56500000D03*
X83500000Y-57100000D03*
X62100000Y-57400000D03*
X90700000Y-58300000D03*
X85700000Y-61900000D03*
X59906285Y-57885407D03*
X60900000Y-58500000D03*
X88400000Y-63400000D03*
X123400000Y-60200000D03*
X57003089Y-67290602D03*
X116900000Y-60000000D03*
X56770650Y-66079370D03*
X56137660Y-62585273D03*
X124400000Y-58200000D03*
X56043458Y-67102919D03*
X123500000Y-57424990D03*
X55325879Y-66438693D03*
X123391318Y-56430901D03*
X54748965Y-64957501D03*
X122200000Y-60700000D03*
D15*
X70910001Y-61389999D02*
X68900000Y-63400000D01*
X68900000Y-63400000D02*
X58600000Y-63400000D01*
X58600000Y-63400000D02*
X55300000Y-60100000D01*
X55300000Y-60100000D02*
X53200000Y-60100000D01*
X53200000Y-60100000D02*
X52700000Y-59600000D01*
X52700000Y-59600000D02*
X52700000Y-57600000D01*
X71150001Y-61389999D02*
X72000000Y-60540000D01*
X70910001Y-61389999D02*
X71150001Y-61389999D01*
X72000000Y-60540000D02*
X78200000Y-54340000D01*
X78200000Y-54340000D02*
X78200000Y-52200000D01*
X57032889Y-63931301D02*
X56632890Y-63531302D01*
X58721588Y-65620000D02*
X57032889Y-63931301D01*
X72000000Y-65620000D02*
X58721588Y-65620000D01*
X68800000Y-53200000D02*
X68000000Y-53200000D01*
X68000000Y-53200000D02*
X66400000Y-54800000D01*
X66400000Y-54800000D02*
X52847198Y-54800000D01*
X52847198Y-54800000D02*
X51900000Y-54800000D01*
X51900000Y-54800000D02*
X50900000Y-53800000D01*
X123400000Y-60200000D02*
X123400000Y-69000000D01*
X57403088Y-67690601D02*
X57003089Y-67290602D01*
X123400000Y-69000000D02*
X122700000Y-69700000D01*
X110306411Y-65106411D02*
X84044089Y-65106411D01*
X79441987Y-69708512D02*
X59420999Y-69708512D01*
X59420999Y-69708512D02*
X57403088Y-67690601D01*
X114900000Y-69700000D02*
X110306411Y-65106411D01*
X84044089Y-65106411D02*
X79441987Y-69708512D01*
X122700000Y-69700000D02*
X114900000Y-69700000D01*
X116900000Y-61200000D02*
X116900000Y-60000000D01*
X116000000Y-62100000D02*
X116900000Y-61200000D01*
X114000000Y-62100000D02*
X116000000Y-62100000D01*
X56770650Y-66079370D02*
X57591280Y-66900000D01*
X57591280Y-66900000D02*
X81500000Y-66900000D01*
X81500000Y-66900000D02*
X83700000Y-64700000D01*
X83700000Y-64700000D02*
X111400000Y-64700000D01*
X111400000Y-64700000D02*
X114000000Y-62100000D01*
X71150001Y-63929999D02*
X58048071Y-63929999D01*
X56703345Y-62585273D02*
X56137660Y-62585273D01*
X58048071Y-63929999D02*
X56703345Y-62585273D01*
X72000000Y-63080000D02*
X71150001Y-63929999D01*
X124400000Y-58200000D02*
X124799999Y-58599999D01*
X124400000Y-70200000D02*
X114700000Y-70200000D01*
X58730389Y-70114923D02*
X56043458Y-67427992D01*
X110093589Y-65593589D02*
X84131660Y-65593589D01*
X56043458Y-67427992D02*
X56043458Y-67102919D01*
X79610326Y-70114923D02*
X58730389Y-70114923D01*
X124799999Y-69800001D02*
X124400000Y-70200000D01*
X84131660Y-65593589D02*
X79610326Y-70114923D01*
X124799999Y-58599999D02*
X124799999Y-69800001D01*
X114700000Y-70200000D02*
X110093589Y-65593589D01*
X79778666Y-70521334D02*
X58562050Y-70521334D01*
X114600000Y-70900000D02*
X109700000Y-66000000D01*
X55325879Y-67004378D02*
X55325879Y-66438693D01*
X123500000Y-57424990D02*
X125024990Y-57424990D01*
X125300000Y-70200000D02*
X124600000Y-70900000D01*
X55325879Y-67409652D02*
X55325879Y-67004378D01*
X125300000Y-57700000D02*
X125300000Y-70200000D01*
X58562050Y-70521334D02*
X55835737Y-67795021D01*
X125024990Y-57424990D02*
X125300000Y-57700000D01*
X55835737Y-67795021D02*
X55711248Y-67795021D01*
X109700000Y-66000000D02*
X84300000Y-66000000D01*
X55711248Y-67795021D02*
X55325879Y-67409652D01*
X124600000Y-70900000D02*
X114600000Y-70900000D01*
X84300000Y-66000000D02*
X79778666Y-70521334D01*
X114600000Y-71600000D02*
X109500000Y-66500000D01*
X54348966Y-65357500D02*
X54748965Y-64957501D01*
X109500000Y-66500000D02*
X84500000Y-66500000D01*
X126900000Y-56000000D02*
X127300000Y-56400000D01*
X125800000Y-58900000D02*
X125800000Y-70500000D01*
X57727745Y-70927745D02*
X54348966Y-67548966D01*
X80072255Y-70927745D02*
X57727745Y-70927745D01*
X124700000Y-71600000D02*
X114600000Y-71600000D01*
X54348966Y-67548966D02*
X54348966Y-65357500D01*
X123391318Y-56430901D02*
X123822219Y-56000000D01*
X127300000Y-56400000D02*
X127300000Y-57400000D01*
X123822219Y-56000000D02*
X126900000Y-56000000D01*
X125800000Y-70500000D02*
X124700000Y-71600000D01*
X84500000Y-66500000D02*
X80072255Y-70927745D01*
X127300000Y-57400000D02*
X125800000Y-58900000D01*
D16*
G36*
X50535607Y-55357256D02*
G01*
X50644803Y-55430218D01*
X50766135Y-55480475D01*
X50894940Y-55506096D01*
X51026268Y-55506096D01*
X51155073Y-55480475D01*
X51276405Y-55430218D01*
X51385601Y-55357256D01*
X51453957Y-55288900D01*
X52411100Y-55288900D01*
X52411100Y-56998035D01*
X52384199Y-57009178D01*
X52275003Y-57082140D01*
X52182140Y-57175003D01*
X52109178Y-57284199D01*
X52058921Y-57405531D01*
X52033300Y-57534336D01*
X52033300Y-57665664D01*
X52058921Y-57794469D01*
X52109178Y-57915801D01*
X52182140Y-58024997D01*
X52275003Y-58117860D01*
X52319001Y-58147258D01*
X52319000Y-59581290D01*
X52317157Y-59600000D01*
X52319000Y-59618710D01*
X52319000Y-59618712D01*
X52324513Y-59674688D01*
X52339628Y-59724514D01*
X52346299Y-59746507D01*
X52381678Y-59812696D01*
X52385507Y-59817361D01*
X52411100Y-59848547D01*
X52411100Y-61641339D01*
X52314593Y-61601365D01*
X52185788Y-61575744D01*
X52054460Y-61575744D01*
X51925655Y-61601365D01*
X51804323Y-61651622D01*
X51695127Y-61724584D01*
X51602264Y-61817447D01*
X51529302Y-61926643D01*
X51479045Y-62047975D01*
X51453424Y-62176780D01*
X51453424Y-62308108D01*
X51479045Y-62436913D01*
X51529302Y-62558245D01*
X51602264Y-62667441D01*
X51695127Y-62760304D01*
X51804323Y-62833266D01*
X51925655Y-62883523D01*
X52054460Y-62909144D01*
X52185788Y-62909144D01*
X52314593Y-62883523D01*
X52321241Y-62880769D01*
X52329082Y-62920186D01*
X52379339Y-63041518D01*
X52411100Y-63089052D01*
X52411100Y-74100000D01*
X52412808Y-74117344D01*
X52417867Y-74134021D01*
X52426082Y-74149390D01*
X52437138Y-74162862D01*
X52450610Y-74173918D01*
X52465979Y-74182133D01*
X52482656Y-74187192D01*
X52500000Y-74188900D01*
X66800000Y-74188900D01*
X66817344Y-74187192D01*
X66834021Y-74182133D01*
X66849390Y-74173918D01*
X66862862Y-74162862D01*
X66873918Y-74149390D01*
X66881964Y-74134336D01*
X70833300Y-74134336D01*
X70833300Y-74265664D01*
X70858921Y-74394469D01*
X70909178Y-74515801D01*
X70982140Y-74624997D01*
X71075003Y-74717860D01*
X71184199Y-74790822D01*
X71305531Y-74841079D01*
X71434336Y-74866700D01*
X71565664Y-74866700D01*
X71694469Y-74841079D01*
X71815801Y-74790822D01*
X71924997Y-74717860D01*
X72017860Y-74624997D01*
X72090822Y-74515801D01*
X72141079Y-74394469D01*
X72166700Y-74265664D01*
X72166700Y-74134336D01*
X80633300Y-74134336D01*
X80633300Y-74265664D01*
X80658921Y-74394469D01*
X80709178Y-74515801D01*
X80782140Y-74624997D01*
X80875003Y-74717860D01*
X80984199Y-74790822D01*
X81105531Y-74841079D01*
X81234336Y-74866700D01*
X81365664Y-74866700D01*
X81494469Y-74841079D01*
X81615801Y-74790822D01*
X81724997Y-74717860D01*
X81817860Y-74624997D01*
X81890822Y-74515801D01*
X81941079Y-74394469D01*
X81966700Y-74265664D01*
X81966700Y-74134336D01*
X81941079Y-74005531D01*
X81890822Y-73884199D01*
X81817860Y-73775003D01*
X81724997Y-73682140D01*
X81615801Y-73609178D01*
X81494469Y-73558921D01*
X81365664Y-73533300D01*
X81234336Y-73533300D01*
X81105531Y-73558921D01*
X80984199Y-73609178D01*
X80875003Y-73682140D01*
X80782140Y-73775003D01*
X80709178Y-73884199D01*
X80658921Y-74005531D01*
X80633300Y-74134336D01*
X72166700Y-74134336D01*
X72141079Y-74005531D01*
X72090822Y-73884199D01*
X72017860Y-73775003D01*
X71924997Y-73682140D01*
X71815801Y-73609178D01*
X71694469Y-73558921D01*
X71565664Y-73533300D01*
X71434336Y-73533300D01*
X71305531Y-73558921D01*
X71184199Y-73609178D01*
X71075003Y-73682140D01*
X70982140Y-73775003D01*
X70909178Y-73884199D01*
X70858921Y-74005531D01*
X70833300Y-74134336D01*
X66881964Y-74134336D01*
X66882133Y-74134021D01*
X66887192Y-74117344D01*
X66888900Y-74100000D01*
X66888900Y-72434336D01*
X84533300Y-72434336D01*
X84533300Y-72565664D01*
X84558921Y-72694469D01*
X84609178Y-72815801D01*
X84682140Y-72924997D01*
X84775003Y-73017860D01*
X84884199Y-73090822D01*
X85005531Y-73141079D01*
X85134336Y-73166700D01*
X85265664Y-73166700D01*
X85394469Y-73141079D01*
X85515801Y-73090822D01*
X85624997Y-73017860D01*
X85717860Y-72924997D01*
X85750000Y-72876896D01*
X85782140Y-72924997D01*
X85875003Y-73017860D01*
X85984199Y-73090822D01*
X86105531Y-73141079D01*
X86234336Y-73166700D01*
X86365664Y-73166700D01*
X86494469Y-73141079D01*
X86615801Y-73090822D01*
X86724997Y-73017860D01*
X86817860Y-72924997D01*
X86890822Y-72815801D01*
X86941079Y-72694469D01*
X86966700Y-72565664D01*
X86966700Y-72434336D01*
X86941079Y-72305531D01*
X86890822Y-72184199D01*
X86817860Y-72075003D01*
X86724997Y-71982140D01*
X86615801Y-71909178D01*
X86494469Y-71858921D01*
X86365664Y-71833300D01*
X86234336Y-71833300D01*
X86105531Y-71858921D01*
X85984199Y-71909178D01*
X85875003Y-71982140D01*
X85782140Y-72075003D01*
X85750000Y-72123104D01*
X85717860Y-72075003D01*
X85624997Y-71982140D01*
X85515801Y-71909178D01*
X85394469Y-71858921D01*
X85265664Y-71833300D01*
X85134336Y-71833300D01*
X85005531Y-71858921D01*
X84884199Y-71909178D01*
X84775003Y-71982140D01*
X84682140Y-72075003D01*
X84609178Y-72184199D01*
X84558921Y-72305531D01*
X84533300Y-72434336D01*
X66888900Y-72434336D01*
X66888900Y-71308745D01*
X80053545Y-71308745D01*
X80072255Y-71310588D01*
X80090965Y-71308745D01*
X80090968Y-71308745D01*
X80146944Y-71303232D01*
X80218763Y-71281446D01*
X80284951Y-71246067D01*
X80342966Y-71198456D01*
X80354901Y-71183913D01*
X80549914Y-70988900D01*
X84100000Y-70988900D01*
X84117344Y-70987192D01*
X84134021Y-70982133D01*
X84149390Y-70973918D01*
X84162862Y-70962862D01*
X84173918Y-70949390D01*
X84182133Y-70934021D01*
X84187192Y-70917344D01*
X84188900Y-70900000D01*
X84188900Y-68188900D01*
X89911100Y-68188900D01*
X89911100Y-69781323D01*
X89909178Y-69784199D01*
X89858921Y-69905531D01*
X89833300Y-70034336D01*
X89833300Y-70165664D01*
X89858921Y-70294469D01*
X89909178Y-70415801D01*
X89911100Y-70418677D01*
X89911100Y-72065810D01*
X89894469Y-72058921D01*
X89765664Y-72033300D01*
X89634336Y-72033300D01*
X89505531Y-72058921D01*
X89384199Y-72109178D01*
X89275003Y-72182140D01*
X89182140Y-72275003D01*
X89109178Y-72384199D01*
X89058921Y-72505531D01*
X89033300Y-72634336D01*
X89033300Y-72765664D01*
X89058921Y-72894469D01*
X89109178Y-73015801D01*
X89182140Y-73124997D01*
X89275003Y-73217860D01*
X89384199Y-73290822D01*
X89505531Y-73341079D01*
X89634336Y-73366700D01*
X89765664Y-73366700D01*
X89894469Y-73341079D01*
X89911100Y-73334190D01*
X89911100Y-94811100D01*
X66788900Y-94811100D01*
X66788900Y-89934336D01*
X70333300Y-89934336D01*
X70333300Y-90065664D01*
X70358921Y-90194469D01*
X70409178Y-90315801D01*
X70482140Y-90424997D01*
X70575003Y-90517860D01*
X70684199Y-90590822D01*
X70805531Y-90641079D01*
X70934336Y-90666700D01*
X71065664Y-90666700D01*
X71194469Y-90641079D01*
X71315801Y-90590822D01*
X71424997Y-90517860D01*
X71517860Y-90424997D01*
X71534430Y-90400198D01*
X71549176Y-90435799D01*
X71622138Y-90544995D01*
X71715001Y-90637858D01*
X71824197Y-90710820D01*
X71945529Y-90761077D01*
X72074334Y-90786698D01*
X72205662Y-90786698D01*
X72334467Y-90761077D01*
X72455799Y-90710820D01*
X72564995Y-90637858D01*
X72657858Y-90544995D01*
X72730820Y-90435799D01*
X72781077Y-90314467D01*
X72806698Y-90185662D01*
X72806698Y-90054334D01*
X72782829Y-89934336D01*
X73333300Y-89934336D01*
X73333300Y-90065664D01*
X73358921Y-90194469D01*
X73409178Y-90315801D01*
X73482140Y-90424997D01*
X73575003Y-90517860D01*
X73684199Y-90590822D01*
X73805531Y-90641079D01*
X73934336Y-90666700D01*
X74065664Y-90666700D01*
X74194469Y-90641079D01*
X74315801Y-90590822D01*
X74424997Y-90517860D01*
X74517860Y-90424997D01*
X74590822Y-90315801D01*
X74641079Y-90194469D01*
X74666700Y-90065664D01*
X74666700Y-89934336D01*
X74646809Y-89834336D01*
X80333300Y-89834336D01*
X80333300Y-89965664D01*
X80358921Y-90094469D01*
X80409178Y-90215801D01*
X80482140Y-90324997D01*
X80575003Y-90417860D01*
X80684199Y-90490822D01*
X80805531Y-90541079D01*
X80934336Y-90566700D01*
X81065664Y-90566700D01*
X81194469Y-90541079D01*
X81315801Y-90490822D01*
X81424997Y-90417860D01*
X81517860Y-90324997D01*
X81590822Y-90215801D01*
X81618501Y-90148977D01*
X81636086Y-90237380D01*
X81686343Y-90358712D01*
X81759305Y-90467908D01*
X81852168Y-90560771D01*
X81961364Y-90633733D01*
X82082696Y-90683990D01*
X82211501Y-90709611D01*
X82342829Y-90709611D01*
X82471634Y-90683990D01*
X82592966Y-90633733D01*
X82702162Y-90560771D01*
X82795025Y-90467908D01*
X82867987Y-90358712D01*
X82918244Y-90237380D01*
X82943865Y-90108575D01*
X82943865Y-90034336D01*
X83333300Y-90034336D01*
X83333300Y-90165664D01*
X83358921Y-90294469D01*
X83409178Y-90415801D01*
X83482140Y-90524997D01*
X83575003Y-90617860D01*
X83684199Y-90690822D01*
X83805531Y-90741079D01*
X83934336Y-90766700D01*
X84065664Y-90766700D01*
X84194469Y-90741079D01*
X84315801Y-90690822D01*
X84424997Y-90617860D01*
X84517860Y-90524997D01*
X84590822Y-90415801D01*
X84641079Y-90294469D01*
X84666700Y-90165664D01*
X84666700Y-90034336D01*
X84641079Y-89905531D01*
X84590822Y-89784199D01*
X84517860Y-89675003D01*
X84424997Y-89582140D01*
X84315801Y-89509178D01*
X84194469Y-89458921D01*
X84065664Y-89433300D01*
X83934336Y-89433300D01*
X83805531Y-89458921D01*
X83684199Y-89509178D01*
X83575003Y-89582140D01*
X83482140Y-89675003D01*
X83409178Y-89784199D01*
X83358921Y-89905531D01*
X83333300Y-90034336D01*
X82943865Y-90034336D01*
X82943865Y-89977247D01*
X82918244Y-89848442D01*
X82867987Y-89727110D01*
X82795025Y-89617914D01*
X82702162Y-89525051D01*
X82592966Y-89452089D01*
X82471634Y-89401832D01*
X82342829Y-89376211D01*
X82211501Y-89376211D01*
X82082696Y-89401832D01*
X81961364Y-89452089D01*
X81852168Y-89525051D01*
X81759305Y-89617914D01*
X81686343Y-89727110D01*
X81658664Y-89793934D01*
X81641079Y-89705531D01*
X81590822Y-89584199D01*
X81517860Y-89475003D01*
X81424997Y-89382140D01*
X81315801Y-89309178D01*
X81194469Y-89258921D01*
X81065664Y-89233300D01*
X80934336Y-89233300D01*
X80805531Y-89258921D01*
X80684199Y-89309178D01*
X80575003Y-89382140D01*
X80482140Y-89475003D01*
X80409178Y-89584199D01*
X80358921Y-89705531D01*
X80333300Y-89834336D01*
X74646809Y-89834336D01*
X74641079Y-89805531D01*
X74590822Y-89684199D01*
X74517860Y-89575003D01*
X74424997Y-89482140D01*
X74315801Y-89409178D01*
X74194469Y-89358921D01*
X74065664Y-89333300D01*
X73934336Y-89333300D01*
X73805531Y-89358921D01*
X73684199Y-89409178D01*
X73575003Y-89482140D01*
X73482140Y-89575003D01*
X73409178Y-89684199D01*
X73358921Y-89805531D01*
X73333300Y-89934336D01*
X72782829Y-89934336D01*
X72781077Y-89925529D01*
X72730820Y-89804197D01*
X72657858Y-89695001D01*
X72564995Y-89602138D01*
X72455799Y-89529176D01*
X72334467Y-89478919D01*
X72205662Y-89453298D01*
X72074334Y-89453298D01*
X71945529Y-89478919D01*
X71824197Y-89529176D01*
X71715001Y-89602138D01*
X71622138Y-89695001D01*
X71605568Y-89719800D01*
X71590822Y-89684199D01*
X71517860Y-89575003D01*
X71424997Y-89482140D01*
X71315801Y-89409178D01*
X71194469Y-89358921D01*
X71065664Y-89333300D01*
X70934336Y-89333300D01*
X70805531Y-89358921D01*
X70684199Y-89409178D01*
X70575003Y-89482140D01*
X70482140Y-89575003D01*
X70409178Y-89684199D01*
X70358921Y-89805531D01*
X70333300Y-89934336D01*
X66788900Y-89934336D01*
X66788900Y-88234336D01*
X73033300Y-88234336D01*
X73033300Y-88365664D01*
X73058921Y-88494469D01*
X73109178Y-88615801D01*
X73182140Y-88724997D01*
X73275003Y-88817860D01*
X73384199Y-88890822D01*
X73505531Y-88941079D01*
X73634336Y-88966700D01*
X73765664Y-88966700D01*
X73894469Y-88941079D01*
X74015801Y-88890822D01*
X74124997Y-88817860D01*
X74217860Y-88724997D01*
X74290822Y-88615801D01*
X74341079Y-88494469D01*
X74366700Y-88365664D01*
X74366700Y-88234336D01*
X74341079Y-88105531D01*
X74290822Y-87984199D01*
X74217860Y-87875003D01*
X74124997Y-87782140D01*
X74015801Y-87709178D01*
X73894469Y-87658921D01*
X73765664Y-87633300D01*
X73634336Y-87633300D01*
X73505531Y-87658921D01*
X73384199Y-87709178D01*
X73275003Y-87782140D01*
X73182140Y-87875003D01*
X73109178Y-87984199D01*
X73058921Y-88105531D01*
X73033300Y-88234336D01*
X66788900Y-88234336D01*
X66788900Y-87534336D01*
X77233300Y-87534336D01*
X77233300Y-87665664D01*
X77258921Y-87794469D01*
X77309178Y-87915801D01*
X77382140Y-88024997D01*
X77475003Y-88117860D01*
X77584199Y-88190822D01*
X77705531Y-88241079D01*
X77834336Y-88266700D01*
X77965664Y-88266700D01*
X78094469Y-88241079D01*
X78215801Y-88190822D01*
X78300338Y-88134336D01*
X83133300Y-88134336D01*
X83133300Y-88265664D01*
X83158921Y-88394469D01*
X83209178Y-88515801D01*
X83282140Y-88624997D01*
X83375003Y-88717860D01*
X83484199Y-88790822D01*
X83605531Y-88841079D01*
X83734336Y-88866700D01*
X83865664Y-88866700D01*
X83994469Y-88841079D01*
X84115801Y-88790822D01*
X84224997Y-88717860D01*
X84317860Y-88624997D01*
X84390822Y-88515801D01*
X84441079Y-88394469D01*
X84466700Y-88265664D01*
X84466700Y-88134336D01*
X84441079Y-88005531D01*
X84390822Y-87884199D01*
X84317860Y-87775003D01*
X84224997Y-87682140D01*
X84115801Y-87609178D01*
X83994469Y-87558921D01*
X83865664Y-87533300D01*
X83734336Y-87533300D01*
X83605531Y-87558921D01*
X83484199Y-87609178D01*
X83375003Y-87682140D01*
X83282140Y-87775003D01*
X83209178Y-87884199D01*
X83158921Y-88005531D01*
X83133300Y-88134336D01*
X78300338Y-88134336D01*
X78324997Y-88117860D01*
X78417860Y-88024997D01*
X78490822Y-87915801D01*
X78541079Y-87794469D01*
X78566700Y-87665664D01*
X78566700Y-87534336D01*
X78546809Y-87434336D01*
X87233300Y-87434336D01*
X87233300Y-87565664D01*
X87258921Y-87694469D01*
X87309178Y-87815801D01*
X87382140Y-87924997D01*
X87475003Y-88017860D01*
X87584199Y-88090822D01*
X87705531Y-88141079D01*
X87834336Y-88166700D01*
X87965664Y-88166700D01*
X88094469Y-88141079D01*
X88215801Y-88090822D01*
X88324997Y-88017860D01*
X88417860Y-87924997D01*
X88490822Y-87815801D01*
X88541079Y-87694469D01*
X88566700Y-87565664D01*
X88566700Y-87434336D01*
X88541079Y-87305531D01*
X88490822Y-87184199D01*
X88417860Y-87075003D01*
X88324997Y-86982140D01*
X88215801Y-86909178D01*
X88094469Y-86858921D01*
X87965664Y-86833300D01*
X87834336Y-86833300D01*
X87705531Y-86858921D01*
X87584199Y-86909178D01*
X87475003Y-86982140D01*
X87382140Y-87075003D01*
X87309178Y-87184199D01*
X87258921Y-87305531D01*
X87233300Y-87434336D01*
X78546809Y-87434336D01*
X78541079Y-87405531D01*
X78490822Y-87284199D01*
X78417860Y-87175003D01*
X78324997Y-87082140D01*
X78215801Y-87009178D01*
X78094469Y-86958921D01*
X77965664Y-86933300D01*
X77834336Y-86933300D01*
X77705531Y-86958921D01*
X77584199Y-87009178D01*
X77475003Y-87082140D01*
X77382140Y-87175003D01*
X77309178Y-87284199D01*
X77258921Y-87405531D01*
X77233300Y-87534336D01*
X66788900Y-87534336D01*
X66788900Y-82834336D01*
X73933300Y-82834336D01*
X73933300Y-82965664D01*
X73958921Y-83094469D01*
X74009178Y-83215801D01*
X74082140Y-83324997D01*
X74175003Y-83417860D01*
X74284199Y-83490822D01*
X74405531Y-83541079D01*
X74534336Y-83566700D01*
X74665664Y-83566700D01*
X74794469Y-83541079D01*
X74915801Y-83490822D01*
X75024997Y-83417860D01*
X75117860Y-83324997D01*
X75190822Y-83215801D01*
X75241079Y-83094469D01*
X75266700Y-82965664D01*
X75266700Y-82834336D01*
X75241079Y-82705531D01*
X75190822Y-82584199D01*
X75166326Y-82547537D01*
X77321181Y-82547537D01*
X77321181Y-82678865D01*
X77346802Y-82807670D01*
X77397059Y-82929002D01*
X77470021Y-83038198D01*
X77562884Y-83131061D01*
X77672080Y-83204023D01*
X77793412Y-83254280D01*
X77922217Y-83279901D01*
X78053545Y-83279901D01*
X78182350Y-83254280D01*
X78303682Y-83204023D01*
X78412878Y-83131061D01*
X78505741Y-83038198D01*
X78508321Y-83034336D01*
X83933300Y-83034336D01*
X83933300Y-83165664D01*
X83958921Y-83294469D01*
X84009178Y-83415801D01*
X84082140Y-83524997D01*
X84175003Y-83617860D01*
X84284199Y-83690822D01*
X84405531Y-83741079D01*
X84534336Y-83766700D01*
X84665664Y-83766700D01*
X84794469Y-83741079D01*
X84915801Y-83690822D01*
X85024997Y-83617860D01*
X85117860Y-83524997D01*
X85190822Y-83415801D01*
X85241079Y-83294469D01*
X85266700Y-83165664D01*
X85266700Y-83034336D01*
X85241079Y-82905531D01*
X85190822Y-82784199D01*
X85117860Y-82675003D01*
X85077193Y-82634336D01*
X87333300Y-82634336D01*
X87333300Y-82765664D01*
X87358921Y-82894469D01*
X87409178Y-83015801D01*
X87482140Y-83124997D01*
X87575003Y-83217860D01*
X87684199Y-83290822D01*
X87805531Y-83341079D01*
X87934336Y-83366700D01*
X88065664Y-83366700D01*
X88194469Y-83341079D01*
X88315801Y-83290822D01*
X88424997Y-83217860D01*
X88517860Y-83124997D01*
X88590822Y-83015801D01*
X88641079Y-82894469D01*
X88666700Y-82765664D01*
X88666700Y-82634336D01*
X88641079Y-82505531D01*
X88590822Y-82384199D01*
X88517860Y-82275003D01*
X88424997Y-82182140D01*
X88315801Y-82109178D01*
X88194469Y-82058921D01*
X88065664Y-82033300D01*
X87934336Y-82033300D01*
X87805531Y-82058921D01*
X87684199Y-82109178D01*
X87575003Y-82182140D01*
X87482140Y-82275003D01*
X87409178Y-82384199D01*
X87358921Y-82505531D01*
X87333300Y-82634336D01*
X85077193Y-82634336D01*
X85024997Y-82582140D01*
X84915801Y-82509178D01*
X84794469Y-82458921D01*
X84665664Y-82433300D01*
X84534336Y-82433300D01*
X84405531Y-82458921D01*
X84284199Y-82509178D01*
X84175003Y-82582140D01*
X84082140Y-82675003D01*
X84009178Y-82784199D01*
X83958921Y-82905531D01*
X83933300Y-83034336D01*
X78508321Y-83034336D01*
X78578703Y-82929002D01*
X78628960Y-82807670D01*
X78654581Y-82678865D01*
X78654581Y-82547537D01*
X78628960Y-82418732D01*
X78578703Y-82297400D01*
X78505741Y-82188204D01*
X78412878Y-82095341D01*
X78303682Y-82022379D01*
X78182350Y-81972122D01*
X78053545Y-81946501D01*
X77922217Y-81946501D01*
X77793412Y-81972122D01*
X77672080Y-82022379D01*
X77562884Y-82095341D01*
X77470021Y-82188204D01*
X77397059Y-82297400D01*
X77346802Y-82418732D01*
X77321181Y-82547537D01*
X75166326Y-82547537D01*
X75117860Y-82475003D01*
X75024997Y-82382140D01*
X74915801Y-82309178D01*
X74794469Y-82258921D01*
X74665664Y-82233300D01*
X74534336Y-82233300D01*
X74405531Y-82258921D01*
X74284199Y-82309178D01*
X74175003Y-82382140D01*
X74082140Y-82475003D01*
X74009178Y-82584199D01*
X73958921Y-82705531D01*
X73933300Y-82834336D01*
X66788900Y-82834336D01*
X66788900Y-81434336D01*
X69533300Y-81434336D01*
X69533300Y-81565664D01*
X69558921Y-81694469D01*
X69609178Y-81815801D01*
X69682140Y-81924997D01*
X69775003Y-82017860D01*
X69884199Y-82090822D01*
X70005531Y-82141079D01*
X70134336Y-82166700D01*
X70265664Y-82166700D01*
X70394469Y-82141079D01*
X70515801Y-82090822D01*
X70624997Y-82017860D01*
X70717860Y-81924997D01*
X70790822Y-81815801D01*
X70841079Y-81694469D01*
X70866700Y-81565664D01*
X70866700Y-81434336D01*
X79633300Y-81434336D01*
X79633300Y-81565664D01*
X79658921Y-81694469D01*
X79709178Y-81815801D01*
X79782140Y-81924997D01*
X79875003Y-82017860D01*
X79984199Y-82090822D01*
X80105531Y-82141079D01*
X80234336Y-82166700D01*
X80365664Y-82166700D01*
X80494469Y-82141079D01*
X80615801Y-82090822D01*
X80724997Y-82017860D01*
X80817860Y-81924997D01*
X80890822Y-81815801D01*
X80941079Y-81694469D01*
X80966700Y-81565664D01*
X80966700Y-81434336D01*
X80941079Y-81305531D01*
X80890822Y-81184199D01*
X80817860Y-81075003D01*
X80724997Y-80982140D01*
X80615801Y-80909178D01*
X80494469Y-80858921D01*
X80365664Y-80833300D01*
X80234336Y-80833300D01*
X80105531Y-80858921D01*
X79984199Y-80909178D01*
X79875003Y-80982140D01*
X79782140Y-81075003D01*
X79709178Y-81184199D01*
X79658921Y-81305531D01*
X79633300Y-81434336D01*
X70866700Y-81434336D01*
X70841079Y-81305531D01*
X70790822Y-81184199D01*
X70717860Y-81075003D01*
X70624997Y-80982140D01*
X70515801Y-80909178D01*
X70394469Y-80858921D01*
X70265664Y-80833300D01*
X70134336Y-80833300D01*
X70005531Y-80858921D01*
X69884199Y-80909178D01*
X69775003Y-80982140D01*
X69682140Y-81075003D01*
X69609178Y-81184199D01*
X69558921Y-81305531D01*
X69533300Y-81434336D01*
X66788900Y-81434336D01*
X66788900Y-78259346D01*
X76035832Y-78259346D01*
X76035832Y-78390674D01*
X76061453Y-78519479D01*
X76111710Y-78640811D01*
X76184672Y-78750007D01*
X76277535Y-78842870D01*
X76386731Y-78915832D01*
X76508063Y-78966089D01*
X76636868Y-78991710D01*
X76768196Y-78991710D01*
X76897001Y-78966089D01*
X77018333Y-78915832D01*
X77127529Y-78842870D01*
X77220392Y-78750007D01*
X77293354Y-78640811D01*
X77343611Y-78519479D01*
X77369232Y-78390674D01*
X77369232Y-78259346D01*
X77364258Y-78234336D01*
X86233300Y-78234336D01*
X86233300Y-78365664D01*
X86258921Y-78494469D01*
X86309178Y-78615801D01*
X86382140Y-78724997D01*
X86475003Y-78817860D01*
X86584199Y-78890822D01*
X86705531Y-78941079D01*
X86834336Y-78966700D01*
X86965664Y-78966700D01*
X87094469Y-78941079D01*
X87215801Y-78890822D01*
X87324997Y-78817860D01*
X87417860Y-78724997D01*
X87490822Y-78615801D01*
X87541079Y-78494469D01*
X87566700Y-78365664D01*
X87566700Y-78234336D01*
X87541079Y-78105531D01*
X87490822Y-77984199D01*
X87417860Y-77875003D01*
X87324997Y-77782140D01*
X87215801Y-77709178D01*
X87094469Y-77658921D01*
X86965664Y-77633300D01*
X86834336Y-77633300D01*
X86705531Y-77658921D01*
X86584199Y-77709178D01*
X86475003Y-77782140D01*
X86382140Y-77875003D01*
X86309178Y-77984199D01*
X86258921Y-78105531D01*
X86233300Y-78234336D01*
X77364258Y-78234336D01*
X77343611Y-78130541D01*
X77293354Y-78009209D01*
X77220392Y-77900013D01*
X77127529Y-77807150D01*
X77018333Y-77734188D01*
X76897001Y-77683931D01*
X76768196Y-77658310D01*
X76636868Y-77658310D01*
X76508063Y-77683931D01*
X76386731Y-77734188D01*
X76277535Y-77807150D01*
X76184672Y-77900013D01*
X76111710Y-78009209D01*
X76061453Y-78130541D01*
X76035832Y-78259346D01*
X66788900Y-78259346D01*
X66788900Y-77500000D01*
X66787192Y-77482656D01*
X66782133Y-77465979D01*
X66773918Y-77450610D01*
X66762862Y-77437138D01*
X66749390Y-77426082D01*
X66734021Y-77417867D01*
X66717344Y-77412808D01*
X66700000Y-77411100D01*
X50291700Y-77411100D01*
X50291700Y-75292769D01*
X50408331Y-75341079D01*
X50537136Y-75366700D01*
X50598111Y-75366700D01*
X50575003Y-75382140D01*
X50482140Y-75475003D01*
X50409178Y-75584199D01*
X50358921Y-75705531D01*
X50333300Y-75834336D01*
X50333300Y-75965664D01*
X50358921Y-76094469D01*
X50409178Y-76215801D01*
X50482140Y-76324997D01*
X50575003Y-76417860D01*
X50684199Y-76490822D01*
X50805531Y-76541079D01*
X50934336Y-76566700D01*
X51065664Y-76566700D01*
X51194469Y-76541079D01*
X51315801Y-76490822D01*
X51424997Y-76417860D01*
X51517860Y-76324997D01*
X51590822Y-76215801D01*
X51641079Y-76094469D01*
X51666700Y-75965664D01*
X51666700Y-75834336D01*
X51641079Y-75705531D01*
X51590822Y-75584199D01*
X51517860Y-75475003D01*
X51424997Y-75382140D01*
X51315801Y-75309178D01*
X51194469Y-75258921D01*
X51065664Y-75233300D01*
X51004689Y-75233300D01*
X51027797Y-75217860D01*
X51120660Y-75124997D01*
X51181237Y-75034336D01*
X84533300Y-75034336D01*
X84533300Y-75165664D01*
X84558921Y-75294469D01*
X84609178Y-75415801D01*
X84682140Y-75524997D01*
X84775003Y-75617860D01*
X84884199Y-75690822D01*
X85005531Y-75741079D01*
X85134336Y-75766700D01*
X85265664Y-75766700D01*
X85394469Y-75741079D01*
X85515801Y-75690822D01*
X85624997Y-75617860D01*
X85717860Y-75524997D01*
X85750000Y-75476896D01*
X85782140Y-75524997D01*
X85875003Y-75617860D01*
X85984199Y-75690822D01*
X86105531Y-75741079D01*
X86234336Y-75766700D01*
X86365664Y-75766700D01*
X86494469Y-75741079D01*
X86615801Y-75690822D01*
X86724997Y-75617860D01*
X86817860Y-75524997D01*
X86890822Y-75415801D01*
X86900000Y-75393643D01*
X86909178Y-75415801D01*
X86982140Y-75524997D01*
X87075003Y-75617860D01*
X87184199Y-75690822D01*
X87305531Y-75741079D01*
X87434336Y-75766700D01*
X87565664Y-75766700D01*
X87694469Y-75741079D01*
X87815801Y-75690822D01*
X87924997Y-75617860D01*
X88017860Y-75524997D01*
X88050000Y-75476896D01*
X88082140Y-75524997D01*
X88175003Y-75617860D01*
X88284199Y-75690822D01*
X88405531Y-75741079D01*
X88534336Y-75766700D01*
X88665664Y-75766700D01*
X88794469Y-75741079D01*
X88915801Y-75690822D01*
X89024997Y-75617860D01*
X89117860Y-75524997D01*
X89190822Y-75415801D01*
X89241079Y-75294469D01*
X89266700Y-75165664D01*
X89266700Y-75034336D01*
X89241079Y-74905531D01*
X89190822Y-74784199D01*
X89117860Y-74675003D01*
X89024997Y-74582140D01*
X88915801Y-74509178D01*
X88794469Y-74458921D01*
X88665664Y-74433300D01*
X88534336Y-74433300D01*
X88405531Y-74458921D01*
X88284199Y-74509178D01*
X88175003Y-74582140D01*
X88082140Y-74675003D01*
X88050000Y-74723104D01*
X88017860Y-74675003D01*
X87924997Y-74582140D01*
X87815801Y-74509178D01*
X87694469Y-74458921D01*
X87565664Y-74433300D01*
X87434336Y-74433300D01*
X87305531Y-74458921D01*
X87184199Y-74509178D01*
X87075003Y-74582140D01*
X86982140Y-74675003D01*
X86909178Y-74784199D01*
X86900000Y-74806357D01*
X86890822Y-74784199D01*
X86817860Y-74675003D01*
X86724997Y-74582140D01*
X86615801Y-74509178D01*
X86494469Y-74458921D01*
X86365664Y-74433300D01*
X86234336Y-74433300D01*
X86105531Y-74458921D01*
X85984199Y-74509178D01*
X85875003Y-74582140D01*
X85782140Y-74675003D01*
X85750000Y-74723104D01*
X85717860Y-74675003D01*
X85624997Y-74582140D01*
X85515801Y-74509178D01*
X85394469Y-74458921D01*
X85265664Y-74433300D01*
X85134336Y-74433300D01*
X85005531Y-74458921D01*
X84884199Y-74509178D01*
X84775003Y-74582140D01*
X84682140Y-74675003D01*
X84609178Y-74784199D01*
X84558921Y-74905531D01*
X84533300Y-75034336D01*
X51181237Y-75034336D01*
X51193622Y-75015801D01*
X51243879Y-74894469D01*
X51269500Y-74765664D01*
X51269500Y-74634336D01*
X51243879Y-74505531D01*
X51193622Y-74384199D01*
X51120660Y-74275003D01*
X51027797Y-74182140D01*
X50918601Y-74109178D01*
X50797269Y-74058921D01*
X50668464Y-74033300D01*
X50537136Y-74033300D01*
X50408331Y-74058921D01*
X50291700Y-74107231D01*
X50291700Y-63634336D01*
X50833300Y-63634336D01*
X50833300Y-63765664D01*
X50858921Y-63894469D01*
X50909178Y-64015801D01*
X50982140Y-64124997D01*
X51075003Y-64217860D01*
X51184199Y-64290822D01*
X51305531Y-64341079D01*
X51434336Y-64366700D01*
X51565664Y-64366700D01*
X51694469Y-64341079D01*
X51815801Y-64290822D01*
X51924997Y-64217860D01*
X52017860Y-64124997D01*
X52090822Y-64015801D01*
X52141079Y-63894469D01*
X52166700Y-63765664D01*
X52166700Y-63634336D01*
X52141079Y-63505531D01*
X52090822Y-63384199D01*
X52017860Y-63275003D01*
X51924997Y-63182140D01*
X51815801Y-63109178D01*
X51694469Y-63058921D01*
X51565664Y-63033300D01*
X51434336Y-63033300D01*
X51305531Y-63058921D01*
X51184199Y-63109178D01*
X51075003Y-63182140D01*
X50982140Y-63275003D01*
X50909178Y-63384199D01*
X50858921Y-63505531D01*
X50833300Y-63634336D01*
X50291700Y-63634336D01*
X50291700Y-58373605D01*
X50309178Y-58415801D01*
X50382140Y-58524997D01*
X50475003Y-58617860D01*
X50584199Y-58690822D01*
X50618941Y-58705212D01*
X50572090Y-58775330D01*
X50521833Y-58896662D01*
X50496212Y-59025467D01*
X50496212Y-59156795D01*
X50521833Y-59285600D01*
X50572090Y-59406932D01*
X50645052Y-59516128D01*
X50673304Y-59544380D01*
X50667113Y-59548516D01*
X50574250Y-59641379D01*
X50501288Y-59750575D01*
X50451031Y-59871907D01*
X50425410Y-60000712D01*
X50425410Y-60132040D01*
X50451031Y-60260845D01*
X50501288Y-60382177D01*
X50574250Y-60491373D01*
X50667113Y-60584236D01*
X50776309Y-60657198D01*
X50818486Y-60674668D01*
X50776309Y-60692138D01*
X50667113Y-60765100D01*
X50574250Y-60857963D01*
X50501288Y-60967159D01*
X50451031Y-61088491D01*
X50425410Y-61217296D01*
X50425410Y-61348624D01*
X50451031Y-61477429D01*
X50501288Y-61598761D01*
X50574250Y-61707957D01*
X50667113Y-61800820D01*
X50776309Y-61873782D01*
X50897641Y-61924039D01*
X51026446Y-61949660D01*
X51157774Y-61949660D01*
X51286579Y-61924039D01*
X51407911Y-61873782D01*
X51517107Y-61800820D01*
X51609970Y-61707957D01*
X51682932Y-61598761D01*
X51733189Y-61477429D01*
X51758810Y-61348624D01*
X51758810Y-61217296D01*
X51733189Y-61088491D01*
X51682932Y-60967159D01*
X51609970Y-60857963D01*
X51517107Y-60765100D01*
X51407911Y-60692138D01*
X51365734Y-60674668D01*
X51407911Y-60657198D01*
X51517107Y-60584236D01*
X51609970Y-60491373D01*
X51682932Y-60382177D01*
X51733189Y-60260845D01*
X51758810Y-60132040D01*
X51758810Y-60000712D01*
X51733189Y-59871907D01*
X51682932Y-59750575D01*
X51609970Y-59641379D01*
X51581718Y-59613127D01*
X51587909Y-59608991D01*
X51680772Y-59516128D01*
X51753734Y-59406932D01*
X51803991Y-59285600D01*
X51829612Y-59156795D01*
X51829612Y-59025467D01*
X51803991Y-58896662D01*
X51753734Y-58775330D01*
X51680772Y-58666134D01*
X51587909Y-58573271D01*
X51478713Y-58500309D01*
X51443971Y-58485919D01*
X51490822Y-58415801D01*
X51541079Y-58294469D01*
X51566700Y-58165664D01*
X51566700Y-58034336D01*
X51541079Y-57905531D01*
X51490822Y-57784199D01*
X51424532Y-57684988D01*
X51524997Y-57617860D01*
X51617860Y-57524997D01*
X51690822Y-57415801D01*
X51741079Y-57294469D01*
X51766700Y-57165664D01*
X51766700Y-57034336D01*
X51741079Y-56905531D01*
X51690822Y-56784199D01*
X51617860Y-56675003D01*
X51524997Y-56582140D01*
X51415801Y-56509178D01*
X51294469Y-56458921D01*
X51165664Y-56433300D01*
X51034336Y-56433300D01*
X50905531Y-56458921D01*
X50784199Y-56509178D01*
X50675003Y-56582140D01*
X50582140Y-56675003D01*
X50509178Y-56784199D01*
X50458921Y-56905531D01*
X50433300Y-57034336D01*
X50433300Y-57165664D01*
X50458921Y-57294469D01*
X50509178Y-57415801D01*
X50575468Y-57515012D01*
X50475003Y-57582140D01*
X50382140Y-57675003D01*
X50309178Y-57784199D01*
X50291700Y-57826395D01*
X50291700Y-55288900D01*
X50467251Y-55288900D01*
X50535607Y-55357256D01*
G37*
X50535607Y-55357256D02*
X50644803Y-55430218D01*
X50766135Y-55480475D01*
X50894940Y-55506096D01*
X51026268Y-55506096D01*
X51155073Y-55480475D01*
X51276405Y-55430218D01*
X51385601Y-55357256D01*
X51453957Y-55288900D01*
X52411100Y-55288900D01*
X52411100Y-56998035D01*
X52384199Y-57009178D01*
X52275003Y-57082140D01*
X52182140Y-57175003D01*
X52109178Y-57284199D01*
X52058921Y-57405531D01*
X52033300Y-57534336D01*
X52033300Y-57665664D01*
X52058921Y-57794469D01*
X52109178Y-57915801D01*
X52182140Y-58024997D01*
X52275003Y-58117860D01*
X52319001Y-58147258D01*
X52319000Y-59581290D01*
X52317157Y-59600000D01*
X52319000Y-59618710D01*
X52319000Y-59618712D01*
X52324513Y-59674688D01*
X52339628Y-59724514D01*
X52346299Y-59746507D01*
X52381678Y-59812696D01*
X52385507Y-59817361D01*
X52411100Y-59848547D01*
X52411100Y-61641339D01*
X52314593Y-61601365D01*
X52185788Y-61575744D01*
X52054460Y-61575744D01*
X51925655Y-61601365D01*
X51804323Y-61651622D01*
X51695127Y-61724584D01*
X51602264Y-61817447D01*
X51529302Y-61926643D01*
X51479045Y-62047975D01*
X51453424Y-62176780D01*
X51453424Y-62308108D01*
X51479045Y-62436913D01*
X51529302Y-62558245D01*
X51602264Y-62667441D01*
X51695127Y-62760304D01*
X51804323Y-62833266D01*
X51925655Y-62883523D01*
X52054460Y-62909144D01*
X52185788Y-62909144D01*
X52314593Y-62883523D01*
X52321241Y-62880769D01*
X52329082Y-62920186D01*
X52379339Y-63041518D01*
X52411100Y-63089052D01*
X52411100Y-74100000D01*
X52412808Y-74117344D01*
X52417867Y-74134021D01*
X52426082Y-74149390D01*
X52437138Y-74162862D01*
X52450610Y-74173918D01*
X52465979Y-74182133D01*
X52482656Y-74187192D01*
X52500000Y-74188900D01*
X66800000Y-74188900D01*
X66817344Y-74187192D01*
X66834021Y-74182133D01*
X66849390Y-74173918D01*
X66862862Y-74162862D01*
X66873918Y-74149390D01*
X66881964Y-74134336D01*
X70833300Y-74134336D01*
X70833300Y-74265664D01*
X70858921Y-74394469D01*
X70909178Y-74515801D01*
X70982140Y-74624997D01*
X71075003Y-74717860D01*
X71184199Y-74790822D01*
X71305531Y-74841079D01*
X71434336Y-74866700D01*
X71565664Y-74866700D01*
X71694469Y-74841079D01*
X71815801Y-74790822D01*
X71924997Y-74717860D01*
X72017860Y-74624997D01*
X72090822Y-74515801D01*
X72141079Y-74394469D01*
X72166700Y-74265664D01*
X72166700Y-74134336D01*
X80633300Y-74134336D01*
X80633300Y-74265664D01*
X80658921Y-74394469D01*
X80709178Y-74515801D01*
X80782140Y-74624997D01*
X80875003Y-74717860D01*
X80984199Y-74790822D01*
X81105531Y-74841079D01*
X81234336Y-74866700D01*
X81365664Y-74866700D01*
X81494469Y-74841079D01*
X81615801Y-74790822D01*
X81724997Y-74717860D01*
X81817860Y-74624997D01*
X81890822Y-74515801D01*
X81941079Y-74394469D01*
X81966700Y-74265664D01*
X81966700Y-74134336D01*
X81941079Y-74005531D01*
X81890822Y-73884199D01*
X81817860Y-73775003D01*
X81724997Y-73682140D01*
X81615801Y-73609178D01*
X81494469Y-73558921D01*
X81365664Y-73533300D01*
X81234336Y-73533300D01*
X81105531Y-73558921D01*
X80984199Y-73609178D01*
X80875003Y-73682140D01*
X80782140Y-73775003D01*
X80709178Y-73884199D01*
X80658921Y-74005531D01*
X80633300Y-74134336D01*
X72166700Y-74134336D01*
X72141079Y-74005531D01*
X72090822Y-73884199D01*
X72017860Y-73775003D01*
X71924997Y-73682140D01*
X71815801Y-73609178D01*
X71694469Y-73558921D01*
X71565664Y-73533300D01*
X71434336Y-73533300D01*
X71305531Y-73558921D01*
X71184199Y-73609178D01*
X71075003Y-73682140D01*
X70982140Y-73775003D01*
X70909178Y-73884199D01*
X70858921Y-74005531D01*
X70833300Y-74134336D01*
X66881964Y-74134336D01*
X66882133Y-74134021D01*
X66887192Y-74117344D01*
X66888900Y-74100000D01*
X66888900Y-72434336D01*
X84533300Y-72434336D01*
X84533300Y-72565664D01*
X84558921Y-72694469D01*
X84609178Y-72815801D01*
X84682140Y-72924997D01*
X84775003Y-73017860D01*
X84884199Y-73090822D01*
X85005531Y-73141079D01*
X85134336Y-73166700D01*
X85265664Y-73166700D01*
X85394469Y-73141079D01*
X85515801Y-73090822D01*
X85624997Y-73017860D01*
X85717860Y-72924997D01*
X85750000Y-72876896D01*
X85782140Y-72924997D01*
X85875003Y-73017860D01*
X85984199Y-73090822D01*
X86105531Y-73141079D01*
X86234336Y-73166700D01*
X86365664Y-73166700D01*
X86494469Y-73141079D01*
X86615801Y-73090822D01*
X86724997Y-73017860D01*
X86817860Y-72924997D01*
X86890822Y-72815801D01*
X86941079Y-72694469D01*
X86966700Y-72565664D01*
X86966700Y-72434336D01*
X86941079Y-72305531D01*
X86890822Y-72184199D01*
X86817860Y-72075003D01*
X86724997Y-71982140D01*
X86615801Y-71909178D01*
X86494469Y-71858921D01*
X86365664Y-71833300D01*
X86234336Y-71833300D01*
X86105531Y-71858921D01*
X85984199Y-71909178D01*
X85875003Y-71982140D01*
X85782140Y-72075003D01*
X85750000Y-72123104D01*
X85717860Y-72075003D01*
X85624997Y-71982140D01*
X85515801Y-71909178D01*
X85394469Y-71858921D01*
X85265664Y-71833300D01*
X85134336Y-71833300D01*
X85005531Y-71858921D01*
X84884199Y-71909178D01*
X84775003Y-71982140D01*
X84682140Y-72075003D01*
X84609178Y-72184199D01*
X84558921Y-72305531D01*
X84533300Y-72434336D01*
X66888900Y-72434336D01*
X66888900Y-71308745D01*
X80053545Y-71308745D01*
X80072255Y-71310588D01*
X80090965Y-71308745D01*
X80090968Y-71308745D01*
X80146944Y-71303232D01*
X80218763Y-71281446D01*
X80284951Y-71246067D01*
X80342966Y-71198456D01*
X80354901Y-71183913D01*
X80549914Y-70988900D01*
X84100000Y-70988900D01*
X84117344Y-70987192D01*
X84134021Y-70982133D01*
X84149390Y-70973918D01*
X84162862Y-70962862D01*
X84173918Y-70949390D01*
X84182133Y-70934021D01*
X84187192Y-70917344D01*
X84188900Y-70900000D01*
X84188900Y-68188900D01*
X89911100Y-68188900D01*
X89911100Y-69781323D01*
X89909178Y-69784199D01*
X89858921Y-69905531D01*
X89833300Y-70034336D01*
X89833300Y-70165664D01*
X89858921Y-70294469D01*
X89909178Y-70415801D01*
X89911100Y-70418677D01*
X89911100Y-72065810D01*
X89894469Y-72058921D01*
X89765664Y-72033300D01*
X89634336Y-72033300D01*
X89505531Y-72058921D01*
X89384199Y-72109178D01*
X89275003Y-72182140D01*
X89182140Y-72275003D01*
X89109178Y-72384199D01*
X89058921Y-72505531D01*
X89033300Y-72634336D01*
X89033300Y-72765664D01*
X89058921Y-72894469D01*
X89109178Y-73015801D01*
X89182140Y-73124997D01*
X89275003Y-73217860D01*
X89384199Y-73290822D01*
X89505531Y-73341079D01*
X89634336Y-73366700D01*
X89765664Y-73366700D01*
X89894469Y-73341079D01*
X89911100Y-73334190D01*
X89911100Y-94811100D01*
X66788900Y-94811100D01*
X66788900Y-89934336D01*
X70333300Y-89934336D01*
X70333300Y-90065664D01*
X70358921Y-90194469D01*
X70409178Y-90315801D01*
X70482140Y-90424997D01*
X70575003Y-90517860D01*
X70684199Y-90590822D01*
X70805531Y-90641079D01*
X70934336Y-90666700D01*
X71065664Y-90666700D01*
X71194469Y-90641079D01*
X71315801Y-90590822D01*
X71424997Y-90517860D01*
X71517860Y-90424997D01*
X71534430Y-90400198D01*
X71549176Y-90435799D01*
X71622138Y-90544995D01*
X71715001Y-90637858D01*
X71824197Y-90710820D01*
X71945529Y-90761077D01*
X72074334Y-90786698D01*
X72205662Y-90786698D01*
X72334467Y-90761077D01*
X72455799Y-90710820D01*
X72564995Y-90637858D01*
X72657858Y-90544995D01*
X72730820Y-90435799D01*
X72781077Y-90314467D01*
X72806698Y-90185662D01*
X72806698Y-90054334D01*
X72782829Y-89934336D01*
X73333300Y-89934336D01*
X73333300Y-90065664D01*
X73358921Y-90194469D01*
X73409178Y-90315801D01*
X73482140Y-90424997D01*
X73575003Y-90517860D01*
X73684199Y-90590822D01*
X73805531Y-90641079D01*
X73934336Y-90666700D01*
X74065664Y-90666700D01*
X74194469Y-90641079D01*
X74315801Y-90590822D01*
X74424997Y-90517860D01*
X74517860Y-90424997D01*
X74590822Y-90315801D01*
X74641079Y-90194469D01*
X74666700Y-90065664D01*
X74666700Y-89934336D01*
X74646809Y-89834336D01*
X80333300Y-89834336D01*
X80333300Y-89965664D01*
X80358921Y-90094469D01*
X80409178Y-90215801D01*
X80482140Y-90324997D01*
X80575003Y-90417860D01*
X80684199Y-90490822D01*
X80805531Y-90541079D01*
X80934336Y-90566700D01*
X81065664Y-90566700D01*
X81194469Y-90541079D01*
X81315801Y-90490822D01*
X81424997Y-90417860D01*
X81517860Y-90324997D01*
X81590822Y-90215801D01*
X81618501Y-90148977D01*
X81636086Y-90237380D01*
X81686343Y-90358712D01*
X81759305Y-90467908D01*
X81852168Y-90560771D01*
X81961364Y-90633733D01*
X82082696Y-90683990D01*
X82211501Y-90709611D01*
X82342829Y-90709611D01*
X82471634Y-90683990D01*
X82592966Y-90633733D01*
X82702162Y-90560771D01*
X82795025Y-90467908D01*
X82867987Y-90358712D01*
X82918244Y-90237380D01*
X82943865Y-90108575D01*
X82943865Y-90034336D01*
X83333300Y-90034336D01*
X83333300Y-90165664D01*
X83358921Y-90294469D01*
X83409178Y-90415801D01*
X83482140Y-90524997D01*
X83575003Y-90617860D01*
X83684199Y-90690822D01*
X83805531Y-90741079D01*
X83934336Y-90766700D01*
X84065664Y-90766700D01*
X84194469Y-90741079D01*
X84315801Y-90690822D01*
X84424997Y-90617860D01*
X84517860Y-90524997D01*
X84590822Y-90415801D01*
X84641079Y-90294469D01*
X84666700Y-90165664D01*
X84666700Y-90034336D01*
X84641079Y-89905531D01*
X84590822Y-89784199D01*
X84517860Y-89675003D01*
X84424997Y-89582140D01*
X84315801Y-89509178D01*
X84194469Y-89458921D01*
X84065664Y-89433300D01*
X83934336Y-89433300D01*
X83805531Y-89458921D01*
X83684199Y-89509178D01*
X83575003Y-89582140D01*
X83482140Y-89675003D01*
X83409178Y-89784199D01*
X83358921Y-89905531D01*
X83333300Y-90034336D01*
X82943865Y-90034336D01*
X82943865Y-89977247D01*
X82918244Y-89848442D01*
X82867987Y-89727110D01*
X82795025Y-89617914D01*
X82702162Y-89525051D01*
X82592966Y-89452089D01*
X82471634Y-89401832D01*
X82342829Y-89376211D01*
X82211501Y-89376211D01*
X82082696Y-89401832D01*
X81961364Y-89452089D01*
X81852168Y-89525051D01*
X81759305Y-89617914D01*
X81686343Y-89727110D01*
X81658664Y-89793934D01*
X81641079Y-89705531D01*
X81590822Y-89584199D01*
X81517860Y-89475003D01*
X81424997Y-89382140D01*
X81315801Y-89309178D01*
X81194469Y-89258921D01*
X81065664Y-89233300D01*
X80934336Y-89233300D01*
X80805531Y-89258921D01*
X80684199Y-89309178D01*
X80575003Y-89382140D01*
X80482140Y-89475003D01*
X80409178Y-89584199D01*
X80358921Y-89705531D01*
X80333300Y-89834336D01*
X74646809Y-89834336D01*
X74641079Y-89805531D01*
X74590822Y-89684199D01*
X74517860Y-89575003D01*
X74424997Y-89482140D01*
X74315801Y-89409178D01*
X74194469Y-89358921D01*
X74065664Y-89333300D01*
X73934336Y-89333300D01*
X73805531Y-89358921D01*
X73684199Y-89409178D01*
X73575003Y-89482140D01*
X73482140Y-89575003D01*
X73409178Y-89684199D01*
X73358921Y-89805531D01*
X73333300Y-89934336D01*
X72782829Y-89934336D01*
X72781077Y-89925529D01*
X72730820Y-89804197D01*
X72657858Y-89695001D01*
X72564995Y-89602138D01*
X72455799Y-89529176D01*
X72334467Y-89478919D01*
X72205662Y-89453298D01*
X72074334Y-89453298D01*
X71945529Y-89478919D01*
X71824197Y-89529176D01*
X71715001Y-89602138D01*
X71622138Y-89695001D01*
X71605568Y-89719800D01*
X71590822Y-89684199D01*
X71517860Y-89575003D01*
X71424997Y-89482140D01*
X71315801Y-89409178D01*
X71194469Y-89358921D01*
X71065664Y-89333300D01*
X70934336Y-89333300D01*
X70805531Y-89358921D01*
X70684199Y-89409178D01*
X70575003Y-89482140D01*
X70482140Y-89575003D01*
X70409178Y-89684199D01*
X70358921Y-89805531D01*
X70333300Y-89934336D01*
X66788900Y-89934336D01*
X66788900Y-88234336D01*
X73033300Y-88234336D01*
X73033300Y-88365664D01*
X73058921Y-88494469D01*
X73109178Y-88615801D01*
X73182140Y-88724997D01*
X73275003Y-88817860D01*
X73384199Y-88890822D01*
X73505531Y-88941079D01*
X73634336Y-88966700D01*
X73765664Y-88966700D01*
X73894469Y-88941079D01*
X74015801Y-88890822D01*
X74124997Y-88817860D01*
X74217860Y-88724997D01*
X74290822Y-88615801D01*
X74341079Y-88494469D01*
X74366700Y-88365664D01*
X74366700Y-88234336D01*
X74341079Y-88105531D01*
X74290822Y-87984199D01*
X74217860Y-87875003D01*
X74124997Y-87782140D01*
X74015801Y-87709178D01*
X73894469Y-87658921D01*
X73765664Y-87633300D01*
X73634336Y-87633300D01*
X73505531Y-87658921D01*
X73384199Y-87709178D01*
X73275003Y-87782140D01*
X73182140Y-87875003D01*
X73109178Y-87984199D01*
X73058921Y-88105531D01*
X73033300Y-88234336D01*
X66788900Y-88234336D01*
X66788900Y-87534336D01*
X77233300Y-87534336D01*
X77233300Y-87665664D01*
X77258921Y-87794469D01*
X77309178Y-87915801D01*
X77382140Y-88024997D01*
X77475003Y-88117860D01*
X77584199Y-88190822D01*
X77705531Y-88241079D01*
X77834336Y-88266700D01*
X77965664Y-88266700D01*
X78094469Y-88241079D01*
X78215801Y-88190822D01*
X78300338Y-88134336D01*
X83133300Y-88134336D01*
X83133300Y-88265664D01*
X83158921Y-88394469D01*
X83209178Y-88515801D01*
X83282140Y-88624997D01*
X83375003Y-88717860D01*
X83484199Y-88790822D01*
X83605531Y-88841079D01*
X83734336Y-88866700D01*
X83865664Y-88866700D01*
X83994469Y-88841079D01*
X84115801Y-88790822D01*
X84224997Y-88717860D01*
X84317860Y-88624997D01*
X84390822Y-88515801D01*
X84441079Y-88394469D01*
X84466700Y-88265664D01*
X84466700Y-88134336D01*
X84441079Y-88005531D01*
X84390822Y-87884199D01*
X84317860Y-87775003D01*
X84224997Y-87682140D01*
X84115801Y-87609178D01*
X83994469Y-87558921D01*
X83865664Y-87533300D01*
X83734336Y-87533300D01*
X83605531Y-87558921D01*
X83484199Y-87609178D01*
X83375003Y-87682140D01*
X83282140Y-87775003D01*
X83209178Y-87884199D01*
X83158921Y-88005531D01*
X83133300Y-88134336D01*
X78300338Y-88134336D01*
X78324997Y-88117860D01*
X78417860Y-88024997D01*
X78490822Y-87915801D01*
X78541079Y-87794469D01*
X78566700Y-87665664D01*
X78566700Y-87534336D01*
X78546809Y-87434336D01*
X87233300Y-87434336D01*
X87233300Y-87565664D01*
X87258921Y-87694469D01*
X87309178Y-87815801D01*
X87382140Y-87924997D01*
X87475003Y-88017860D01*
X87584199Y-88090822D01*
X87705531Y-88141079D01*
X87834336Y-88166700D01*
X87965664Y-88166700D01*
X88094469Y-88141079D01*
X88215801Y-88090822D01*
X88324997Y-88017860D01*
X88417860Y-87924997D01*
X88490822Y-87815801D01*
X88541079Y-87694469D01*
X88566700Y-87565664D01*
X88566700Y-87434336D01*
X88541079Y-87305531D01*
X88490822Y-87184199D01*
X88417860Y-87075003D01*
X88324997Y-86982140D01*
X88215801Y-86909178D01*
X88094469Y-86858921D01*
X87965664Y-86833300D01*
X87834336Y-86833300D01*
X87705531Y-86858921D01*
X87584199Y-86909178D01*
X87475003Y-86982140D01*
X87382140Y-87075003D01*
X87309178Y-87184199D01*
X87258921Y-87305531D01*
X87233300Y-87434336D01*
X78546809Y-87434336D01*
X78541079Y-87405531D01*
X78490822Y-87284199D01*
X78417860Y-87175003D01*
X78324997Y-87082140D01*
X78215801Y-87009178D01*
X78094469Y-86958921D01*
X77965664Y-86933300D01*
X77834336Y-86933300D01*
X77705531Y-86958921D01*
X77584199Y-87009178D01*
X77475003Y-87082140D01*
X77382140Y-87175003D01*
X77309178Y-87284199D01*
X77258921Y-87405531D01*
X77233300Y-87534336D01*
X66788900Y-87534336D01*
X66788900Y-82834336D01*
X73933300Y-82834336D01*
X73933300Y-82965664D01*
X73958921Y-83094469D01*
X74009178Y-83215801D01*
X74082140Y-83324997D01*
X74175003Y-83417860D01*
X74284199Y-83490822D01*
X74405531Y-83541079D01*
X74534336Y-83566700D01*
X74665664Y-83566700D01*
X74794469Y-83541079D01*
X74915801Y-83490822D01*
X75024997Y-83417860D01*
X75117860Y-83324997D01*
X75190822Y-83215801D01*
X75241079Y-83094469D01*
X75266700Y-82965664D01*
X75266700Y-82834336D01*
X75241079Y-82705531D01*
X75190822Y-82584199D01*
X75166326Y-82547537D01*
X77321181Y-82547537D01*
X77321181Y-82678865D01*
X77346802Y-82807670D01*
X77397059Y-82929002D01*
X77470021Y-83038198D01*
X77562884Y-83131061D01*
X77672080Y-83204023D01*
X77793412Y-83254280D01*
X77922217Y-83279901D01*
X78053545Y-83279901D01*
X78182350Y-83254280D01*
X78303682Y-83204023D01*
X78412878Y-83131061D01*
X78505741Y-83038198D01*
X78508321Y-83034336D01*
X83933300Y-83034336D01*
X83933300Y-83165664D01*
X83958921Y-83294469D01*
X84009178Y-83415801D01*
X84082140Y-83524997D01*
X84175003Y-83617860D01*
X84284199Y-83690822D01*
X84405531Y-83741079D01*
X84534336Y-83766700D01*
X84665664Y-83766700D01*
X84794469Y-83741079D01*
X84915801Y-83690822D01*
X85024997Y-83617860D01*
X85117860Y-83524997D01*
X85190822Y-83415801D01*
X85241079Y-83294469D01*
X85266700Y-83165664D01*
X85266700Y-83034336D01*
X85241079Y-82905531D01*
X85190822Y-82784199D01*
X85117860Y-82675003D01*
X85077193Y-82634336D01*
X87333300Y-82634336D01*
X87333300Y-82765664D01*
X87358921Y-82894469D01*
X87409178Y-83015801D01*
X87482140Y-83124997D01*
X87575003Y-83217860D01*
X87684199Y-83290822D01*
X87805531Y-83341079D01*
X87934336Y-83366700D01*
X88065664Y-83366700D01*
X88194469Y-83341079D01*
X88315801Y-83290822D01*
X88424997Y-83217860D01*
X88517860Y-83124997D01*
X88590822Y-83015801D01*
X88641079Y-82894469D01*
X88666700Y-82765664D01*
X88666700Y-82634336D01*
X88641079Y-82505531D01*
X88590822Y-82384199D01*
X88517860Y-82275003D01*
X88424997Y-82182140D01*
X88315801Y-82109178D01*
X88194469Y-82058921D01*
X88065664Y-82033300D01*
X87934336Y-82033300D01*
X87805531Y-82058921D01*
X87684199Y-82109178D01*
X87575003Y-82182140D01*
X87482140Y-82275003D01*
X87409178Y-82384199D01*
X87358921Y-82505531D01*
X87333300Y-82634336D01*
X85077193Y-82634336D01*
X85024997Y-82582140D01*
X84915801Y-82509178D01*
X84794469Y-82458921D01*
X84665664Y-82433300D01*
X84534336Y-82433300D01*
X84405531Y-82458921D01*
X84284199Y-82509178D01*
X84175003Y-82582140D01*
X84082140Y-82675003D01*
X84009178Y-82784199D01*
X83958921Y-82905531D01*
X83933300Y-83034336D01*
X78508321Y-83034336D01*
X78578703Y-82929002D01*
X78628960Y-82807670D01*
X78654581Y-82678865D01*
X78654581Y-82547537D01*
X78628960Y-82418732D01*
X78578703Y-82297400D01*
X78505741Y-82188204D01*
X78412878Y-82095341D01*
X78303682Y-82022379D01*
X78182350Y-81972122D01*
X78053545Y-81946501D01*
X77922217Y-81946501D01*
X77793412Y-81972122D01*
X77672080Y-82022379D01*
X77562884Y-82095341D01*
X77470021Y-82188204D01*
X77397059Y-82297400D01*
X77346802Y-82418732D01*
X77321181Y-82547537D01*
X75166326Y-82547537D01*
X75117860Y-82475003D01*
X75024997Y-82382140D01*
X74915801Y-82309178D01*
X74794469Y-82258921D01*
X74665664Y-82233300D01*
X74534336Y-82233300D01*
X74405531Y-82258921D01*
X74284199Y-82309178D01*
X74175003Y-82382140D01*
X74082140Y-82475003D01*
X74009178Y-82584199D01*
X73958921Y-82705531D01*
X73933300Y-82834336D01*
X66788900Y-82834336D01*
X66788900Y-81434336D01*
X69533300Y-81434336D01*
X69533300Y-81565664D01*
X69558921Y-81694469D01*
X69609178Y-81815801D01*
X69682140Y-81924997D01*
X69775003Y-82017860D01*
X69884199Y-82090822D01*
X70005531Y-82141079D01*
X70134336Y-82166700D01*
X70265664Y-82166700D01*
X70394469Y-82141079D01*
X70515801Y-82090822D01*
X70624997Y-82017860D01*
X70717860Y-81924997D01*
X70790822Y-81815801D01*
X70841079Y-81694469D01*
X70866700Y-81565664D01*
X70866700Y-81434336D01*
X79633300Y-81434336D01*
X79633300Y-81565664D01*
X79658921Y-81694469D01*
X79709178Y-81815801D01*
X79782140Y-81924997D01*
X79875003Y-82017860D01*
X79984199Y-82090822D01*
X80105531Y-82141079D01*
X80234336Y-82166700D01*
X80365664Y-82166700D01*
X80494469Y-82141079D01*
X80615801Y-82090822D01*
X80724997Y-82017860D01*
X80817860Y-81924997D01*
X80890822Y-81815801D01*
X80941079Y-81694469D01*
X80966700Y-81565664D01*
X80966700Y-81434336D01*
X80941079Y-81305531D01*
X80890822Y-81184199D01*
X80817860Y-81075003D01*
X80724997Y-80982140D01*
X80615801Y-80909178D01*
X80494469Y-80858921D01*
X80365664Y-80833300D01*
X80234336Y-80833300D01*
X80105531Y-80858921D01*
X79984199Y-80909178D01*
X79875003Y-80982140D01*
X79782140Y-81075003D01*
X79709178Y-81184199D01*
X79658921Y-81305531D01*
X79633300Y-81434336D01*
X70866700Y-81434336D01*
X70841079Y-81305531D01*
X70790822Y-81184199D01*
X70717860Y-81075003D01*
X70624997Y-80982140D01*
X70515801Y-80909178D01*
X70394469Y-80858921D01*
X70265664Y-80833300D01*
X70134336Y-80833300D01*
X70005531Y-80858921D01*
X69884199Y-80909178D01*
X69775003Y-80982140D01*
X69682140Y-81075003D01*
X69609178Y-81184199D01*
X69558921Y-81305531D01*
X69533300Y-81434336D01*
X66788900Y-81434336D01*
X66788900Y-78259346D01*
X76035832Y-78259346D01*
X76035832Y-78390674D01*
X76061453Y-78519479D01*
X76111710Y-78640811D01*
X76184672Y-78750007D01*
X76277535Y-78842870D01*
X76386731Y-78915832D01*
X76508063Y-78966089D01*
X76636868Y-78991710D01*
X76768196Y-78991710D01*
X76897001Y-78966089D01*
X77018333Y-78915832D01*
X77127529Y-78842870D01*
X77220392Y-78750007D01*
X77293354Y-78640811D01*
X77343611Y-78519479D01*
X77369232Y-78390674D01*
X77369232Y-78259346D01*
X77364258Y-78234336D01*
X86233300Y-78234336D01*
X86233300Y-78365664D01*
X86258921Y-78494469D01*
X86309178Y-78615801D01*
X86382140Y-78724997D01*
X86475003Y-78817860D01*
X86584199Y-78890822D01*
X86705531Y-78941079D01*
X86834336Y-78966700D01*
X86965664Y-78966700D01*
X87094469Y-78941079D01*
X87215801Y-78890822D01*
X87324997Y-78817860D01*
X87417860Y-78724997D01*
X87490822Y-78615801D01*
X87541079Y-78494469D01*
X87566700Y-78365664D01*
X87566700Y-78234336D01*
X87541079Y-78105531D01*
X87490822Y-77984199D01*
X87417860Y-77875003D01*
X87324997Y-77782140D01*
X87215801Y-77709178D01*
X87094469Y-77658921D01*
X86965664Y-77633300D01*
X86834336Y-77633300D01*
X86705531Y-77658921D01*
X86584199Y-77709178D01*
X86475003Y-77782140D01*
X86382140Y-77875003D01*
X86309178Y-77984199D01*
X86258921Y-78105531D01*
X86233300Y-78234336D01*
X77364258Y-78234336D01*
X77343611Y-78130541D01*
X77293354Y-78009209D01*
X77220392Y-77900013D01*
X77127529Y-77807150D01*
X77018333Y-77734188D01*
X76897001Y-77683931D01*
X76768196Y-77658310D01*
X76636868Y-77658310D01*
X76508063Y-77683931D01*
X76386731Y-77734188D01*
X76277535Y-77807150D01*
X76184672Y-77900013D01*
X76111710Y-78009209D01*
X76061453Y-78130541D01*
X76035832Y-78259346D01*
X66788900Y-78259346D01*
X66788900Y-77500000D01*
X66787192Y-77482656D01*
X66782133Y-77465979D01*
X66773918Y-77450610D01*
X66762862Y-77437138D01*
X66749390Y-77426082D01*
X66734021Y-77417867D01*
X66717344Y-77412808D01*
X66700000Y-77411100D01*
X50291700Y-77411100D01*
X50291700Y-75292769D01*
X50408331Y-75341079D01*
X50537136Y-75366700D01*
X50598111Y-75366700D01*
X50575003Y-75382140D01*
X50482140Y-75475003D01*
X50409178Y-75584199D01*
X50358921Y-75705531D01*
X50333300Y-75834336D01*
X50333300Y-75965664D01*
X50358921Y-76094469D01*
X50409178Y-76215801D01*
X50482140Y-76324997D01*
X50575003Y-76417860D01*
X50684199Y-76490822D01*
X50805531Y-76541079D01*
X50934336Y-76566700D01*
X51065664Y-76566700D01*
X51194469Y-76541079D01*
X51315801Y-76490822D01*
X51424997Y-76417860D01*
X51517860Y-76324997D01*
X51590822Y-76215801D01*
X51641079Y-76094469D01*
X51666700Y-75965664D01*
X51666700Y-75834336D01*
X51641079Y-75705531D01*
X51590822Y-75584199D01*
X51517860Y-75475003D01*
X51424997Y-75382140D01*
X51315801Y-75309178D01*
X51194469Y-75258921D01*
X51065664Y-75233300D01*
X51004689Y-75233300D01*
X51027797Y-75217860D01*
X51120660Y-75124997D01*
X51181237Y-75034336D01*
X84533300Y-75034336D01*
X84533300Y-75165664D01*
X84558921Y-75294469D01*
X84609178Y-75415801D01*
X84682140Y-75524997D01*
X84775003Y-75617860D01*
X84884199Y-75690822D01*
X85005531Y-75741079D01*
X85134336Y-75766700D01*
X85265664Y-75766700D01*
X85394469Y-75741079D01*
X85515801Y-75690822D01*
X85624997Y-75617860D01*
X85717860Y-75524997D01*
X85750000Y-75476896D01*
X85782140Y-75524997D01*
X85875003Y-75617860D01*
X85984199Y-75690822D01*
X86105531Y-75741079D01*
X86234336Y-75766700D01*
X86365664Y-75766700D01*
X86494469Y-75741079D01*
X86615801Y-75690822D01*
X86724997Y-75617860D01*
X86817860Y-75524997D01*
X86890822Y-75415801D01*
X86900000Y-75393643D01*
X86909178Y-75415801D01*
X86982140Y-75524997D01*
X87075003Y-75617860D01*
X87184199Y-75690822D01*
X87305531Y-75741079D01*
X87434336Y-75766700D01*
X87565664Y-75766700D01*
X87694469Y-75741079D01*
X87815801Y-75690822D01*
X87924997Y-75617860D01*
X88017860Y-75524997D01*
X88050000Y-75476896D01*
X88082140Y-75524997D01*
X88175003Y-75617860D01*
X88284199Y-75690822D01*
X88405531Y-75741079D01*
X88534336Y-75766700D01*
X88665664Y-75766700D01*
X88794469Y-75741079D01*
X88915801Y-75690822D01*
X89024997Y-75617860D01*
X89117860Y-75524997D01*
X89190822Y-75415801D01*
X89241079Y-75294469D01*
X89266700Y-75165664D01*
X89266700Y-75034336D01*
X89241079Y-74905531D01*
X89190822Y-74784199D01*
X89117860Y-74675003D01*
X89024997Y-74582140D01*
X88915801Y-74509178D01*
X88794469Y-74458921D01*
X88665664Y-74433300D01*
X88534336Y-74433300D01*
X88405531Y-74458921D01*
X88284199Y-74509178D01*
X88175003Y-74582140D01*
X88082140Y-74675003D01*
X88050000Y-74723104D01*
X88017860Y-74675003D01*
X87924997Y-74582140D01*
X87815801Y-74509178D01*
X87694469Y-74458921D01*
X87565664Y-74433300D01*
X87434336Y-74433300D01*
X87305531Y-74458921D01*
X87184199Y-74509178D01*
X87075003Y-74582140D01*
X86982140Y-74675003D01*
X86909178Y-74784199D01*
X86900000Y-74806357D01*
X86890822Y-74784199D01*
X86817860Y-74675003D01*
X86724997Y-74582140D01*
X86615801Y-74509178D01*
X86494469Y-74458921D01*
X86365664Y-74433300D01*
X86234336Y-74433300D01*
X86105531Y-74458921D01*
X85984199Y-74509178D01*
X85875003Y-74582140D01*
X85782140Y-74675003D01*
X85750000Y-74723104D01*
X85717860Y-74675003D01*
X85624997Y-74582140D01*
X85515801Y-74509178D01*
X85394469Y-74458921D01*
X85265664Y-74433300D01*
X85134336Y-74433300D01*
X85005531Y-74458921D01*
X84884199Y-74509178D01*
X84775003Y-74582140D01*
X84682140Y-74675003D01*
X84609178Y-74784199D01*
X84558921Y-74905531D01*
X84533300Y-75034336D01*
X51181237Y-75034336D01*
X51193622Y-75015801D01*
X51243879Y-74894469D01*
X51269500Y-74765664D01*
X51269500Y-74634336D01*
X51243879Y-74505531D01*
X51193622Y-74384199D01*
X51120660Y-74275003D01*
X51027797Y-74182140D01*
X50918601Y-74109178D01*
X50797269Y-74058921D01*
X50668464Y-74033300D01*
X50537136Y-74033300D01*
X50408331Y-74058921D01*
X50291700Y-74107231D01*
X50291700Y-63634336D01*
X50833300Y-63634336D01*
X50833300Y-63765664D01*
X50858921Y-63894469D01*
X50909178Y-64015801D01*
X50982140Y-64124997D01*
X51075003Y-64217860D01*
X51184199Y-64290822D01*
X51305531Y-64341079D01*
X51434336Y-64366700D01*
X51565664Y-64366700D01*
X51694469Y-64341079D01*
X51815801Y-64290822D01*
X51924997Y-64217860D01*
X52017860Y-64124997D01*
X52090822Y-64015801D01*
X52141079Y-63894469D01*
X52166700Y-63765664D01*
X52166700Y-63634336D01*
X52141079Y-63505531D01*
X52090822Y-63384199D01*
X52017860Y-63275003D01*
X51924997Y-63182140D01*
X51815801Y-63109178D01*
X51694469Y-63058921D01*
X51565664Y-63033300D01*
X51434336Y-63033300D01*
X51305531Y-63058921D01*
X51184199Y-63109178D01*
X51075003Y-63182140D01*
X50982140Y-63275003D01*
X50909178Y-63384199D01*
X50858921Y-63505531D01*
X50833300Y-63634336D01*
X50291700Y-63634336D01*
X50291700Y-58373605D01*
X50309178Y-58415801D01*
X50382140Y-58524997D01*
X50475003Y-58617860D01*
X50584199Y-58690822D01*
X50618941Y-58705212D01*
X50572090Y-58775330D01*
X50521833Y-58896662D01*
X50496212Y-59025467D01*
X50496212Y-59156795D01*
X50521833Y-59285600D01*
X50572090Y-59406932D01*
X50645052Y-59516128D01*
X50673304Y-59544380D01*
X50667113Y-59548516D01*
X50574250Y-59641379D01*
X50501288Y-59750575D01*
X50451031Y-59871907D01*
X50425410Y-60000712D01*
X50425410Y-60132040D01*
X50451031Y-60260845D01*
X50501288Y-60382177D01*
X50574250Y-60491373D01*
X50667113Y-60584236D01*
X50776309Y-60657198D01*
X50818486Y-60674668D01*
X50776309Y-60692138D01*
X50667113Y-60765100D01*
X50574250Y-60857963D01*
X50501288Y-60967159D01*
X50451031Y-61088491D01*
X50425410Y-61217296D01*
X50425410Y-61348624D01*
X50451031Y-61477429D01*
X50501288Y-61598761D01*
X50574250Y-61707957D01*
X50667113Y-61800820D01*
X50776309Y-61873782D01*
X50897641Y-61924039D01*
X51026446Y-61949660D01*
X51157774Y-61949660D01*
X51286579Y-61924039D01*
X51407911Y-61873782D01*
X51517107Y-61800820D01*
X51609970Y-61707957D01*
X51682932Y-61598761D01*
X51733189Y-61477429D01*
X51758810Y-61348624D01*
X51758810Y-61217296D01*
X51733189Y-61088491D01*
X51682932Y-60967159D01*
X51609970Y-60857963D01*
X51517107Y-60765100D01*
X51407911Y-60692138D01*
X51365734Y-60674668D01*
X51407911Y-60657198D01*
X51517107Y-60584236D01*
X51609970Y-60491373D01*
X51682932Y-60382177D01*
X51733189Y-60260845D01*
X51758810Y-60132040D01*
X51758810Y-60000712D01*
X51733189Y-59871907D01*
X51682932Y-59750575D01*
X51609970Y-59641379D01*
X51581718Y-59613127D01*
X51587909Y-59608991D01*
X51680772Y-59516128D01*
X51753734Y-59406932D01*
X51803991Y-59285600D01*
X51829612Y-59156795D01*
X51829612Y-59025467D01*
X51803991Y-58896662D01*
X51753734Y-58775330D01*
X51680772Y-58666134D01*
X51587909Y-58573271D01*
X51478713Y-58500309D01*
X51443971Y-58485919D01*
X51490822Y-58415801D01*
X51541079Y-58294469D01*
X51566700Y-58165664D01*
X51566700Y-58034336D01*
X51541079Y-57905531D01*
X51490822Y-57784199D01*
X51424532Y-57684988D01*
X51524997Y-57617860D01*
X51617860Y-57524997D01*
X51690822Y-57415801D01*
X51741079Y-57294469D01*
X51766700Y-57165664D01*
X51766700Y-57034336D01*
X51741079Y-56905531D01*
X51690822Y-56784199D01*
X51617860Y-56675003D01*
X51524997Y-56582140D01*
X51415801Y-56509178D01*
X51294469Y-56458921D01*
X51165664Y-56433300D01*
X51034336Y-56433300D01*
X50905531Y-56458921D01*
X50784199Y-56509178D01*
X50675003Y-56582140D01*
X50582140Y-56675003D01*
X50509178Y-56784199D01*
X50458921Y-56905531D01*
X50433300Y-57034336D01*
X50433300Y-57165664D01*
X50458921Y-57294469D01*
X50509178Y-57415801D01*
X50575468Y-57515012D01*
X50475003Y-57582140D01*
X50382140Y-57675003D01*
X50309178Y-57784199D01*
X50291700Y-57826395D01*
X50291700Y-55288900D01*
X50467251Y-55288900D01*
X50535607Y-55357256D01*
M02*
