G04 #@! TF.GenerationSoftware,KiCad,Pcbnew,(5.1.5)-3*
G04 #@! TF.CreationDate,2021-03-29T18:53:01-07:00*
G04 #@! TF.ProjectId,PatchV2,50617463-6856-4322-9e6b-696361645f70,rev?*
G04 #@! TF.SameCoordinates,Original*
G04 #@! TF.FileFunction,Copper,L4,Bot*
G04 #@! TF.FilePolarity,Positive*
%FSLAX46Y46*%
G04 Gerber Fmt 4.6, Leading zero omitted, Abs format (unit mm)*
G04 Created by KiCad (PCBNEW (5.1.5)-3) date 2021-03-29 18:53:01*
%MOMM*%
%LPD*%
G04 APERTURE LIST*
%ADD10R,4.000000X3.000000*%
%ADD11C,5.000000*%
%ADD12C,1.524000*%
%ADD13O,1.700000X1.700000*%
%ADD14R,1.700000X1.700000*%
%ADD15C,0.800000*%
%ADD16C,0.228600*%
%ADD17C,0.250000*%
%ADD18C,0.177800*%
G04 APERTURE END LIST*
D10*
X112325000Y-78000000D03*
X112325000Y-84000000D03*
D11*
X90800000Y-52800000D03*
X112500000Y-97200000D03*
X147200000Y-52800000D03*
X147200000Y-97200000D03*
X52800000Y-97200000D03*
D12*
X102200000Y-73200000D03*
X99500000Y-73200000D03*
X99500000Y-71300000D03*
D13*
X72000000Y-68160000D03*
X72000000Y-65620000D03*
X72000000Y-63080000D03*
X72000000Y-60540000D03*
D14*
X72000000Y-58000000D03*
D15*
X117900000Y-60800000D03*
X117900000Y-61900000D03*
X117100000Y-62400000D03*
X122400000Y-63100000D03*
X122400000Y-64200000D03*
X116400000Y-65800000D03*
X116400000Y-66800000D03*
X116400000Y-67800000D03*
X127700000Y-58300000D03*
X128600000Y-58300000D03*
X129500000Y-58300000D03*
X130400000Y-58300000D03*
X55547198Y-55797198D03*
X92200000Y-72300000D03*
X92264844Y-67192110D03*
X51500000Y-63700000D03*
X59500000Y-50700000D03*
X61500000Y-50700000D03*
X63500000Y-50700000D03*
X65500000Y-50700000D03*
X67500000Y-50700000D03*
X61500000Y-53040000D03*
X63500000Y-53040000D03*
X65500000Y-53040000D03*
X59500000Y-55580000D03*
X61500000Y-55580000D03*
X63500000Y-55580000D03*
X65500000Y-55580000D03*
X67500000Y-55580000D03*
X63500000Y-58120000D03*
X65500000Y-58120000D03*
X67500000Y-58120000D03*
X65500000Y-60660000D03*
X67500000Y-60660000D03*
X67500000Y-52400000D03*
X63500000Y-62500000D03*
X65500000Y-62500000D03*
X67500000Y-62500000D03*
X59500000Y-67600000D03*
X63500000Y-67600000D03*
X65500000Y-67600000D03*
X67500000Y-67600000D03*
X65500000Y-72300000D03*
X63500000Y-72300000D03*
X59500000Y-72300000D03*
X57400000Y-72300000D03*
X55600000Y-72300000D03*
X55600000Y-70300000D03*
X132300000Y-51100000D03*
X132300000Y-52000000D03*
X132300000Y-52900000D03*
X132300000Y-53800000D03*
X92700000Y-75300000D03*
X91600000Y-75300000D03*
X90600000Y-75300000D03*
X92500000Y-70100000D03*
X91500000Y-70100000D03*
X90500000Y-70100000D03*
X121800000Y-65400000D03*
X120800000Y-65400000D03*
X119800000Y-65400000D03*
X119800000Y-66400000D03*
X120800000Y-66400000D03*
X121800000Y-66400000D03*
X121800000Y-67400000D03*
X120800000Y-67400000D03*
X119800000Y-67400000D03*
X119800000Y-68400000D03*
X120800000Y-68400000D03*
X121800000Y-68400000D03*
X59900000Y-96200000D03*
X57600000Y-93600000D03*
X56500000Y-83900000D03*
X53600000Y-83900000D03*
X51092110Y-60066376D03*
X51092110Y-61282960D03*
X50960604Y-54839396D03*
X59500000Y-61000000D03*
X82000000Y-80700000D03*
X85849997Y-81677736D03*
X75849989Y-81700000D03*
X85200000Y-69900000D03*
X87400000Y-69900000D03*
X86300000Y-69900000D03*
X72000000Y-80700000D03*
X88500000Y-69900000D03*
X51101026Y-55807072D03*
X52700000Y-57600000D03*
X78200000Y-52200000D03*
X87900000Y-87500000D03*
X83800000Y-88200000D03*
X81000000Y-89900000D03*
X71000000Y-90000000D03*
X74600000Y-82900000D03*
X84600000Y-83100000D03*
X77900000Y-87600000D03*
X70200000Y-81500000D03*
X71500000Y-74200000D03*
X81300000Y-74200000D03*
X85200000Y-72500000D03*
X86300000Y-72500000D03*
X89700000Y-72700000D03*
X90800000Y-72700000D03*
X89700000Y-67200000D03*
X90600000Y-67200000D03*
X80300000Y-81500000D03*
X73700000Y-88300000D03*
X86280124Y-67192110D03*
X85173057Y-67192110D03*
X85200000Y-75100000D03*
X86300000Y-75100000D03*
X87500000Y-75100000D03*
X84000000Y-90100000D03*
X88000000Y-82700000D03*
X86900000Y-78300000D03*
X74000000Y-90000000D03*
X76702532Y-78325010D03*
X77987881Y-82613201D03*
X82277165Y-90042911D03*
X72139998Y-90119998D03*
X88600000Y-75100000D03*
X51100000Y-57100000D03*
X51000000Y-75900000D03*
X50602800Y-74700000D03*
X50900000Y-58100000D03*
X120100000Y-58400000D03*
X120500000Y-54400000D03*
X122300000Y-54000000D03*
X125400000Y-56700000D03*
X126500000Y-56700000D03*
X110200000Y-54300000D03*
X111300000Y-54300000D03*
X110700000Y-53200000D03*
X109600000Y-53200000D03*
X111800000Y-53200000D03*
X112900000Y-53200000D03*
X114000000Y-53200000D03*
X115100000Y-53200000D03*
X112400000Y-54300000D03*
X113500000Y-54300000D03*
X114600000Y-54300000D03*
X115800000Y-54300000D03*
X117100000Y-55800000D03*
X102200000Y-71200000D03*
X101200000Y-71200000D03*
X101100000Y-72300000D03*
X125200000Y-53600000D03*
X120600000Y-63700000D03*
X137100000Y-52400000D03*
X56632890Y-63531302D03*
X53300000Y-80600000D03*
X53290622Y-63687217D03*
X53400000Y-82600000D03*
X54115018Y-64213037D03*
X53100000Y-85000000D03*
X52970161Y-62725717D03*
X52400000Y-86100000D03*
X52120124Y-62242444D03*
X51162912Y-59091131D03*
X59900000Y-94900000D03*
X68800000Y-53200000D03*
X50900000Y-53800000D03*
X63600000Y-94700000D03*
X60280144Y-59268365D03*
X64700000Y-94700000D03*
X61206755Y-59580627D03*
X61500000Y-60660000D03*
X65800000Y-94700000D03*
X124100000Y-53700000D03*
X119079530Y-54961595D03*
X118242876Y-55509348D03*
X123468256Y-51340010D03*
X60300000Y-56500000D03*
X83500000Y-57100000D03*
X62100000Y-57400000D03*
X90700000Y-58300000D03*
X85700000Y-61900000D03*
X59906285Y-57885407D03*
X60900000Y-58500000D03*
X88400000Y-63400000D03*
X123400000Y-60200000D03*
X57003089Y-67290602D03*
X116900000Y-60000000D03*
X56770650Y-66079370D03*
X56137660Y-62585273D03*
X124400000Y-58200000D03*
X56043458Y-67102919D03*
X123500000Y-57424990D03*
X55325879Y-66438693D03*
X123391318Y-56430901D03*
X54748965Y-64957501D03*
X122200000Y-60700000D03*
D16*
X51893885Y-57893885D02*
X51100000Y-57100000D01*
X51893885Y-60102360D02*
X51893885Y-59906115D01*
X51893885Y-59906115D02*
X51893885Y-57893885D01*
X50900000Y-64192101D02*
X50900000Y-73900000D01*
X51399999Y-75500001D02*
X51000000Y-75900000D01*
X50723521Y-64015622D02*
X50900000Y-64192101D01*
X51399999Y-74399999D02*
X51399999Y-75500001D01*
X50900000Y-73900000D02*
X51399999Y-74399999D01*
X51893885Y-61489891D02*
X50723521Y-62660255D01*
X50723521Y-62660255D02*
X50723521Y-64015622D01*
X51893885Y-59906115D02*
X51893885Y-61489891D01*
X50697666Y-58302334D02*
X50900000Y-58100000D01*
X50500001Y-58499999D02*
X50900000Y-58100000D01*
X50317110Y-58682890D02*
X50500001Y-58499999D01*
X50602800Y-74700000D02*
X50317110Y-74414310D01*
X50317110Y-74414310D02*
X50317110Y-58682890D01*
X120600000Y-59600000D02*
X121100000Y-59100000D01*
X136400000Y-56800000D02*
X137100000Y-56100000D01*
X120600000Y-63700000D02*
X120600000Y-59600000D01*
X137100000Y-56100000D02*
X137100000Y-52400000D01*
X127700000Y-56800000D02*
X136400000Y-56800000D01*
X121100000Y-59100000D02*
X125400000Y-59100000D01*
X125400000Y-59100000D02*
X127700000Y-56800000D01*
X53300000Y-80600000D02*
X53300000Y-63696595D01*
X53300000Y-63696595D02*
X53290622Y-63687217D01*
X53999166Y-64328889D02*
X54115018Y-64213037D01*
X53400000Y-82600000D02*
X53999166Y-82000834D01*
X53999166Y-82000834D02*
X53999166Y-64328889D01*
X52598512Y-84498512D02*
X52598512Y-63097366D01*
X53100000Y-85000000D02*
X52598512Y-84498512D01*
X52598512Y-63097366D02*
X52970161Y-62725717D01*
X52400000Y-86100000D02*
X52400000Y-85534315D01*
X52400000Y-85534315D02*
X52192101Y-85326416D01*
X52120124Y-62808129D02*
X52120124Y-62242444D01*
X52192101Y-62880106D02*
X52120124Y-62808129D01*
X52192101Y-85326416D02*
X52192101Y-62880106D01*
X60280144Y-59834050D02*
X60280144Y-59268365D01*
X63600000Y-94700000D02*
X60192101Y-91292101D01*
X60192101Y-59922093D02*
X60280144Y-59834050D01*
X60192101Y-91292101D02*
X60192101Y-59922093D01*
X64700000Y-94700000D02*
X60598512Y-90598512D01*
X60598512Y-90598512D02*
X60598512Y-60188870D01*
X60806756Y-59980626D02*
X61206755Y-59580627D01*
X60598512Y-60188870D02*
X60806756Y-59980626D01*
X65800000Y-94700000D02*
X61579576Y-90479576D01*
X61579576Y-60828136D02*
X61579576Y-60262451D01*
X61579576Y-90479576D02*
X61579576Y-60828136D01*
D17*
X122438406Y-55361594D02*
X119479529Y-55361594D01*
X119479529Y-55361594D02*
X119079530Y-54961595D01*
X124100000Y-53700000D02*
X122438406Y-55361594D01*
X121408300Y-51340010D02*
X122902571Y-51340010D01*
X118242876Y-55509348D02*
X118242876Y-54505434D01*
X118242876Y-54505434D02*
X121408300Y-51340010D01*
X122902571Y-51340010D02*
X123468256Y-51340010D01*
D16*
X83100001Y-56700001D02*
X83500000Y-57100000D01*
X71099467Y-56100000D02*
X82500000Y-56100000D01*
X70699467Y-56500000D02*
X71099467Y-56100000D01*
X60300000Y-56500000D02*
X70699467Y-56500000D01*
X82500001Y-56100001D02*
X82500000Y-56100000D01*
X82500000Y-56100000D02*
X83100001Y-56700001D01*
X62100000Y-57400000D02*
X69200000Y-57400000D01*
X74525782Y-58300000D02*
X90700000Y-58300000D01*
X73083681Y-56857899D02*
X74525782Y-58300000D01*
X70916319Y-56857899D02*
X73083681Y-56857899D01*
X70374218Y-57400000D02*
X70916319Y-56857899D01*
X69200000Y-57400000D02*
X70374218Y-57400000D01*
X60306284Y-57485408D02*
X59906285Y-57885407D01*
X65400000Y-61900000D02*
X60985408Y-57485408D01*
X60985408Y-57485408D02*
X60306284Y-57485408D01*
X85700000Y-61900000D02*
X65400000Y-61900000D01*
X88000001Y-63799999D02*
X88400000Y-63400000D01*
X63077899Y-64477899D02*
X87322101Y-64477899D01*
X62271677Y-63671677D02*
X63077899Y-64477899D01*
X60900000Y-58500000D02*
X61112087Y-58500000D01*
X61112087Y-58500000D02*
X62271677Y-59659590D01*
X87322101Y-64477899D02*
X88000001Y-63799999D01*
X62271677Y-59659590D02*
X62271677Y-63671677D01*
D18*
G36*
X91611100Y-67061312D02*
G01*
X91598144Y-67126446D01*
X91598144Y-67257774D01*
X91611100Y-67322908D01*
X91611100Y-69442338D01*
X91565664Y-69433300D01*
X91434336Y-69433300D01*
X91305531Y-69458921D01*
X91184199Y-69509178D01*
X91075003Y-69582140D01*
X91000000Y-69657143D01*
X90924997Y-69582140D01*
X90815801Y-69509178D01*
X90694469Y-69458921D01*
X90565664Y-69433300D01*
X90434336Y-69433300D01*
X90305531Y-69458921D01*
X90184199Y-69509178D01*
X90075003Y-69582140D01*
X89982140Y-69675003D01*
X89909178Y-69784199D01*
X89858921Y-69905531D01*
X89833300Y-70034336D01*
X89833300Y-70165664D01*
X89858921Y-70294469D01*
X89909178Y-70415801D01*
X89982140Y-70524997D01*
X90075003Y-70617860D01*
X90184199Y-70690822D01*
X90305531Y-70741079D01*
X90434336Y-70766700D01*
X90565664Y-70766700D01*
X90694469Y-70741079D01*
X90815801Y-70690822D01*
X90924997Y-70617860D01*
X91000000Y-70542857D01*
X91075003Y-70617860D01*
X91184199Y-70690822D01*
X91305531Y-70741079D01*
X91434336Y-70766700D01*
X91565664Y-70766700D01*
X91611100Y-70757662D01*
X91611100Y-71981323D01*
X91609178Y-71984199D01*
X91558921Y-72105531D01*
X91533300Y-72234336D01*
X91533300Y-72365664D01*
X91558921Y-72494469D01*
X91609178Y-72615801D01*
X91611100Y-72618677D01*
X91611100Y-74633300D01*
X91534336Y-74633300D01*
X91405531Y-74658921D01*
X91284199Y-74709178D01*
X91175003Y-74782140D01*
X91100000Y-74857143D01*
X91024997Y-74782140D01*
X90915801Y-74709178D01*
X90794469Y-74658921D01*
X90665664Y-74633300D01*
X90534336Y-74633300D01*
X90405531Y-74658921D01*
X90284199Y-74709178D01*
X90175003Y-74782140D01*
X90082140Y-74875003D01*
X90009178Y-74984199D01*
X89958921Y-75105531D01*
X89933300Y-75234336D01*
X89933300Y-75365664D01*
X89958921Y-75494469D01*
X90009178Y-75615801D01*
X90082140Y-75724997D01*
X90175003Y-75817860D01*
X90284199Y-75890822D01*
X90405531Y-75941079D01*
X90534336Y-75966700D01*
X90665664Y-75966700D01*
X90794469Y-75941079D01*
X90915801Y-75890822D01*
X91024997Y-75817860D01*
X91100000Y-75742857D01*
X91175003Y-75817860D01*
X91284199Y-75890822D01*
X91405531Y-75941079D01*
X91534336Y-75966700D01*
X91611100Y-75966700D01*
X91611100Y-99708300D01*
X66789903Y-99708300D01*
X66823078Y-90054334D01*
X71473298Y-90054334D01*
X71473298Y-90185662D01*
X71498919Y-90314467D01*
X71549176Y-90435799D01*
X71622138Y-90544995D01*
X71715001Y-90637858D01*
X71824197Y-90710820D01*
X71945529Y-90761077D01*
X72074334Y-90786698D01*
X72205662Y-90786698D01*
X72334467Y-90761077D01*
X72455799Y-90710820D01*
X72564995Y-90637858D01*
X72657858Y-90544995D01*
X72730820Y-90435799D01*
X72781077Y-90314467D01*
X72806698Y-90185662D01*
X72806698Y-90054334D01*
X72782829Y-89934336D01*
X73333300Y-89934336D01*
X73333300Y-90065664D01*
X73358921Y-90194469D01*
X73409178Y-90315801D01*
X73482140Y-90424997D01*
X73575003Y-90517860D01*
X73684199Y-90590822D01*
X73805531Y-90641079D01*
X73934336Y-90666700D01*
X74065664Y-90666700D01*
X74194469Y-90641079D01*
X74315801Y-90590822D01*
X74424997Y-90517860D01*
X74517860Y-90424997D01*
X74590822Y-90315801D01*
X74641079Y-90194469D01*
X74666700Y-90065664D01*
X74666700Y-89977247D01*
X81610465Y-89977247D01*
X81610465Y-90108575D01*
X81636086Y-90237380D01*
X81686343Y-90358712D01*
X81759305Y-90467908D01*
X81852168Y-90560771D01*
X81961364Y-90633733D01*
X82082696Y-90683990D01*
X82211501Y-90709611D01*
X82342829Y-90709611D01*
X82471634Y-90683990D01*
X82592966Y-90633733D01*
X82702162Y-90560771D01*
X82795025Y-90467908D01*
X82867987Y-90358712D01*
X82918244Y-90237380D01*
X82943865Y-90108575D01*
X82943865Y-90034336D01*
X83333300Y-90034336D01*
X83333300Y-90165664D01*
X83358921Y-90294469D01*
X83409178Y-90415801D01*
X83482140Y-90524997D01*
X83575003Y-90617860D01*
X83684199Y-90690822D01*
X83805531Y-90741079D01*
X83934336Y-90766700D01*
X84065664Y-90766700D01*
X84194469Y-90741079D01*
X84315801Y-90690822D01*
X84424997Y-90617860D01*
X84517860Y-90524997D01*
X84590822Y-90415801D01*
X84641079Y-90294469D01*
X84666700Y-90165664D01*
X84666700Y-90034336D01*
X84641079Y-89905531D01*
X84590822Y-89784199D01*
X84517860Y-89675003D01*
X84424997Y-89582140D01*
X84315801Y-89509178D01*
X84194469Y-89458921D01*
X84065664Y-89433300D01*
X83934336Y-89433300D01*
X83805531Y-89458921D01*
X83684199Y-89509178D01*
X83575003Y-89582140D01*
X83482140Y-89675003D01*
X83409178Y-89784199D01*
X83358921Y-89905531D01*
X83333300Y-90034336D01*
X82943865Y-90034336D01*
X82943865Y-89977247D01*
X82918244Y-89848442D01*
X82867987Y-89727110D01*
X82795025Y-89617914D01*
X82702162Y-89525051D01*
X82592966Y-89452089D01*
X82471634Y-89401832D01*
X82342829Y-89376211D01*
X82211501Y-89376211D01*
X82082696Y-89401832D01*
X81961364Y-89452089D01*
X81852168Y-89525051D01*
X81759305Y-89617914D01*
X81686343Y-89727110D01*
X81636086Y-89848442D01*
X81610465Y-89977247D01*
X74666700Y-89977247D01*
X74666700Y-89934336D01*
X74641079Y-89805531D01*
X74590822Y-89684199D01*
X74517860Y-89575003D01*
X74424997Y-89482140D01*
X74315801Y-89409178D01*
X74194469Y-89358921D01*
X74065664Y-89333300D01*
X73934336Y-89333300D01*
X73805531Y-89358921D01*
X73684199Y-89409178D01*
X73575003Y-89482140D01*
X73482140Y-89575003D01*
X73409178Y-89684199D01*
X73358921Y-89805531D01*
X73333300Y-89934336D01*
X72782829Y-89934336D01*
X72781077Y-89925529D01*
X72730820Y-89804197D01*
X72657858Y-89695001D01*
X72564995Y-89602138D01*
X72455799Y-89529176D01*
X72334467Y-89478919D01*
X72205662Y-89453298D01*
X72074334Y-89453298D01*
X71945529Y-89478919D01*
X71824197Y-89529176D01*
X71715001Y-89602138D01*
X71622138Y-89695001D01*
X71549176Y-89804197D01*
X71498919Y-89925529D01*
X71473298Y-90054334D01*
X66823078Y-90054334D01*
X66848873Y-82547537D01*
X77321181Y-82547537D01*
X77321181Y-82678865D01*
X77346802Y-82807670D01*
X77397059Y-82929002D01*
X77470021Y-83038198D01*
X77562884Y-83131061D01*
X77672080Y-83204023D01*
X77793412Y-83254280D01*
X77922217Y-83279901D01*
X78053545Y-83279901D01*
X78182350Y-83254280D01*
X78303682Y-83204023D01*
X78412878Y-83131061D01*
X78505741Y-83038198D01*
X78578703Y-82929002D01*
X78628960Y-82807670D01*
X78654581Y-82678865D01*
X78654581Y-82634336D01*
X87333300Y-82634336D01*
X87333300Y-82765664D01*
X87358921Y-82894469D01*
X87409178Y-83015801D01*
X87482140Y-83124997D01*
X87575003Y-83217860D01*
X87684199Y-83290822D01*
X87805531Y-83341079D01*
X87934336Y-83366700D01*
X88065664Y-83366700D01*
X88194469Y-83341079D01*
X88315801Y-83290822D01*
X88424997Y-83217860D01*
X88517860Y-83124997D01*
X88590822Y-83015801D01*
X88641079Y-82894469D01*
X88666700Y-82765664D01*
X88666700Y-82634336D01*
X88641079Y-82505531D01*
X88590822Y-82384199D01*
X88517860Y-82275003D01*
X88424997Y-82182140D01*
X88315801Y-82109178D01*
X88194469Y-82058921D01*
X88065664Y-82033300D01*
X87934336Y-82033300D01*
X87805531Y-82058921D01*
X87684199Y-82109178D01*
X87575003Y-82182140D01*
X87482140Y-82275003D01*
X87409178Y-82384199D01*
X87358921Y-82505531D01*
X87333300Y-82634336D01*
X78654581Y-82634336D01*
X78654581Y-82547537D01*
X78628960Y-82418732D01*
X78578703Y-82297400D01*
X78505741Y-82188204D01*
X78412878Y-82095341D01*
X78303682Y-82022379D01*
X78182350Y-81972122D01*
X78053545Y-81946501D01*
X77922217Y-81946501D01*
X77793412Y-81972122D01*
X77672080Y-82022379D01*
X77562884Y-82095341D01*
X77470021Y-82188204D01*
X77397059Y-82297400D01*
X77346802Y-82418732D01*
X77321181Y-82547537D01*
X66848873Y-82547537D01*
X66852012Y-81634336D01*
X75183289Y-81634336D01*
X75183289Y-81765664D01*
X75208910Y-81894469D01*
X75259167Y-82015801D01*
X75332129Y-82124997D01*
X75424992Y-82217860D01*
X75534188Y-82290822D01*
X75655520Y-82341079D01*
X75784325Y-82366700D01*
X75915653Y-82366700D01*
X76044458Y-82341079D01*
X76165790Y-82290822D01*
X76274986Y-82217860D01*
X76367849Y-82124997D01*
X76440811Y-82015801D01*
X76491068Y-81894469D01*
X76516689Y-81765664D01*
X76516689Y-81634336D01*
X76512261Y-81612072D01*
X85183297Y-81612072D01*
X85183297Y-81743400D01*
X85208918Y-81872205D01*
X85259175Y-81993537D01*
X85332137Y-82102733D01*
X85425000Y-82195596D01*
X85534196Y-82268558D01*
X85655528Y-82318815D01*
X85784333Y-82344436D01*
X85915661Y-82344436D01*
X86044466Y-82318815D01*
X86165798Y-82268558D01*
X86274994Y-82195596D01*
X86367857Y-82102733D01*
X86440819Y-81993537D01*
X86491076Y-81872205D01*
X86516697Y-81743400D01*
X86516697Y-81612072D01*
X86491076Y-81483267D01*
X86440819Y-81361935D01*
X86367857Y-81252739D01*
X86274994Y-81159876D01*
X86165798Y-81086914D01*
X86044466Y-81036657D01*
X85915661Y-81011036D01*
X85784333Y-81011036D01*
X85655528Y-81036657D01*
X85534196Y-81086914D01*
X85425000Y-81159876D01*
X85332137Y-81252739D01*
X85259175Y-81361935D01*
X85208918Y-81483267D01*
X85183297Y-81612072D01*
X76512261Y-81612072D01*
X76491068Y-81505531D01*
X76440811Y-81384199D01*
X76367849Y-81275003D01*
X76274986Y-81182140D01*
X76165790Y-81109178D01*
X76044458Y-81058921D01*
X75915653Y-81033300D01*
X75784325Y-81033300D01*
X75655520Y-81058921D01*
X75534188Y-81109178D01*
X75424992Y-81182140D01*
X75332129Y-81275003D01*
X75259167Y-81384199D01*
X75208910Y-81505531D01*
X75183289Y-81634336D01*
X66852012Y-81634336D01*
X66855449Y-80634336D01*
X71333300Y-80634336D01*
X71333300Y-80765664D01*
X71358921Y-80894469D01*
X71409178Y-81015801D01*
X71482140Y-81124997D01*
X71575003Y-81217860D01*
X71684199Y-81290822D01*
X71805531Y-81341079D01*
X71934336Y-81366700D01*
X72065664Y-81366700D01*
X72194469Y-81341079D01*
X72315801Y-81290822D01*
X72424997Y-81217860D01*
X72517860Y-81124997D01*
X72590822Y-81015801D01*
X72641079Y-80894469D01*
X72666700Y-80765664D01*
X72666700Y-80634336D01*
X81333300Y-80634336D01*
X81333300Y-80765664D01*
X81358921Y-80894469D01*
X81409178Y-81015801D01*
X81482140Y-81124997D01*
X81575003Y-81217860D01*
X81684199Y-81290822D01*
X81805531Y-81341079D01*
X81934336Y-81366700D01*
X82065664Y-81366700D01*
X82194469Y-81341079D01*
X82315801Y-81290822D01*
X82424997Y-81217860D01*
X82517860Y-81124997D01*
X82590822Y-81015801D01*
X82641079Y-80894469D01*
X82666700Y-80765664D01*
X82666700Y-80634336D01*
X82641079Y-80505531D01*
X82590822Y-80384199D01*
X82517860Y-80275003D01*
X82424997Y-80182140D01*
X82315801Y-80109178D01*
X82194469Y-80058921D01*
X82065664Y-80033300D01*
X81934336Y-80033300D01*
X81805531Y-80058921D01*
X81684199Y-80109178D01*
X81575003Y-80182140D01*
X81482140Y-80275003D01*
X81409178Y-80384199D01*
X81358921Y-80505531D01*
X81333300Y-80634336D01*
X72666700Y-80634336D01*
X72641079Y-80505531D01*
X72590822Y-80384199D01*
X72517860Y-80275003D01*
X72424997Y-80182140D01*
X72315801Y-80109178D01*
X72194469Y-80058921D01*
X72065664Y-80033300D01*
X71934336Y-80033300D01*
X71805531Y-80058921D01*
X71684199Y-80109178D01*
X71575003Y-80182140D01*
X71482140Y-80275003D01*
X71409178Y-80384199D01*
X71358921Y-80505531D01*
X71333300Y-80634336D01*
X66855449Y-80634336D01*
X66863610Y-78259346D01*
X76035832Y-78259346D01*
X76035832Y-78390674D01*
X76061453Y-78519479D01*
X76111710Y-78640811D01*
X76184672Y-78750007D01*
X76277535Y-78842870D01*
X76386731Y-78915832D01*
X76508063Y-78966089D01*
X76636868Y-78991710D01*
X76768196Y-78991710D01*
X76897001Y-78966089D01*
X77018333Y-78915832D01*
X77127529Y-78842870D01*
X77220392Y-78750007D01*
X77293354Y-78640811D01*
X77343611Y-78519479D01*
X77369232Y-78390674D01*
X77369232Y-78259346D01*
X77364258Y-78234336D01*
X86233300Y-78234336D01*
X86233300Y-78365664D01*
X86258921Y-78494469D01*
X86309178Y-78615801D01*
X86382140Y-78724997D01*
X86475003Y-78817860D01*
X86584199Y-78890822D01*
X86705531Y-78941079D01*
X86834336Y-78966700D01*
X86965664Y-78966700D01*
X87094469Y-78941079D01*
X87215801Y-78890822D01*
X87324997Y-78817860D01*
X87417860Y-78724997D01*
X87490822Y-78615801D01*
X87541079Y-78494469D01*
X87566700Y-78365664D01*
X87566700Y-78234336D01*
X87541079Y-78105531D01*
X87490822Y-77984199D01*
X87417860Y-77875003D01*
X87324997Y-77782140D01*
X87215801Y-77709178D01*
X87094469Y-77658921D01*
X86965664Y-77633300D01*
X86834336Y-77633300D01*
X86705531Y-77658921D01*
X86584199Y-77709178D01*
X86475003Y-77782140D01*
X86382140Y-77875003D01*
X86309178Y-77984199D01*
X86258921Y-78105531D01*
X86233300Y-78234336D01*
X77364258Y-78234336D01*
X77343611Y-78130541D01*
X77293354Y-78009209D01*
X77220392Y-77900013D01*
X77127529Y-77807150D01*
X77018333Y-77734188D01*
X76897001Y-77683931D01*
X76768196Y-77658310D01*
X76636868Y-77658310D01*
X76508063Y-77683931D01*
X76386731Y-77734188D01*
X76277535Y-77807150D01*
X76184672Y-77900013D01*
X76111710Y-78009209D01*
X76061453Y-78130541D01*
X76035832Y-78259346D01*
X66863610Y-78259346D01*
X66874692Y-75034336D01*
X84533300Y-75034336D01*
X84533300Y-75165664D01*
X84558921Y-75294469D01*
X84609178Y-75415801D01*
X84682140Y-75524997D01*
X84775003Y-75617860D01*
X84884199Y-75690822D01*
X85005531Y-75741079D01*
X85134336Y-75766700D01*
X85265664Y-75766700D01*
X85394469Y-75741079D01*
X85515801Y-75690822D01*
X85624997Y-75617860D01*
X85717860Y-75524997D01*
X85750000Y-75476896D01*
X85782140Y-75524997D01*
X85875003Y-75617860D01*
X85984199Y-75690822D01*
X86105531Y-75741079D01*
X86234336Y-75766700D01*
X86365664Y-75766700D01*
X86494469Y-75741079D01*
X86615801Y-75690822D01*
X86724997Y-75617860D01*
X86817860Y-75524997D01*
X86890822Y-75415801D01*
X86900000Y-75393643D01*
X86909178Y-75415801D01*
X86982140Y-75524997D01*
X87075003Y-75617860D01*
X87184199Y-75690822D01*
X87305531Y-75741079D01*
X87434336Y-75766700D01*
X87565664Y-75766700D01*
X87694469Y-75741079D01*
X87815801Y-75690822D01*
X87924997Y-75617860D01*
X88017860Y-75524997D01*
X88050000Y-75476896D01*
X88082140Y-75524997D01*
X88175003Y-75617860D01*
X88284199Y-75690822D01*
X88405531Y-75741079D01*
X88534336Y-75766700D01*
X88665664Y-75766700D01*
X88794469Y-75741079D01*
X88915801Y-75690822D01*
X89024997Y-75617860D01*
X89117860Y-75524997D01*
X89190822Y-75415801D01*
X89241079Y-75294469D01*
X89266700Y-75165664D01*
X89266700Y-75034336D01*
X89241079Y-74905531D01*
X89190822Y-74784199D01*
X89117860Y-74675003D01*
X89024997Y-74582140D01*
X88915801Y-74509178D01*
X88794469Y-74458921D01*
X88665664Y-74433300D01*
X88534336Y-74433300D01*
X88405531Y-74458921D01*
X88284199Y-74509178D01*
X88175003Y-74582140D01*
X88082140Y-74675003D01*
X88050000Y-74723104D01*
X88017860Y-74675003D01*
X87924997Y-74582140D01*
X87815801Y-74509178D01*
X87694469Y-74458921D01*
X87565664Y-74433300D01*
X87434336Y-74433300D01*
X87305531Y-74458921D01*
X87184199Y-74509178D01*
X87075003Y-74582140D01*
X86982140Y-74675003D01*
X86909178Y-74784199D01*
X86900000Y-74806357D01*
X86890822Y-74784199D01*
X86817860Y-74675003D01*
X86724997Y-74582140D01*
X86615801Y-74509178D01*
X86494469Y-74458921D01*
X86365664Y-74433300D01*
X86234336Y-74433300D01*
X86105531Y-74458921D01*
X85984199Y-74509178D01*
X85875003Y-74582140D01*
X85782140Y-74675003D01*
X85750000Y-74723104D01*
X85717860Y-74675003D01*
X85624997Y-74582140D01*
X85515801Y-74509178D01*
X85394469Y-74458921D01*
X85265664Y-74433300D01*
X85134336Y-74433300D01*
X85005531Y-74458921D01*
X84884199Y-74509178D01*
X84775003Y-74582140D01*
X84682140Y-74675003D01*
X84609178Y-74784199D01*
X84558921Y-74905531D01*
X84533300Y-75034336D01*
X66874692Y-75034336D01*
X66888595Y-70988900D01*
X84100000Y-70988900D01*
X84117344Y-70987192D01*
X84134021Y-70982133D01*
X84149390Y-70973918D01*
X84162862Y-70962862D01*
X84173918Y-70949390D01*
X84182133Y-70934021D01*
X84187192Y-70917344D01*
X84188900Y-70900000D01*
X84188900Y-69834336D01*
X84533300Y-69834336D01*
X84533300Y-69965664D01*
X84558921Y-70094469D01*
X84609178Y-70215801D01*
X84682140Y-70324997D01*
X84775003Y-70417860D01*
X84884199Y-70490822D01*
X85005531Y-70541079D01*
X85134336Y-70566700D01*
X85265664Y-70566700D01*
X85394469Y-70541079D01*
X85515801Y-70490822D01*
X85624997Y-70417860D01*
X85717860Y-70324997D01*
X85750000Y-70276896D01*
X85782140Y-70324997D01*
X85875003Y-70417860D01*
X85984199Y-70490822D01*
X86105531Y-70541079D01*
X86234336Y-70566700D01*
X86365664Y-70566700D01*
X86494469Y-70541079D01*
X86615801Y-70490822D01*
X86724997Y-70417860D01*
X86817860Y-70324997D01*
X86850000Y-70276896D01*
X86882140Y-70324997D01*
X86975003Y-70417860D01*
X87084199Y-70490822D01*
X87205531Y-70541079D01*
X87334336Y-70566700D01*
X87465664Y-70566700D01*
X87594469Y-70541079D01*
X87715801Y-70490822D01*
X87824997Y-70417860D01*
X87917860Y-70324997D01*
X87950000Y-70276896D01*
X87982140Y-70324997D01*
X88075003Y-70417860D01*
X88184199Y-70490822D01*
X88305531Y-70541079D01*
X88434336Y-70566700D01*
X88565664Y-70566700D01*
X88694469Y-70541079D01*
X88815801Y-70490822D01*
X88924997Y-70417860D01*
X89017860Y-70324997D01*
X89090822Y-70215801D01*
X89141079Y-70094469D01*
X89166700Y-69965664D01*
X89166700Y-69834336D01*
X89141079Y-69705531D01*
X89090822Y-69584199D01*
X89017860Y-69475003D01*
X88924997Y-69382140D01*
X88815801Y-69309178D01*
X88694469Y-69258921D01*
X88565664Y-69233300D01*
X88434336Y-69233300D01*
X88305531Y-69258921D01*
X88184199Y-69309178D01*
X88075003Y-69382140D01*
X87982140Y-69475003D01*
X87950000Y-69523104D01*
X87917860Y-69475003D01*
X87824997Y-69382140D01*
X87715801Y-69309178D01*
X87594469Y-69258921D01*
X87465664Y-69233300D01*
X87334336Y-69233300D01*
X87205531Y-69258921D01*
X87084199Y-69309178D01*
X86975003Y-69382140D01*
X86882140Y-69475003D01*
X86850000Y-69523104D01*
X86817860Y-69475003D01*
X86724997Y-69382140D01*
X86615801Y-69309178D01*
X86494469Y-69258921D01*
X86365664Y-69233300D01*
X86234336Y-69233300D01*
X86105531Y-69258921D01*
X85984199Y-69309178D01*
X85875003Y-69382140D01*
X85782140Y-69475003D01*
X85750000Y-69523104D01*
X85717860Y-69475003D01*
X85624997Y-69382140D01*
X85515801Y-69309178D01*
X85394469Y-69258921D01*
X85265664Y-69233300D01*
X85134336Y-69233300D01*
X85005531Y-69258921D01*
X84884199Y-69309178D01*
X84775003Y-69382140D01*
X84682140Y-69475003D01*
X84609178Y-69584199D01*
X84558921Y-69705531D01*
X84533300Y-69834336D01*
X84188900Y-69834336D01*
X84188900Y-66088900D01*
X91611100Y-66088900D01*
X91611100Y-67061312D01*
G37*
X91611100Y-67061312D02*
X91598144Y-67126446D01*
X91598144Y-67257774D01*
X91611100Y-67322908D01*
X91611100Y-69442338D01*
X91565664Y-69433300D01*
X91434336Y-69433300D01*
X91305531Y-69458921D01*
X91184199Y-69509178D01*
X91075003Y-69582140D01*
X91000000Y-69657143D01*
X90924997Y-69582140D01*
X90815801Y-69509178D01*
X90694469Y-69458921D01*
X90565664Y-69433300D01*
X90434336Y-69433300D01*
X90305531Y-69458921D01*
X90184199Y-69509178D01*
X90075003Y-69582140D01*
X89982140Y-69675003D01*
X89909178Y-69784199D01*
X89858921Y-69905531D01*
X89833300Y-70034336D01*
X89833300Y-70165664D01*
X89858921Y-70294469D01*
X89909178Y-70415801D01*
X89982140Y-70524997D01*
X90075003Y-70617860D01*
X90184199Y-70690822D01*
X90305531Y-70741079D01*
X90434336Y-70766700D01*
X90565664Y-70766700D01*
X90694469Y-70741079D01*
X90815801Y-70690822D01*
X90924997Y-70617860D01*
X91000000Y-70542857D01*
X91075003Y-70617860D01*
X91184199Y-70690822D01*
X91305531Y-70741079D01*
X91434336Y-70766700D01*
X91565664Y-70766700D01*
X91611100Y-70757662D01*
X91611100Y-71981323D01*
X91609178Y-71984199D01*
X91558921Y-72105531D01*
X91533300Y-72234336D01*
X91533300Y-72365664D01*
X91558921Y-72494469D01*
X91609178Y-72615801D01*
X91611100Y-72618677D01*
X91611100Y-74633300D01*
X91534336Y-74633300D01*
X91405531Y-74658921D01*
X91284199Y-74709178D01*
X91175003Y-74782140D01*
X91100000Y-74857143D01*
X91024997Y-74782140D01*
X90915801Y-74709178D01*
X90794469Y-74658921D01*
X90665664Y-74633300D01*
X90534336Y-74633300D01*
X90405531Y-74658921D01*
X90284199Y-74709178D01*
X90175003Y-74782140D01*
X90082140Y-74875003D01*
X90009178Y-74984199D01*
X89958921Y-75105531D01*
X89933300Y-75234336D01*
X89933300Y-75365664D01*
X89958921Y-75494469D01*
X90009178Y-75615801D01*
X90082140Y-75724997D01*
X90175003Y-75817860D01*
X90284199Y-75890822D01*
X90405531Y-75941079D01*
X90534336Y-75966700D01*
X90665664Y-75966700D01*
X90794469Y-75941079D01*
X90915801Y-75890822D01*
X91024997Y-75817860D01*
X91100000Y-75742857D01*
X91175003Y-75817860D01*
X91284199Y-75890822D01*
X91405531Y-75941079D01*
X91534336Y-75966700D01*
X91611100Y-75966700D01*
X91611100Y-99708300D01*
X66789903Y-99708300D01*
X66823078Y-90054334D01*
X71473298Y-90054334D01*
X71473298Y-90185662D01*
X71498919Y-90314467D01*
X71549176Y-90435799D01*
X71622138Y-90544995D01*
X71715001Y-90637858D01*
X71824197Y-90710820D01*
X71945529Y-90761077D01*
X72074334Y-90786698D01*
X72205662Y-90786698D01*
X72334467Y-90761077D01*
X72455799Y-90710820D01*
X72564995Y-90637858D01*
X72657858Y-90544995D01*
X72730820Y-90435799D01*
X72781077Y-90314467D01*
X72806698Y-90185662D01*
X72806698Y-90054334D01*
X72782829Y-89934336D01*
X73333300Y-89934336D01*
X73333300Y-90065664D01*
X73358921Y-90194469D01*
X73409178Y-90315801D01*
X73482140Y-90424997D01*
X73575003Y-90517860D01*
X73684199Y-90590822D01*
X73805531Y-90641079D01*
X73934336Y-90666700D01*
X74065664Y-90666700D01*
X74194469Y-90641079D01*
X74315801Y-90590822D01*
X74424997Y-90517860D01*
X74517860Y-90424997D01*
X74590822Y-90315801D01*
X74641079Y-90194469D01*
X74666700Y-90065664D01*
X74666700Y-89977247D01*
X81610465Y-89977247D01*
X81610465Y-90108575D01*
X81636086Y-90237380D01*
X81686343Y-90358712D01*
X81759305Y-90467908D01*
X81852168Y-90560771D01*
X81961364Y-90633733D01*
X82082696Y-90683990D01*
X82211501Y-90709611D01*
X82342829Y-90709611D01*
X82471634Y-90683990D01*
X82592966Y-90633733D01*
X82702162Y-90560771D01*
X82795025Y-90467908D01*
X82867987Y-90358712D01*
X82918244Y-90237380D01*
X82943865Y-90108575D01*
X82943865Y-90034336D01*
X83333300Y-90034336D01*
X83333300Y-90165664D01*
X83358921Y-90294469D01*
X83409178Y-90415801D01*
X83482140Y-90524997D01*
X83575003Y-90617860D01*
X83684199Y-90690822D01*
X83805531Y-90741079D01*
X83934336Y-90766700D01*
X84065664Y-90766700D01*
X84194469Y-90741079D01*
X84315801Y-90690822D01*
X84424997Y-90617860D01*
X84517860Y-90524997D01*
X84590822Y-90415801D01*
X84641079Y-90294469D01*
X84666700Y-90165664D01*
X84666700Y-90034336D01*
X84641079Y-89905531D01*
X84590822Y-89784199D01*
X84517860Y-89675003D01*
X84424997Y-89582140D01*
X84315801Y-89509178D01*
X84194469Y-89458921D01*
X84065664Y-89433300D01*
X83934336Y-89433300D01*
X83805531Y-89458921D01*
X83684199Y-89509178D01*
X83575003Y-89582140D01*
X83482140Y-89675003D01*
X83409178Y-89784199D01*
X83358921Y-89905531D01*
X83333300Y-90034336D01*
X82943865Y-90034336D01*
X82943865Y-89977247D01*
X82918244Y-89848442D01*
X82867987Y-89727110D01*
X82795025Y-89617914D01*
X82702162Y-89525051D01*
X82592966Y-89452089D01*
X82471634Y-89401832D01*
X82342829Y-89376211D01*
X82211501Y-89376211D01*
X82082696Y-89401832D01*
X81961364Y-89452089D01*
X81852168Y-89525051D01*
X81759305Y-89617914D01*
X81686343Y-89727110D01*
X81636086Y-89848442D01*
X81610465Y-89977247D01*
X74666700Y-89977247D01*
X74666700Y-89934336D01*
X74641079Y-89805531D01*
X74590822Y-89684199D01*
X74517860Y-89575003D01*
X74424997Y-89482140D01*
X74315801Y-89409178D01*
X74194469Y-89358921D01*
X74065664Y-89333300D01*
X73934336Y-89333300D01*
X73805531Y-89358921D01*
X73684199Y-89409178D01*
X73575003Y-89482140D01*
X73482140Y-89575003D01*
X73409178Y-89684199D01*
X73358921Y-89805531D01*
X73333300Y-89934336D01*
X72782829Y-89934336D01*
X72781077Y-89925529D01*
X72730820Y-89804197D01*
X72657858Y-89695001D01*
X72564995Y-89602138D01*
X72455799Y-89529176D01*
X72334467Y-89478919D01*
X72205662Y-89453298D01*
X72074334Y-89453298D01*
X71945529Y-89478919D01*
X71824197Y-89529176D01*
X71715001Y-89602138D01*
X71622138Y-89695001D01*
X71549176Y-89804197D01*
X71498919Y-89925529D01*
X71473298Y-90054334D01*
X66823078Y-90054334D01*
X66848873Y-82547537D01*
X77321181Y-82547537D01*
X77321181Y-82678865D01*
X77346802Y-82807670D01*
X77397059Y-82929002D01*
X77470021Y-83038198D01*
X77562884Y-83131061D01*
X77672080Y-83204023D01*
X77793412Y-83254280D01*
X77922217Y-83279901D01*
X78053545Y-83279901D01*
X78182350Y-83254280D01*
X78303682Y-83204023D01*
X78412878Y-83131061D01*
X78505741Y-83038198D01*
X78578703Y-82929002D01*
X78628960Y-82807670D01*
X78654581Y-82678865D01*
X78654581Y-82634336D01*
X87333300Y-82634336D01*
X87333300Y-82765664D01*
X87358921Y-82894469D01*
X87409178Y-83015801D01*
X87482140Y-83124997D01*
X87575003Y-83217860D01*
X87684199Y-83290822D01*
X87805531Y-83341079D01*
X87934336Y-83366700D01*
X88065664Y-83366700D01*
X88194469Y-83341079D01*
X88315801Y-83290822D01*
X88424997Y-83217860D01*
X88517860Y-83124997D01*
X88590822Y-83015801D01*
X88641079Y-82894469D01*
X88666700Y-82765664D01*
X88666700Y-82634336D01*
X88641079Y-82505531D01*
X88590822Y-82384199D01*
X88517860Y-82275003D01*
X88424997Y-82182140D01*
X88315801Y-82109178D01*
X88194469Y-82058921D01*
X88065664Y-82033300D01*
X87934336Y-82033300D01*
X87805531Y-82058921D01*
X87684199Y-82109178D01*
X87575003Y-82182140D01*
X87482140Y-82275003D01*
X87409178Y-82384199D01*
X87358921Y-82505531D01*
X87333300Y-82634336D01*
X78654581Y-82634336D01*
X78654581Y-82547537D01*
X78628960Y-82418732D01*
X78578703Y-82297400D01*
X78505741Y-82188204D01*
X78412878Y-82095341D01*
X78303682Y-82022379D01*
X78182350Y-81972122D01*
X78053545Y-81946501D01*
X77922217Y-81946501D01*
X77793412Y-81972122D01*
X77672080Y-82022379D01*
X77562884Y-82095341D01*
X77470021Y-82188204D01*
X77397059Y-82297400D01*
X77346802Y-82418732D01*
X77321181Y-82547537D01*
X66848873Y-82547537D01*
X66852012Y-81634336D01*
X75183289Y-81634336D01*
X75183289Y-81765664D01*
X75208910Y-81894469D01*
X75259167Y-82015801D01*
X75332129Y-82124997D01*
X75424992Y-82217860D01*
X75534188Y-82290822D01*
X75655520Y-82341079D01*
X75784325Y-82366700D01*
X75915653Y-82366700D01*
X76044458Y-82341079D01*
X76165790Y-82290822D01*
X76274986Y-82217860D01*
X76367849Y-82124997D01*
X76440811Y-82015801D01*
X76491068Y-81894469D01*
X76516689Y-81765664D01*
X76516689Y-81634336D01*
X76512261Y-81612072D01*
X85183297Y-81612072D01*
X85183297Y-81743400D01*
X85208918Y-81872205D01*
X85259175Y-81993537D01*
X85332137Y-82102733D01*
X85425000Y-82195596D01*
X85534196Y-82268558D01*
X85655528Y-82318815D01*
X85784333Y-82344436D01*
X85915661Y-82344436D01*
X86044466Y-82318815D01*
X86165798Y-82268558D01*
X86274994Y-82195596D01*
X86367857Y-82102733D01*
X86440819Y-81993537D01*
X86491076Y-81872205D01*
X86516697Y-81743400D01*
X86516697Y-81612072D01*
X86491076Y-81483267D01*
X86440819Y-81361935D01*
X86367857Y-81252739D01*
X86274994Y-81159876D01*
X86165798Y-81086914D01*
X86044466Y-81036657D01*
X85915661Y-81011036D01*
X85784333Y-81011036D01*
X85655528Y-81036657D01*
X85534196Y-81086914D01*
X85425000Y-81159876D01*
X85332137Y-81252739D01*
X85259175Y-81361935D01*
X85208918Y-81483267D01*
X85183297Y-81612072D01*
X76512261Y-81612072D01*
X76491068Y-81505531D01*
X76440811Y-81384199D01*
X76367849Y-81275003D01*
X76274986Y-81182140D01*
X76165790Y-81109178D01*
X76044458Y-81058921D01*
X75915653Y-81033300D01*
X75784325Y-81033300D01*
X75655520Y-81058921D01*
X75534188Y-81109178D01*
X75424992Y-81182140D01*
X75332129Y-81275003D01*
X75259167Y-81384199D01*
X75208910Y-81505531D01*
X75183289Y-81634336D01*
X66852012Y-81634336D01*
X66855449Y-80634336D01*
X71333300Y-80634336D01*
X71333300Y-80765664D01*
X71358921Y-80894469D01*
X71409178Y-81015801D01*
X71482140Y-81124997D01*
X71575003Y-81217860D01*
X71684199Y-81290822D01*
X71805531Y-81341079D01*
X71934336Y-81366700D01*
X72065664Y-81366700D01*
X72194469Y-81341079D01*
X72315801Y-81290822D01*
X72424997Y-81217860D01*
X72517860Y-81124997D01*
X72590822Y-81015801D01*
X72641079Y-80894469D01*
X72666700Y-80765664D01*
X72666700Y-80634336D01*
X81333300Y-80634336D01*
X81333300Y-80765664D01*
X81358921Y-80894469D01*
X81409178Y-81015801D01*
X81482140Y-81124997D01*
X81575003Y-81217860D01*
X81684199Y-81290822D01*
X81805531Y-81341079D01*
X81934336Y-81366700D01*
X82065664Y-81366700D01*
X82194469Y-81341079D01*
X82315801Y-81290822D01*
X82424997Y-81217860D01*
X82517860Y-81124997D01*
X82590822Y-81015801D01*
X82641079Y-80894469D01*
X82666700Y-80765664D01*
X82666700Y-80634336D01*
X82641079Y-80505531D01*
X82590822Y-80384199D01*
X82517860Y-80275003D01*
X82424997Y-80182140D01*
X82315801Y-80109178D01*
X82194469Y-80058921D01*
X82065664Y-80033300D01*
X81934336Y-80033300D01*
X81805531Y-80058921D01*
X81684199Y-80109178D01*
X81575003Y-80182140D01*
X81482140Y-80275003D01*
X81409178Y-80384199D01*
X81358921Y-80505531D01*
X81333300Y-80634336D01*
X72666700Y-80634336D01*
X72641079Y-80505531D01*
X72590822Y-80384199D01*
X72517860Y-80275003D01*
X72424997Y-80182140D01*
X72315801Y-80109178D01*
X72194469Y-80058921D01*
X72065664Y-80033300D01*
X71934336Y-80033300D01*
X71805531Y-80058921D01*
X71684199Y-80109178D01*
X71575003Y-80182140D01*
X71482140Y-80275003D01*
X71409178Y-80384199D01*
X71358921Y-80505531D01*
X71333300Y-80634336D01*
X66855449Y-80634336D01*
X66863610Y-78259346D01*
X76035832Y-78259346D01*
X76035832Y-78390674D01*
X76061453Y-78519479D01*
X76111710Y-78640811D01*
X76184672Y-78750007D01*
X76277535Y-78842870D01*
X76386731Y-78915832D01*
X76508063Y-78966089D01*
X76636868Y-78991710D01*
X76768196Y-78991710D01*
X76897001Y-78966089D01*
X77018333Y-78915832D01*
X77127529Y-78842870D01*
X77220392Y-78750007D01*
X77293354Y-78640811D01*
X77343611Y-78519479D01*
X77369232Y-78390674D01*
X77369232Y-78259346D01*
X77364258Y-78234336D01*
X86233300Y-78234336D01*
X86233300Y-78365664D01*
X86258921Y-78494469D01*
X86309178Y-78615801D01*
X86382140Y-78724997D01*
X86475003Y-78817860D01*
X86584199Y-78890822D01*
X86705531Y-78941079D01*
X86834336Y-78966700D01*
X86965664Y-78966700D01*
X87094469Y-78941079D01*
X87215801Y-78890822D01*
X87324997Y-78817860D01*
X87417860Y-78724997D01*
X87490822Y-78615801D01*
X87541079Y-78494469D01*
X87566700Y-78365664D01*
X87566700Y-78234336D01*
X87541079Y-78105531D01*
X87490822Y-77984199D01*
X87417860Y-77875003D01*
X87324997Y-77782140D01*
X87215801Y-77709178D01*
X87094469Y-77658921D01*
X86965664Y-77633300D01*
X86834336Y-77633300D01*
X86705531Y-77658921D01*
X86584199Y-77709178D01*
X86475003Y-77782140D01*
X86382140Y-77875003D01*
X86309178Y-77984199D01*
X86258921Y-78105531D01*
X86233300Y-78234336D01*
X77364258Y-78234336D01*
X77343611Y-78130541D01*
X77293354Y-78009209D01*
X77220392Y-77900013D01*
X77127529Y-77807150D01*
X77018333Y-77734188D01*
X76897001Y-77683931D01*
X76768196Y-77658310D01*
X76636868Y-77658310D01*
X76508063Y-77683931D01*
X76386731Y-77734188D01*
X76277535Y-77807150D01*
X76184672Y-77900013D01*
X76111710Y-78009209D01*
X76061453Y-78130541D01*
X76035832Y-78259346D01*
X66863610Y-78259346D01*
X66874692Y-75034336D01*
X84533300Y-75034336D01*
X84533300Y-75165664D01*
X84558921Y-75294469D01*
X84609178Y-75415801D01*
X84682140Y-75524997D01*
X84775003Y-75617860D01*
X84884199Y-75690822D01*
X85005531Y-75741079D01*
X85134336Y-75766700D01*
X85265664Y-75766700D01*
X85394469Y-75741079D01*
X85515801Y-75690822D01*
X85624997Y-75617860D01*
X85717860Y-75524997D01*
X85750000Y-75476896D01*
X85782140Y-75524997D01*
X85875003Y-75617860D01*
X85984199Y-75690822D01*
X86105531Y-75741079D01*
X86234336Y-75766700D01*
X86365664Y-75766700D01*
X86494469Y-75741079D01*
X86615801Y-75690822D01*
X86724997Y-75617860D01*
X86817860Y-75524997D01*
X86890822Y-75415801D01*
X86900000Y-75393643D01*
X86909178Y-75415801D01*
X86982140Y-75524997D01*
X87075003Y-75617860D01*
X87184199Y-75690822D01*
X87305531Y-75741079D01*
X87434336Y-75766700D01*
X87565664Y-75766700D01*
X87694469Y-75741079D01*
X87815801Y-75690822D01*
X87924997Y-75617860D01*
X88017860Y-75524997D01*
X88050000Y-75476896D01*
X88082140Y-75524997D01*
X88175003Y-75617860D01*
X88284199Y-75690822D01*
X88405531Y-75741079D01*
X88534336Y-75766700D01*
X88665664Y-75766700D01*
X88794469Y-75741079D01*
X88915801Y-75690822D01*
X89024997Y-75617860D01*
X89117860Y-75524997D01*
X89190822Y-75415801D01*
X89241079Y-75294469D01*
X89266700Y-75165664D01*
X89266700Y-75034336D01*
X89241079Y-74905531D01*
X89190822Y-74784199D01*
X89117860Y-74675003D01*
X89024997Y-74582140D01*
X88915801Y-74509178D01*
X88794469Y-74458921D01*
X88665664Y-74433300D01*
X88534336Y-74433300D01*
X88405531Y-74458921D01*
X88284199Y-74509178D01*
X88175003Y-74582140D01*
X88082140Y-74675003D01*
X88050000Y-74723104D01*
X88017860Y-74675003D01*
X87924997Y-74582140D01*
X87815801Y-74509178D01*
X87694469Y-74458921D01*
X87565664Y-74433300D01*
X87434336Y-74433300D01*
X87305531Y-74458921D01*
X87184199Y-74509178D01*
X87075003Y-74582140D01*
X86982140Y-74675003D01*
X86909178Y-74784199D01*
X86900000Y-74806357D01*
X86890822Y-74784199D01*
X86817860Y-74675003D01*
X86724997Y-74582140D01*
X86615801Y-74509178D01*
X86494469Y-74458921D01*
X86365664Y-74433300D01*
X86234336Y-74433300D01*
X86105531Y-74458921D01*
X85984199Y-74509178D01*
X85875003Y-74582140D01*
X85782140Y-74675003D01*
X85750000Y-74723104D01*
X85717860Y-74675003D01*
X85624997Y-74582140D01*
X85515801Y-74509178D01*
X85394469Y-74458921D01*
X85265664Y-74433300D01*
X85134336Y-74433300D01*
X85005531Y-74458921D01*
X84884199Y-74509178D01*
X84775003Y-74582140D01*
X84682140Y-74675003D01*
X84609178Y-74784199D01*
X84558921Y-74905531D01*
X84533300Y-75034336D01*
X66874692Y-75034336D01*
X66888595Y-70988900D01*
X84100000Y-70988900D01*
X84117344Y-70987192D01*
X84134021Y-70982133D01*
X84149390Y-70973918D01*
X84162862Y-70962862D01*
X84173918Y-70949390D01*
X84182133Y-70934021D01*
X84187192Y-70917344D01*
X84188900Y-70900000D01*
X84188900Y-69834336D01*
X84533300Y-69834336D01*
X84533300Y-69965664D01*
X84558921Y-70094469D01*
X84609178Y-70215801D01*
X84682140Y-70324997D01*
X84775003Y-70417860D01*
X84884199Y-70490822D01*
X85005531Y-70541079D01*
X85134336Y-70566700D01*
X85265664Y-70566700D01*
X85394469Y-70541079D01*
X85515801Y-70490822D01*
X85624997Y-70417860D01*
X85717860Y-70324997D01*
X85750000Y-70276896D01*
X85782140Y-70324997D01*
X85875003Y-70417860D01*
X85984199Y-70490822D01*
X86105531Y-70541079D01*
X86234336Y-70566700D01*
X86365664Y-70566700D01*
X86494469Y-70541079D01*
X86615801Y-70490822D01*
X86724997Y-70417860D01*
X86817860Y-70324997D01*
X86850000Y-70276896D01*
X86882140Y-70324997D01*
X86975003Y-70417860D01*
X87084199Y-70490822D01*
X87205531Y-70541079D01*
X87334336Y-70566700D01*
X87465664Y-70566700D01*
X87594469Y-70541079D01*
X87715801Y-70490822D01*
X87824997Y-70417860D01*
X87917860Y-70324997D01*
X87950000Y-70276896D01*
X87982140Y-70324997D01*
X88075003Y-70417860D01*
X88184199Y-70490822D01*
X88305531Y-70541079D01*
X88434336Y-70566700D01*
X88565664Y-70566700D01*
X88694469Y-70541079D01*
X88815801Y-70490822D01*
X88924997Y-70417860D01*
X89017860Y-70324997D01*
X89090822Y-70215801D01*
X89141079Y-70094469D01*
X89166700Y-69965664D01*
X89166700Y-69834336D01*
X89141079Y-69705531D01*
X89090822Y-69584199D01*
X89017860Y-69475003D01*
X88924997Y-69382140D01*
X88815801Y-69309178D01*
X88694469Y-69258921D01*
X88565664Y-69233300D01*
X88434336Y-69233300D01*
X88305531Y-69258921D01*
X88184199Y-69309178D01*
X88075003Y-69382140D01*
X87982140Y-69475003D01*
X87950000Y-69523104D01*
X87917860Y-69475003D01*
X87824997Y-69382140D01*
X87715801Y-69309178D01*
X87594469Y-69258921D01*
X87465664Y-69233300D01*
X87334336Y-69233300D01*
X87205531Y-69258921D01*
X87084199Y-69309178D01*
X86975003Y-69382140D01*
X86882140Y-69475003D01*
X86850000Y-69523104D01*
X86817860Y-69475003D01*
X86724997Y-69382140D01*
X86615801Y-69309178D01*
X86494469Y-69258921D01*
X86365664Y-69233300D01*
X86234336Y-69233300D01*
X86105531Y-69258921D01*
X85984199Y-69309178D01*
X85875003Y-69382140D01*
X85782140Y-69475003D01*
X85750000Y-69523104D01*
X85717860Y-69475003D01*
X85624997Y-69382140D01*
X85515801Y-69309178D01*
X85394469Y-69258921D01*
X85265664Y-69233300D01*
X85134336Y-69233300D01*
X85005531Y-69258921D01*
X84884199Y-69309178D01*
X84775003Y-69382140D01*
X84682140Y-69475003D01*
X84609178Y-69584199D01*
X84558921Y-69705531D01*
X84533300Y-69834336D01*
X84188900Y-69834336D01*
X84188900Y-66088900D01*
X91611100Y-66088900D01*
X91611100Y-67061312D01*
G36*
X149708301Y-99708300D02*
G01*
X91966700Y-99708300D01*
X91966700Y-86798742D01*
X109108303Y-86798742D01*
X109113425Y-86852031D01*
X109128601Y-86902062D01*
X109153247Y-86948171D01*
X109186415Y-86988585D01*
X109226829Y-87021753D01*
X109272938Y-87046399D01*
X109322969Y-87061575D01*
X109375000Y-87066700D01*
X125425000Y-87066700D01*
X125477273Y-87061527D01*
X125527290Y-87046304D01*
X125573376Y-87021616D01*
X125613760Y-86988411D01*
X125646890Y-86947965D01*
X125671493Y-86901833D01*
X125686623Y-86851788D01*
X125691700Y-86799753D01*
X125666700Y-59799753D01*
X125661575Y-59747969D01*
X125646399Y-59697938D01*
X125621753Y-59651829D01*
X125588585Y-59611415D01*
X125548171Y-59578247D01*
X125502062Y-59553601D01*
X125452031Y-59538425D01*
X125400000Y-59533300D01*
X121500000Y-59533300D01*
X121447969Y-59538425D01*
X121397938Y-59553601D01*
X121351829Y-59578247D01*
X121311415Y-59611415D01*
X121278247Y-59651829D01*
X121253601Y-59697938D01*
X121238425Y-59747969D01*
X121233300Y-59800000D01*
X121233300Y-61400000D01*
X121238425Y-61452031D01*
X121253601Y-61502062D01*
X121278247Y-61548171D01*
X121311415Y-61588585D01*
X121351829Y-61621753D01*
X121397938Y-61646399D01*
X121447969Y-61661575D01*
X121500000Y-61666700D01*
X122833300Y-61666700D01*
X122833300Y-81233300D01*
X109400000Y-81233300D01*
X109349204Y-81238182D01*
X109299102Y-81253123D01*
X109252877Y-81277551D01*
X109212306Y-81310527D01*
X109178948Y-81350785D01*
X109154085Y-81396777D01*
X109138673Y-81446736D01*
X109133303Y-81498742D01*
X109108303Y-86798742D01*
X91966700Y-86798742D01*
X91966700Y-79500000D01*
X109725212Y-79500000D01*
X109736737Y-79617013D01*
X109770868Y-79729529D01*
X109826295Y-79833224D01*
X109900886Y-79924114D01*
X109991776Y-79998705D01*
X110095471Y-80054132D01*
X110207987Y-80088263D01*
X110325000Y-80099788D01*
X112010675Y-80096900D01*
X112159900Y-79947675D01*
X112159900Y-78165100D01*
X112490100Y-78165100D01*
X112490100Y-79947675D01*
X112639325Y-80096900D01*
X114325000Y-80099788D01*
X114442013Y-80088263D01*
X114554529Y-80054132D01*
X114658224Y-79998705D01*
X114749114Y-79924114D01*
X114823705Y-79833224D01*
X114879132Y-79729529D01*
X114913263Y-79617013D01*
X114924788Y-79500000D01*
X114921900Y-78314325D01*
X114772675Y-78165100D01*
X112490100Y-78165100D01*
X112159900Y-78165100D01*
X109877325Y-78165100D01*
X109728100Y-78314325D01*
X109725212Y-79500000D01*
X91966700Y-79500000D01*
X91966700Y-76500000D01*
X109725212Y-76500000D01*
X109728100Y-77685675D01*
X109877325Y-77834900D01*
X112159900Y-77834900D01*
X112159900Y-76052325D01*
X112490100Y-76052325D01*
X112490100Y-77834900D01*
X114772675Y-77834900D01*
X114921900Y-77685675D01*
X114924788Y-76500000D01*
X114913263Y-76382987D01*
X114879132Y-76270471D01*
X114823705Y-76166776D01*
X114749114Y-76075886D01*
X114658224Y-76001295D01*
X114554529Y-75945868D01*
X114442013Y-75911737D01*
X114325000Y-75900212D01*
X112639325Y-75903100D01*
X112490100Y-76052325D01*
X112159900Y-76052325D01*
X112010675Y-75903100D01*
X110325000Y-75900212D01*
X110207987Y-75911737D01*
X110095471Y-75945868D01*
X109991776Y-76001295D01*
X109900886Y-76075886D01*
X109826295Y-76166776D01*
X109770868Y-76270471D01*
X109736737Y-76382987D01*
X109725212Y-76500000D01*
X91966700Y-76500000D01*
X91966700Y-75856813D01*
X92024997Y-75817860D01*
X92117860Y-75724997D01*
X92150000Y-75676896D01*
X92182140Y-75724997D01*
X92275003Y-75817860D01*
X92384199Y-75890822D01*
X92505531Y-75941079D01*
X92634336Y-75966700D01*
X92765664Y-75966700D01*
X92894469Y-75941079D01*
X93015801Y-75890822D01*
X93124997Y-75817860D01*
X93217860Y-75724997D01*
X93290822Y-75615801D01*
X93341079Y-75494469D01*
X93366700Y-75365664D01*
X93366700Y-75234336D01*
X93341079Y-75105531D01*
X93290822Y-74984199D01*
X93217860Y-74875003D01*
X93209557Y-74866700D01*
X100600000Y-74866700D01*
X100652031Y-74861575D01*
X100702062Y-74846399D01*
X100748171Y-74821753D01*
X100788585Y-74788585D01*
X100821753Y-74748171D01*
X100846399Y-74702062D01*
X100861575Y-74652031D01*
X100866700Y-74600000D01*
X100866700Y-72924995D01*
X100905531Y-72941079D01*
X101034336Y-72966700D01*
X101165664Y-72966700D01*
X101198867Y-72960095D01*
X101171300Y-73098682D01*
X101171300Y-73301318D01*
X101210833Y-73500061D01*
X101288378Y-73687272D01*
X101400957Y-73855758D01*
X101544242Y-73999043D01*
X101712728Y-74111622D01*
X101899939Y-74189167D01*
X102098682Y-74228700D01*
X102301318Y-74228700D01*
X102500061Y-74189167D01*
X102687272Y-74111622D01*
X102855758Y-73999043D01*
X102999043Y-73855758D01*
X103111622Y-73687272D01*
X103189167Y-73500061D01*
X103228700Y-73301318D01*
X103228700Y-73098682D01*
X103189167Y-72899939D01*
X103111622Y-72712728D01*
X102999043Y-72544242D01*
X102855758Y-72400957D01*
X102687272Y-72288378D01*
X102500061Y-72210833D01*
X102301318Y-72171300D01*
X102098682Y-72171300D01*
X101899939Y-72210833D01*
X101766700Y-72266022D01*
X101766700Y-72234336D01*
X101741079Y-72105531D01*
X101690822Y-71984199D01*
X101617860Y-71875003D01*
X101526518Y-71783661D01*
X101624997Y-71717860D01*
X101700000Y-71642857D01*
X101775003Y-71717860D01*
X101884199Y-71790822D01*
X102005531Y-71841079D01*
X102134336Y-71866700D01*
X102265664Y-71866700D01*
X102394469Y-71841079D01*
X102515801Y-71790822D01*
X102624997Y-71717860D01*
X102717860Y-71624997D01*
X102790822Y-71515801D01*
X102841079Y-71394469D01*
X102866700Y-71265664D01*
X102866700Y-71134336D01*
X102841079Y-71005531D01*
X102790822Y-70884199D01*
X102717860Y-70775003D01*
X102624997Y-70682140D01*
X102515801Y-70609178D01*
X102394469Y-70558921D01*
X102265664Y-70533300D01*
X102134336Y-70533300D01*
X102005531Y-70558921D01*
X101884199Y-70609178D01*
X101775003Y-70682140D01*
X101700000Y-70757143D01*
X101624997Y-70682140D01*
X101515801Y-70609178D01*
X101394469Y-70558921D01*
X101265664Y-70533300D01*
X101134336Y-70533300D01*
X101005531Y-70558921D01*
X100884199Y-70609178D01*
X100775003Y-70682140D01*
X100682140Y-70775003D01*
X100609178Y-70884199D01*
X100558921Y-71005531D01*
X100533300Y-71134336D01*
X100533300Y-71265664D01*
X100558921Y-71394469D01*
X100609178Y-71515801D01*
X100682140Y-71624997D01*
X100773482Y-71716339D01*
X100675003Y-71782140D01*
X100582140Y-71875003D01*
X100543187Y-71933300D01*
X91966700Y-71933300D01*
X91966700Y-70576157D01*
X92000000Y-70542857D01*
X92075003Y-70617860D01*
X92184199Y-70690822D01*
X92305531Y-70741079D01*
X92434336Y-70766700D01*
X92565664Y-70766700D01*
X92694469Y-70741079D01*
X92815801Y-70690822D01*
X92924997Y-70617860D01*
X93017860Y-70524997D01*
X93090822Y-70415801D01*
X93141079Y-70294469D01*
X93166700Y-70165664D01*
X93166700Y-70034336D01*
X93141079Y-69905531D01*
X93090822Y-69784199D01*
X93017860Y-69675003D01*
X92924997Y-69582140D01*
X92815801Y-69509178D01*
X92694469Y-69458921D01*
X92565664Y-69433300D01*
X92434336Y-69433300D01*
X92305531Y-69458921D01*
X92184199Y-69509178D01*
X92075003Y-69582140D01*
X92000000Y-69657143D01*
X91966700Y-69623843D01*
X91966700Y-66000000D01*
X91961575Y-65947969D01*
X91946399Y-65897938D01*
X91921753Y-65851829D01*
X91888585Y-65811415D01*
X91848171Y-65778247D01*
X91802062Y-65753601D01*
X91752031Y-65738425D01*
X91700000Y-65733300D01*
X84100000Y-65733300D01*
X84047969Y-65738425D01*
X83997938Y-65753601D01*
X83951829Y-65778247D01*
X83911415Y-65811415D01*
X83878247Y-65851829D01*
X83853601Y-65897938D01*
X83838425Y-65947969D01*
X83833300Y-66000000D01*
X83833300Y-70633300D01*
X66800000Y-70633300D01*
X66748869Y-70638247D01*
X66698786Y-70653252D01*
X66652592Y-70677739D01*
X66612064Y-70710768D01*
X66578758Y-70751068D01*
X66553954Y-70797092D01*
X66538605Y-70847071D01*
X66533302Y-70899084D01*
X66451992Y-94560392D01*
X66441079Y-94505531D01*
X66390822Y-94384199D01*
X66317860Y-94275003D01*
X66224997Y-94182140D01*
X66115801Y-94109178D01*
X65994469Y-94058921D01*
X65865664Y-94033300D01*
X65734336Y-94033300D01*
X65682438Y-94043623D01*
X61960576Y-90321762D01*
X61960576Y-63893172D01*
X61976599Y-63912695D01*
X62000967Y-63942388D01*
X62015504Y-63954318D01*
X62795258Y-64734073D01*
X62807188Y-64748610D01*
X62821723Y-64760538D01*
X62865202Y-64796221D01*
X62879492Y-64803859D01*
X62931391Y-64831600D01*
X63003210Y-64853386D01*
X63059186Y-64858899D01*
X63059188Y-64858899D01*
X63077898Y-64860742D01*
X63096608Y-64858899D01*
X71181849Y-64858899D01*
X71132603Y-64908145D01*
X71010394Y-65091044D01*
X70926214Y-65294271D01*
X70883300Y-65510015D01*
X70883300Y-65729985D01*
X70926214Y-65945729D01*
X71010394Y-66148956D01*
X71132603Y-66331855D01*
X71288145Y-66487397D01*
X71471044Y-66609606D01*
X71674271Y-66693786D01*
X71890015Y-66736700D01*
X72109985Y-66736700D01*
X72325729Y-66693786D01*
X72528956Y-66609606D01*
X72711855Y-66487397D01*
X72867397Y-66331855D01*
X72989606Y-66148956D01*
X73073786Y-65945729D01*
X73116700Y-65729985D01*
X73116700Y-65510015D01*
X73081756Y-65334336D01*
X119133300Y-65334336D01*
X119133300Y-65465664D01*
X119158921Y-65594469D01*
X119209178Y-65715801D01*
X119282140Y-65824997D01*
X119357143Y-65900000D01*
X119282140Y-65975003D01*
X119209178Y-66084199D01*
X119158921Y-66205531D01*
X119133300Y-66334336D01*
X119133300Y-66465664D01*
X119158921Y-66594469D01*
X119209178Y-66715801D01*
X119282140Y-66824997D01*
X119357143Y-66900000D01*
X119282140Y-66975003D01*
X119209178Y-67084199D01*
X119158921Y-67205531D01*
X119133300Y-67334336D01*
X119133300Y-67465664D01*
X119158921Y-67594469D01*
X119209178Y-67715801D01*
X119282140Y-67824997D01*
X119357143Y-67900000D01*
X119282140Y-67975003D01*
X119209178Y-68084199D01*
X119158921Y-68205531D01*
X119133300Y-68334336D01*
X119133300Y-68465664D01*
X119158921Y-68594469D01*
X119209178Y-68715801D01*
X119282140Y-68824997D01*
X119375003Y-68917860D01*
X119484199Y-68990822D01*
X119605531Y-69041079D01*
X119734336Y-69066700D01*
X119865664Y-69066700D01*
X119994469Y-69041079D01*
X120115801Y-68990822D01*
X120224997Y-68917860D01*
X120300000Y-68842857D01*
X120375003Y-68917860D01*
X120484199Y-68990822D01*
X120605531Y-69041079D01*
X120734336Y-69066700D01*
X120865664Y-69066700D01*
X120994469Y-69041079D01*
X121115801Y-68990822D01*
X121224997Y-68917860D01*
X121300000Y-68842857D01*
X121375003Y-68917860D01*
X121484199Y-68990822D01*
X121605531Y-69041079D01*
X121734336Y-69066700D01*
X121865664Y-69066700D01*
X121994469Y-69041079D01*
X122115801Y-68990822D01*
X122224997Y-68917860D01*
X122317860Y-68824997D01*
X122390822Y-68715801D01*
X122441079Y-68594469D01*
X122466700Y-68465664D01*
X122466700Y-68334336D01*
X122441079Y-68205531D01*
X122390822Y-68084199D01*
X122317860Y-67975003D01*
X122242857Y-67900000D01*
X122317860Y-67824997D01*
X122390822Y-67715801D01*
X122441079Y-67594469D01*
X122466700Y-67465664D01*
X122466700Y-67334336D01*
X122441079Y-67205531D01*
X122390822Y-67084199D01*
X122317860Y-66975003D01*
X122242857Y-66900000D01*
X122317860Y-66824997D01*
X122390822Y-66715801D01*
X122441079Y-66594469D01*
X122466700Y-66465664D01*
X122466700Y-66334336D01*
X122441079Y-66205531D01*
X122390822Y-66084199D01*
X122317860Y-65975003D01*
X122242857Y-65900000D01*
X122317860Y-65824997D01*
X122390822Y-65715801D01*
X122441079Y-65594469D01*
X122466700Y-65465664D01*
X122466700Y-65334336D01*
X122441079Y-65205531D01*
X122390822Y-65084199D01*
X122317860Y-64975003D01*
X122224997Y-64882140D01*
X122115801Y-64809178D01*
X121994469Y-64758921D01*
X121865664Y-64733300D01*
X121734336Y-64733300D01*
X121605531Y-64758921D01*
X121484199Y-64809178D01*
X121375003Y-64882140D01*
X121300000Y-64957143D01*
X121224997Y-64882140D01*
X121115801Y-64809178D01*
X120994469Y-64758921D01*
X120865664Y-64733300D01*
X120734336Y-64733300D01*
X120605531Y-64758921D01*
X120484199Y-64809178D01*
X120375003Y-64882140D01*
X120300000Y-64957143D01*
X120224997Y-64882140D01*
X120115801Y-64809178D01*
X119994469Y-64758921D01*
X119865664Y-64733300D01*
X119734336Y-64733300D01*
X119605531Y-64758921D01*
X119484199Y-64809178D01*
X119375003Y-64882140D01*
X119282140Y-64975003D01*
X119209178Y-65084199D01*
X119158921Y-65205531D01*
X119133300Y-65334336D01*
X73081756Y-65334336D01*
X73073786Y-65294271D01*
X72989606Y-65091044D01*
X72867397Y-64908145D01*
X72818151Y-64858899D01*
X87303391Y-64858899D01*
X87322101Y-64860742D01*
X87340811Y-64858899D01*
X87340814Y-64858899D01*
X87396790Y-64853386D01*
X87468609Y-64831600D01*
X87534797Y-64796221D01*
X87592812Y-64748610D01*
X87604747Y-64734067D01*
X88282438Y-64056377D01*
X88334336Y-64066700D01*
X88465664Y-64066700D01*
X88594469Y-64041079D01*
X88715801Y-63990822D01*
X88824997Y-63917860D01*
X88917860Y-63824997D01*
X88990822Y-63715801D01*
X89024565Y-63634336D01*
X119933300Y-63634336D01*
X119933300Y-63765664D01*
X119958921Y-63894469D01*
X120009178Y-64015801D01*
X120082140Y-64124997D01*
X120175003Y-64217860D01*
X120284199Y-64290822D01*
X120405531Y-64341079D01*
X120534336Y-64366700D01*
X120665664Y-64366700D01*
X120794469Y-64341079D01*
X120915801Y-64290822D01*
X121024997Y-64217860D01*
X121117860Y-64124997D01*
X121190822Y-64015801D01*
X121241079Y-63894469D01*
X121266700Y-63765664D01*
X121266700Y-63634336D01*
X121241079Y-63505531D01*
X121190822Y-63384199D01*
X121117860Y-63275003D01*
X121024997Y-63182140D01*
X120981000Y-63152742D01*
X120981000Y-59757814D01*
X121257815Y-59481000D01*
X125381290Y-59481000D01*
X125400000Y-59482843D01*
X125418710Y-59481000D01*
X125418713Y-59481000D01*
X125474689Y-59475487D01*
X125546508Y-59453701D01*
X125612696Y-59418322D01*
X125670711Y-59370711D01*
X125682646Y-59356168D01*
X127857815Y-57181000D01*
X136381290Y-57181000D01*
X136400000Y-57182843D01*
X136418710Y-57181000D01*
X136418713Y-57181000D01*
X136474689Y-57175487D01*
X136546508Y-57153701D01*
X136612696Y-57118322D01*
X136670711Y-57070711D01*
X136682646Y-57056168D01*
X137356175Y-56382640D01*
X137370711Y-56370711D01*
X137394250Y-56342028D01*
X137418322Y-56312697D01*
X137431895Y-56287304D01*
X137453701Y-56246508D01*
X137475487Y-56174689D01*
X137481000Y-56118713D01*
X137481000Y-56118704D01*
X137482842Y-56100001D01*
X137481000Y-56081298D01*
X137481000Y-52947258D01*
X137524997Y-52917860D01*
X137617860Y-52824997D01*
X137690822Y-52715801D01*
X137741079Y-52594469D01*
X137766700Y-52465664D01*
X137766700Y-52334336D01*
X137741079Y-52205531D01*
X137690822Y-52084199D01*
X137617860Y-51975003D01*
X137524997Y-51882140D01*
X137415801Y-51809178D01*
X137294469Y-51758921D01*
X137165664Y-51733300D01*
X137034336Y-51733300D01*
X136905531Y-51758921D01*
X136784199Y-51809178D01*
X136675003Y-51882140D01*
X136582140Y-51975003D01*
X136509178Y-52084199D01*
X136458921Y-52205531D01*
X136433300Y-52334336D01*
X136433300Y-52465664D01*
X136458921Y-52594469D01*
X136509178Y-52715801D01*
X136582140Y-52824997D01*
X136675003Y-52917860D01*
X136719001Y-52947258D01*
X136719000Y-55942185D01*
X136242186Y-56419000D01*
X127718709Y-56419000D01*
X127699999Y-56417157D01*
X127681289Y-56419000D01*
X127681287Y-56419000D01*
X127625311Y-56424513D01*
X127561648Y-56443825D01*
X127553492Y-56446299D01*
X127487303Y-56481678D01*
X127464978Y-56500000D01*
X127429289Y-56529289D01*
X127417360Y-56543825D01*
X127159544Y-56801642D01*
X127166700Y-56765664D01*
X127166700Y-56634336D01*
X127141079Y-56505531D01*
X127090822Y-56384199D01*
X127017860Y-56275003D01*
X126924997Y-56182140D01*
X126815801Y-56109178D01*
X126694469Y-56058921D01*
X126565664Y-56033300D01*
X126434336Y-56033300D01*
X126305531Y-56058921D01*
X126184199Y-56109178D01*
X126075003Y-56182140D01*
X125982140Y-56275003D01*
X125950000Y-56323104D01*
X125917860Y-56275003D01*
X125824997Y-56182140D01*
X125715801Y-56109178D01*
X125594469Y-56058921D01*
X125465664Y-56033300D01*
X125334336Y-56033300D01*
X125205531Y-56058921D01*
X125084199Y-56109178D01*
X124975003Y-56182140D01*
X124882140Y-56275003D01*
X124809178Y-56384199D01*
X124758921Y-56505531D01*
X124733300Y-56634336D01*
X124733300Y-56765664D01*
X124758921Y-56894469D01*
X124809178Y-57015801D01*
X124882140Y-57124997D01*
X124975003Y-57217860D01*
X125084199Y-57290822D01*
X125205531Y-57341079D01*
X125334336Y-57366700D01*
X125465664Y-57366700D01*
X125594469Y-57341079D01*
X125715801Y-57290822D01*
X125824997Y-57217860D01*
X125917860Y-57124997D01*
X125950000Y-57076896D01*
X125982140Y-57124997D01*
X126075003Y-57217860D01*
X126184199Y-57290822D01*
X126305531Y-57341079D01*
X126434336Y-57366700D01*
X126565664Y-57366700D01*
X126601642Y-57359544D01*
X125242186Y-58719000D01*
X124823291Y-58719000D01*
X124824997Y-58717860D01*
X124917860Y-58624997D01*
X124990822Y-58515801D01*
X125041079Y-58394469D01*
X125066700Y-58265664D01*
X125066700Y-58134336D01*
X125041079Y-58005531D01*
X124990822Y-57884199D01*
X124917860Y-57775003D01*
X124824997Y-57682140D01*
X124715801Y-57609178D01*
X124594469Y-57558921D01*
X124465664Y-57533300D01*
X124334336Y-57533300D01*
X124205531Y-57558921D01*
X124148415Y-57582579D01*
X124166700Y-57490654D01*
X124166700Y-57359326D01*
X124141079Y-57230521D01*
X124090822Y-57109189D01*
X124017860Y-56999993D01*
X123924997Y-56907130D01*
X123884803Y-56880273D01*
X123909178Y-56855898D01*
X123982140Y-56746702D01*
X124032397Y-56625370D01*
X124058018Y-56496565D01*
X124058018Y-56365237D01*
X124032397Y-56236432D01*
X123982140Y-56115100D01*
X123909178Y-56005904D01*
X123816315Y-55913041D01*
X123707119Y-55840079D01*
X123585787Y-55789822D01*
X123456982Y-55764201D01*
X123325654Y-55764201D01*
X123196849Y-55789822D01*
X123075517Y-55840079D01*
X122966321Y-55913041D01*
X122873458Y-56005904D01*
X122800496Y-56115100D01*
X122750239Y-56236432D01*
X122724618Y-56365237D01*
X122724618Y-56496565D01*
X122750239Y-56625370D01*
X122800496Y-56746702D01*
X122873458Y-56855898D01*
X122966321Y-56948761D01*
X123006515Y-56975618D01*
X122982140Y-56999993D01*
X122909178Y-57109189D01*
X122858921Y-57230521D01*
X122833300Y-57359326D01*
X122833300Y-57490654D01*
X122858921Y-57619459D01*
X122909178Y-57740791D01*
X122982140Y-57849987D01*
X123075003Y-57942850D01*
X123184199Y-58015812D01*
X123305531Y-58066069D01*
X123434336Y-58091690D01*
X123565664Y-58091690D01*
X123694469Y-58066069D01*
X123751585Y-58042411D01*
X123733300Y-58134336D01*
X123733300Y-58265664D01*
X123758921Y-58394469D01*
X123809178Y-58515801D01*
X123882140Y-58624997D01*
X123975003Y-58717860D01*
X123976709Y-58719000D01*
X121118710Y-58719000D01*
X121100000Y-58717157D01*
X121081290Y-58719000D01*
X121081287Y-58719000D01*
X121025311Y-58724513D01*
X120953492Y-58746299D01*
X120887303Y-58781678D01*
X120857972Y-58805750D01*
X120829289Y-58829289D01*
X120817360Y-58843825D01*
X120343827Y-59317359D01*
X120329290Y-59329289D01*
X120317361Y-59343825D01*
X120281678Y-59387304D01*
X120246299Y-59453493D01*
X120224514Y-59525312D01*
X120217157Y-59600000D01*
X120219001Y-59618720D01*
X120219000Y-63152742D01*
X120175003Y-63182140D01*
X120082140Y-63275003D01*
X120009178Y-63384199D01*
X119958921Y-63505531D01*
X119933300Y-63634336D01*
X89024565Y-63634336D01*
X89041079Y-63594469D01*
X89066700Y-63465664D01*
X89066700Y-63334336D01*
X89041079Y-63205531D01*
X88990822Y-63084199D01*
X88917860Y-62975003D01*
X88824997Y-62882140D01*
X88715801Y-62809178D01*
X88594469Y-62758921D01*
X88465664Y-62733300D01*
X88334336Y-62733300D01*
X88205531Y-62758921D01*
X88084199Y-62809178D01*
X87975003Y-62882140D01*
X87882140Y-62975003D01*
X87809178Y-63084199D01*
X87758921Y-63205531D01*
X87733300Y-63334336D01*
X87733300Y-63465664D01*
X87743623Y-63517562D01*
X87164287Y-64096899D01*
X72463065Y-64096899D01*
X72528956Y-64069606D01*
X72711855Y-63947397D01*
X72867397Y-63791855D01*
X72989606Y-63608956D01*
X73073786Y-63405729D01*
X73116700Y-63189985D01*
X73116700Y-62970015D01*
X73073786Y-62754271D01*
X72989606Y-62551044D01*
X72867397Y-62368145D01*
X72780252Y-62281000D01*
X85152742Y-62281000D01*
X85182140Y-62324997D01*
X85275003Y-62417860D01*
X85384199Y-62490822D01*
X85505531Y-62541079D01*
X85634336Y-62566700D01*
X85765664Y-62566700D01*
X85894469Y-62541079D01*
X86015801Y-62490822D01*
X86124997Y-62417860D01*
X86217860Y-62324997D01*
X86290822Y-62215801D01*
X86341079Y-62094469D01*
X86366700Y-61965664D01*
X86366700Y-61834336D01*
X86341079Y-61705531D01*
X86290822Y-61584199D01*
X86217860Y-61475003D01*
X86124997Y-61382140D01*
X86015801Y-61309178D01*
X85894469Y-61258921D01*
X85765664Y-61233300D01*
X85634336Y-61233300D01*
X85505531Y-61258921D01*
X85384199Y-61309178D01*
X85275003Y-61382140D01*
X85182140Y-61475003D01*
X85152742Y-61519000D01*
X72544829Y-61519000D01*
X72711855Y-61407397D01*
X72867397Y-61251855D01*
X72989606Y-61068956D01*
X73073786Y-60865729D01*
X73116700Y-60649985D01*
X73116700Y-60430015D01*
X73073786Y-60214271D01*
X72989606Y-60011044D01*
X72938352Y-59934336D01*
X116233300Y-59934336D01*
X116233300Y-60065664D01*
X116258921Y-60194469D01*
X116309178Y-60315801D01*
X116382140Y-60424997D01*
X116475003Y-60517860D01*
X116584199Y-60590822D01*
X116705531Y-60641079D01*
X116834336Y-60666700D01*
X116965664Y-60666700D01*
X117094469Y-60641079D01*
X117215801Y-60590822D01*
X117324997Y-60517860D01*
X117417860Y-60424997D01*
X117490822Y-60315801D01*
X117541079Y-60194469D01*
X117566700Y-60065664D01*
X117566700Y-59934336D01*
X117541079Y-59805531D01*
X117490822Y-59684199D01*
X117417860Y-59575003D01*
X117324997Y-59482140D01*
X117215801Y-59409178D01*
X117094469Y-59358921D01*
X116965664Y-59333300D01*
X116834336Y-59333300D01*
X116705531Y-59358921D01*
X116584199Y-59409178D01*
X116475003Y-59482140D01*
X116382140Y-59575003D01*
X116309178Y-59684199D01*
X116258921Y-59805531D01*
X116233300Y-59934336D01*
X72938352Y-59934336D01*
X72867397Y-59828145D01*
X72711855Y-59672603D01*
X72528956Y-59550394D01*
X72325729Y-59466214D01*
X72109985Y-59423300D01*
X71890015Y-59423300D01*
X71674271Y-59466214D01*
X71471044Y-59550394D01*
X71288145Y-59672603D01*
X71132603Y-59828145D01*
X71010394Y-60011044D01*
X70926214Y-60214271D01*
X70883300Y-60430015D01*
X70883300Y-60649985D01*
X70926214Y-60865729D01*
X71010394Y-61068956D01*
X71132603Y-61251855D01*
X71288145Y-61407397D01*
X71455171Y-61519000D01*
X65557815Y-61519000D01*
X62105514Y-58066700D01*
X62165664Y-58066700D01*
X62294469Y-58041079D01*
X62415801Y-57990822D01*
X62524997Y-57917860D01*
X62617860Y-57824997D01*
X62647258Y-57781000D01*
X70355508Y-57781000D01*
X70374218Y-57782843D01*
X70392928Y-57781000D01*
X70392931Y-57781000D01*
X70448907Y-57775487D01*
X70520726Y-57753701D01*
X70586914Y-57718322D01*
X70644929Y-57670711D01*
X70656863Y-57656169D01*
X70882010Y-57431023D01*
X70882010Y-58850000D01*
X70887159Y-58902282D01*
X70902410Y-58952555D01*
X70927174Y-58998887D01*
X70960502Y-59039498D01*
X71001113Y-59072826D01*
X71047445Y-59097590D01*
X71097718Y-59112841D01*
X71150000Y-59117990D01*
X72850000Y-59117990D01*
X72902282Y-59112841D01*
X72952555Y-59097590D01*
X72998887Y-59072826D01*
X73039498Y-59039498D01*
X73072826Y-58998887D01*
X73097590Y-58952555D01*
X73112841Y-58902282D01*
X73117990Y-58850000D01*
X73117990Y-57431022D01*
X74243141Y-58556174D01*
X74255071Y-58570711D01*
X74269606Y-58582639D01*
X74313085Y-58618322D01*
X74365813Y-58646506D01*
X74379274Y-58653701D01*
X74451093Y-58675487D01*
X74507069Y-58681000D01*
X74507072Y-58681000D01*
X74525782Y-58682843D01*
X74544492Y-58681000D01*
X90152742Y-58681000D01*
X90182140Y-58724997D01*
X90275003Y-58817860D01*
X90384199Y-58890822D01*
X90505531Y-58941079D01*
X90634336Y-58966700D01*
X90765664Y-58966700D01*
X90894469Y-58941079D01*
X91015801Y-58890822D01*
X91124997Y-58817860D01*
X91217860Y-58724997D01*
X91290822Y-58615801D01*
X91341079Y-58494469D01*
X91366700Y-58365664D01*
X91366700Y-58334336D01*
X119433300Y-58334336D01*
X119433300Y-58465664D01*
X119458921Y-58594469D01*
X119509178Y-58715801D01*
X119582140Y-58824997D01*
X119675003Y-58917860D01*
X119784199Y-58990822D01*
X119905531Y-59041079D01*
X120034336Y-59066700D01*
X120165664Y-59066700D01*
X120294469Y-59041079D01*
X120415801Y-58990822D01*
X120524997Y-58917860D01*
X120617860Y-58824997D01*
X120690822Y-58715801D01*
X120741079Y-58594469D01*
X120766700Y-58465664D01*
X120766700Y-58334336D01*
X120741079Y-58205531D01*
X120690822Y-58084199D01*
X120617860Y-57975003D01*
X120524997Y-57882140D01*
X120415801Y-57809178D01*
X120294469Y-57758921D01*
X120165664Y-57733300D01*
X120034336Y-57733300D01*
X119905531Y-57758921D01*
X119784199Y-57809178D01*
X119675003Y-57882140D01*
X119582140Y-57975003D01*
X119509178Y-58084199D01*
X119458921Y-58205531D01*
X119433300Y-58334336D01*
X91366700Y-58334336D01*
X91366700Y-58234336D01*
X91341079Y-58105531D01*
X91290822Y-57984199D01*
X91217860Y-57875003D01*
X91124997Y-57782140D01*
X91015801Y-57709178D01*
X90894469Y-57658921D01*
X90765664Y-57633300D01*
X90634336Y-57633300D01*
X90505531Y-57658921D01*
X90384199Y-57709178D01*
X90275003Y-57782140D01*
X90182140Y-57875003D01*
X90152742Y-57919000D01*
X74683597Y-57919000D01*
X73366327Y-56601731D01*
X73354392Y-56587188D01*
X73296377Y-56539577D01*
X73230189Y-56504198D01*
X73158370Y-56482412D01*
X73144033Y-56481000D01*
X82342186Y-56481000D01*
X82843623Y-56982439D01*
X82833300Y-57034336D01*
X82833300Y-57165664D01*
X82858921Y-57294469D01*
X82909178Y-57415801D01*
X82982140Y-57524997D01*
X83075003Y-57617860D01*
X83184199Y-57690822D01*
X83305531Y-57741079D01*
X83434336Y-57766700D01*
X83565664Y-57766700D01*
X83694469Y-57741079D01*
X83815801Y-57690822D01*
X83924997Y-57617860D01*
X84017860Y-57524997D01*
X84090822Y-57415801D01*
X84141079Y-57294469D01*
X84166700Y-57165664D01*
X84166700Y-57034336D01*
X84141079Y-56905531D01*
X84090822Y-56784199D01*
X84017860Y-56675003D01*
X83924997Y-56582140D01*
X83815801Y-56509178D01*
X83694469Y-56458921D01*
X83565664Y-56433300D01*
X83434336Y-56433300D01*
X83382439Y-56443623D01*
X82782645Y-55843831D01*
X82770711Y-55829289D01*
X82712696Y-55781678D01*
X82646508Y-55746299D01*
X82607072Y-55734336D01*
X116433300Y-55734336D01*
X116433300Y-55865664D01*
X116458921Y-55994469D01*
X116509178Y-56115801D01*
X116582140Y-56224997D01*
X116675003Y-56317860D01*
X116784199Y-56390822D01*
X116905531Y-56441079D01*
X117034336Y-56466700D01*
X117165664Y-56466700D01*
X117294469Y-56441079D01*
X117415801Y-56390822D01*
X117524997Y-56317860D01*
X117617860Y-56224997D01*
X117690822Y-56115801D01*
X117741079Y-55994469D01*
X117748389Y-55957718D01*
X117817879Y-56027208D01*
X117927075Y-56100170D01*
X118048407Y-56150427D01*
X118177212Y-56176048D01*
X118308540Y-56176048D01*
X118437345Y-56150427D01*
X118558677Y-56100170D01*
X118667873Y-56027208D01*
X118760736Y-55934345D01*
X118833698Y-55825149D01*
X118883955Y-55703817D01*
X118903350Y-55606312D01*
X119013866Y-55628295D01*
X119145194Y-55628295D01*
X119184470Y-55620482D01*
X119188946Y-55624958D01*
X119201215Y-55639908D01*
X119260859Y-55688856D01*
X119328907Y-55725228D01*
X119398368Y-55746299D01*
X119402742Y-55747626D01*
X119479528Y-55755189D01*
X119498768Y-55753294D01*
X122419166Y-55753294D01*
X122438406Y-55755189D01*
X122457646Y-55753294D01*
X122515193Y-55747626D01*
X122589028Y-55725228D01*
X122657076Y-55688856D01*
X122716720Y-55639908D01*
X122728994Y-55624952D01*
X123995059Y-54358887D01*
X124034336Y-54366700D01*
X124165664Y-54366700D01*
X124294469Y-54341079D01*
X124415801Y-54290822D01*
X124524997Y-54217860D01*
X124617860Y-54124997D01*
X124683661Y-54026518D01*
X124775003Y-54117860D01*
X124884199Y-54190822D01*
X125005531Y-54241079D01*
X125134336Y-54266700D01*
X125265664Y-54266700D01*
X125394469Y-54241079D01*
X125515801Y-54190822D01*
X125624997Y-54117860D01*
X125717860Y-54024997D01*
X125790822Y-53915801D01*
X125841079Y-53794469D01*
X125866700Y-53665664D01*
X125866700Y-53534336D01*
X125841079Y-53405531D01*
X125790822Y-53284199D01*
X125717860Y-53175003D01*
X125624997Y-53082140D01*
X125515801Y-53009178D01*
X125394469Y-52958921D01*
X125265664Y-52933300D01*
X125134336Y-52933300D01*
X125005531Y-52958921D01*
X124884199Y-53009178D01*
X124775003Y-53082140D01*
X124682140Y-53175003D01*
X124616339Y-53273482D01*
X124524997Y-53182140D01*
X124415801Y-53109178D01*
X124294469Y-53058921D01*
X124165664Y-53033300D01*
X124034336Y-53033300D01*
X123905531Y-53058921D01*
X123784199Y-53109178D01*
X123675003Y-53182140D01*
X123582140Y-53275003D01*
X123509178Y-53384199D01*
X123458921Y-53505531D01*
X123433300Y-53634336D01*
X123433300Y-53765664D01*
X123441113Y-53804941D01*
X122276160Y-54969894D01*
X120847122Y-54969894D01*
X120924997Y-54917860D01*
X121017860Y-54824997D01*
X121090822Y-54715801D01*
X121141079Y-54594469D01*
X121166700Y-54465664D01*
X121166700Y-54334336D01*
X121141079Y-54205531D01*
X121090822Y-54084199D01*
X121017860Y-53975003D01*
X120977193Y-53934336D01*
X121633300Y-53934336D01*
X121633300Y-54065664D01*
X121658921Y-54194469D01*
X121709178Y-54315801D01*
X121782140Y-54424997D01*
X121875003Y-54517860D01*
X121984199Y-54590822D01*
X122105531Y-54641079D01*
X122234336Y-54666700D01*
X122365664Y-54666700D01*
X122494469Y-54641079D01*
X122615801Y-54590822D01*
X122724997Y-54517860D01*
X122817860Y-54424997D01*
X122890822Y-54315801D01*
X122941079Y-54194469D01*
X122966700Y-54065664D01*
X122966700Y-53934336D01*
X122941079Y-53805531D01*
X122890822Y-53684199D01*
X122817860Y-53575003D01*
X122724997Y-53482140D01*
X122615801Y-53409178D01*
X122494469Y-53358921D01*
X122365664Y-53333300D01*
X122234336Y-53333300D01*
X122105531Y-53358921D01*
X121984199Y-53409178D01*
X121875003Y-53482140D01*
X121782140Y-53575003D01*
X121709178Y-53684199D01*
X121658921Y-53805531D01*
X121633300Y-53934336D01*
X120977193Y-53934336D01*
X120924997Y-53882140D01*
X120815801Y-53809178D01*
X120694469Y-53758921D01*
X120565664Y-53733300D01*
X120434336Y-53733300D01*
X120305531Y-53758921D01*
X120184199Y-53809178D01*
X120075003Y-53882140D01*
X119982140Y-53975003D01*
X119909178Y-54084199D01*
X119858921Y-54205531D01*
X119833300Y-54334336D01*
X119833300Y-54465664D01*
X119858921Y-54594469D01*
X119909178Y-54715801D01*
X119982140Y-54824997D01*
X120075003Y-54917860D01*
X120152878Y-54969894D01*
X119746230Y-54969894D01*
X119746230Y-54895931D01*
X119720609Y-54767126D01*
X119670352Y-54645794D01*
X119597390Y-54536598D01*
X119504527Y-54443735D01*
X119395331Y-54370773D01*
X119273999Y-54320516D01*
X119145194Y-54294895D01*
X119013866Y-54294895D01*
X119005746Y-54296510D01*
X121570547Y-51731710D01*
X122928148Y-51731710D01*
X122950396Y-51765007D01*
X123043259Y-51857870D01*
X123152455Y-51930832D01*
X123273787Y-51981089D01*
X123402592Y-52006710D01*
X123533920Y-52006710D01*
X123662725Y-51981089D01*
X123784057Y-51930832D01*
X123893253Y-51857870D01*
X123986116Y-51765007D01*
X124059078Y-51655811D01*
X124109335Y-51534479D01*
X124134956Y-51405674D01*
X124134956Y-51274346D01*
X124109335Y-51145541D01*
X124063273Y-51034336D01*
X131633300Y-51034336D01*
X131633300Y-51165664D01*
X131658921Y-51294469D01*
X131709178Y-51415801D01*
X131782140Y-51524997D01*
X131807143Y-51550000D01*
X131782140Y-51575003D01*
X131709178Y-51684199D01*
X131658921Y-51805531D01*
X131633300Y-51934336D01*
X131633300Y-52065664D01*
X131658921Y-52194469D01*
X131709178Y-52315801D01*
X131782140Y-52424997D01*
X131807143Y-52450000D01*
X131782140Y-52475003D01*
X131709178Y-52584199D01*
X131658921Y-52705531D01*
X131633300Y-52834336D01*
X131633300Y-52965664D01*
X131658921Y-53094469D01*
X131709178Y-53215801D01*
X131782140Y-53324997D01*
X131807143Y-53350000D01*
X131782140Y-53375003D01*
X131709178Y-53484199D01*
X131658921Y-53605531D01*
X131633300Y-53734336D01*
X131633300Y-53865664D01*
X131658921Y-53994469D01*
X131709178Y-54115801D01*
X131782140Y-54224997D01*
X131875003Y-54317860D01*
X131984199Y-54390822D01*
X132105531Y-54441079D01*
X132234336Y-54466700D01*
X132365664Y-54466700D01*
X132494469Y-54441079D01*
X132615801Y-54390822D01*
X132724997Y-54317860D01*
X132817860Y-54224997D01*
X132890822Y-54115801D01*
X132941079Y-53994469D01*
X132966700Y-53865664D01*
X132966700Y-53734336D01*
X132941079Y-53605531D01*
X132890822Y-53484199D01*
X132817860Y-53375003D01*
X132792857Y-53350000D01*
X132817860Y-53324997D01*
X132890822Y-53215801D01*
X132941079Y-53094469D01*
X132966700Y-52965664D01*
X132966700Y-52834336D01*
X132941079Y-52705531D01*
X132890822Y-52584199D01*
X132817860Y-52475003D01*
X132792857Y-52450000D01*
X132817860Y-52424997D01*
X132890822Y-52315801D01*
X132941079Y-52194469D01*
X132966700Y-52065664D01*
X132966700Y-51934336D01*
X132941079Y-51805531D01*
X132890822Y-51684199D01*
X132817860Y-51575003D01*
X132792857Y-51550000D01*
X132817860Y-51524997D01*
X132890822Y-51415801D01*
X132941079Y-51294469D01*
X132966700Y-51165664D01*
X132966700Y-51034336D01*
X132941079Y-50905531D01*
X132890822Y-50784199D01*
X132817860Y-50675003D01*
X132724997Y-50582140D01*
X132615801Y-50509178D01*
X132494469Y-50458921D01*
X132365664Y-50433300D01*
X132234336Y-50433300D01*
X132105531Y-50458921D01*
X131984199Y-50509178D01*
X131875003Y-50582140D01*
X131782140Y-50675003D01*
X131709178Y-50784199D01*
X131658921Y-50905531D01*
X131633300Y-51034336D01*
X124063273Y-51034336D01*
X124059078Y-51024209D01*
X123986116Y-50915013D01*
X123893253Y-50822150D01*
X123784057Y-50749188D01*
X123662725Y-50698931D01*
X123533920Y-50673310D01*
X123402592Y-50673310D01*
X123273787Y-50698931D01*
X123152455Y-50749188D01*
X123043259Y-50822150D01*
X122950396Y-50915013D01*
X122928148Y-50948310D01*
X121427540Y-50948310D01*
X121408300Y-50946415D01*
X121389060Y-50948310D01*
X121331513Y-50953978D01*
X121257678Y-50976376D01*
X121189630Y-51012748D01*
X121129986Y-51061696D01*
X121117717Y-51076646D01*
X117979513Y-54214851D01*
X117964563Y-54227120D01*
X117932081Y-54266700D01*
X117915614Y-54286765D01*
X117879243Y-54354812D01*
X117856844Y-54428648D01*
X117849281Y-54505434D01*
X117851177Y-54524683D01*
X117851177Y-54969239D01*
X117817879Y-54991488D01*
X117725016Y-55084351D01*
X117652054Y-55193547D01*
X117601797Y-55314879D01*
X117594487Y-55351630D01*
X117524997Y-55282140D01*
X117415801Y-55209178D01*
X117294469Y-55158921D01*
X117165664Y-55133300D01*
X117034336Y-55133300D01*
X116905531Y-55158921D01*
X116784199Y-55209178D01*
X116675003Y-55282140D01*
X116582140Y-55375003D01*
X116509178Y-55484199D01*
X116458921Y-55605531D01*
X116433300Y-55734336D01*
X82607072Y-55734336D01*
X82574689Y-55724513D01*
X82518713Y-55719000D01*
X82518710Y-55719000D01*
X82500000Y-55717157D01*
X82481290Y-55719000D01*
X71118169Y-55719000D01*
X71099466Y-55717158D01*
X71080763Y-55719000D01*
X71080754Y-55719000D01*
X71024778Y-55724513D01*
X70952959Y-55746299D01*
X70909826Y-55769355D01*
X70886770Y-55781678D01*
X70879479Y-55787662D01*
X70828756Y-55829289D01*
X70816826Y-55843826D01*
X70541653Y-56119000D01*
X60847258Y-56119000D01*
X60817860Y-56075003D01*
X60724997Y-55982140D01*
X60615801Y-55909178D01*
X60494469Y-55858921D01*
X60365664Y-55833300D01*
X60234336Y-55833300D01*
X60105531Y-55858921D01*
X59984199Y-55909178D01*
X59875003Y-55982140D01*
X59782140Y-56075003D01*
X59709178Y-56184199D01*
X59658921Y-56305531D01*
X59633300Y-56434336D01*
X59633300Y-56565664D01*
X59658921Y-56694469D01*
X59709178Y-56815801D01*
X59782140Y-56924997D01*
X59875003Y-57017860D01*
X59984199Y-57090822D01*
X60105531Y-57141079D01*
X60132286Y-57146401D01*
X60093587Y-57167086D01*
X60068952Y-57187304D01*
X60035573Y-57214697D01*
X60023815Y-57229024D01*
X59971949Y-57218707D01*
X59840621Y-57218707D01*
X59711816Y-57244328D01*
X59590484Y-57294585D01*
X59481288Y-57367547D01*
X59388425Y-57460410D01*
X59315463Y-57569606D01*
X59265206Y-57690938D01*
X59239585Y-57819743D01*
X59239585Y-57951071D01*
X59265206Y-58079876D01*
X59315463Y-58201208D01*
X59388425Y-58310404D01*
X59481288Y-58403267D01*
X59590484Y-58476229D01*
X59711816Y-58526486D01*
X59840621Y-58552107D01*
X59971949Y-58552107D01*
X60100754Y-58526486D01*
X60222086Y-58476229D01*
X60233300Y-58468736D01*
X60233300Y-58565664D01*
X60240461Y-58601665D01*
X60214480Y-58601665D01*
X60085675Y-58627286D01*
X59964343Y-58677543D01*
X59855147Y-58750505D01*
X59762284Y-58843368D01*
X59689322Y-58952564D01*
X59639065Y-59073896D01*
X59613444Y-59202701D01*
X59613444Y-59334029D01*
X59639065Y-59462834D01*
X59689322Y-59584166D01*
X59762284Y-59693362D01*
X59840528Y-59771606D01*
X59838400Y-59775586D01*
X59826935Y-59813383D01*
X59820327Y-59835169D01*
X59816615Y-59847405D01*
X59809258Y-59922093D01*
X59811102Y-59940813D01*
X59811102Y-60407232D01*
X59694469Y-60358921D01*
X59565664Y-60333300D01*
X59434336Y-60333300D01*
X59305531Y-60358921D01*
X59184199Y-60409178D01*
X59075003Y-60482140D01*
X58982140Y-60575003D01*
X58909178Y-60684199D01*
X58858921Y-60805531D01*
X58833300Y-60934336D01*
X58833300Y-61065664D01*
X58858921Y-61194469D01*
X58909178Y-61315801D01*
X58982140Y-61424997D01*
X59075003Y-61517860D01*
X59184199Y-61590822D01*
X59305531Y-61641079D01*
X59434336Y-61666700D01*
X59565664Y-61666700D01*
X59694469Y-61641079D01*
X59811102Y-61592768D01*
X59811101Y-91273391D01*
X59809258Y-91292101D01*
X59811101Y-91310811D01*
X59811101Y-91310813D01*
X59816614Y-91366789D01*
X59838400Y-91438608D01*
X59873779Y-91504797D01*
X59889767Y-91524278D01*
X59921390Y-91562812D01*
X59935933Y-91574747D01*
X62943623Y-94582438D01*
X62933300Y-94634336D01*
X62933300Y-94765664D01*
X62958921Y-94894469D01*
X63009178Y-95015801D01*
X63082140Y-95124997D01*
X63175003Y-95217860D01*
X63284199Y-95290822D01*
X63405531Y-95341079D01*
X63534336Y-95366700D01*
X63665664Y-95366700D01*
X63794469Y-95341079D01*
X63915801Y-95290822D01*
X64024997Y-95217860D01*
X64117860Y-95124997D01*
X64150000Y-95076896D01*
X64182140Y-95124997D01*
X64275003Y-95217860D01*
X64384199Y-95290822D01*
X64505531Y-95341079D01*
X64634336Y-95366700D01*
X64765664Y-95366700D01*
X64894469Y-95341079D01*
X65015801Y-95290822D01*
X65124997Y-95217860D01*
X65217860Y-95124997D01*
X65250000Y-95076896D01*
X65282140Y-95124997D01*
X65375003Y-95217860D01*
X65484199Y-95290822D01*
X65605531Y-95341079D01*
X65734336Y-95366700D01*
X65865664Y-95366700D01*
X65994469Y-95341079D01*
X66115801Y-95290822D01*
X66224997Y-95217860D01*
X66317860Y-95124997D01*
X66390822Y-95015801D01*
X66441079Y-94894469D01*
X66451015Y-94844516D01*
X66434301Y-99708300D01*
X50291700Y-99708300D01*
X50291700Y-94834336D01*
X59233300Y-94834336D01*
X59233300Y-94965664D01*
X59258921Y-95094469D01*
X59309178Y-95215801D01*
X59382140Y-95324997D01*
X59475003Y-95417860D01*
X59584199Y-95490822D01*
X59705531Y-95541079D01*
X59750380Y-95550000D01*
X59705531Y-95558921D01*
X59584199Y-95609178D01*
X59475003Y-95682140D01*
X59382140Y-95775003D01*
X59309178Y-95884199D01*
X59258921Y-96005531D01*
X59233300Y-96134336D01*
X59233300Y-96265664D01*
X59258921Y-96394469D01*
X59309178Y-96515801D01*
X59382140Y-96624997D01*
X59475003Y-96717860D01*
X59584199Y-96790822D01*
X59705531Y-96841079D01*
X59834336Y-96866700D01*
X59965664Y-96866700D01*
X60094469Y-96841079D01*
X60215801Y-96790822D01*
X60324997Y-96717860D01*
X60417860Y-96624997D01*
X60490822Y-96515801D01*
X60541079Y-96394469D01*
X60566700Y-96265664D01*
X60566700Y-96134336D01*
X60541079Y-96005531D01*
X60490822Y-95884199D01*
X60417860Y-95775003D01*
X60324997Y-95682140D01*
X60215801Y-95609178D01*
X60094469Y-95558921D01*
X60049620Y-95550000D01*
X60094469Y-95541079D01*
X60215801Y-95490822D01*
X60324997Y-95417860D01*
X60417860Y-95324997D01*
X60490822Y-95215801D01*
X60541079Y-95094469D01*
X60566700Y-94965664D01*
X60566700Y-94834336D01*
X60541079Y-94705531D01*
X60490822Y-94584199D01*
X60417860Y-94475003D01*
X60324997Y-94382140D01*
X60215801Y-94309178D01*
X60094469Y-94258921D01*
X59965664Y-94233300D01*
X59834336Y-94233300D01*
X59705531Y-94258921D01*
X59584199Y-94309178D01*
X59475003Y-94382140D01*
X59382140Y-94475003D01*
X59309178Y-94584199D01*
X59258921Y-94705531D01*
X59233300Y-94834336D01*
X50291700Y-94834336D01*
X50291700Y-93534336D01*
X56933300Y-93534336D01*
X56933300Y-93665664D01*
X56958921Y-93794469D01*
X57009178Y-93915801D01*
X57082140Y-94024997D01*
X57175003Y-94117860D01*
X57284199Y-94190822D01*
X57405531Y-94241079D01*
X57534336Y-94266700D01*
X57665664Y-94266700D01*
X57794469Y-94241079D01*
X57915801Y-94190822D01*
X58024997Y-94117860D01*
X58117860Y-94024997D01*
X58190822Y-93915801D01*
X58241079Y-93794469D01*
X58266700Y-93665664D01*
X58266700Y-93534336D01*
X58241079Y-93405531D01*
X58190822Y-93284199D01*
X58117860Y-93175003D01*
X58024997Y-93082140D01*
X57915801Y-93009178D01*
X57794469Y-92958921D01*
X57665664Y-92933300D01*
X57534336Y-92933300D01*
X57405531Y-92958921D01*
X57284199Y-93009178D01*
X57175003Y-93082140D01*
X57082140Y-93175003D01*
X57009178Y-93284199D01*
X56958921Y-93405531D01*
X56933300Y-93534336D01*
X50291700Y-93534336D01*
X50291700Y-75292769D01*
X50408331Y-75341079D01*
X50537136Y-75366700D01*
X50598111Y-75366700D01*
X50575003Y-75382140D01*
X50482140Y-75475003D01*
X50409178Y-75584199D01*
X50358921Y-75705531D01*
X50333300Y-75834336D01*
X50333300Y-75965664D01*
X50358921Y-76094469D01*
X50409178Y-76215801D01*
X50482140Y-76324997D01*
X50575003Y-76417860D01*
X50684199Y-76490822D01*
X50805531Y-76541079D01*
X50934336Y-76566700D01*
X51065664Y-76566700D01*
X51194469Y-76541079D01*
X51315801Y-76490822D01*
X51424997Y-76417860D01*
X51517860Y-76324997D01*
X51590822Y-76215801D01*
X51641079Y-76094469D01*
X51666700Y-75965664D01*
X51666700Y-75834336D01*
X51656383Y-75782470D01*
X51670710Y-75770712D01*
X51708227Y-75724997D01*
X51718321Y-75712698D01*
X51753700Y-75646509D01*
X51754514Y-75643825D01*
X51775486Y-75574690D01*
X51780999Y-75518714D01*
X51780999Y-75518712D01*
X51782842Y-75500002D01*
X51780999Y-75481292D01*
X51780999Y-74418701D01*
X51782841Y-74399998D01*
X51780999Y-74381295D01*
X51780999Y-74381286D01*
X51775486Y-74325310D01*
X51753700Y-74253491D01*
X51725971Y-74201614D01*
X51718321Y-74187302D01*
X51682638Y-74143823D01*
X51670710Y-74129288D01*
X51656174Y-74117359D01*
X51281000Y-73742186D01*
X51281000Y-64210811D01*
X51282843Y-64192101D01*
X51279891Y-64162129D01*
X51275487Y-64117412D01*
X51253701Y-64045593D01*
X51218322Y-63979405D01*
X51170711Y-63921390D01*
X51156169Y-63909456D01*
X51104521Y-63857808D01*
X51104521Y-62818069D01*
X51480988Y-62441603D01*
X51529302Y-62558245D01*
X51602264Y-62667441D01*
X51695127Y-62760304D01*
X51739098Y-62789684D01*
X51737281Y-62808129D01*
X51739124Y-62826839D01*
X51739124Y-62826841D01*
X51744637Y-62882817D01*
X51761502Y-62938414D01*
X51766423Y-62954636D01*
X51801802Y-63020825D01*
X51811102Y-63032157D01*
X51811101Y-85307706D01*
X51809258Y-85326416D01*
X51811101Y-85345126D01*
X51811101Y-85345128D01*
X51816614Y-85401104D01*
X51838400Y-85472923D01*
X51873779Y-85539112D01*
X51884588Y-85552282D01*
X51921390Y-85597127D01*
X51935932Y-85609061D01*
X51942007Y-85615136D01*
X51882140Y-85675003D01*
X51809178Y-85784199D01*
X51758921Y-85905531D01*
X51733300Y-86034336D01*
X51733300Y-86165664D01*
X51758921Y-86294469D01*
X51809178Y-86415801D01*
X51882140Y-86524997D01*
X51975003Y-86617860D01*
X52084199Y-86690822D01*
X52205531Y-86741079D01*
X52334336Y-86766700D01*
X52465664Y-86766700D01*
X52594469Y-86741079D01*
X52715801Y-86690822D01*
X52824997Y-86617860D01*
X52917860Y-86524997D01*
X52990822Y-86415801D01*
X53041079Y-86294469D01*
X53066700Y-86165664D01*
X53066700Y-86034336D01*
X53041079Y-85905531D01*
X52990822Y-85784199D01*
X52917860Y-85675003D01*
X52868666Y-85625809D01*
X52905531Y-85641079D01*
X53034336Y-85666700D01*
X53165664Y-85666700D01*
X53294469Y-85641079D01*
X53415801Y-85590822D01*
X53524997Y-85517860D01*
X53617860Y-85424997D01*
X53690822Y-85315801D01*
X53741079Y-85194469D01*
X53766700Y-85065664D01*
X53766700Y-84934336D01*
X53741079Y-84805531D01*
X53690822Y-84684199D01*
X53617860Y-84575003D01*
X53609557Y-84566700D01*
X53665664Y-84566700D01*
X53794469Y-84541079D01*
X53915801Y-84490822D01*
X54024997Y-84417860D01*
X54117860Y-84324997D01*
X54190822Y-84215801D01*
X54241079Y-84094469D01*
X54266700Y-83965664D01*
X54266700Y-83834336D01*
X55833300Y-83834336D01*
X55833300Y-83965664D01*
X55858921Y-84094469D01*
X55909178Y-84215801D01*
X55982140Y-84324997D01*
X56075003Y-84417860D01*
X56184199Y-84490822D01*
X56305531Y-84541079D01*
X56434336Y-84566700D01*
X56565664Y-84566700D01*
X56694469Y-84541079D01*
X56815801Y-84490822D01*
X56924997Y-84417860D01*
X57017860Y-84324997D01*
X57090822Y-84215801D01*
X57141079Y-84094469D01*
X57166700Y-83965664D01*
X57166700Y-83834336D01*
X57141079Y-83705531D01*
X57090822Y-83584199D01*
X57017860Y-83475003D01*
X56924997Y-83382140D01*
X56815801Y-83309178D01*
X56694469Y-83258921D01*
X56565664Y-83233300D01*
X56434336Y-83233300D01*
X56305531Y-83258921D01*
X56184199Y-83309178D01*
X56075003Y-83382140D01*
X55982140Y-83475003D01*
X55909178Y-83584199D01*
X55858921Y-83705531D01*
X55833300Y-83834336D01*
X54266700Y-83834336D01*
X54241079Y-83705531D01*
X54190822Y-83584199D01*
X54117860Y-83475003D01*
X54024997Y-83382140D01*
X53915801Y-83309178D01*
X53794469Y-83258921D01*
X53665664Y-83233300D01*
X53613249Y-83233300D01*
X53715801Y-83190822D01*
X53824997Y-83117860D01*
X53917860Y-83024997D01*
X53990822Y-82915801D01*
X54041079Y-82794469D01*
X54066700Y-82665664D01*
X54066700Y-82534336D01*
X54056377Y-82482438D01*
X54255341Y-82283474D01*
X54269877Y-82271545D01*
X54293416Y-82242862D01*
X54317488Y-82213531D01*
X54352867Y-82147342D01*
X54359645Y-82124997D01*
X54374653Y-82075523D01*
X54380166Y-82019547D01*
X54380166Y-82019544D01*
X54382009Y-82000834D01*
X54380166Y-81982124D01*
X54380166Y-66373029D01*
X54659179Y-66373029D01*
X54659179Y-66504357D01*
X54684800Y-66633162D01*
X54735057Y-66754494D01*
X54808019Y-66863690D01*
X54900882Y-66956553D01*
X55010078Y-67029515D01*
X55131410Y-67079772D01*
X55260215Y-67105393D01*
X55376758Y-67105393D01*
X55376758Y-67168583D01*
X55402379Y-67297388D01*
X55452636Y-67418720D01*
X55525598Y-67527916D01*
X55618461Y-67620779D01*
X55727657Y-67693741D01*
X55848989Y-67743998D01*
X55977794Y-67769619D01*
X56109122Y-67769619D01*
X56237927Y-67743998D01*
X56359259Y-67693741D01*
X56436251Y-67642297D01*
X56485229Y-67715599D01*
X56578092Y-67808462D01*
X56687288Y-67881424D01*
X56808620Y-67931681D01*
X56937425Y-67957302D01*
X57068753Y-67957302D01*
X57197558Y-67931681D01*
X57318890Y-67881424D01*
X57428086Y-67808462D01*
X57520949Y-67715599D01*
X57593911Y-67606403D01*
X57644168Y-67485071D01*
X57669789Y-67356266D01*
X57669789Y-67224938D01*
X57644168Y-67096133D01*
X57593911Y-66974801D01*
X57520949Y-66865605D01*
X57428086Y-66772742D01*
X57318890Y-66699780D01*
X57197558Y-66649523D01*
X57135777Y-66637234D01*
X57195647Y-66597230D01*
X57288510Y-66504367D01*
X57361472Y-66395171D01*
X57411729Y-66273839D01*
X57437350Y-66145034D01*
X57437350Y-66013706D01*
X57411729Y-65884901D01*
X57361472Y-65763569D01*
X57288510Y-65654373D01*
X57195647Y-65561510D01*
X57086451Y-65488548D01*
X56965119Y-65438291D01*
X56836314Y-65412670D01*
X56704986Y-65412670D01*
X56576181Y-65438291D01*
X56454849Y-65488548D01*
X56345653Y-65561510D01*
X56252790Y-65654373D01*
X56179828Y-65763569D01*
X56129571Y-65884901D01*
X56103950Y-66013706D01*
X56103950Y-66145034D01*
X56129571Y-66273839D01*
X56179828Y-66395171D01*
X56222297Y-66458731D01*
X56109122Y-66436219D01*
X55992579Y-66436219D01*
X55992579Y-66373029D01*
X55966958Y-66244224D01*
X55916701Y-66122892D01*
X55843739Y-66013696D01*
X55750876Y-65920833D01*
X55641680Y-65847871D01*
X55520348Y-65797614D01*
X55391543Y-65771993D01*
X55260215Y-65771993D01*
X55131410Y-65797614D01*
X55010078Y-65847871D01*
X54900882Y-65920833D01*
X54808019Y-66013696D01*
X54735057Y-66122892D01*
X54684800Y-66244224D01*
X54659179Y-66373029D01*
X54380166Y-66373029D01*
X54380166Y-65512911D01*
X54433164Y-65548323D01*
X54554496Y-65598580D01*
X54683301Y-65624201D01*
X54814629Y-65624201D01*
X54943434Y-65598580D01*
X55064766Y-65548323D01*
X55173962Y-65475361D01*
X55266825Y-65382498D01*
X55339787Y-65273302D01*
X55390044Y-65151970D01*
X55415665Y-65023165D01*
X55415665Y-64891837D01*
X55390044Y-64763032D01*
X55339787Y-64641700D01*
X55266825Y-64532504D01*
X55173962Y-64439641D01*
X55064766Y-64366679D01*
X54943434Y-64316422D01*
X54814629Y-64290801D01*
X54779311Y-64290801D01*
X54781718Y-64278701D01*
X54781718Y-64147373D01*
X54756097Y-64018568D01*
X54705840Y-63897236D01*
X54632878Y-63788040D01*
X54540015Y-63695177D01*
X54430819Y-63622215D01*
X54309487Y-63571958D01*
X54180682Y-63546337D01*
X54049354Y-63546337D01*
X53946433Y-63566809D01*
X53931701Y-63492748D01*
X53881444Y-63371416D01*
X53808482Y-63262220D01*
X53715619Y-63169357D01*
X53606423Y-63096395D01*
X53542114Y-63069758D01*
X53560983Y-63041518D01*
X53611240Y-62920186D01*
X53636861Y-62791381D01*
X53636861Y-62660053D01*
X53611240Y-62531248D01*
X53606420Y-62519609D01*
X55470960Y-62519609D01*
X55470960Y-62650937D01*
X55496581Y-62779742D01*
X55546838Y-62901074D01*
X55619800Y-63010270D01*
X55712663Y-63103133D01*
X55821859Y-63176095D01*
X55943191Y-63226352D01*
X56030389Y-63243697D01*
X55991811Y-63336833D01*
X55966190Y-63465638D01*
X55966190Y-63596966D01*
X55991811Y-63725771D01*
X56042068Y-63847103D01*
X56115030Y-63956299D01*
X56207893Y-64049162D01*
X56317089Y-64122124D01*
X56438421Y-64172381D01*
X56567226Y-64198002D01*
X56698554Y-64198002D01*
X56827359Y-64172381D01*
X56948691Y-64122124D01*
X57057887Y-64049162D01*
X57150750Y-63956299D01*
X57223712Y-63847103D01*
X57273969Y-63725771D01*
X57299590Y-63596966D01*
X57299590Y-63465638D01*
X57273969Y-63336833D01*
X57223712Y-63215501D01*
X57150750Y-63106305D01*
X57057887Y-63013442D01*
X56948691Y-62940480D01*
X56827359Y-62890223D01*
X56740161Y-62872878D01*
X56778739Y-62779742D01*
X56804360Y-62650937D01*
X56804360Y-62519609D01*
X56778739Y-62390804D01*
X56728482Y-62269472D01*
X56655520Y-62160276D01*
X56562657Y-62067413D01*
X56453461Y-61994451D01*
X56332129Y-61944194D01*
X56203324Y-61918573D01*
X56071996Y-61918573D01*
X55943191Y-61944194D01*
X55821859Y-61994451D01*
X55712663Y-62067413D01*
X55619800Y-62160276D01*
X55546838Y-62269472D01*
X55496581Y-62390804D01*
X55470960Y-62519609D01*
X53606420Y-62519609D01*
X53560983Y-62409916D01*
X53488021Y-62300720D01*
X53395158Y-62207857D01*
X53285962Y-62134895D01*
X53164630Y-62084638D01*
X53035825Y-62059017D01*
X52904497Y-62059017D01*
X52775692Y-62084638D01*
X52769044Y-62087392D01*
X52761203Y-62047975D01*
X52710946Y-61926643D01*
X52637984Y-61817447D01*
X52545121Y-61724584D01*
X52435925Y-61651622D01*
X52314593Y-61601365D01*
X52261422Y-61590789D01*
X52269372Y-61564580D01*
X52274885Y-61508604D01*
X52274885Y-61508601D01*
X52276728Y-61489891D01*
X52274885Y-61471181D01*
X52274885Y-58117742D01*
X52275003Y-58117860D01*
X52384199Y-58190822D01*
X52505531Y-58241079D01*
X52634336Y-58266700D01*
X52765664Y-58266700D01*
X52894469Y-58241079D01*
X53015801Y-58190822D01*
X53124997Y-58117860D01*
X53217860Y-58024997D01*
X53290822Y-57915801D01*
X53341079Y-57794469D01*
X53366700Y-57665664D01*
X53366700Y-57534336D01*
X53341079Y-57405531D01*
X53290822Y-57284199D01*
X53217860Y-57175003D01*
X53124997Y-57082140D01*
X53015801Y-57009178D01*
X52894469Y-56958921D01*
X52765664Y-56933300D01*
X52634336Y-56933300D01*
X52505531Y-56958921D01*
X52384199Y-57009178D01*
X52275003Y-57082140D01*
X52182140Y-57175003D01*
X52109178Y-57284199D01*
X52058921Y-57405531D01*
X52039912Y-57501097D01*
X51756377Y-57217562D01*
X51766700Y-57165664D01*
X51766700Y-57034336D01*
X51741079Y-56905531D01*
X51690822Y-56784199D01*
X51617860Y-56675003D01*
X51524997Y-56582140D01*
X51415801Y-56509178D01*
X51294469Y-56458921D01*
X51267910Y-56453638D01*
X51295495Y-56448151D01*
X51416827Y-56397894D01*
X51526023Y-56324932D01*
X51618886Y-56232069D01*
X51691848Y-56122873D01*
X51742105Y-56001541D01*
X51767726Y-55872736D01*
X51767726Y-55741408D01*
X51742105Y-55612603D01*
X51691848Y-55491271D01*
X51618886Y-55382075D01*
X51526023Y-55289212D01*
X51481679Y-55259582D01*
X51551426Y-55155197D01*
X51601683Y-55033865D01*
X51627304Y-54905060D01*
X51627304Y-54773732D01*
X51601683Y-54644927D01*
X51551426Y-54523595D01*
X51478464Y-54414399D01*
X51385601Y-54321536D01*
X51347068Y-54295789D01*
X51417860Y-54224997D01*
X51490822Y-54115801D01*
X51541079Y-53994469D01*
X51566700Y-53865664D01*
X51566700Y-53734336D01*
X51541079Y-53605531D01*
X51490822Y-53484199D01*
X51417860Y-53375003D01*
X51324997Y-53282140D01*
X51215801Y-53209178D01*
X51094469Y-53158921D01*
X50970873Y-53134336D01*
X68133300Y-53134336D01*
X68133300Y-53265664D01*
X68158921Y-53394469D01*
X68209178Y-53515801D01*
X68282140Y-53624997D01*
X68375003Y-53717860D01*
X68484199Y-53790822D01*
X68605531Y-53841079D01*
X68734336Y-53866700D01*
X68865664Y-53866700D01*
X68994469Y-53841079D01*
X69115801Y-53790822D01*
X69224997Y-53717860D01*
X69317860Y-53624997D01*
X69390822Y-53515801D01*
X69441079Y-53394469D01*
X69466700Y-53265664D01*
X69466700Y-53134336D01*
X108933300Y-53134336D01*
X108933300Y-53265664D01*
X108958921Y-53394469D01*
X109009178Y-53515801D01*
X109082140Y-53624997D01*
X109175003Y-53717860D01*
X109284199Y-53790822D01*
X109405531Y-53841079D01*
X109534336Y-53866700D01*
X109665664Y-53866700D01*
X109696596Y-53860547D01*
X109682140Y-53875003D01*
X109609178Y-53984199D01*
X109558921Y-54105531D01*
X109533300Y-54234336D01*
X109533300Y-54365664D01*
X109558921Y-54494469D01*
X109609178Y-54615801D01*
X109682140Y-54724997D01*
X109775003Y-54817860D01*
X109884199Y-54890822D01*
X110005531Y-54941079D01*
X110134336Y-54966700D01*
X110265664Y-54966700D01*
X110394469Y-54941079D01*
X110515801Y-54890822D01*
X110624997Y-54817860D01*
X110717860Y-54724997D01*
X110750000Y-54676896D01*
X110782140Y-54724997D01*
X110875003Y-54817860D01*
X110984199Y-54890822D01*
X111105531Y-54941079D01*
X111234336Y-54966700D01*
X111365664Y-54966700D01*
X111494469Y-54941079D01*
X111615801Y-54890822D01*
X111724997Y-54817860D01*
X111817860Y-54724997D01*
X111850000Y-54676896D01*
X111882140Y-54724997D01*
X111975003Y-54817860D01*
X112084199Y-54890822D01*
X112205531Y-54941079D01*
X112334336Y-54966700D01*
X112465664Y-54966700D01*
X112594469Y-54941079D01*
X112715801Y-54890822D01*
X112824997Y-54817860D01*
X112917860Y-54724997D01*
X112950000Y-54676896D01*
X112982140Y-54724997D01*
X113075003Y-54817860D01*
X113184199Y-54890822D01*
X113305531Y-54941079D01*
X113434336Y-54966700D01*
X113565664Y-54966700D01*
X113694469Y-54941079D01*
X113815801Y-54890822D01*
X113924997Y-54817860D01*
X114017860Y-54724997D01*
X114050000Y-54676896D01*
X114082140Y-54724997D01*
X114175003Y-54817860D01*
X114284199Y-54890822D01*
X114405531Y-54941079D01*
X114534336Y-54966700D01*
X114665664Y-54966700D01*
X114794469Y-54941079D01*
X114915801Y-54890822D01*
X115024997Y-54817860D01*
X115117860Y-54724997D01*
X115190822Y-54615801D01*
X115200000Y-54593643D01*
X115209178Y-54615801D01*
X115282140Y-54724997D01*
X115375003Y-54817860D01*
X115484199Y-54890822D01*
X115605531Y-54941079D01*
X115734336Y-54966700D01*
X115865664Y-54966700D01*
X115994469Y-54941079D01*
X116115801Y-54890822D01*
X116224997Y-54817860D01*
X116317860Y-54724997D01*
X116390822Y-54615801D01*
X116441079Y-54494469D01*
X116466700Y-54365664D01*
X116466700Y-54234336D01*
X116441079Y-54105531D01*
X116390822Y-53984199D01*
X116317860Y-53875003D01*
X116224997Y-53782140D01*
X116115801Y-53709178D01*
X115994469Y-53658921D01*
X115865664Y-53633300D01*
X115734336Y-53633300D01*
X115605531Y-53658921D01*
X115568666Y-53674191D01*
X115617860Y-53624997D01*
X115690822Y-53515801D01*
X115741079Y-53394469D01*
X115766700Y-53265664D01*
X115766700Y-53134336D01*
X115741079Y-53005531D01*
X115690822Y-52884199D01*
X115617860Y-52775003D01*
X115524997Y-52682140D01*
X115415801Y-52609178D01*
X115294469Y-52558921D01*
X115165664Y-52533300D01*
X115034336Y-52533300D01*
X114905531Y-52558921D01*
X114784199Y-52609178D01*
X114675003Y-52682140D01*
X114582140Y-52775003D01*
X114550000Y-52823104D01*
X114517860Y-52775003D01*
X114424997Y-52682140D01*
X114315801Y-52609178D01*
X114194469Y-52558921D01*
X114065664Y-52533300D01*
X113934336Y-52533300D01*
X113805531Y-52558921D01*
X113684199Y-52609178D01*
X113575003Y-52682140D01*
X113482140Y-52775003D01*
X113450000Y-52823104D01*
X113417860Y-52775003D01*
X113324997Y-52682140D01*
X113215801Y-52609178D01*
X113094469Y-52558921D01*
X112965664Y-52533300D01*
X112834336Y-52533300D01*
X112705531Y-52558921D01*
X112584199Y-52609178D01*
X112475003Y-52682140D01*
X112382140Y-52775003D01*
X112350000Y-52823104D01*
X112317860Y-52775003D01*
X112224997Y-52682140D01*
X112115801Y-52609178D01*
X111994469Y-52558921D01*
X111865664Y-52533300D01*
X111734336Y-52533300D01*
X111605531Y-52558921D01*
X111484199Y-52609178D01*
X111375003Y-52682140D01*
X111282140Y-52775003D01*
X111250000Y-52823104D01*
X111217860Y-52775003D01*
X111124997Y-52682140D01*
X111015801Y-52609178D01*
X110894469Y-52558921D01*
X110765664Y-52533300D01*
X110634336Y-52533300D01*
X110505531Y-52558921D01*
X110384199Y-52609178D01*
X110275003Y-52682140D01*
X110182140Y-52775003D01*
X110150000Y-52823104D01*
X110117860Y-52775003D01*
X110024997Y-52682140D01*
X109915801Y-52609178D01*
X109794469Y-52558921D01*
X109665664Y-52533300D01*
X109534336Y-52533300D01*
X109405531Y-52558921D01*
X109284199Y-52609178D01*
X109175003Y-52682140D01*
X109082140Y-52775003D01*
X109009178Y-52884199D01*
X108958921Y-53005531D01*
X108933300Y-53134336D01*
X69466700Y-53134336D01*
X69441079Y-53005531D01*
X69390822Y-52884199D01*
X69317860Y-52775003D01*
X69224997Y-52682140D01*
X69115801Y-52609178D01*
X68994469Y-52558921D01*
X68865664Y-52533300D01*
X68734336Y-52533300D01*
X68605531Y-52558921D01*
X68484199Y-52609178D01*
X68375003Y-52682140D01*
X68282140Y-52775003D01*
X68209178Y-52884199D01*
X68158921Y-53005531D01*
X68133300Y-53134336D01*
X50970873Y-53134336D01*
X50965664Y-53133300D01*
X50834336Y-53133300D01*
X50705531Y-53158921D01*
X50584199Y-53209178D01*
X50475003Y-53282140D01*
X50382140Y-53375003D01*
X50309178Y-53484199D01*
X50291700Y-53526395D01*
X50291700Y-52588900D01*
X57600000Y-52588900D01*
X57617344Y-52587192D01*
X57634021Y-52582133D01*
X57649390Y-52573918D01*
X57662862Y-52562862D01*
X57673918Y-52549390D01*
X57682133Y-52534021D01*
X57687192Y-52517344D01*
X57688900Y-52500000D01*
X57688900Y-52134336D01*
X77533300Y-52134336D01*
X77533300Y-52265664D01*
X77558921Y-52394469D01*
X77609178Y-52515801D01*
X77682140Y-52624997D01*
X77775003Y-52717860D01*
X77884199Y-52790822D01*
X78005531Y-52841079D01*
X78134336Y-52866700D01*
X78265664Y-52866700D01*
X78394469Y-52841079D01*
X78515801Y-52790822D01*
X78624997Y-52717860D01*
X78717860Y-52624997D01*
X78790822Y-52515801D01*
X78841079Y-52394469D01*
X78866700Y-52265664D01*
X78866700Y-52134336D01*
X78841079Y-52005531D01*
X78790822Y-51884199D01*
X78717860Y-51775003D01*
X78624997Y-51682140D01*
X78515801Y-51609178D01*
X78394469Y-51558921D01*
X78265664Y-51533300D01*
X78134336Y-51533300D01*
X78005531Y-51558921D01*
X77884199Y-51609178D01*
X77775003Y-51682140D01*
X77682140Y-51775003D01*
X77609178Y-51884199D01*
X77558921Y-52005531D01*
X77533300Y-52134336D01*
X57688900Y-52134336D01*
X57688900Y-50291700D01*
X149708300Y-50291700D01*
X149708301Y-99708300D01*
G37*
X149708301Y-99708300D02*
X91966700Y-99708300D01*
X91966700Y-86798742D01*
X109108303Y-86798742D01*
X109113425Y-86852031D01*
X109128601Y-86902062D01*
X109153247Y-86948171D01*
X109186415Y-86988585D01*
X109226829Y-87021753D01*
X109272938Y-87046399D01*
X109322969Y-87061575D01*
X109375000Y-87066700D01*
X125425000Y-87066700D01*
X125477273Y-87061527D01*
X125527290Y-87046304D01*
X125573376Y-87021616D01*
X125613760Y-86988411D01*
X125646890Y-86947965D01*
X125671493Y-86901833D01*
X125686623Y-86851788D01*
X125691700Y-86799753D01*
X125666700Y-59799753D01*
X125661575Y-59747969D01*
X125646399Y-59697938D01*
X125621753Y-59651829D01*
X125588585Y-59611415D01*
X125548171Y-59578247D01*
X125502062Y-59553601D01*
X125452031Y-59538425D01*
X125400000Y-59533300D01*
X121500000Y-59533300D01*
X121447969Y-59538425D01*
X121397938Y-59553601D01*
X121351829Y-59578247D01*
X121311415Y-59611415D01*
X121278247Y-59651829D01*
X121253601Y-59697938D01*
X121238425Y-59747969D01*
X121233300Y-59800000D01*
X121233300Y-61400000D01*
X121238425Y-61452031D01*
X121253601Y-61502062D01*
X121278247Y-61548171D01*
X121311415Y-61588585D01*
X121351829Y-61621753D01*
X121397938Y-61646399D01*
X121447969Y-61661575D01*
X121500000Y-61666700D01*
X122833300Y-61666700D01*
X122833300Y-81233300D01*
X109400000Y-81233300D01*
X109349204Y-81238182D01*
X109299102Y-81253123D01*
X109252877Y-81277551D01*
X109212306Y-81310527D01*
X109178948Y-81350785D01*
X109154085Y-81396777D01*
X109138673Y-81446736D01*
X109133303Y-81498742D01*
X109108303Y-86798742D01*
X91966700Y-86798742D01*
X91966700Y-79500000D01*
X109725212Y-79500000D01*
X109736737Y-79617013D01*
X109770868Y-79729529D01*
X109826295Y-79833224D01*
X109900886Y-79924114D01*
X109991776Y-79998705D01*
X110095471Y-80054132D01*
X110207987Y-80088263D01*
X110325000Y-80099788D01*
X112010675Y-80096900D01*
X112159900Y-79947675D01*
X112159900Y-78165100D01*
X112490100Y-78165100D01*
X112490100Y-79947675D01*
X112639325Y-80096900D01*
X114325000Y-80099788D01*
X114442013Y-80088263D01*
X114554529Y-80054132D01*
X114658224Y-79998705D01*
X114749114Y-79924114D01*
X114823705Y-79833224D01*
X114879132Y-79729529D01*
X114913263Y-79617013D01*
X114924788Y-79500000D01*
X114921900Y-78314325D01*
X114772675Y-78165100D01*
X112490100Y-78165100D01*
X112159900Y-78165100D01*
X109877325Y-78165100D01*
X109728100Y-78314325D01*
X109725212Y-79500000D01*
X91966700Y-79500000D01*
X91966700Y-76500000D01*
X109725212Y-76500000D01*
X109728100Y-77685675D01*
X109877325Y-77834900D01*
X112159900Y-77834900D01*
X112159900Y-76052325D01*
X112490100Y-76052325D01*
X112490100Y-77834900D01*
X114772675Y-77834900D01*
X114921900Y-77685675D01*
X114924788Y-76500000D01*
X114913263Y-76382987D01*
X114879132Y-76270471D01*
X114823705Y-76166776D01*
X114749114Y-76075886D01*
X114658224Y-76001295D01*
X114554529Y-75945868D01*
X114442013Y-75911737D01*
X114325000Y-75900212D01*
X112639325Y-75903100D01*
X112490100Y-76052325D01*
X112159900Y-76052325D01*
X112010675Y-75903100D01*
X110325000Y-75900212D01*
X110207987Y-75911737D01*
X110095471Y-75945868D01*
X109991776Y-76001295D01*
X109900886Y-76075886D01*
X109826295Y-76166776D01*
X109770868Y-76270471D01*
X109736737Y-76382987D01*
X109725212Y-76500000D01*
X91966700Y-76500000D01*
X91966700Y-75856813D01*
X92024997Y-75817860D01*
X92117860Y-75724997D01*
X92150000Y-75676896D01*
X92182140Y-75724997D01*
X92275003Y-75817860D01*
X92384199Y-75890822D01*
X92505531Y-75941079D01*
X92634336Y-75966700D01*
X92765664Y-75966700D01*
X92894469Y-75941079D01*
X93015801Y-75890822D01*
X93124997Y-75817860D01*
X93217860Y-75724997D01*
X93290822Y-75615801D01*
X93341079Y-75494469D01*
X93366700Y-75365664D01*
X93366700Y-75234336D01*
X93341079Y-75105531D01*
X93290822Y-74984199D01*
X93217860Y-74875003D01*
X93209557Y-74866700D01*
X100600000Y-74866700D01*
X100652031Y-74861575D01*
X100702062Y-74846399D01*
X100748171Y-74821753D01*
X100788585Y-74788585D01*
X100821753Y-74748171D01*
X100846399Y-74702062D01*
X100861575Y-74652031D01*
X100866700Y-74600000D01*
X100866700Y-72924995D01*
X100905531Y-72941079D01*
X101034336Y-72966700D01*
X101165664Y-72966700D01*
X101198867Y-72960095D01*
X101171300Y-73098682D01*
X101171300Y-73301318D01*
X101210833Y-73500061D01*
X101288378Y-73687272D01*
X101400957Y-73855758D01*
X101544242Y-73999043D01*
X101712728Y-74111622D01*
X101899939Y-74189167D01*
X102098682Y-74228700D01*
X102301318Y-74228700D01*
X102500061Y-74189167D01*
X102687272Y-74111622D01*
X102855758Y-73999043D01*
X102999043Y-73855758D01*
X103111622Y-73687272D01*
X103189167Y-73500061D01*
X103228700Y-73301318D01*
X103228700Y-73098682D01*
X103189167Y-72899939D01*
X103111622Y-72712728D01*
X102999043Y-72544242D01*
X102855758Y-72400957D01*
X102687272Y-72288378D01*
X102500061Y-72210833D01*
X102301318Y-72171300D01*
X102098682Y-72171300D01*
X101899939Y-72210833D01*
X101766700Y-72266022D01*
X101766700Y-72234336D01*
X101741079Y-72105531D01*
X101690822Y-71984199D01*
X101617860Y-71875003D01*
X101526518Y-71783661D01*
X101624997Y-71717860D01*
X101700000Y-71642857D01*
X101775003Y-71717860D01*
X101884199Y-71790822D01*
X102005531Y-71841079D01*
X102134336Y-71866700D01*
X102265664Y-71866700D01*
X102394469Y-71841079D01*
X102515801Y-71790822D01*
X102624997Y-71717860D01*
X102717860Y-71624997D01*
X102790822Y-71515801D01*
X102841079Y-71394469D01*
X102866700Y-71265664D01*
X102866700Y-71134336D01*
X102841079Y-71005531D01*
X102790822Y-70884199D01*
X102717860Y-70775003D01*
X102624997Y-70682140D01*
X102515801Y-70609178D01*
X102394469Y-70558921D01*
X102265664Y-70533300D01*
X102134336Y-70533300D01*
X102005531Y-70558921D01*
X101884199Y-70609178D01*
X101775003Y-70682140D01*
X101700000Y-70757143D01*
X101624997Y-70682140D01*
X101515801Y-70609178D01*
X101394469Y-70558921D01*
X101265664Y-70533300D01*
X101134336Y-70533300D01*
X101005531Y-70558921D01*
X100884199Y-70609178D01*
X100775003Y-70682140D01*
X100682140Y-70775003D01*
X100609178Y-70884199D01*
X100558921Y-71005531D01*
X100533300Y-71134336D01*
X100533300Y-71265664D01*
X100558921Y-71394469D01*
X100609178Y-71515801D01*
X100682140Y-71624997D01*
X100773482Y-71716339D01*
X100675003Y-71782140D01*
X100582140Y-71875003D01*
X100543187Y-71933300D01*
X91966700Y-71933300D01*
X91966700Y-70576157D01*
X92000000Y-70542857D01*
X92075003Y-70617860D01*
X92184199Y-70690822D01*
X92305531Y-70741079D01*
X92434336Y-70766700D01*
X92565664Y-70766700D01*
X92694469Y-70741079D01*
X92815801Y-70690822D01*
X92924997Y-70617860D01*
X93017860Y-70524997D01*
X93090822Y-70415801D01*
X93141079Y-70294469D01*
X93166700Y-70165664D01*
X93166700Y-70034336D01*
X93141079Y-69905531D01*
X93090822Y-69784199D01*
X93017860Y-69675003D01*
X92924997Y-69582140D01*
X92815801Y-69509178D01*
X92694469Y-69458921D01*
X92565664Y-69433300D01*
X92434336Y-69433300D01*
X92305531Y-69458921D01*
X92184199Y-69509178D01*
X92075003Y-69582140D01*
X92000000Y-69657143D01*
X91966700Y-69623843D01*
X91966700Y-66000000D01*
X91961575Y-65947969D01*
X91946399Y-65897938D01*
X91921753Y-65851829D01*
X91888585Y-65811415D01*
X91848171Y-65778247D01*
X91802062Y-65753601D01*
X91752031Y-65738425D01*
X91700000Y-65733300D01*
X84100000Y-65733300D01*
X84047969Y-65738425D01*
X83997938Y-65753601D01*
X83951829Y-65778247D01*
X83911415Y-65811415D01*
X83878247Y-65851829D01*
X83853601Y-65897938D01*
X83838425Y-65947969D01*
X83833300Y-66000000D01*
X83833300Y-70633300D01*
X66800000Y-70633300D01*
X66748869Y-70638247D01*
X66698786Y-70653252D01*
X66652592Y-70677739D01*
X66612064Y-70710768D01*
X66578758Y-70751068D01*
X66553954Y-70797092D01*
X66538605Y-70847071D01*
X66533302Y-70899084D01*
X66451992Y-94560392D01*
X66441079Y-94505531D01*
X66390822Y-94384199D01*
X66317860Y-94275003D01*
X66224997Y-94182140D01*
X66115801Y-94109178D01*
X65994469Y-94058921D01*
X65865664Y-94033300D01*
X65734336Y-94033300D01*
X65682438Y-94043623D01*
X61960576Y-90321762D01*
X61960576Y-63893172D01*
X61976599Y-63912695D01*
X62000967Y-63942388D01*
X62015504Y-63954318D01*
X62795258Y-64734073D01*
X62807188Y-64748610D01*
X62821723Y-64760538D01*
X62865202Y-64796221D01*
X62879492Y-64803859D01*
X62931391Y-64831600D01*
X63003210Y-64853386D01*
X63059186Y-64858899D01*
X63059188Y-64858899D01*
X63077898Y-64860742D01*
X63096608Y-64858899D01*
X71181849Y-64858899D01*
X71132603Y-64908145D01*
X71010394Y-65091044D01*
X70926214Y-65294271D01*
X70883300Y-65510015D01*
X70883300Y-65729985D01*
X70926214Y-65945729D01*
X71010394Y-66148956D01*
X71132603Y-66331855D01*
X71288145Y-66487397D01*
X71471044Y-66609606D01*
X71674271Y-66693786D01*
X71890015Y-66736700D01*
X72109985Y-66736700D01*
X72325729Y-66693786D01*
X72528956Y-66609606D01*
X72711855Y-66487397D01*
X72867397Y-66331855D01*
X72989606Y-66148956D01*
X73073786Y-65945729D01*
X73116700Y-65729985D01*
X73116700Y-65510015D01*
X73081756Y-65334336D01*
X119133300Y-65334336D01*
X119133300Y-65465664D01*
X119158921Y-65594469D01*
X119209178Y-65715801D01*
X119282140Y-65824997D01*
X119357143Y-65900000D01*
X119282140Y-65975003D01*
X119209178Y-66084199D01*
X119158921Y-66205531D01*
X119133300Y-66334336D01*
X119133300Y-66465664D01*
X119158921Y-66594469D01*
X119209178Y-66715801D01*
X119282140Y-66824997D01*
X119357143Y-66900000D01*
X119282140Y-66975003D01*
X119209178Y-67084199D01*
X119158921Y-67205531D01*
X119133300Y-67334336D01*
X119133300Y-67465664D01*
X119158921Y-67594469D01*
X119209178Y-67715801D01*
X119282140Y-67824997D01*
X119357143Y-67900000D01*
X119282140Y-67975003D01*
X119209178Y-68084199D01*
X119158921Y-68205531D01*
X119133300Y-68334336D01*
X119133300Y-68465664D01*
X119158921Y-68594469D01*
X119209178Y-68715801D01*
X119282140Y-68824997D01*
X119375003Y-68917860D01*
X119484199Y-68990822D01*
X119605531Y-69041079D01*
X119734336Y-69066700D01*
X119865664Y-69066700D01*
X119994469Y-69041079D01*
X120115801Y-68990822D01*
X120224997Y-68917860D01*
X120300000Y-68842857D01*
X120375003Y-68917860D01*
X120484199Y-68990822D01*
X120605531Y-69041079D01*
X120734336Y-69066700D01*
X120865664Y-69066700D01*
X120994469Y-69041079D01*
X121115801Y-68990822D01*
X121224997Y-68917860D01*
X121300000Y-68842857D01*
X121375003Y-68917860D01*
X121484199Y-68990822D01*
X121605531Y-69041079D01*
X121734336Y-69066700D01*
X121865664Y-69066700D01*
X121994469Y-69041079D01*
X122115801Y-68990822D01*
X122224997Y-68917860D01*
X122317860Y-68824997D01*
X122390822Y-68715801D01*
X122441079Y-68594469D01*
X122466700Y-68465664D01*
X122466700Y-68334336D01*
X122441079Y-68205531D01*
X122390822Y-68084199D01*
X122317860Y-67975003D01*
X122242857Y-67900000D01*
X122317860Y-67824997D01*
X122390822Y-67715801D01*
X122441079Y-67594469D01*
X122466700Y-67465664D01*
X122466700Y-67334336D01*
X122441079Y-67205531D01*
X122390822Y-67084199D01*
X122317860Y-66975003D01*
X122242857Y-66900000D01*
X122317860Y-66824997D01*
X122390822Y-66715801D01*
X122441079Y-66594469D01*
X122466700Y-66465664D01*
X122466700Y-66334336D01*
X122441079Y-66205531D01*
X122390822Y-66084199D01*
X122317860Y-65975003D01*
X122242857Y-65900000D01*
X122317860Y-65824997D01*
X122390822Y-65715801D01*
X122441079Y-65594469D01*
X122466700Y-65465664D01*
X122466700Y-65334336D01*
X122441079Y-65205531D01*
X122390822Y-65084199D01*
X122317860Y-64975003D01*
X122224997Y-64882140D01*
X122115801Y-64809178D01*
X121994469Y-64758921D01*
X121865664Y-64733300D01*
X121734336Y-64733300D01*
X121605531Y-64758921D01*
X121484199Y-64809178D01*
X121375003Y-64882140D01*
X121300000Y-64957143D01*
X121224997Y-64882140D01*
X121115801Y-64809178D01*
X120994469Y-64758921D01*
X120865664Y-64733300D01*
X120734336Y-64733300D01*
X120605531Y-64758921D01*
X120484199Y-64809178D01*
X120375003Y-64882140D01*
X120300000Y-64957143D01*
X120224997Y-64882140D01*
X120115801Y-64809178D01*
X119994469Y-64758921D01*
X119865664Y-64733300D01*
X119734336Y-64733300D01*
X119605531Y-64758921D01*
X119484199Y-64809178D01*
X119375003Y-64882140D01*
X119282140Y-64975003D01*
X119209178Y-65084199D01*
X119158921Y-65205531D01*
X119133300Y-65334336D01*
X73081756Y-65334336D01*
X73073786Y-65294271D01*
X72989606Y-65091044D01*
X72867397Y-64908145D01*
X72818151Y-64858899D01*
X87303391Y-64858899D01*
X87322101Y-64860742D01*
X87340811Y-64858899D01*
X87340814Y-64858899D01*
X87396790Y-64853386D01*
X87468609Y-64831600D01*
X87534797Y-64796221D01*
X87592812Y-64748610D01*
X87604747Y-64734067D01*
X88282438Y-64056377D01*
X88334336Y-64066700D01*
X88465664Y-64066700D01*
X88594469Y-64041079D01*
X88715801Y-63990822D01*
X88824997Y-63917860D01*
X88917860Y-63824997D01*
X88990822Y-63715801D01*
X89024565Y-63634336D01*
X119933300Y-63634336D01*
X119933300Y-63765664D01*
X119958921Y-63894469D01*
X120009178Y-64015801D01*
X120082140Y-64124997D01*
X120175003Y-64217860D01*
X120284199Y-64290822D01*
X120405531Y-64341079D01*
X120534336Y-64366700D01*
X120665664Y-64366700D01*
X120794469Y-64341079D01*
X120915801Y-64290822D01*
X121024997Y-64217860D01*
X121117860Y-64124997D01*
X121190822Y-64015801D01*
X121241079Y-63894469D01*
X121266700Y-63765664D01*
X121266700Y-63634336D01*
X121241079Y-63505531D01*
X121190822Y-63384199D01*
X121117860Y-63275003D01*
X121024997Y-63182140D01*
X120981000Y-63152742D01*
X120981000Y-59757814D01*
X121257815Y-59481000D01*
X125381290Y-59481000D01*
X125400000Y-59482843D01*
X125418710Y-59481000D01*
X125418713Y-59481000D01*
X125474689Y-59475487D01*
X125546508Y-59453701D01*
X125612696Y-59418322D01*
X125670711Y-59370711D01*
X125682646Y-59356168D01*
X127857815Y-57181000D01*
X136381290Y-57181000D01*
X136400000Y-57182843D01*
X136418710Y-57181000D01*
X136418713Y-57181000D01*
X136474689Y-57175487D01*
X136546508Y-57153701D01*
X136612696Y-57118322D01*
X136670711Y-57070711D01*
X136682646Y-57056168D01*
X137356175Y-56382640D01*
X137370711Y-56370711D01*
X137394250Y-56342028D01*
X137418322Y-56312697D01*
X137431895Y-56287304D01*
X137453701Y-56246508D01*
X137475487Y-56174689D01*
X137481000Y-56118713D01*
X137481000Y-56118704D01*
X137482842Y-56100001D01*
X137481000Y-56081298D01*
X137481000Y-52947258D01*
X137524997Y-52917860D01*
X137617860Y-52824997D01*
X137690822Y-52715801D01*
X137741079Y-52594469D01*
X137766700Y-52465664D01*
X137766700Y-52334336D01*
X137741079Y-52205531D01*
X137690822Y-52084199D01*
X137617860Y-51975003D01*
X137524997Y-51882140D01*
X137415801Y-51809178D01*
X137294469Y-51758921D01*
X137165664Y-51733300D01*
X137034336Y-51733300D01*
X136905531Y-51758921D01*
X136784199Y-51809178D01*
X136675003Y-51882140D01*
X136582140Y-51975003D01*
X136509178Y-52084199D01*
X136458921Y-52205531D01*
X136433300Y-52334336D01*
X136433300Y-52465664D01*
X136458921Y-52594469D01*
X136509178Y-52715801D01*
X136582140Y-52824997D01*
X136675003Y-52917860D01*
X136719001Y-52947258D01*
X136719000Y-55942185D01*
X136242186Y-56419000D01*
X127718709Y-56419000D01*
X127699999Y-56417157D01*
X127681289Y-56419000D01*
X127681287Y-56419000D01*
X127625311Y-56424513D01*
X127561648Y-56443825D01*
X127553492Y-56446299D01*
X127487303Y-56481678D01*
X127464978Y-56500000D01*
X127429289Y-56529289D01*
X127417360Y-56543825D01*
X127159544Y-56801642D01*
X127166700Y-56765664D01*
X127166700Y-56634336D01*
X127141079Y-56505531D01*
X127090822Y-56384199D01*
X127017860Y-56275003D01*
X126924997Y-56182140D01*
X126815801Y-56109178D01*
X126694469Y-56058921D01*
X126565664Y-56033300D01*
X126434336Y-56033300D01*
X126305531Y-56058921D01*
X126184199Y-56109178D01*
X126075003Y-56182140D01*
X125982140Y-56275003D01*
X125950000Y-56323104D01*
X125917860Y-56275003D01*
X125824997Y-56182140D01*
X125715801Y-56109178D01*
X125594469Y-56058921D01*
X125465664Y-56033300D01*
X125334336Y-56033300D01*
X125205531Y-56058921D01*
X125084199Y-56109178D01*
X124975003Y-56182140D01*
X124882140Y-56275003D01*
X124809178Y-56384199D01*
X124758921Y-56505531D01*
X124733300Y-56634336D01*
X124733300Y-56765664D01*
X124758921Y-56894469D01*
X124809178Y-57015801D01*
X124882140Y-57124997D01*
X124975003Y-57217860D01*
X125084199Y-57290822D01*
X125205531Y-57341079D01*
X125334336Y-57366700D01*
X125465664Y-57366700D01*
X125594469Y-57341079D01*
X125715801Y-57290822D01*
X125824997Y-57217860D01*
X125917860Y-57124997D01*
X125950000Y-57076896D01*
X125982140Y-57124997D01*
X126075003Y-57217860D01*
X126184199Y-57290822D01*
X126305531Y-57341079D01*
X126434336Y-57366700D01*
X126565664Y-57366700D01*
X126601642Y-57359544D01*
X125242186Y-58719000D01*
X124823291Y-58719000D01*
X124824997Y-58717860D01*
X124917860Y-58624997D01*
X124990822Y-58515801D01*
X125041079Y-58394469D01*
X125066700Y-58265664D01*
X125066700Y-58134336D01*
X125041079Y-58005531D01*
X124990822Y-57884199D01*
X124917860Y-57775003D01*
X124824997Y-57682140D01*
X124715801Y-57609178D01*
X124594469Y-57558921D01*
X124465664Y-57533300D01*
X124334336Y-57533300D01*
X124205531Y-57558921D01*
X124148415Y-57582579D01*
X124166700Y-57490654D01*
X124166700Y-57359326D01*
X124141079Y-57230521D01*
X124090822Y-57109189D01*
X124017860Y-56999993D01*
X123924997Y-56907130D01*
X123884803Y-56880273D01*
X123909178Y-56855898D01*
X123982140Y-56746702D01*
X124032397Y-56625370D01*
X124058018Y-56496565D01*
X124058018Y-56365237D01*
X124032397Y-56236432D01*
X123982140Y-56115100D01*
X123909178Y-56005904D01*
X123816315Y-55913041D01*
X123707119Y-55840079D01*
X123585787Y-55789822D01*
X123456982Y-55764201D01*
X123325654Y-55764201D01*
X123196849Y-55789822D01*
X123075517Y-55840079D01*
X122966321Y-55913041D01*
X122873458Y-56005904D01*
X122800496Y-56115100D01*
X122750239Y-56236432D01*
X122724618Y-56365237D01*
X122724618Y-56496565D01*
X122750239Y-56625370D01*
X122800496Y-56746702D01*
X122873458Y-56855898D01*
X122966321Y-56948761D01*
X123006515Y-56975618D01*
X122982140Y-56999993D01*
X122909178Y-57109189D01*
X122858921Y-57230521D01*
X122833300Y-57359326D01*
X122833300Y-57490654D01*
X122858921Y-57619459D01*
X122909178Y-57740791D01*
X122982140Y-57849987D01*
X123075003Y-57942850D01*
X123184199Y-58015812D01*
X123305531Y-58066069D01*
X123434336Y-58091690D01*
X123565664Y-58091690D01*
X123694469Y-58066069D01*
X123751585Y-58042411D01*
X123733300Y-58134336D01*
X123733300Y-58265664D01*
X123758921Y-58394469D01*
X123809178Y-58515801D01*
X123882140Y-58624997D01*
X123975003Y-58717860D01*
X123976709Y-58719000D01*
X121118710Y-58719000D01*
X121100000Y-58717157D01*
X121081290Y-58719000D01*
X121081287Y-58719000D01*
X121025311Y-58724513D01*
X120953492Y-58746299D01*
X120887303Y-58781678D01*
X120857972Y-58805750D01*
X120829289Y-58829289D01*
X120817360Y-58843825D01*
X120343827Y-59317359D01*
X120329290Y-59329289D01*
X120317361Y-59343825D01*
X120281678Y-59387304D01*
X120246299Y-59453493D01*
X120224514Y-59525312D01*
X120217157Y-59600000D01*
X120219001Y-59618720D01*
X120219000Y-63152742D01*
X120175003Y-63182140D01*
X120082140Y-63275003D01*
X120009178Y-63384199D01*
X119958921Y-63505531D01*
X119933300Y-63634336D01*
X89024565Y-63634336D01*
X89041079Y-63594469D01*
X89066700Y-63465664D01*
X89066700Y-63334336D01*
X89041079Y-63205531D01*
X88990822Y-63084199D01*
X88917860Y-62975003D01*
X88824997Y-62882140D01*
X88715801Y-62809178D01*
X88594469Y-62758921D01*
X88465664Y-62733300D01*
X88334336Y-62733300D01*
X88205531Y-62758921D01*
X88084199Y-62809178D01*
X87975003Y-62882140D01*
X87882140Y-62975003D01*
X87809178Y-63084199D01*
X87758921Y-63205531D01*
X87733300Y-63334336D01*
X87733300Y-63465664D01*
X87743623Y-63517562D01*
X87164287Y-64096899D01*
X72463065Y-64096899D01*
X72528956Y-64069606D01*
X72711855Y-63947397D01*
X72867397Y-63791855D01*
X72989606Y-63608956D01*
X73073786Y-63405729D01*
X73116700Y-63189985D01*
X73116700Y-62970015D01*
X73073786Y-62754271D01*
X72989606Y-62551044D01*
X72867397Y-62368145D01*
X72780252Y-62281000D01*
X85152742Y-62281000D01*
X85182140Y-62324997D01*
X85275003Y-62417860D01*
X85384199Y-62490822D01*
X85505531Y-62541079D01*
X85634336Y-62566700D01*
X85765664Y-62566700D01*
X85894469Y-62541079D01*
X86015801Y-62490822D01*
X86124997Y-62417860D01*
X86217860Y-62324997D01*
X86290822Y-62215801D01*
X86341079Y-62094469D01*
X86366700Y-61965664D01*
X86366700Y-61834336D01*
X86341079Y-61705531D01*
X86290822Y-61584199D01*
X86217860Y-61475003D01*
X86124997Y-61382140D01*
X86015801Y-61309178D01*
X85894469Y-61258921D01*
X85765664Y-61233300D01*
X85634336Y-61233300D01*
X85505531Y-61258921D01*
X85384199Y-61309178D01*
X85275003Y-61382140D01*
X85182140Y-61475003D01*
X85152742Y-61519000D01*
X72544829Y-61519000D01*
X72711855Y-61407397D01*
X72867397Y-61251855D01*
X72989606Y-61068956D01*
X73073786Y-60865729D01*
X73116700Y-60649985D01*
X73116700Y-60430015D01*
X73073786Y-60214271D01*
X72989606Y-60011044D01*
X72938352Y-59934336D01*
X116233300Y-59934336D01*
X116233300Y-60065664D01*
X116258921Y-60194469D01*
X116309178Y-60315801D01*
X116382140Y-60424997D01*
X116475003Y-60517860D01*
X116584199Y-60590822D01*
X116705531Y-60641079D01*
X116834336Y-60666700D01*
X116965664Y-60666700D01*
X117094469Y-60641079D01*
X117215801Y-60590822D01*
X117324997Y-60517860D01*
X117417860Y-60424997D01*
X117490822Y-60315801D01*
X117541079Y-60194469D01*
X117566700Y-60065664D01*
X117566700Y-59934336D01*
X117541079Y-59805531D01*
X117490822Y-59684199D01*
X117417860Y-59575003D01*
X117324997Y-59482140D01*
X117215801Y-59409178D01*
X117094469Y-59358921D01*
X116965664Y-59333300D01*
X116834336Y-59333300D01*
X116705531Y-59358921D01*
X116584199Y-59409178D01*
X116475003Y-59482140D01*
X116382140Y-59575003D01*
X116309178Y-59684199D01*
X116258921Y-59805531D01*
X116233300Y-59934336D01*
X72938352Y-59934336D01*
X72867397Y-59828145D01*
X72711855Y-59672603D01*
X72528956Y-59550394D01*
X72325729Y-59466214D01*
X72109985Y-59423300D01*
X71890015Y-59423300D01*
X71674271Y-59466214D01*
X71471044Y-59550394D01*
X71288145Y-59672603D01*
X71132603Y-59828145D01*
X71010394Y-60011044D01*
X70926214Y-60214271D01*
X70883300Y-60430015D01*
X70883300Y-60649985D01*
X70926214Y-60865729D01*
X71010394Y-61068956D01*
X71132603Y-61251855D01*
X71288145Y-61407397D01*
X71455171Y-61519000D01*
X65557815Y-61519000D01*
X62105514Y-58066700D01*
X62165664Y-58066700D01*
X62294469Y-58041079D01*
X62415801Y-57990822D01*
X62524997Y-57917860D01*
X62617860Y-57824997D01*
X62647258Y-57781000D01*
X70355508Y-57781000D01*
X70374218Y-57782843D01*
X70392928Y-57781000D01*
X70392931Y-57781000D01*
X70448907Y-57775487D01*
X70520726Y-57753701D01*
X70586914Y-57718322D01*
X70644929Y-57670711D01*
X70656863Y-57656169D01*
X70882010Y-57431023D01*
X70882010Y-58850000D01*
X70887159Y-58902282D01*
X70902410Y-58952555D01*
X70927174Y-58998887D01*
X70960502Y-59039498D01*
X71001113Y-59072826D01*
X71047445Y-59097590D01*
X71097718Y-59112841D01*
X71150000Y-59117990D01*
X72850000Y-59117990D01*
X72902282Y-59112841D01*
X72952555Y-59097590D01*
X72998887Y-59072826D01*
X73039498Y-59039498D01*
X73072826Y-58998887D01*
X73097590Y-58952555D01*
X73112841Y-58902282D01*
X73117990Y-58850000D01*
X73117990Y-57431022D01*
X74243141Y-58556174D01*
X74255071Y-58570711D01*
X74269606Y-58582639D01*
X74313085Y-58618322D01*
X74365813Y-58646506D01*
X74379274Y-58653701D01*
X74451093Y-58675487D01*
X74507069Y-58681000D01*
X74507072Y-58681000D01*
X74525782Y-58682843D01*
X74544492Y-58681000D01*
X90152742Y-58681000D01*
X90182140Y-58724997D01*
X90275003Y-58817860D01*
X90384199Y-58890822D01*
X90505531Y-58941079D01*
X90634336Y-58966700D01*
X90765664Y-58966700D01*
X90894469Y-58941079D01*
X91015801Y-58890822D01*
X91124997Y-58817860D01*
X91217860Y-58724997D01*
X91290822Y-58615801D01*
X91341079Y-58494469D01*
X91366700Y-58365664D01*
X91366700Y-58334336D01*
X119433300Y-58334336D01*
X119433300Y-58465664D01*
X119458921Y-58594469D01*
X119509178Y-58715801D01*
X119582140Y-58824997D01*
X119675003Y-58917860D01*
X119784199Y-58990822D01*
X119905531Y-59041079D01*
X120034336Y-59066700D01*
X120165664Y-59066700D01*
X120294469Y-59041079D01*
X120415801Y-58990822D01*
X120524997Y-58917860D01*
X120617860Y-58824997D01*
X120690822Y-58715801D01*
X120741079Y-58594469D01*
X120766700Y-58465664D01*
X120766700Y-58334336D01*
X120741079Y-58205531D01*
X120690822Y-58084199D01*
X120617860Y-57975003D01*
X120524997Y-57882140D01*
X120415801Y-57809178D01*
X120294469Y-57758921D01*
X120165664Y-57733300D01*
X120034336Y-57733300D01*
X119905531Y-57758921D01*
X119784199Y-57809178D01*
X119675003Y-57882140D01*
X119582140Y-57975003D01*
X119509178Y-58084199D01*
X119458921Y-58205531D01*
X119433300Y-58334336D01*
X91366700Y-58334336D01*
X91366700Y-58234336D01*
X91341079Y-58105531D01*
X91290822Y-57984199D01*
X91217860Y-57875003D01*
X91124997Y-57782140D01*
X91015801Y-57709178D01*
X90894469Y-57658921D01*
X90765664Y-57633300D01*
X90634336Y-57633300D01*
X90505531Y-57658921D01*
X90384199Y-57709178D01*
X90275003Y-57782140D01*
X90182140Y-57875003D01*
X90152742Y-57919000D01*
X74683597Y-57919000D01*
X73366327Y-56601731D01*
X73354392Y-56587188D01*
X73296377Y-56539577D01*
X73230189Y-56504198D01*
X73158370Y-56482412D01*
X73144033Y-56481000D01*
X82342186Y-56481000D01*
X82843623Y-56982439D01*
X82833300Y-57034336D01*
X82833300Y-57165664D01*
X82858921Y-57294469D01*
X82909178Y-57415801D01*
X82982140Y-57524997D01*
X83075003Y-57617860D01*
X83184199Y-57690822D01*
X83305531Y-57741079D01*
X83434336Y-57766700D01*
X83565664Y-57766700D01*
X83694469Y-57741079D01*
X83815801Y-57690822D01*
X83924997Y-57617860D01*
X84017860Y-57524997D01*
X84090822Y-57415801D01*
X84141079Y-57294469D01*
X84166700Y-57165664D01*
X84166700Y-57034336D01*
X84141079Y-56905531D01*
X84090822Y-56784199D01*
X84017860Y-56675003D01*
X83924997Y-56582140D01*
X83815801Y-56509178D01*
X83694469Y-56458921D01*
X83565664Y-56433300D01*
X83434336Y-56433300D01*
X83382439Y-56443623D01*
X82782645Y-55843831D01*
X82770711Y-55829289D01*
X82712696Y-55781678D01*
X82646508Y-55746299D01*
X82607072Y-55734336D01*
X116433300Y-55734336D01*
X116433300Y-55865664D01*
X116458921Y-55994469D01*
X116509178Y-56115801D01*
X116582140Y-56224997D01*
X116675003Y-56317860D01*
X116784199Y-56390822D01*
X116905531Y-56441079D01*
X117034336Y-56466700D01*
X117165664Y-56466700D01*
X117294469Y-56441079D01*
X117415801Y-56390822D01*
X117524997Y-56317860D01*
X117617860Y-56224997D01*
X117690822Y-56115801D01*
X117741079Y-55994469D01*
X117748389Y-55957718D01*
X117817879Y-56027208D01*
X117927075Y-56100170D01*
X118048407Y-56150427D01*
X118177212Y-56176048D01*
X118308540Y-56176048D01*
X118437345Y-56150427D01*
X118558677Y-56100170D01*
X118667873Y-56027208D01*
X118760736Y-55934345D01*
X118833698Y-55825149D01*
X118883955Y-55703817D01*
X118903350Y-55606312D01*
X119013866Y-55628295D01*
X119145194Y-55628295D01*
X119184470Y-55620482D01*
X119188946Y-55624958D01*
X119201215Y-55639908D01*
X119260859Y-55688856D01*
X119328907Y-55725228D01*
X119398368Y-55746299D01*
X119402742Y-55747626D01*
X119479528Y-55755189D01*
X119498768Y-55753294D01*
X122419166Y-55753294D01*
X122438406Y-55755189D01*
X122457646Y-55753294D01*
X122515193Y-55747626D01*
X122589028Y-55725228D01*
X122657076Y-55688856D01*
X122716720Y-55639908D01*
X122728994Y-55624952D01*
X123995059Y-54358887D01*
X124034336Y-54366700D01*
X124165664Y-54366700D01*
X124294469Y-54341079D01*
X124415801Y-54290822D01*
X124524997Y-54217860D01*
X124617860Y-54124997D01*
X124683661Y-54026518D01*
X124775003Y-54117860D01*
X124884199Y-54190822D01*
X125005531Y-54241079D01*
X125134336Y-54266700D01*
X125265664Y-54266700D01*
X125394469Y-54241079D01*
X125515801Y-54190822D01*
X125624997Y-54117860D01*
X125717860Y-54024997D01*
X125790822Y-53915801D01*
X125841079Y-53794469D01*
X125866700Y-53665664D01*
X125866700Y-53534336D01*
X125841079Y-53405531D01*
X125790822Y-53284199D01*
X125717860Y-53175003D01*
X125624997Y-53082140D01*
X125515801Y-53009178D01*
X125394469Y-52958921D01*
X125265664Y-52933300D01*
X125134336Y-52933300D01*
X125005531Y-52958921D01*
X124884199Y-53009178D01*
X124775003Y-53082140D01*
X124682140Y-53175003D01*
X124616339Y-53273482D01*
X124524997Y-53182140D01*
X124415801Y-53109178D01*
X124294469Y-53058921D01*
X124165664Y-53033300D01*
X124034336Y-53033300D01*
X123905531Y-53058921D01*
X123784199Y-53109178D01*
X123675003Y-53182140D01*
X123582140Y-53275003D01*
X123509178Y-53384199D01*
X123458921Y-53505531D01*
X123433300Y-53634336D01*
X123433300Y-53765664D01*
X123441113Y-53804941D01*
X122276160Y-54969894D01*
X120847122Y-54969894D01*
X120924997Y-54917860D01*
X121017860Y-54824997D01*
X121090822Y-54715801D01*
X121141079Y-54594469D01*
X121166700Y-54465664D01*
X121166700Y-54334336D01*
X121141079Y-54205531D01*
X121090822Y-54084199D01*
X121017860Y-53975003D01*
X120977193Y-53934336D01*
X121633300Y-53934336D01*
X121633300Y-54065664D01*
X121658921Y-54194469D01*
X121709178Y-54315801D01*
X121782140Y-54424997D01*
X121875003Y-54517860D01*
X121984199Y-54590822D01*
X122105531Y-54641079D01*
X122234336Y-54666700D01*
X122365664Y-54666700D01*
X122494469Y-54641079D01*
X122615801Y-54590822D01*
X122724997Y-54517860D01*
X122817860Y-54424997D01*
X122890822Y-54315801D01*
X122941079Y-54194469D01*
X122966700Y-54065664D01*
X122966700Y-53934336D01*
X122941079Y-53805531D01*
X122890822Y-53684199D01*
X122817860Y-53575003D01*
X122724997Y-53482140D01*
X122615801Y-53409178D01*
X122494469Y-53358921D01*
X122365664Y-53333300D01*
X122234336Y-53333300D01*
X122105531Y-53358921D01*
X121984199Y-53409178D01*
X121875003Y-53482140D01*
X121782140Y-53575003D01*
X121709178Y-53684199D01*
X121658921Y-53805531D01*
X121633300Y-53934336D01*
X120977193Y-53934336D01*
X120924997Y-53882140D01*
X120815801Y-53809178D01*
X120694469Y-53758921D01*
X120565664Y-53733300D01*
X120434336Y-53733300D01*
X120305531Y-53758921D01*
X120184199Y-53809178D01*
X120075003Y-53882140D01*
X119982140Y-53975003D01*
X119909178Y-54084199D01*
X119858921Y-54205531D01*
X119833300Y-54334336D01*
X119833300Y-54465664D01*
X119858921Y-54594469D01*
X119909178Y-54715801D01*
X119982140Y-54824997D01*
X120075003Y-54917860D01*
X120152878Y-54969894D01*
X119746230Y-54969894D01*
X119746230Y-54895931D01*
X119720609Y-54767126D01*
X119670352Y-54645794D01*
X119597390Y-54536598D01*
X119504527Y-54443735D01*
X119395331Y-54370773D01*
X119273999Y-54320516D01*
X119145194Y-54294895D01*
X119013866Y-54294895D01*
X119005746Y-54296510D01*
X121570547Y-51731710D01*
X122928148Y-51731710D01*
X122950396Y-51765007D01*
X123043259Y-51857870D01*
X123152455Y-51930832D01*
X123273787Y-51981089D01*
X123402592Y-52006710D01*
X123533920Y-52006710D01*
X123662725Y-51981089D01*
X123784057Y-51930832D01*
X123893253Y-51857870D01*
X123986116Y-51765007D01*
X124059078Y-51655811D01*
X124109335Y-51534479D01*
X124134956Y-51405674D01*
X124134956Y-51274346D01*
X124109335Y-51145541D01*
X124063273Y-51034336D01*
X131633300Y-51034336D01*
X131633300Y-51165664D01*
X131658921Y-51294469D01*
X131709178Y-51415801D01*
X131782140Y-51524997D01*
X131807143Y-51550000D01*
X131782140Y-51575003D01*
X131709178Y-51684199D01*
X131658921Y-51805531D01*
X131633300Y-51934336D01*
X131633300Y-52065664D01*
X131658921Y-52194469D01*
X131709178Y-52315801D01*
X131782140Y-52424997D01*
X131807143Y-52450000D01*
X131782140Y-52475003D01*
X131709178Y-52584199D01*
X131658921Y-52705531D01*
X131633300Y-52834336D01*
X131633300Y-52965664D01*
X131658921Y-53094469D01*
X131709178Y-53215801D01*
X131782140Y-53324997D01*
X131807143Y-53350000D01*
X131782140Y-53375003D01*
X131709178Y-53484199D01*
X131658921Y-53605531D01*
X131633300Y-53734336D01*
X131633300Y-53865664D01*
X131658921Y-53994469D01*
X131709178Y-54115801D01*
X131782140Y-54224997D01*
X131875003Y-54317860D01*
X131984199Y-54390822D01*
X132105531Y-54441079D01*
X132234336Y-54466700D01*
X132365664Y-54466700D01*
X132494469Y-54441079D01*
X132615801Y-54390822D01*
X132724997Y-54317860D01*
X132817860Y-54224997D01*
X132890822Y-54115801D01*
X132941079Y-53994469D01*
X132966700Y-53865664D01*
X132966700Y-53734336D01*
X132941079Y-53605531D01*
X132890822Y-53484199D01*
X132817860Y-53375003D01*
X132792857Y-53350000D01*
X132817860Y-53324997D01*
X132890822Y-53215801D01*
X132941079Y-53094469D01*
X132966700Y-52965664D01*
X132966700Y-52834336D01*
X132941079Y-52705531D01*
X132890822Y-52584199D01*
X132817860Y-52475003D01*
X132792857Y-52450000D01*
X132817860Y-52424997D01*
X132890822Y-52315801D01*
X132941079Y-52194469D01*
X132966700Y-52065664D01*
X132966700Y-51934336D01*
X132941079Y-51805531D01*
X132890822Y-51684199D01*
X132817860Y-51575003D01*
X132792857Y-51550000D01*
X132817860Y-51524997D01*
X132890822Y-51415801D01*
X132941079Y-51294469D01*
X132966700Y-51165664D01*
X132966700Y-51034336D01*
X132941079Y-50905531D01*
X132890822Y-50784199D01*
X132817860Y-50675003D01*
X132724997Y-50582140D01*
X132615801Y-50509178D01*
X132494469Y-50458921D01*
X132365664Y-50433300D01*
X132234336Y-50433300D01*
X132105531Y-50458921D01*
X131984199Y-50509178D01*
X131875003Y-50582140D01*
X131782140Y-50675003D01*
X131709178Y-50784199D01*
X131658921Y-50905531D01*
X131633300Y-51034336D01*
X124063273Y-51034336D01*
X124059078Y-51024209D01*
X123986116Y-50915013D01*
X123893253Y-50822150D01*
X123784057Y-50749188D01*
X123662725Y-50698931D01*
X123533920Y-50673310D01*
X123402592Y-50673310D01*
X123273787Y-50698931D01*
X123152455Y-50749188D01*
X123043259Y-50822150D01*
X122950396Y-50915013D01*
X122928148Y-50948310D01*
X121427540Y-50948310D01*
X121408300Y-50946415D01*
X121389060Y-50948310D01*
X121331513Y-50953978D01*
X121257678Y-50976376D01*
X121189630Y-51012748D01*
X121129986Y-51061696D01*
X121117717Y-51076646D01*
X117979513Y-54214851D01*
X117964563Y-54227120D01*
X117932081Y-54266700D01*
X117915614Y-54286765D01*
X117879243Y-54354812D01*
X117856844Y-54428648D01*
X117849281Y-54505434D01*
X117851177Y-54524683D01*
X117851177Y-54969239D01*
X117817879Y-54991488D01*
X117725016Y-55084351D01*
X117652054Y-55193547D01*
X117601797Y-55314879D01*
X117594487Y-55351630D01*
X117524997Y-55282140D01*
X117415801Y-55209178D01*
X117294469Y-55158921D01*
X117165664Y-55133300D01*
X117034336Y-55133300D01*
X116905531Y-55158921D01*
X116784199Y-55209178D01*
X116675003Y-55282140D01*
X116582140Y-55375003D01*
X116509178Y-55484199D01*
X116458921Y-55605531D01*
X116433300Y-55734336D01*
X82607072Y-55734336D01*
X82574689Y-55724513D01*
X82518713Y-55719000D01*
X82518710Y-55719000D01*
X82500000Y-55717157D01*
X82481290Y-55719000D01*
X71118169Y-55719000D01*
X71099466Y-55717158D01*
X71080763Y-55719000D01*
X71080754Y-55719000D01*
X71024778Y-55724513D01*
X70952959Y-55746299D01*
X70909826Y-55769355D01*
X70886770Y-55781678D01*
X70879479Y-55787662D01*
X70828756Y-55829289D01*
X70816826Y-55843826D01*
X70541653Y-56119000D01*
X60847258Y-56119000D01*
X60817860Y-56075003D01*
X60724997Y-55982140D01*
X60615801Y-55909178D01*
X60494469Y-55858921D01*
X60365664Y-55833300D01*
X60234336Y-55833300D01*
X60105531Y-55858921D01*
X59984199Y-55909178D01*
X59875003Y-55982140D01*
X59782140Y-56075003D01*
X59709178Y-56184199D01*
X59658921Y-56305531D01*
X59633300Y-56434336D01*
X59633300Y-56565664D01*
X59658921Y-56694469D01*
X59709178Y-56815801D01*
X59782140Y-56924997D01*
X59875003Y-57017860D01*
X59984199Y-57090822D01*
X60105531Y-57141079D01*
X60132286Y-57146401D01*
X60093587Y-57167086D01*
X60068952Y-57187304D01*
X60035573Y-57214697D01*
X60023815Y-57229024D01*
X59971949Y-57218707D01*
X59840621Y-57218707D01*
X59711816Y-57244328D01*
X59590484Y-57294585D01*
X59481288Y-57367547D01*
X59388425Y-57460410D01*
X59315463Y-57569606D01*
X59265206Y-57690938D01*
X59239585Y-57819743D01*
X59239585Y-57951071D01*
X59265206Y-58079876D01*
X59315463Y-58201208D01*
X59388425Y-58310404D01*
X59481288Y-58403267D01*
X59590484Y-58476229D01*
X59711816Y-58526486D01*
X59840621Y-58552107D01*
X59971949Y-58552107D01*
X60100754Y-58526486D01*
X60222086Y-58476229D01*
X60233300Y-58468736D01*
X60233300Y-58565664D01*
X60240461Y-58601665D01*
X60214480Y-58601665D01*
X60085675Y-58627286D01*
X59964343Y-58677543D01*
X59855147Y-58750505D01*
X59762284Y-58843368D01*
X59689322Y-58952564D01*
X59639065Y-59073896D01*
X59613444Y-59202701D01*
X59613444Y-59334029D01*
X59639065Y-59462834D01*
X59689322Y-59584166D01*
X59762284Y-59693362D01*
X59840528Y-59771606D01*
X59838400Y-59775586D01*
X59826935Y-59813383D01*
X59820327Y-59835169D01*
X59816615Y-59847405D01*
X59809258Y-59922093D01*
X59811102Y-59940813D01*
X59811102Y-60407232D01*
X59694469Y-60358921D01*
X59565664Y-60333300D01*
X59434336Y-60333300D01*
X59305531Y-60358921D01*
X59184199Y-60409178D01*
X59075003Y-60482140D01*
X58982140Y-60575003D01*
X58909178Y-60684199D01*
X58858921Y-60805531D01*
X58833300Y-60934336D01*
X58833300Y-61065664D01*
X58858921Y-61194469D01*
X58909178Y-61315801D01*
X58982140Y-61424997D01*
X59075003Y-61517860D01*
X59184199Y-61590822D01*
X59305531Y-61641079D01*
X59434336Y-61666700D01*
X59565664Y-61666700D01*
X59694469Y-61641079D01*
X59811102Y-61592768D01*
X59811101Y-91273391D01*
X59809258Y-91292101D01*
X59811101Y-91310811D01*
X59811101Y-91310813D01*
X59816614Y-91366789D01*
X59838400Y-91438608D01*
X59873779Y-91504797D01*
X59889767Y-91524278D01*
X59921390Y-91562812D01*
X59935933Y-91574747D01*
X62943623Y-94582438D01*
X62933300Y-94634336D01*
X62933300Y-94765664D01*
X62958921Y-94894469D01*
X63009178Y-95015801D01*
X63082140Y-95124997D01*
X63175003Y-95217860D01*
X63284199Y-95290822D01*
X63405531Y-95341079D01*
X63534336Y-95366700D01*
X63665664Y-95366700D01*
X63794469Y-95341079D01*
X63915801Y-95290822D01*
X64024997Y-95217860D01*
X64117860Y-95124997D01*
X64150000Y-95076896D01*
X64182140Y-95124997D01*
X64275003Y-95217860D01*
X64384199Y-95290822D01*
X64505531Y-95341079D01*
X64634336Y-95366700D01*
X64765664Y-95366700D01*
X64894469Y-95341079D01*
X65015801Y-95290822D01*
X65124997Y-95217860D01*
X65217860Y-95124997D01*
X65250000Y-95076896D01*
X65282140Y-95124997D01*
X65375003Y-95217860D01*
X65484199Y-95290822D01*
X65605531Y-95341079D01*
X65734336Y-95366700D01*
X65865664Y-95366700D01*
X65994469Y-95341079D01*
X66115801Y-95290822D01*
X66224997Y-95217860D01*
X66317860Y-95124997D01*
X66390822Y-95015801D01*
X66441079Y-94894469D01*
X66451015Y-94844516D01*
X66434301Y-99708300D01*
X50291700Y-99708300D01*
X50291700Y-94834336D01*
X59233300Y-94834336D01*
X59233300Y-94965664D01*
X59258921Y-95094469D01*
X59309178Y-95215801D01*
X59382140Y-95324997D01*
X59475003Y-95417860D01*
X59584199Y-95490822D01*
X59705531Y-95541079D01*
X59750380Y-95550000D01*
X59705531Y-95558921D01*
X59584199Y-95609178D01*
X59475003Y-95682140D01*
X59382140Y-95775003D01*
X59309178Y-95884199D01*
X59258921Y-96005531D01*
X59233300Y-96134336D01*
X59233300Y-96265664D01*
X59258921Y-96394469D01*
X59309178Y-96515801D01*
X59382140Y-96624997D01*
X59475003Y-96717860D01*
X59584199Y-96790822D01*
X59705531Y-96841079D01*
X59834336Y-96866700D01*
X59965664Y-96866700D01*
X60094469Y-96841079D01*
X60215801Y-96790822D01*
X60324997Y-96717860D01*
X60417860Y-96624997D01*
X60490822Y-96515801D01*
X60541079Y-96394469D01*
X60566700Y-96265664D01*
X60566700Y-96134336D01*
X60541079Y-96005531D01*
X60490822Y-95884199D01*
X60417860Y-95775003D01*
X60324997Y-95682140D01*
X60215801Y-95609178D01*
X60094469Y-95558921D01*
X60049620Y-95550000D01*
X60094469Y-95541079D01*
X60215801Y-95490822D01*
X60324997Y-95417860D01*
X60417860Y-95324997D01*
X60490822Y-95215801D01*
X60541079Y-95094469D01*
X60566700Y-94965664D01*
X60566700Y-94834336D01*
X60541079Y-94705531D01*
X60490822Y-94584199D01*
X60417860Y-94475003D01*
X60324997Y-94382140D01*
X60215801Y-94309178D01*
X60094469Y-94258921D01*
X59965664Y-94233300D01*
X59834336Y-94233300D01*
X59705531Y-94258921D01*
X59584199Y-94309178D01*
X59475003Y-94382140D01*
X59382140Y-94475003D01*
X59309178Y-94584199D01*
X59258921Y-94705531D01*
X59233300Y-94834336D01*
X50291700Y-94834336D01*
X50291700Y-93534336D01*
X56933300Y-93534336D01*
X56933300Y-93665664D01*
X56958921Y-93794469D01*
X57009178Y-93915801D01*
X57082140Y-94024997D01*
X57175003Y-94117860D01*
X57284199Y-94190822D01*
X57405531Y-94241079D01*
X57534336Y-94266700D01*
X57665664Y-94266700D01*
X57794469Y-94241079D01*
X57915801Y-94190822D01*
X58024997Y-94117860D01*
X58117860Y-94024997D01*
X58190822Y-93915801D01*
X58241079Y-93794469D01*
X58266700Y-93665664D01*
X58266700Y-93534336D01*
X58241079Y-93405531D01*
X58190822Y-93284199D01*
X58117860Y-93175003D01*
X58024997Y-93082140D01*
X57915801Y-93009178D01*
X57794469Y-92958921D01*
X57665664Y-92933300D01*
X57534336Y-92933300D01*
X57405531Y-92958921D01*
X57284199Y-93009178D01*
X57175003Y-93082140D01*
X57082140Y-93175003D01*
X57009178Y-93284199D01*
X56958921Y-93405531D01*
X56933300Y-93534336D01*
X50291700Y-93534336D01*
X50291700Y-75292769D01*
X50408331Y-75341079D01*
X50537136Y-75366700D01*
X50598111Y-75366700D01*
X50575003Y-75382140D01*
X50482140Y-75475003D01*
X50409178Y-75584199D01*
X50358921Y-75705531D01*
X50333300Y-75834336D01*
X50333300Y-75965664D01*
X50358921Y-76094469D01*
X50409178Y-76215801D01*
X50482140Y-76324997D01*
X50575003Y-76417860D01*
X50684199Y-76490822D01*
X50805531Y-76541079D01*
X50934336Y-76566700D01*
X51065664Y-76566700D01*
X51194469Y-76541079D01*
X51315801Y-76490822D01*
X51424997Y-76417860D01*
X51517860Y-76324997D01*
X51590822Y-76215801D01*
X51641079Y-76094469D01*
X51666700Y-75965664D01*
X51666700Y-75834336D01*
X51656383Y-75782470D01*
X51670710Y-75770712D01*
X51708227Y-75724997D01*
X51718321Y-75712698D01*
X51753700Y-75646509D01*
X51754514Y-75643825D01*
X51775486Y-75574690D01*
X51780999Y-75518714D01*
X51780999Y-75518712D01*
X51782842Y-75500002D01*
X51780999Y-75481292D01*
X51780999Y-74418701D01*
X51782841Y-74399998D01*
X51780999Y-74381295D01*
X51780999Y-74381286D01*
X51775486Y-74325310D01*
X51753700Y-74253491D01*
X51725971Y-74201614D01*
X51718321Y-74187302D01*
X51682638Y-74143823D01*
X51670710Y-74129288D01*
X51656174Y-74117359D01*
X51281000Y-73742186D01*
X51281000Y-64210811D01*
X51282843Y-64192101D01*
X51279891Y-64162129D01*
X51275487Y-64117412D01*
X51253701Y-64045593D01*
X51218322Y-63979405D01*
X51170711Y-63921390D01*
X51156169Y-63909456D01*
X51104521Y-63857808D01*
X51104521Y-62818069D01*
X51480988Y-62441603D01*
X51529302Y-62558245D01*
X51602264Y-62667441D01*
X51695127Y-62760304D01*
X51739098Y-62789684D01*
X51737281Y-62808129D01*
X51739124Y-62826839D01*
X51739124Y-62826841D01*
X51744637Y-62882817D01*
X51761502Y-62938414D01*
X51766423Y-62954636D01*
X51801802Y-63020825D01*
X51811102Y-63032157D01*
X51811101Y-85307706D01*
X51809258Y-85326416D01*
X51811101Y-85345126D01*
X51811101Y-85345128D01*
X51816614Y-85401104D01*
X51838400Y-85472923D01*
X51873779Y-85539112D01*
X51884588Y-85552282D01*
X51921390Y-85597127D01*
X51935932Y-85609061D01*
X51942007Y-85615136D01*
X51882140Y-85675003D01*
X51809178Y-85784199D01*
X51758921Y-85905531D01*
X51733300Y-86034336D01*
X51733300Y-86165664D01*
X51758921Y-86294469D01*
X51809178Y-86415801D01*
X51882140Y-86524997D01*
X51975003Y-86617860D01*
X52084199Y-86690822D01*
X52205531Y-86741079D01*
X52334336Y-86766700D01*
X52465664Y-86766700D01*
X52594469Y-86741079D01*
X52715801Y-86690822D01*
X52824997Y-86617860D01*
X52917860Y-86524997D01*
X52990822Y-86415801D01*
X53041079Y-86294469D01*
X53066700Y-86165664D01*
X53066700Y-86034336D01*
X53041079Y-85905531D01*
X52990822Y-85784199D01*
X52917860Y-85675003D01*
X52868666Y-85625809D01*
X52905531Y-85641079D01*
X53034336Y-85666700D01*
X53165664Y-85666700D01*
X53294469Y-85641079D01*
X53415801Y-85590822D01*
X53524997Y-85517860D01*
X53617860Y-85424997D01*
X53690822Y-85315801D01*
X53741079Y-85194469D01*
X53766700Y-85065664D01*
X53766700Y-84934336D01*
X53741079Y-84805531D01*
X53690822Y-84684199D01*
X53617860Y-84575003D01*
X53609557Y-84566700D01*
X53665664Y-84566700D01*
X53794469Y-84541079D01*
X53915801Y-84490822D01*
X54024997Y-84417860D01*
X54117860Y-84324997D01*
X54190822Y-84215801D01*
X54241079Y-84094469D01*
X54266700Y-83965664D01*
X54266700Y-83834336D01*
X55833300Y-83834336D01*
X55833300Y-83965664D01*
X55858921Y-84094469D01*
X55909178Y-84215801D01*
X55982140Y-84324997D01*
X56075003Y-84417860D01*
X56184199Y-84490822D01*
X56305531Y-84541079D01*
X56434336Y-84566700D01*
X56565664Y-84566700D01*
X56694469Y-84541079D01*
X56815801Y-84490822D01*
X56924997Y-84417860D01*
X57017860Y-84324997D01*
X57090822Y-84215801D01*
X57141079Y-84094469D01*
X57166700Y-83965664D01*
X57166700Y-83834336D01*
X57141079Y-83705531D01*
X57090822Y-83584199D01*
X57017860Y-83475003D01*
X56924997Y-83382140D01*
X56815801Y-83309178D01*
X56694469Y-83258921D01*
X56565664Y-83233300D01*
X56434336Y-83233300D01*
X56305531Y-83258921D01*
X56184199Y-83309178D01*
X56075003Y-83382140D01*
X55982140Y-83475003D01*
X55909178Y-83584199D01*
X55858921Y-83705531D01*
X55833300Y-83834336D01*
X54266700Y-83834336D01*
X54241079Y-83705531D01*
X54190822Y-83584199D01*
X54117860Y-83475003D01*
X54024997Y-83382140D01*
X53915801Y-83309178D01*
X53794469Y-83258921D01*
X53665664Y-83233300D01*
X53613249Y-83233300D01*
X53715801Y-83190822D01*
X53824997Y-83117860D01*
X53917860Y-83024997D01*
X53990822Y-82915801D01*
X54041079Y-82794469D01*
X54066700Y-82665664D01*
X54066700Y-82534336D01*
X54056377Y-82482438D01*
X54255341Y-82283474D01*
X54269877Y-82271545D01*
X54293416Y-82242862D01*
X54317488Y-82213531D01*
X54352867Y-82147342D01*
X54359645Y-82124997D01*
X54374653Y-82075523D01*
X54380166Y-82019547D01*
X54380166Y-82019544D01*
X54382009Y-82000834D01*
X54380166Y-81982124D01*
X54380166Y-66373029D01*
X54659179Y-66373029D01*
X54659179Y-66504357D01*
X54684800Y-66633162D01*
X54735057Y-66754494D01*
X54808019Y-66863690D01*
X54900882Y-66956553D01*
X55010078Y-67029515D01*
X55131410Y-67079772D01*
X55260215Y-67105393D01*
X55376758Y-67105393D01*
X55376758Y-67168583D01*
X55402379Y-67297388D01*
X55452636Y-67418720D01*
X55525598Y-67527916D01*
X55618461Y-67620779D01*
X55727657Y-67693741D01*
X55848989Y-67743998D01*
X55977794Y-67769619D01*
X56109122Y-67769619D01*
X56237927Y-67743998D01*
X56359259Y-67693741D01*
X56436251Y-67642297D01*
X56485229Y-67715599D01*
X56578092Y-67808462D01*
X56687288Y-67881424D01*
X56808620Y-67931681D01*
X56937425Y-67957302D01*
X57068753Y-67957302D01*
X57197558Y-67931681D01*
X57318890Y-67881424D01*
X57428086Y-67808462D01*
X57520949Y-67715599D01*
X57593911Y-67606403D01*
X57644168Y-67485071D01*
X57669789Y-67356266D01*
X57669789Y-67224938D01*
X57644168Y-67096133D01*
X57593911Y-66974801D01*
X57520949Y-66865605D01*
X57428086Y-66772742D01*
X57318890Y-66699780D01*
X57197558Y-66649523D01*
X57135777Y-66637234D01*
X57195647Y-66597230D01*
X57288510Y-66504367D01*
X57361472Y-66395171D01*
X57411729Y-66273839D01*
X57437350Y-66145034D01*
X57437350Y-66013706D01*
X57411729Y-65884901D01*
X57361472Y-65763569D01*
X57288510Y-65654373D01*
X57195647Y-65561510D01*
X57086451Y-65488548D01*
X56965119Y-65438291D01*
X56836314Y-65412670D01*
X56704986Y-65412670D01*
X56576181Y-65438291D01*
X56454849Y-65488548D01*
X56345653Y-65561510D01*
X56252790Y-65654373D01*
X56179828Y-65763569D01*
X56129571Y-65884901D01*
X56103950Y-66013706D01*
X56103950Y-66145034D01*
X56129571Y-66273839D01*
X56179828Y-66395171D01*
X56222297Y-66458731D01*
X56109122Y-66436219D01*
X55992579Y-66436219D01*
X55992579Y-66373029D01*
X55966958Y-66244224D01*
X55916701Y-66122892D01*
X55843739Y-66013696D01*
X55750876Y-65920833D01*
X55641680Y-65847871D01*
X55520348Y-65797614D01*
X55391543Y-65771993D01*
X55260215Y-65771993D01*
X55131410Y-65797614D01*
X55010078Y-65847871D01*
X54900882Y-65920833D01*
X54808019Y-66013696D01*
X54735057Y-66122892D01*
X54684800Y-66244224D01*
X54659179Y-66373029D01*
X54380166Y-66373029D01*
X54380166Y-65512911D01*
X54433164Y-65548323D01*
X54554496Y-65598580D01*
X54683301Y-65624201D01*
X54814629Y-65624201D01*
X54943434Y-65598580D01*
X55064766Y-65548323D01*
X55173962Y-65475361D01*
X55266825Y-65382498D01*
X55339787Y-65273302D01*
X55390044Y-65151970D01*
X55415665Y-65023165D01*
X55415665Y-64891837D01*
X55390044Y-64763032D01*
X55339787Y-64641700D01*
X55266825Y-64532504D01*
X55173962Y-64439641D01*
X55064766Y-64366679D01*
X54943434Y-64316422D01*
X54814629Y-64290801D01*
X54779311Y-64290801D01*
X54781718Y-64278701D01*
X54781718Y-64147373D01*
X54756097Y-64018568D01*
X54705840Y-63897236D01*
X54632878Y-63788040D01*
X54540015Y-63695177D01*
X54430819Y-63622215D01*
X54309487Y-63571958D01*
X54180682Y-63546337D01*
X54049354Y-63546337D01*
X53946433Y-63566809D01*
X53931701Y-63492748D01*
X53881444Y-63371416D01*
X53808482Y-63262220D01*
X53715619Y-63169357D01*
X53606423Y-63096395D01*
X53542114Y-63069758D01*
X53560983Y-63041518D01*
X53611240Y-62920186D01*
X53636861Y-62791381D01*
X53636861Y-62660053D01*
X53611240Y-62531248D01*
X53606420Y-62519609D01*
X55470960Y-62519609D01*
X55470960Y-62650937D01*
X55496581Y-62779742D01*
X55546838Y-62901074D01*
X55619800Y-63010270D01*
X55712663Y-63103133D01*
X55821859Y-63176095D01*
X55943191Y-63226352D01*
X56030389Y-63243697D01*
X55991811Y-63336833D01*
X55966190Y-63465638D01*
X55966190Y-63596966D01*
X55991811Y-63725771D01*
X56042068Y-63847103D01*
X56115030Y-63956299D01*
X56207893Y-64049162D01*
X56317089Y-64122124D01*
X56438421Y-64172381D01*
X56567226Y-64198002D01*
X56698554Y-64198002D01*
X56827359Y-64172381D01*
X56948691Y-64122124D01*
X57057887Y-64049162D01*
X57150750Y-63956299D01*
X57223712Y-63847103D01*
X57273969Y-63725771D01*
X57299590Y-63596966D01*
X57299590Y-63465638D01*
X57273969Y-63336833D01*
X57223712Y-63215501D01*
X57150750Y-63106305D01*
X57057887Y-63013442D01*
X56948691Y-62940480D01*
X56827359Y-62890223D01*
X56740161Y-62872878D01*
X56778739Y-62779742D01*
X56804360Y-62650937D01*
X56804360Y-62519609D01*
X56778739Y-62390804D01*
X56728482Y-62269472D01*
X56655520Y-62160276D01*
X56562657Y-62067413D01*
X56453461Y-61994451D01*
X56332129Y-61944194D01*
X56203324Y-61918573D01*
X56071996Y-61918573D01*
X55943191Y-61944194D01*
X55821859Y-61994451D01*
X55712663Y-62067413D01*
X55619800Y-62160276D01*
X55546838Y-62269472D01*
X55496581Y-62390804D01*
X55470960Y-62519609D01*
X53606420Y-62519609D01*
X53560983Y-62409916D01*
X53488021Y-62300720D01*
X53395158Y-62207857D01*
X53285962Y-62134895D01*
X53164630Y-62084638D01*
X53035825Y-62059017D01*
X52904497Y-62059017D01*
X52775692Y-62084638D01*
X52769044Y-62087392D01*
X52761203Y-62047975D01*
X52710946Y-61926643D01*
X52637984Y-61817447D01*
X52545121Y-61724584D01*
X52435925Y-61651622D01*
X52314593Y-61601365D01*
X52261422Y-61590789D01*
X52269372Y-61564580D01*
X52274885Y-61508604D01*
X52274885Y-61508601D01*
X52276728Y-61489891D01*
X52274885Y-61471181D01*
X52274885Y-58117742D01*
X52275003Y-58117860D01*
X52384199Y-58190822D01*
X52505531Y-58241079D01*
X52634336Y-58266700D01*
X52765664Y-58266700D01*
X52894469Y-58241079D01*
X53015801Y-58190822D01*
X53124997Y-58117860D01*
X53217860Y-58024997D01*
X53290822Y-57915801D01*
X53341079Y-57794469D01*
X53366700Y-57665664D01*
X53366700Y-57534336D01*
X53341079Y-57405531D01*
X53290822Y-57284199D01*
X53217860Y-57175003D01*
X53124997Y-57082140D01*
X53015801Y-57009178D01*
X52894469Y-56958921D01*
X52765664Y-56933300D01*
X52634336Y-56933300D01*
X52505531Y-56958921D01*
X52384199Y-57009178D01*
X52275003Y-57082140D01*
X52182140Y-57175003D01*
X52109178Y-57284199D01*
X52058921Y-57405531D01*
X52039912Y-57501097D01*
X51756377Y-57217562D01*
X51766700Y-57165664D01*
X51766700Y-57034336D01*
X51741079Y-56905531D01*
X51690822Y-56784199D01*
X51617860Y-56675003D01*
X51524997Y-56582140D01*
X51415801Y-56509178D01*
X51294469Y-56458921D01*
X51267910Y-56453638D01*
X51295495Y-56448151D01*
X51416827Y-56397894D01*
X51526023Y-56324932D01*
X51618886Y-56232069D01*
X51691848Y-56122873D01*
X51742105Y-56001541D01*
X51767726Y-55872736D01*
X51767726Y-55741408D01*
X51742105Y-55612603D01*
X51691848Y-55491271D01*
X51618886Y-55382075D01*
X51526023Y-55289212D01*
X51481679Y-55259582D01*
X51551426Y-55155197D01*
X51601683Y-55033865D01*
X51627304Y-54905060D01*
X51627304Y-54773732D01*
X51601683Y-54644927D01*
X51551426Y-54523595D01*
X51478464Y-54414399D01*
X51385601Y-54321536D01*
X51347068Y-54295789D01*
X51417860Y-54224997D01*
X51490822Y-54115801D01*
X51541079Y-53994469D01*
X51566700Y-53865664D01*
X51566700Y-53734336D01*
X51541079Y-53605531D01*
X51490822Y-53484199D01*
X51417860Y-53375003D01*
X51324997Y-53282140D01*
X51215801Y-53209178D01*
X51094469Y-53158921D01*
X50970873Y-53134336D01*
X68133300Y-53134336D01*
X68133300Y-53265664D01*
X68158921Y-53394469D01*
X68209178Y-53515801D01*
X68282140Y-53624997D01*
X68375003Y-53717860D01*
X68484199Y-53790822D01*
X68605531Y-53841079D01*
X68734336Y-53866700D01*
X68865664Y-53866700D01*
X68994469Y-53841079D01*
X69115801Y-53790822D01*
X69224997Y-53717860D01*
X69317860Y-53624997D01*
X69390822Y-53515801D01*
X69441079Y-53394469D01*
X69466700Y-53265664D01*
X69466700Y-53134336D01*
X108933300Y-53134336D01*
X108933300Y-53265664D01*
X108958921Y-53394469D01*
X109009178Y-53515801D01*
X109082140Y-53624997D01*
X109175003Y-53717860D01*
X109284199Y-53790822D01*
X109405531Y-53841079D01*
X109534336Y-53866700D01*
X109665664Y-53866700D01*
X109696596Y-53860547D01*
X109682140Y-53875003D01*
X109609178Y-53984199D01*
X109558921Y-54105531D01*
X109533300Y-54234336D01*
X109533300Y-54365664D01*
X109558921Y-54494469D01*
X109609178Y-54615801D01*
X109682140Y-54724997D01*
X109775003Y-54817860D01*
X109884199Y-54890822D01*
X110005531Y-54941079D01*
X110134336Y-54966700D01*
X110265664Y-54966700D01*
X110394469Y-54941079D01*
X110515801Y-54890822D01*
X110624997Y-54817860D01*
X110717860Y-54724997D01*
X110750000Y-54676896D01*
X110782140Y-54724997D01*
X110875003Y-54817860D01*
X110984199Y-54890822D01*
X111105531Y-54941079D01*
X111234336Y-54966700D01*
X111365664Y-54966700D01*
X111494469Y-54941079D01*
X111615801Y-54890822D01*
X111724997Y-54817860D01*
X111817860Y-54724997D01*
X111850000Y-54676896D01*
X111882140Y-54724997D01*
X111975003Y-54817860D01*
X112084199Y-54890822D01*
X112205531Y-54941079D01*
X112334336Y-54966700D01*
X112465664Y-54966700D01*
X112594469Y-54941079D01*
X112715801Y-54890822D01*
X112824997Y-54817860D01*
X112917860Y-54724997D01*
X112950000Y-54676896D01*
X112982140Y-54724997D01*
X113075003Y-54817860D01*
X113184199Y-54890822D01*
X113305531Y-54941079D01*
X113434336Y-54966700D01*
X113565664Y-54966700D01*
X113694469Y-54941079D01*
X113815801Y-54890822D01*
X113924997Y-54817860D01*
X114017860Y-54724997D01*
X114050000Y-54676896D01*
X114082140Y-54724997D01*
X114175003Y-54817860D01*
X114284199Y-54890822D01*
X114405531Y-54941079D01*
X114534336Y-54966700D01*
X114665664Y-54966700D01*
X114794469Y-54941079D01*
X114915801Y-54890822D01*
X115024997Y-54817860D01*
X115117860Y-54724997D01*
X115190822Y-54615801D01*
X115200000Y-54593643D01*
X115209178Y-54615801D01*
X115282140Y-54724997D01*
X115375003Y-54817860D01*
X115484199Y-54890822D01*
X115605531Y-54941079D01*
X115734336Y-54966700D01*
X115865664Y-54966700D01*
X115994469Y-54941079D01*
X116115801Y-54890822D01*
X116224997Y-54817860D01*
X116317860Y-54724997D01*
X116390822Y-54615801D01*
X116441079Y-54494469D01*
X116466700Y-54365664D01*
X116466700Y-54234336D01*
X116441079Y-54105531D01*
X116390822Y-53984199D01*
X116317860Y-53875003D01*
X116224997Y-53782140D01*
X116115801Y-53709178D01*
X115994469Y-53658921D01*
X115865664Y-53633300D01*
X115734336Y-53633300D01*
X115605531Y-53658921D01*
X115568666Y-53674191D01*
X115617860Y-53624997D01*
X115690822Y-53515801D01*
X115741079Y-53394469D01*
X115766700Y-53265664D01*
X115766700Y-53134336D01*
X115741079Y-53005531D01*
X115690822Y-52884199D01*
X115617860Y-52775003D01*
X115524997Y-52682140D01*
X115415801Y-52609178D01*
X115294469Y-52558921D01*
X115165664Y-52533300D01*
X115034336Y-52533300D01*
X114905531Y-52558921D01*
X114784199Y-52609178D01*
X114675003Y-52682140D01*
X114582140Y-52775003D01*
X114550000Y-52823104D01*
X114517860Y-52775003D01*
X114424997Y-52682140D01*
X114315801Y-52609178D01*
X114194469Y-52558921D01*
X114065664Y-52533300D01*
X113934336Y-52533300D01*
X113805531Y-52558921D01*
X113684199Y-52609178D01*
X113575003Y-52682140D01*
X113482140Y-52775003D01*
X113450000Y-52823104D01*
X113417860Y-52775003D01*
X113324997Y-52682140D01*
X113215801Y-52609178D01*
X113094469Y-52558921D01*
X112965664Y-52533300D01*
X112834336Y-52533300D01*
X112705531Y-52558921D01*
X112584199Y-52609178D01*
X112475003Y-52682140D01*
X112382140Y-52775003D01*
X112350000Y-52823104D01*
X112317860Y-52775003D01*
X112224997Y-52682140D01*
X112115801Y-52609178D01*
X111994469Y-52558921D01*
X111865664Y-52533300D01*
X111734336Y-52533300D01*
X111605531Y-52558921D01*
X111484199Y-52609178D01*
X111375003Y-52682140D01*
X111282140Y-52775003D01*
X111250000Y-52823104D01*
X111217860Y-52775003D01*
X111124997Y-52682140D01*
X111015801Y-52609178D01*
X110894469Y-52558921D01*
X110765664Y-52533300D01*
X110634336Y-52533300D01*
X110505531Y-52558921D01*
X110384199Y-52609178D01*
X110275003Y-52682140D01*
X110182140Y-52775003D01*
X110150000Y-52823104D01*
X110117860Y-52775003D01*
X110024997Y-52682140D01*
X109915801Y-52609178D01*
X109794469Y-52558921D01*
X109665664Y-52533300D01*
X109534336Y-52533300D01*
X109405531Y-52558921D01*
X109284199Y-52609178D01*
X109175003Y-52682140D01*
X109082140Y-52775003D01*
X109009178Y-52884199D01*
X108958921Y-53005531D01*
X108933300Y-53134336D01*
X69466700Y-53134336D01*
X69441079Y-53005531D01*
X69390822Y-52884199D01*
X69317860Y-52775003D01*
X69224997Y-52682140D01*
X69115801Y-52609178D01*
X68994469Y-52558921D01*
X68865664Y-52533300D01*
X68734336Y-52533300D01*
X68605531Y-52558921D01*
X68484199Y-52609178D01*
X68375003Y-52682140D01*
X68282140Y-52775003D01*
X68209178Y-52884199D01*
X68158921Y-53005531D01*
X68133300Y-53134336D01*
X50970873Y-53134336D01*
X50965664Y-53133300D01*
X50834336Y-53133300D01*
X50705531Y-53158921D01*
X50584199Y-53209178D01*
X50475003Y-53282140D01*
X50382140Y-53375003D01*
X50309178Y-53484199D01*
X50291700Y-53526395D01*
X50291700Y-52588900D01*
X57600000Y-52588900D01*
X57617344Y-52587192D01*
X57634021Y-52582133D01*
X57649390Y-52573918D01*
X57662862Y-52562862D01*
X57673918Y-52549390D01*
X57682133Y-52534021D01*
X57687192Y-52517344D01*
X57688900Y-52500000D01*
X57688900Y-52134336D01*
X77533300Y-52134336D01*
X77533300Y-52265664D01*
X77558921Y-52394469D01*
X77609178Y-52515801D01*
X77682140Y-52624997D01*
X77775003Y-52717860D01*
X77884199Y-52790822D01*
X78005531Y-52841079D01*
X78134336Y-52866700D01*
X78265664Y-52866700D01*
X78394469Y-52841079D01*
X78515801Y-52790822D01*
X78624997Y-52717860D01*
X78717860Y-52624997D01*
X78790822Y-52515801D01*
X78841079Y-52394469D01*
X78866700Y-52265664D01*
X78866700Y-52134336D01*
X78841079Y-52005531D01*
X78790822Y-51884199D01*
X78717860Y-51775003D01*
X78624997Y-51682140D01*
X78515801Y-51609178D01*
X78394469Y-51558921D01*
X78265664Y-51533300D01*
X78134336Y-51533300D01*
X78005531Y-51558921D01*
X77884199Y-51609178D01*
X77775003Y-51682140D01*
X77682140Y-51775003D01*
X77609178Y-51884199D01*
X77558921Y-52005531D01*
X77533300Y-52134336D01*
X57688900Y-52134336D01*
X57688900Y-50291700D01*
X149708300Y-50291700D01*
X149708301Y-99708300D01*
G36*
X65117359Y-62156174D02*
G01*
X65129289Y-62170711D01*
X65143824Y-62182639D01*
X65187303Y-62218322D01*
X65253492Y-62253701D01*
X65325311Y-62275487D01*
X65381287Y-62281000D01*
X65381290Y-62281000D01*
X65400000Y-62282843D01*
X65418710Y-62281000D01*
X71219748Y-62281000D01*
X71132603Y-62368145D01*
X71010394Y-62551044D01*
X70926214Y-62754271D01*
X70883300Y-62970015D01*
X70883300Y-63189985D01*
X70926214Y-63405729D01*
X71010394Y-63608956D01*
X71132603Y-63791855D01*
X71288145Y-63947397D01*
X71471044Y-64069606D01*
X71536935Y-64096899D01*
X63235714Y-64096899D01*
X62652677Y-63513863D01*
X62652677Y-59691491D01*
X65117359Y-62156174D01*
G37*
X65117359Y-62156174D02*
X65129289Y-62170711D01*
X65143824Y-62182639D01*
X65187303Y-62218322D01*
X65253492Y-62253701D01*
X65325311Y-62275487D01*
X65381287Y-62281000D01*
X65381290Y-62281000D01*
X65400000Y-62282843D01*
X65418710Y-62281000D01*
X71219748Y-62281000D01*
X71132603Y-62368145D01*
X71010394Y-62551044D01*
X70926214Y-62754271D01*
X70883300Y-62970015D01*
X70883300Y-63189985D01*
X70926214Y-63405729D01*
X71010394Y-63608956D01*
X71132603Y-63791855D01*
X71288145Y-63947397D01*
X71471044Y-64069606D01*
X71536935Y-64096899D01*
X63235714Y-64096899D01*
X62652677Y-63513863D01*
X62652677Y-59691491D01*
X65117359Y-62156174D01*
G36*
X91533300Y-72365664D02*
G01*
X91558921Y-72494469D01*
X91609178Y-72615801D01*
X91682140Y-72724997D01*
X91775003Y-72817860D01*
X91884199Y-72890822D01*
X92005531Y-72941079D01*
X92134336Y-72966700D01*
X92265664Y-72966700D01*
X92394469Y-72941079D01*
X92515801Y-72890822D01*
X92624997Y-72817860D01*
X92717860Y-72724997D01*
X92790822Y-72615801D01*
X92841079Y-72494469D01*
X92866700Y-72365664D01*
X92866700Y-72288900D01*
X99199294Y-72288900D01*
X99199939Y-72289167D01*
X99398682Y-72328700D01*
X99601318Y-72328700D01*
X99800061Y-72289167D01*
X99800706Y-72288900D01*
X100433300Y-72288900D01*
X100433300Y-72365664D01*
X100458921Y-72494469D01*
X100509178Y-72615801D01*
X100511100Y-72618677D01*
X100511100Y-74511100D01*
X91388900Y-74511100D01*
X91388900Y-72288900D01*
X91533300Y-72288900D01*
X91533300Y-72365664D01*
G37*
X91533300Y-72365664D02*
X91558921Y-72494469D01*
X91609178Y-72615801D01*
X91682140Y-72724997D01*
X91775003Y-72817860D01*
X91884199Y-72890822D01*
X92005531Y-72941079D01*
X92134336Y-72966700D01*
X92265664Y-72966700D01*
X92394469Y-72941079D01*
X92515801Y-72890822D01*
X92624997Y-72817860D01*
X92717860Y-72724997D01*
X92790822Y-72615801D01*
X92841079Y-72494469D01*
X92866700Y-72365664D01*
X92866700Y-72288900D01*
X99199294Y-72288900D01*
X99199939Y-72289167D01*
X99398682Y-72328700D01*
X99601318Y-72328700D01*
X99800061Y-72289167D01*
X99800706Y-72288900D01*
X100433300Y-72288900D01*
X100433300Y-72365664D01*
X100458921Y-72494469D01*
X100509178Y-72615801D01*
X100511100Y-72618677D01*
X100511100Y-74511100D01*
X91388900Y-74511100D01*
X91388900Y-72288900D01*
X91533300Y-72288900D01*
X91533300Y-72365664D01*
G36*
X122758921Y-60005531D02*
G01*
X122733300Y-60134336D01*
X122733300Y-60265664D01*
X122758921Y-60394469D01*
X122809178Y-60515801D01*
X122882140Y-60624997D01*
X122975003Y-60717860D01*
X123084199Y-60790822D01*
X123205531Y-60841079D01*
X123334336Y-60866700D01*
X123465664Y-60866700D01*
X123594469Y-60841079D01*
X123715801Y-60790822D01*
X123824997Y-60717860D01*
X123917860Y-60624997D01*
X123990822Y-60515801D01*
X124041079Y-60394469D01*
X124066700Y-60265664D01*
X124066700Y-60134336D01*
X124041079Y-60005531D01*
X123992769Y-59888900D01*
X125311182Y-59888900D01*
X125336018Y-86711100D01*
X109464320Y-86711100D01*
X109470032Y-85500000D01*
X109725212Y-85500000D01*
X109736737Y-85617013D01*
X109770868Y-85729529D01*
X109826295Y-85833224D01*
X109900886Y-85924114D01*
X109991776Y-85998705D01*
X110095471Y-86054132D01*
X110207987Y-86088263D01*
X110325000Y-86099788D01*
X112010675Y-86096900D01*
X112159900Y-85947675D01*
X112159900Y-84165100D01*
X112490100Y-84165100D01*
X112490100Y-85947675D01*
X112639325Y-86096900D01*
X114325000Y-86099788D01*
X114442013Y-86088263D01*
X114554529Y-86054132D01*
X114658224Y-85998705D01*
X114749114Y-85924114D01*
X114823705Y-85833224D01*
X114879132Y-85729529D01*
X114913263Y-85617013D01*
X114924788Y-85500000D01*
X114921900Y-84314325D01*
X114772675Y-84165100D01*
X112490100Y-84165100D01*
X112159900Y-84165100D01*
X109877325Y-84165100D01*
X109728100Y-84314325D01*
X109725212Y-85500000D01*
X109470032Y-85500000D01*
X109484184Y-82500000D01*
X109725212Y-82500000D01*
X109728100Y-83685675D01*
X109877325Y-83834900D01*
X112159900Y-83834900D01*
X112159900Y-82052325D01*
X112490100Y-82052325D01*
X112490100Y-83834900D01*
X114772675Y-83834900D01*
X114921900Y-83685675D01*
X114924788Y-82500000D01*
X114913263Y-82382987D01*
X114879132Y-82270471D01*
X114823705Y-82166776D01*
X114749114Y-82075886D01*
X114658224Y-82001295D01*
X114554529Y-81945868D01*
X114442013Y-81911737D01*
X114325000Y-81900212D01*
X112639325Y-81903100D01*
X112490100Y-82052325D01*
X112159900Y-82052325D01*
X112010675Y-81903100D01*
X110325000Y-81900212D01*
X110207987Y-81911737D01*
X110095471Y-81945868D01*
X109991776Y-82001295D01*
X109900886Y-82075886D01*
X109826295Y-82166776D01*
X109770868Y-82270471D01*
X109736737Y-82382987D01*
X109725212Y-82500000D01*
X109484184Y-82500000D01*
X109488482Y-81588900D01*
X123100000Y-81588900D01*
X123117344Y-81587192D01*
X123134021Y-81582133D01*
X123149390Y-81573918D01*
X123162862Y-81562862D01*
X123173918Y-81549390D01*
X123182133Y-81534021D01*
X123187192Y-81517344D01*
X123188900Y-81500000D01*
X123188900Y-61400000D01*
X123187192Y-61382656D01*
X123182133Y-61365979D01*
X123173918Y-61350610D01*
X123162862Y-61337138D01*
X123149390Y-61326082D01*
X123134021Y-61317867D01*
X123117344Y-61312808D01*
X123100000Y-61311100D01*
X121588900Y-61311100D01*
X121588900Y-59888900D01*
X122807231Y-59888900D01*
X122758921Y-60005531D01*
G37*
X122758921Y-60005531D02*
X122733300Y-60134336D01*
X122733300Y-60265664D01*
X122758921Y-60394469D01*
X122809178Y-60515801D01*
X122882140Y-60624997D01*
X122975003Y-60717860D01*
X123084199Y-60790822D01*
X123205531Y-60841079D01*
X123334336Y-60866700D01*
X123465664Y-60866700D01*
X123594469Y-60841079D01*
X123715801Y-60790822D01*
X123824997Y-60717860D01*
X123917860Y-60624997D01*
X123990822Y-60515801D01*
X124041079Y-60394469D01*
X124066700Y-60265664D01*
X124066700Y-60134336D01*
X124041079Y-60005531D01*
X123992769Y-59888900D01*
X125311182Y-59888900D01*
X125336018Y-86711100D01*
X109464320Y-86711100D01*
X109470032Y-85500000D01*
X109725212Y-85500000D01*
X109736737Y-85617013D01*
X109770868Y-85729529D01*
X109826295Y-85833224D01*
X109900886Y-85924114D01*
X109991776Y-85998705D01*
X110095471Y-86054132D01*
X110207987Y-86088263D01*
X110325000Y-86099788D01*
X112010675Y-86096900D01*
X112159900Y-85947675D01*
X112159900Y-84165100D01*
X112490100Y-84165100D01*
X112490100Y-85947675D01*
X112639325Y-86096900D01*
X114325000Y-86099788D01*
X114442013Y-86088263D01*
X114554529Y-86054132D01*
X114658224Y-85998705D01*
X114749114Y-85924114D01*
X114823705Y-85833224D01*
X114879132Y-85729529D01*
X114913263Y-85617013D01*
X114924788Y-85500000D01*
X114921900Y-84314325D01*
X114772675Y-84165100D01*
X112490100Y-84165100D01*
X112159900Y-84165100D01*
X109877325Y-84165100D01*
X109728100Y-84314325D01*
X109725212Y-85500000D01*
X109470032Y-85500000D01*
X109484184Y-82500000D01*
X109725212Y-82500000D01*
X109728100Y-83685675D01*
X109877325Y-83834900D01*
X112159900Y-83834900D01*
X112159900Y-82052325D01*
X112490100Y-82052325D01*
X112490100Y-83834900D01*
X114772675Y-83834900D01*
X114921900Y-83685675D01*
X114924788Y-82500000D01*
X114913263Y-82382987D01*
X114879132Y-82270471D01*
X114823705Y-82166776D01*
X114749114Y-82075886D01*
X114658224Y-82001295D01*
X114554529Y-81945868D01*
X114442013Y-81911737D01*
X114325000Y-81900212D01*
X112639325Y-81903100D01*
X112490100Y-82052325D01*
X112159900Y-82052325D01*
X112010675Y-81903100D01*
X110325000Y-81900212D01*
X110207987Y-81911737D01*
X110095471Y-81945868D01*
X109991776Y-82001295D01*
X109900886Y-82075886D01*
X109826295Y-82166776D01*
X109770868Y-82270471D01*
X109736737Y-82382987D01*
X109725212Y-82500000D01*
X109484184Y-82500000D01*
X109488482Y-81588900D01*
X123100000Y-81588900D01*
X123117344Y-81587192D01*
X123134021Y-81582133D01*
X123149390Y-81573918D01*
X123162862Y-81562862D01*
X123173918Y-81549390D01*
X123182133Y-81534021D01*
X123187192Y-81517344D01*
X123188900Y-81500000D01*
X123188900Y-61400000D01*
X123187192Y-61382656D01*
X123182133Y-61365979D01*
X123173918Y-61350610D01*
X123162862Y-61337138D01*
X123149390Y-61326082D01*
X123134021Y-61317867D01*
X123117344Y-61312808D01*
X123100000Y-61311100D01*
X121588900Y-61311100D01*
X121588900Y-59888900D01*
X122807231Y-59888900D01*
X122758921Y-60005531D01*
M02*
