M48
; DRILL file {KiCad 5.1.10-88a1d61d58~90~ubuntu20.04.1} date Mon Aug  9 16:53:00 2021
; FORMAT={-:-/ absolute / inch / decimal}
; #@! TF.CreationDate,2021-08-09T16:53:00-07:00
; #@! TF.GenerationSoftware,Kicad,Pcbnew,5.1.10-88a1d61d58~90~ubuntu20.04.1
; #@! TF.FileFunction,Plated,1,4,PTH
FMAT,2
INCH
T1C0.0138
T2C0.0157
T3C0.0276
T4C0.0394
T5C0.0591
T6C0.0984
%
G90
G05
T1
X2.115Y-3.3
X2.225Y-3.3
X2.2353Y-2.5053
X2.265Y-3.26
X2.285Y-3.73
X2.305Y-3.175
X2.3088Y-2.5255
X2.33Y-3.345
X2.345Y-2.62
X2.345Y-2.67
X2.37Y-2.57
X2.37Y-3.39
X2.4425Y-2.315
X2.505Y-2.89
X2.54Y-2.915
X2.605Y-2.885
X2.64Y-3.125
X2.68Y-3.34
X2.735Y-2.47
X2.735Y-2.6875
X2.7638Y-2.2172
X2.765Y-3.385
X2.7659Y-2.1626
X2.78Y-2.7025
X2.79Y-3.53
X2.8041Y-2.127
X2.825Y-3.35
X2.8254Y-3.4508
X2.8482Y-3.3957
X2.85Y-3.32
X2.8588Y-2.1258
X2.8708Y-2.0691
X2.875Y-3.545
X2.884Y-2.2491
X2.9248Y-2.0508
X2.948Y-2.2491
X2.98Y-3.39
X2.98Y-3.54
X2.9843Y-2.0508
X3.0Y-3.16
X3.005Y-3.32
X3.009Y-2.2491
X3.015Y-2.445
X3.02Y-2.495
X3.03Y-3.09
X3.0438Y-2.0508
X3.055Y-3.305
X3.06Y-3.16
X3.068Y-2.2491
X3.08Y-3.35
X3.08Y-3.54
X3.1275Y-2.2491
X3.1867Y-2.2466
X3.2Y-3.42
X3.2Y-3.53
X3.205Y-3.355
X3.2361Y-2.2154
X3.25Y-3.3
X3.2561Y-2.1605
X3.26Y-3.125
X3.27Y-3.195
X3.27Y-3.54
X3.3Y-3.34
X3.31Y-2.35
X3.3473Y-2.1435
X3.3475Y-2.0343
X3.3479Y-2.0889
X3.385Y-2.6925
X3.385Y-3.395
X3.455Y-3.625
X3.485Y-2.5
X3.49Y-3.655
X3.5Y-2.43
X3.515Y-3.42
X3.55Y-3.39
X3.68Y-3.39
X3.7Y-2.43
X3.71Y-3.42
X3.7125Y-3.6225
X3.76Y-2.01
X3.76Y-2.21
X3.9Y-2.43
X3.9Y-2.83
X3.9Y-3.03
X3.9Y-3.23
X3.9Y-3.43
X3.96Y-2.01
X3.96Y-2.21
X4.1Y-2.43
X4.1Y-2.43
X4.1Y-2.63
X4.1Y-2.63
X4.1Y-2.83
X4.1Y-2.83
X4.1Y-3.03
X4.1Y-3.23
X4.1Y-3.43
X4.16Y-2.01
X4.16Y-2.21
X4.3Y-2.43
X4.3Y-2.43
X4.3Y-2.63
X4.3Y-2.63
X4.3Y-2.83
X4.3Y-2.83
X4.3Y-3.03
X4.3Y-3.23
X4.3Y-3.43
X4.36Y-2.01
X4.36Y-2.21
X4.5Y-2.43
X4.5Y-2.43
X4.5Y-2.63
X4.5Y-2.63
X4.5Y-2.83
X4.56Y-2.01
X4.56Y-2.21
X4.7Y-2.43
X4.7Y-2.43
X4.7Y-2.63
X4.7Y-2.63
X4.7Y-2.83
X4.715Y-3.545
X4.74Y-3.74
X4.76Y-2.01
X4.76Y-2.21
X4.8049Y-3.5288
X4.8185Y-3.6073
X4.8292Y-3.5592
X4.845Y-3.755
X4.9Y-2.43
X4.9282Y-3.4738
X4.96Y-2.01
X4.96Y-2.21
X4.96Y-3.715
X4.985Y-3.685
X4.9975Y-2.5425
X5.0005Y-3.3328
X5.01Y-3.76
X5.05Y-3.7257
X5.075Y-3.605
X5.1Y-2.43
X5.115Y-3.445
X5.155Y-3.5007
X5.16Y-2.01
X5.16Y-2.21
X5.295Y-3.64
X5.36Y-2.01
X5.36Y-2.21
X5.36Y-2.41
X5.415Y-3.805
X5.56Y-2.01
X5.56Y-2.21
X5.56Y-2.21
X5.56Y-2.41
X5.76Y-2.41
X5.76Y-2.61
X5.76Y-2.81
X5.76Y-3.01
X5.76Y-3.21
X5.76Y-3.41
T2
X2.2567Y-2.0976
T3
X3.235Y-2.435
X3.235Y-2.485
X3.285Y-2.435
X3.285Y-2.485
X3.335Y-2.435
X3.335Y-2.485
X3.385Y-2.435
X3.385Y-2.485
T4
X2.035Y-2.63
X2.035Y-2.73
X2.035Y-2.83
X2.035Y-2.93
X2.135Y-2.63
X2.135Y-2.73
X2.135Y-2.83
X2.135Y-2.93
X4.62Y-3.655
X4.62Y-3.755
X4.62Y-3.855
X4.9346Y-3.8515
X5.0346Y-3.8515
T5
X3.9567Y-2.7165
X5.4921Y-2.7165
T6
X2.0787Y-3.8268
X3.5748Y-2.0787
X4.4291Y-3.8268
X5.7953Y-2.0787
X5.7953Y-3.8268
T0
M30
