G04 #@! TF.GenerationSoftware,KiCad,Pcbnew,5.1.10-88a1d61d58~90~ubuntu20.04.1*
G04 #@! TF.CreationDate,2021-08-09T16:52:55-07:00*
G04 #@! TF.ProjectId,PatchV3,50617463-6856-4332-9e6b-696361645f70,rev?*
G04 #@! TF.SameCoordinates,Original*
G04 #@! TF.FileFunction,Legend,Bot*
G04 #@! TF.FilePolarity,Positive*
%FSLAX46Y46*%
G04 Gerber Fmt 4.6, Leading zero omitted, Abs format (unit mm)*
G04 Created by KiCad (PCBNEW 5.1.10-88a1d61d58~90~ubuntu20.04.1) date 2021-08-09 16:52:55*
%MOMM*%
%LPD*%
G01*
G04 APERTURE LIST*
%ADD10C,0.120000*%
%ADD11C,0.249999*%
%ADD12C,0.150000*%
G04 APERTURE END LIST*
D10*
X125804000Y-75692000D02*
G75*
G03*
X125804000Y-75692000I-17600000J0D01*
G01*
D11*
X83125002Y-90049999D02*
G75*
G03*
X83125002Y-90049999I-125001J0D01*
G01*
D12*
X85950000Y-96000000D02*
X85950000Y-92000000D01*
X85950000Y-92000000D02*
X85149999Y-92000000D01*
X85149999Y-93599999D02*
X85149999Y-92000000D01*
X85149999Y-93599999D02*
X83899999Y-93599999D01*
X80100001Y-93599999D02*
X78850001Y-93599999D01*
X78850001Y-93599999D02*
X78850001Y-92000000D01*
X78850001Y-92000000D02*
X78050000Y-92000000D01*
X78050000Y-96000000D02*
X78050000Y-92000000D01*
X84200001Y-99600000D02*
X79799999Y-99600000D01*
D11*
X73125002Y-90049999D02*
G75*
G03*
X73125002Y-90049999I-125001J0D01*
G01*
D12*
X75950000Y-96000000D02*
X75950000Y-92000000D01*
X75950000Y-92000000D02*
X75149999Y-92000000D01*
X75149999Y-93599999D02*
X75149999Y-92000000D01*
X75149999Y-93599999D02*
X73899999Y-93599999D01*
X70100001Y-93599999D02*
X68850001Y-93599999D01*
X68850001Y-93599999D02*
X68850001Y-92000000D01*
X68850001Y-92000000D02*
X68050000Y-92000000D01*
X68050000Y-96000000D02*
X68050000Y-92000000D01*
X74200001Y-99600000D02*
X69799999Y-99600000D01*
X108989714Y-75120571D02*
X108846857Y-75168190D01*
X108799238Y-75215809D01*
X108751619Y-75311047D01*
X108751619Y-75453904D01*
X108799238Y-75549142D01*
X108846857Y-75596761D01*
X108942095Y-75644380D01*
X109323047Y-75644380D01*
X109323047Y-74644380D01*
X108989714Y-74644380D01*
X108894476Y-74692000D01*
X108846857Y-74739619D01*
X108799238Y-74834857D01*
X108799238Y-74930095D01*
X108846857Y-75025333D01*
X108894476Y-75072952D01*
X108989714Y-75120571D01*
X109323047Y-75120571D01*
X108465904Y-74644380D02*
X107894476Y-74644380D01*
X108180190Y-75644380D02*
X108180190Y-74644380D01*
X107037333Y-75644380D02*
X107608761Y-75644380D01*
X107323047Y-75644380D02*
X107323047Y-74644380D01*
X107418285Y-74787238D01*
X107513523Y-74882476D01*
X107608761Y-74930095D01*
X86578689Y-88877378D02*
X86578689Y-89591664D01*
X86626308Y-89734521D01*
X86721546Y-89829759D01*
X86864403Y-89877378D01*
X86959641Y-89877378D01*
X85673927Y-88877378D02*
X85864403Y-88877378D01*
X85959641Y-88924998D01*
X86007260Y-88972617D01*
X86102499Y-89115474D01*
X86150118Y-89305950D01*
X86150118Y-89686902D01*
X86102499Y-89782140D01*
X86054879Y-89829759D01*
X85959641Y-89877378D01*
X85769165Y-89877378D01*
X85673927Y-89829759D01*
X85626308Y-89782140D01*
X85578689Y-89686902D01*
X85578689Y-89448807D01*
X85626308Y-89353569D01*
X85673927Y-89305950D01*
X85769165Y-89258331D01*
X85959641Y-89258331D01*
X86054879Y-89305950D01*
X86102499Y-89353569D01*
X86150118Y-89448807D01*
X76578689Y-88877378D02*
X76578689Y-89591664D01*
X76626308Y-89734521D01*
X76721546Y-89829759D01*
X76864403Y-89877378D01*
X76959641Y-89877378D01*
X75626308Y-88877378D02*
X76102499Y-88877378D01*
X76150118Y-89353569D01*
X76102499Y-89305950D01*
X76007260Y-89258331D01*
X75769165Y-89258331D01*
X75673927Y-89305950D01*
X75626308Y-89353569D01*
X75578689Y-89448807D01*
X75578689Y-89686902D01*
X75626308Y-89782140D01*
X75673927Y-89829759D01*
X75769165Y-89877378D01*
X76007260Y-89877378D01*
X76102499Y-89829759D01*
X76150118Y-89782140D01*
M02*
