G04 #@! TF.GenerationSoftware,KiCad,Pcbnew,5.1.10-88a1d61d58~90~ubuntu20.04.1*
G04 #@! TF.CreationDate,2021-08-09T16:52:55-07:00*
G04 #@! TF.ProjectId,PatchV3,50617463-6856-4332-9e6b-696361645f70,rev?*
G04 #@! TF.SameCoordinates,Original*
G04 #@! TF.FileFunction,Paste,Top*
G04 #@! TF.FilePolarity,Positive*
%FSLAX46Y46*%
G04 Gerber Fmt 4.6, Leading zero omitted, Abs format (unit mm)*
G04 Created by KiCad (PCBNEW 5.1.10-88a1d61d58~90~ubuntu20.04.1) date 2021-08-09 16:52:55*
%MOMM*%
%LPD*%
G01*
G04 APERTURE LIST*
%ADD10C,0.025400*%
%ADD11R,1.100000X2.250000*%
%ADD12R,1.050000X1.100000*%
%ADD13R,0.804800X0.300000*%
%ADD14R,0.203200X0.812800*%
%ADD15R,0.812800X0.203200*%
%ADD16R,1.701800X1.701800*%
%ADD17R,0.431800X1.320800*%
%ADD18R,0.355600X1.676400*%
%ADD19R,1.000000X2.300000*%
%ADD20R,2.300000X1.000000*%
%ADD21R,2.400000X1.500000*%
%ADD22R,1.000001X3.500001*%
%ADD23R,1.500000X3.400001*%
%ADD24R,1.900000X1.400000*%
%ADD25R,1.400000X1.800000*%
%ADD26R,1.500000X0.800000*%
%ADD27R,1.000000X0.900000*%
%ADD28R,0.900000X1.000000*%
%ADD29R,0.850000X0.500000*%
G04 APERTURE END LIST*
D10*
G36*
X90690500Y-90793500D02*
G01*
X90690500Y-92213500D01*
X91300500Y-92213500D01*
X91300500Y-90793500D01*
X90690500Y-90793500D01*
G37*
X90690500Y-90793500D02*
X90690500Y-92213500D01*
X91300500Y-92213500D01*
X91300500Y-90793500D01*
X90690500Y-90793500D01*
G36*
G01*
X134768000Y-90253000D02*
X134218000Y-90253000D01*
G75*
G02*
X134018000Y-90053000I0J200000D01*
G01*
X134018000Y-89653000D01*
G75*
G02*
X134218000Y-89453000I200000J0D01*
G01*
X134768000Y-89453000D01*
G75*
G02*
X134968000Y-89653000I0J-200000D01*
G01*
X134968000Y-90053000D01*
G75*
G02*
X134768000Y-90253000I-200000J0D01*
G01*
G37*
G36*
G01*
X134768000Y-91967000D02*
X134218000Y-91967000D01*
G75*
G02*
X134018000Y-91767000I0J200000D01*
G01*
X134018000Y-91367000D01*
G75*
G02*
X134218000Y-91167000I200000J0D01*
G01*
X134768000Y-91167000D01*
G75*
G02*
X134968000Y-91367000I0J-200000D01*
G01*
X134968000Y-91767000D01*
G75*
G02*
X134768000Y-91967000I-200000J0D01*
G01*
G37*
G36*
G01*
X93302000Y-87576000D02*
X93642000Y-87576000D01*
G75*
G02*
X93782000Y-87716000I0J-140000D01*
G01*
X93782000Y-87996000D01*
G75*
G02*
X93642000Y-88136000I-140000J0D01*
G01*
X93302000Y-88136000D01*
G75*
G02*
X93162000Y-87996000I0J140000D01*
G01*
X93162000Y-87716000D01*
G75*
G02*
X93302000Y-87576000I140000J0D01*
G01*
G37*
G36*
G01*
X93302000Y-86616000D02*
X93642000Y-86616000D01*
G75*
G02*
X93782000Y-86756000I0J-140000D01*
G01*
X93782000Y-87036000D01*
G75*
G02*
X93642000Y-87176000I-140000J0D01*
G01*
X93302000Y-87176000D01*
G75*
G02*
X93162000Y-87036000I0J140000D01*
G01*
X93162000Y-86756000D01*
G75*
G02*
X93302000Y-86616000I140000J0D01*
G01*
G37*
D11*
X79932000Y-51816000D03*
X82882000Y-51816000D03*
D12*
X81407000Y-53366000D03*
D13*
X90043100Y-91003500D03*
X90043100Y-91503500D03*
X90043100Y-92003500D03*
X91947900Y-92003500D03*
X91947900Y-91503500D03*
X91947900Y-91003500D03*
D14*
X126521001Y-89242800D03*
X126120999Y-89242800D03*
X125721000Y-89242800D03*
X125321001Y-89242800D03*
X124920999Y-89242800D03*
D15*
X124247800Y-89915999D03*
X124247800Y-90316001D03*
X124247800Y-90716000D03*
X124247800Y-91115999D03*
X124247800Y-91516001D03*
D14*
X124920999Y-92189200D03*
X125321001Y-92189200D03*
X125721000Y-92189200D03*
X126120999Y-92189200D03*
X126521001Y-92189200D03*
D15*
X127194200Y-91516001D03*
X127194200Y-91115999D03*
X127194200Y-90716000D03*
X127194200Y-90316001D03*
X127194200Y-89915999D03*
D16*
X125721000Y-90716000D03*
D17*
X70062999Y-81229200D03*
X69413001Y-81229200D03*
X68762999Y-81229200D03*
X68113001Y-81229200D03*
X68113001Y-83616800D03*
X68762999Y-83616800D03*
X69413001Y-83616800D03*
X70062999Y-83616800D03*
X85810999Y-81229200D03*
X85161001Y-81229200D03*
X84510999Y-81229200D03*
X83861001Y-81229200D03*
X83861001Y-83616800D03*
X84510999Y-83616800D03*
X85161001Y-83616800D03*
X85810999Y-83616800D03*
D18*
X75011999Y-88163400D03*
X75662000Y-88163400D03*
X76312001Y-88163400D03*
X76962000Y-88163400D03*
X77611999Y-88163400D03*
X78262000Y-88163400D03*
X78911999Y-88163400D03*
X78912001Y-82524600D03*
X78262000Y-82524600D03*
X77612001Y-82524600D03*
X76962000Y-82524600D03*
X76312001Y-82524600D03*
X75662000Y-82524600D03*
X75012001Y-82524600D03*
D19*
X68199000Y-71278000D03*
X66949000Y-71278000D03*
X65699000Y-71278000D03*
X64449000Y-71278000D03*
X69449000Y-71278000D03*
X70699000Y-71278000D03*
X71949000Y-71278000D03*
D20*
X74199000Y-65278000D03*
X74199000Y-66528000D03*
X74199000Y-67778000D03*
X74199000Y-69028000D03*
X74199000Y-64028000D03*
X74199000Y-62778000D03*
X74199000Y-61528000D03*
D19*
X68199000Y-59278000D03*
X69449000Y-59278000D03*
X70699000Y-59278000D03*
X71949000Y-59278000D03*
X66949000Y-59278000D03*
X65699000Y-59278000D03*
X64449000Y-59278000D03*
D20*
X62199000Y-65278000D03*
X62199000Y-64028000D03*
X62199000Y-62778000D03*
X62199000Y-61528000D03*
X62199000Y-66528000D03*
X62199000Y-67778000D03*
X62199000Y-69028000D03*
G36*
G01*
X88831000Y-89295000D02*
X88461000Y-89295000D01*
G75*
G02*
X88326000Y-89160000I0J135000D01*
G01*
X88326000Y-88890000D01*
G75*
G02*
X88461000Y-88755000I135000J0D01*
G01*
X88831000Y-88755000D01*
G75*
G02*
X88966000Y-88890000I0J-135000D01*
G01*
X88966000Y-89160000D01*
G75*
G02*
X88831000Y-89295000I-135000J0D01*
G01*
G37*
G36*
G01*
X88831000Y-90315000D02*
X88461000Y-90315000D01*
G75*
G02*
X88326000Y-90180000I0J135000D01*
G01*
X88326000Y-89910000D01*
G75*
G02*
X88461000Y-89775000I135000J0D01*
G01*
X88831000Y-89775000D01*
G75*
G02*
X88966000Y-89910000I0J-135000D01*
G01*
X88966000Y-90180000D01*
G75*
G02*
X88831000Y-90315000I-135000J0D01*
G01*
G37*
G36*
G01*
X88831000Y-91263500D02*
X88461000Y-91263500D01*
G75*
G02*
X88326000Y-91128500I0J135000D01*
G01*
X88326000Y-90858500D01*
G75*
G02*
X88461000Y-90723500I135000J0D01*
G01*
X88831000Y-90723500D01*
G75*
G02*
X88966000Y-90858500I0J-135000D01*
G01*
X88966000Y-91128500D01*
G75*
G02*
X88831000Y-91263500I-135000J0D01*
G01*
G37*
G36*
G01*
X88831000Y-92283500D02*
X88461000Y-92283500D01*
G75*
G02*
X88326000Y-92148500I0J135000D01*
G01*
X88326000Y-91878500D01*
G75*
G02*
X88461000Y-91743500I135000J0D01*
G01*
X88831000Y-91743500D01*
G75*
G02*
X88966000Y-91878500I0J-135000D01*
G01*
X88966000Y-92148500D01*
G75*
G02*
X88831000Y-92283500I-135000J0D01*
G01*
G37*
G36*
G01*
X120202000Y-93877000D02*
X120572000Y-93877000D01*
G75*
G02*
X120707000Y-94012000I0J-135000D01*
G01*
X120707000Y-94282000D01*
G75*
G02*
X120572000Y-94417000I-135000J0D01*
G01*
X120202000Y-94417000D01*
G75*
G02*
X120067000Y-94282000I0J135000D01*
G01*
X120067000Y-94012000D01*
G75*
G02*
X120202000Y-93877000I135000J0D01*
G01*
G37*
G36*
G01*
X120202000Y-92857000D02*
X120572000Y-92857000D01*
G75*
G02*
X120707000Y-92992000I0J-135000D01*
G01*
X120707000Y-93262000D01*
G75*
G02*
X120572000Y-93397000I-135000J0D01*
G01*
X120202000Y-93397000D01*
G75*
G02*
X120067000Y-93262000I0J135000D01*
G01*
X120067000Y-92992000D01*
G75*
G02*
X120202000Y-92857000I135000J0D01*
G01*
G37*
G36*
G01*
X121932000Y-93720000D02*
X121382000Y-93720000D01*
G75*
G02*
X121182000Y-93520000I0J200000D01*
G01*
X121182000Y-93120000D01*
G75*
G02*
X121382000Y-92920000I200000J0D01*
G01*
X121932000Y-92920000D01*
G75*
G02*
X122132000Y-93120000I0J-200000D01*
G01*
X122132000Y-93520000D01*
G75*
G02*
X121932000Y-93720000I-200000J0D01*
G01*
G37*
G36*
G01*
X121932000Y-95370000D02*
X121382000Y-95370000D01*
G75*
G02*
X121182000Y-95170000I0J200000D01*
G01*
X121182000Y-94770000D01*
G75*
G02*
X121382000Y-94570000I200000J0D01*
G01*
X121932000Y-94570000D01*
G75*
G02*
X122132000Y-94770000I0J-200000D01*
G01*
X122132000Y-95170000D01*
G75*
G02*
X121932000Y-95370000I-200000J0D01*
G01*
G37*
G36*
G01*
X123239000Y-93397000D02*
X122869000Y-93397000D01*
G75*
G02*
X122734000Y-93262000I0J135000D01*
G01*
X122734000Y-92992000D01*
G75*
G02*
X122869000Y-92857000I135000J0D01*
G01*
X123239000Y-92857000D01*
G75*
G02*
X123374000Y-92992000I0J-135000D01*
G01*
X123374000Y-93262000D01*
G75*
G02*
X123239000Y-93397000I-135000J0D01*
G01*
G37*
G36*
G01*
X123239000Y-94417000D02*
X122869000Y-94417000D01*
G75*
G02*
X122734000Y-94282000I0J135000D01*
G01*
X122734000Y-94012000D01*
G75*
G02*
X122869000Y-93877000I135000J0D01*
G01*
X123239000Y-93877000D01*
G75*
G02*
X123374000Y-94012000I0J-135000D01*
G01*
X123374000Y-94282000D01*
G75*
G02*
X123239000Y-94417000I-135000J0D01*
G01*
G37*
G36*
G01*
X121133000Y-91282000D02*
X121133000Y-90912000D01*
G75*
G02*
X121268000Y-90777000I135000J0D01*
G01*
X121538000Y-90777000D01*
G75*
G02*
X121673000Y-90912000I0J-135000D01*
G01*
X121673000Y-91282000D01*
G75*
G02*
X121538000Y-91417000I-135000J0D01*
G01*
X121268000Y-91417000D01*
G75*
G02*
X121133000Y-91282000I0J135000D01*
G01*
G37*
G36*
G01*
X120113000Y-91282000D02*
X120113000Y-90912000D01*
G75*
G02*
X120248000Y-90777000I135000J0D01*
G01*
X120518000Y-90777000D01*
G75*
G02*
X120653000Y-90912000I0J-135000D01*
G01*
X120653000Y-91282000D01*
G75*
G02*
X120518000Y-91417000I-135000J0D01*
G01*
X120248000Y-91417000D01*
G75*
G02*
X120113000Y-91282000I0J135000D01*
G01*
G37*
G36*
G01*
X121133000Y-92298000D02*
X121133000Y-91928000D01*
G75*
G02*
X121268000Y-91793000I135000J0D01*
G01*
X121538000Y-91793000D01*
G75*
G02*
X121673000Y-91928000I0J-135000D01*
G01*
X121673000Y-92298000D01*
G75*
G02*
X121538000Y-92433000I-135000J0D01*
G01*
X121268000Y-92433000D01*
G75*
G02*
X121133000Y-92298000I0J135000D01*
G01*
G37*
G36*
G01*
X120113000Y-92298000D02*
X120113000Y-91928000D01*
G75*
G02*
X120248000Y-91793000I135000J0D01*
G01*
X120518000Y-91793000D01*
G75*
G02*
X120653000Y-91928000I0J-135000D01*
G01*
X120653000Y-92298000D01*
G75*
G02*
X120518000Y-92433000I-135000J0D01*
G01*
X120248000Y-92433000D01*
G75*
G02*
X120113000Y-92298000I0J135000D01*
G01*
G37*
G36*
G01*
X120655000Y-88880000D02*
X120655000Y-89250000D01*
G75*
G02*
X120520000Y-89385000I-135000J0D01*
G01*
X120250000Y-89385000D01*
G75*
G02*
X120115000Y-89250000I0J135000D01*
G01*
X120115000Y-88880000D01*
G75*
G02*
X120250000Y-88745000I135000J0D01*
G01*
X120520000Y-88745000D01*
G75*
G02*
X120655000Y-88880000I0J-135000D01*
G01*
G37*
G36*
G01*
X121675000Y-88880000D02*
X121675000Y-89250000D01*
G75*
G02*
X121540000Y-89385000I-135000J0D01*
G01*
X121270000Y-89385000D01*
G75*
G02*
X121135000Y-89250000I0J135000D01*
G01*
X121135000Y-88880000D01*
G75*
G02*
X121270000Y-88745000I135000J0D01*
G01*
X121540000Y-88745000D01*
G75*
G02*
X121675000Y-88880000I0J-135000D01*
G01*
G37*
G36*
G01*
X120662000Y-87826000D02*
X120662000Y-88196000D01*
G75*
G02*
X120527000Y-88331000I-135000J0D01*
G01*
X120257000Y-88331000D01*
G75*
G02*
X120122000Y-88196000I0J135000D01*
G01*
X120122000Y-87826000D01*
G75*
G02*
X120257000Y-87691000I135000J0D01*
G01*
X120527000Y-87691000D01*
G75*
G02*
X120662000Y-87826000I0J-135000D01*
G01*
G37*
G36*
G01*
X121682000Y-87826000D02*
X121682000Y-88196000D01*
G75*
G02*
X121547000Y-88331000I-135000J0D01*
G01*
X121277000Y-88331000D01*
G75*
G02*
X121142000Y-88196000I0J135000D01*
G01*
X121142000Y-87826000D01*
G75*
G02*
X121277000Y-87691000I135000J0D01*
G01*
X121547000Y-87691000D01*
G75*
G02*
X121682000Y-87826000I0J-135000D01*
G01*
G37*
G36*
G01*
X137520000Y-91103000D02*
X138070000Y-91103000D01*
G75*
G02*
X138270000Y-91303000I0J-200000D01*
G01*
X138270000Y-91703000D01*
G75*
G02*
X138070000Y-91903000I-200000J0D01*
G01*
X137520000Y-91903000D01*
G75*
G02*
X137320000Y-91703000I0J200000D01*
G01*
X137320000Y-91303000D01*
G75*
G02*
X137520000Y-91103000I200000J0D01*
G01*
G37*
G36*
G01*
X137520000Y-89453000D02*
X138070000Y-89453000D01*
G75*
G02*
X138270000Y-89653000I0J-200000D01*
G01*
X138270000Y-90053000D01*
G75*
G02*
X138070000Y-90253000I-200000J0D01*
G01*
X137520000Y-90253000D01*
G75*
G02*
X137320000Y-90053000I0J200000D01*
G01*
X137320000Y-89653000D01*
G75*
G02*
X137520000Y-89453000I200000J0D01*
G01*
G37*
G36*
G01*
X136419000Y-90253000D02*
X135869000Y-90253000D01*
G75*
G02*
X135669000Y-90053000I0J200000D01*
G01*
X135669000Y-89653000D01*
G75*
G02*
X135869000Y-89453000I200000J0D01*
G01*
X136419000Y-89453000D01*
G75*
G02*
X136619000Y-89653000I0J-200000D01*
G01*
X136619000Y-90053000D01*
G75*
G02*
X136419000Y-90253000I-200000J0D01*
G01*
G37*
G36*
G01*
X136419000Y-91903000D02*
X135869000Y-91903000D01*
G75*
G02*
X135669000Y-91703000I0J200000D01*
G01*
X135669000Y-91303000D01*
G75*
G02*
X135869000Y-91103000I200000J0D01*
G01*
X136419000Y-91103000D01*
G75*
G02*
X136619000Y-91303000I0J-200000D01*
G01*
X136619000Y-91703000D01*
G75*
G02*
X136419000Y-91903000I-200000J0D01*
G01*
G37*
G36*
G01*
X72321000Y-80278000D02*
X71951000Y-80278000D01*
G75*
G02*
X71816000Y-80143000I0J135000D01*
G01*
X71816000Y-79873000D01*
G75*
G02*
X71951000Y-79738000I135000J0D01*
G01*
X72321000Y-79738000D01*
G75*
G02*
X72456000Y-79873000I0J-135000D01*
G01*
X72456000Y-80143000D01*
G75*
G02*
X72321000Y-80278000I-135000J0D01*
G01*
G37*
G36*
G01*
X72321000Y-81298000D02*
X71951000Y-81298000D01*
G75*
G02*
X71816000Y-81163000I0J135000D01*
G01*
X71816000Y-80893000D01*
G75*
G02*
X71951000Y-80758000I135000J0D01*
G01*
X72321000Y-80758000D01*
G75*
G02*
X72456000Y-80893000I0J-135000D01*
G01*
X72456000Y-81163000D01*
G75*
G02*
X72321000Y-81298000I-135000J0D01*
G01*
G37*
G36*
G01*
X81973000Y-80278000D02*
X81603000Y-80278000D01*
G75*
G02*
X81468000Y-80143000I0J135000D01*
G01*
X81468000Y-79873000D01*
G75*
G02*
X81603000Y-79738000I135000J0D01*
G01*
X81973000Y-79738000D01*
G75*
G02*
X82108000Y-79873000I0J-135000D01*
G01*
X82108000Y-80143000D01*
G75*
G02*
X81973000Y-80278000I-135000J0D01*
G01*
G37*
G36*
G01*
X81973000Y-81298000D02*
X81603000Y-81298000D01*
G75*
G02*
X81468000Y-81163000I0J135000D01*
G01*
X81468000Y-80893000D01*
G75*
G02*
X81603000Y-80758000I135000J0D01*
G01*
X81973000Y-80758000D01*
G75*
G02*
X82108000Y-80893000I0J-135000D01*
G01*
X82108000Y-81163000D01*
G75*
G02*
X81973000Y-81298000I-135000J0D01*
G01*
G37*
G36*
G01*
X72967000Y-80758000D02*
X73337000Y-80758000D01*
G75*
G02*
X73472000Y-80893000I0J-135000D01*
G01*
X73472000Y-81163000D01*
G75*
G02*
X73337000Y-81298000I-135000J0D01*
G01*
X72967000Y-81298000D01*
G75*
G02*
X72832000Y-81163000I0J135000D01*
G01*
X72832000Y-80893000D01*
G75*
G02*
X72967000Y-80758000I135000J0D01*
G01*
G37*
G36*
G01*
X72967000Y-79738000D02*
X73337000Y-79738000D01*
G75*
G02*
X73472000Y-79873000I0J-135000D01*
G01*
X73472000Y-80143000D01*
G75*
G02*
X73337000Y-80278000I-135000J0D01*
G01*
X72967000Y-80278000D01*
G75*
G02*
X72832000Y-80143000I0J135000D01*
G01*
X72832000Y-79873000D01*
G75*
G02*
X72967000Y-79738000I135000J0D01*
G01*
G37*
G36*
G01*
X80587000Y-80758000D02*
X80957000Y-80758000D01*
G75*
G02*
X81092000Y-80893000I0J-135000D01*
G01*
X81092000Y-81163000D01*
G75*
G02*
X80957000Y-81298000I-135000J0D01*
G01*
X80587000Y-81298000D01*
G75*
G02*
X80452000Y-81163000I0J135000D01*
G01*
X80452000Y-80893000D01*
G75*
G02*
X80587000Y-80758000I135000J0D01*
G01*
G37*
G36*
G01*
X80587000Y-79738000D02*
X80957000Y-79738000D01*
G75*
G02*
X81092000Y-79873000I0J-135000D01*
G01*
X81092000Y-80143000D01*
G75*
G02*
X80957000Y-80278000I-135000J0D01*
G01*
X80587000Y-80278000D01*
G75*
G02*
X80452000Y-80143000I0J135000D01*
G01*
X80452000Y-79873000D01*
G75*
G02*
X80587000Y-79738000I135000J0D01*
G01*
G37*
G36*
G01*
X67506000Y-86473000D02*
X67876000Y-86473000D01*
G75*
G02*
X68011000Y-86608000I0J-135000D01*
G01*
X68011000Y-86878000D01*
G75*
G02*
X67876000Y-87013000I-135000J0D01*
G01*
X67506000Y-87013000D01*
G75*
G02*
X67371000Y-86878000I0J135000D01*
G01*
X67371000Y-86608000D01*
G75*
G02*
X67506000Y-86473000I135000J0D01*
G01*
G37*
G36*
G01*
X67506000Y-85453000D02*
X67876000Y-85453000D01*
G75*
G02*
X68011000Y-85588000I0J-135000D01*
G01*
X68011000Y-85858000D01*
G75*
G02*
X67876000Y-85993000I-135000J0D01*
G01*
X67506000Y-85993000D01*
G75*
G02*
X67371000Y-85858000I0J135000D01*
G01*
X67371000Y-85588000D01*
G75*
G02*
X67506000Y-85453000I135000J0D01*
G01*
G37*
G36*
G01*
X83254000Y-86600000D02*
X83624000Y-86600000D01*
G75*
G02*
X83759000Y-86735000I0J-135000D01*
G01*
X83759000Y-87005000D01*
G75*
G02*
X83624000Y-87140000I-135000J0D01*
G01*
X83254000Y-87140000D01*
G75*
G02*
X83119000Y-87005000I0J135000D01*
G01*
X83119000Y-86735000D01*
G75*
G02*
X83254000Y-86600000I135000J0D01*
G01*
G37*
G36*
G01*
X83254000Y-85580000D02*
X83624000Y-85580000D01*
G75*
G02*
X83759000Y-85715000I0J-135000D01*
G01*
X83759000Y-85985000D01*
G75*
G02*
X83624000Y-86120000I-135000J0D01*
G01*
X83254000Y-86120000D01*
G75*
G02*
X83119000Y-85985000I0J135000D01*
G01*
X83119000Y-85715000D01*
G75*
G02*
X83254000Y-85580000I135000J0D01*
G01*
G37*
G36*
G01*
X80587000Y-82790000D02*
X80957000Y-82790000D01*
G75*
G02*
X81092000Y-82925000I0J-135000D01*
G01*
X81092000Y-83195000D01*
G75*
G02*
X80957000Y-83330000I-135000J0D01*
G01*
X80587000Y-83330000D01*
G75*
G02*
X80452000Y-83195000I0J135000D01*
G01*
X80452000Y-82925000D01*
G75*
G02*
X80587000Y-82790000I135000J0D01*
G01*
G37*
G36*
G01*
X80587000Y-81770000D02*
X80957000Y-81770000D01*
G75*
G02*
X81092000Y-81905000I0J-135000D01*
G01*
X81092000Y-82175000D01*
G75*
G02*
X80957000Y-82310000I-135000J0D01*
G01*
X80587000Y-82310000D01*
G75*
G02*
X80452000Y-82175000I0J135000D01*
G01*
X80452000Y-81905000D01*
G75*
G02*
X80587000Y-81770000I135000J0D01*
G01*
G37*
G36*
G01*
X72967000Y-82790000D02*
X73337000Y-82790000D01*
G75*
G02*
X73472000Y-82925000I0J-135000D01*
G01*
X73472000Y-83195000D01*
G75*
G02*
X73337000Y-83330000I-135000J0D01*
G01*
X72967000Y-83330000D01*
G75*
G02*
X72832000Y-83195000I0J135000D01*
G01*
X72832000Y-82925000D01*
G75*
G02*
X72967000Y-82790000I135000J0D01*
G01*
G37*
G36*
G01*
X72967000Y-81770000D02*
X73337000Y-81770000D01*
G75*
G02*
X73472000Y-81905000I0J-135000D01*
G01*
X73472000Y-82175000D01*
G75*
G02*
X73337000Y-82310000I-135000J0D01*
G01*
X72967000Y-82310000D01*
G75*
G02*
X72832000Y-82175000I0J135000D01*
G01*
X72832000Y-81905000D01*
G75*
G02*
X72967000Y-81770000I135000J0D01*
G01*
G37*
G36*
G01*
X81973000Y-82310000D02*
X81603000Y-82310000D01*
G75*
G02*
X81468000Y-82175000I0J135000D01*
G01*
X81468000Y-81905000D01*
G75*
G02*
X81603000Y-81770000I135000J0D01*
G01*
X81973000Y-81770000D01*
G75*
G02*
X82108000Y-81905000I0J-135000D01*
G01*
X82108000Y-82175000D01*
G75*
G02*
X81973000Y-82310000I-135000J0D01*
G01*
G37*
G36*
G01*
X81973000Y-83330000D02*
X81603000Y-83330000D01*
G75*
G02*
X81468000Y-83195000I0J135000D01*
G01*
X81468000Y-82925000D01*
G75*
G02*
X81603000Y-82790000I135000J0D01*
G01*
X81973000Y-82790000D01*
G75*
G02*
X82108000Y-82925000I0J-135000D01*
G01*
X82108000Y-83195000D01*
G75*
G02*
X81973000Y-83330000I-135000J0D01*
G01*
G37*
G36*
G01*
X72321000Y-82310000D02*
X71951000Y-82310000D01*
G75*
G02*
X71816000Y-82175000I0J135000D01*
G01*
X71816000Y-81905000D01*
G75*
G02*
X71951000Y-81770000I135000J0D01*
G01*
X72321000Y-81770000D01*
G75*
G02*
X72456000Y-81905000I0J-135000D01*
G01*
X72456000Y-82175000D01*
G75*
G02*
X72321000Y-82310000I-135000J0D01*
G01*
G37*
G36*
G01*
X72321000Y-83330000D02*
X71951000Y-83330000D01*
G75*
G02*
X71816000Y-83195000I0J135000D01*
G01*
X71816000Y-82925000D01*
G75*
G02*
X71951000Y-82790000I135000J0D01*
G01*
X72321000Y-82790000D01*
G75*
G02*
X72456000Y-82925000I0J-135000D01*
G01*
X72456000Y-83195000D01*
G75*
G02*
X72321000Y-83330000I-135000J0D01*
G01*
G37*
G36*
G01*
X70681000Y-88378000D02*
X71051000Y-88378000D01*
G75*
G02*
X71186000Y-88513000I0J-135000D01*
G01*
X71186000Y-88783000D01*
G75*
G02*
X71051000Y-88918000I-135000J0D01*
G01*
X70681000Y-88918000D01*
G75*
G02*
X70546000Y-88783000I0J135000D01*
G01*
X70546000Y-88513000D01*
G75*
G02*
X70681000Y-88378000I135000J0D01*
G01*
G37*
G36*
G01*
X70681000Y-87358000D02*
X71051000Y-87358000D01*
G75*
G02*
X71186000Y-87493000I0J-135000D01*
G01*
X71186000Y-87763000D01*
G75*
G02*
X71051000Y-87898000I-135000J0D01*
G01*
X70681000Y-87898000D01*
G75*
G02*
X70546000Y-87763000I0J135000D01*
G01*
X70546000Y-87493000D01*
G75*
G02*
X70681000Y-87358000I135000J0D01*
G01*
G37*
G36*
G01*
X81095000Y-88378000D02*
X81465000Y-88378000D01*
G75*
G02*
X81600000Y-88513000I0J-135000D01*
G01*
X81600000Y-88783000D01*
G75*
G02*
X81465000Y-88918000I-135000J0D01*
G01*
X81095000Y-88918000D01*
G75*
G02*
X80960000Y-88783000I0J135000D01*
G01*
X80960000Y-88513000D01*
G75*
G02*
X81095000Y-88378000I135000J0D01*
G01*
G37*
G36*
G01*
X81095000Y-87358000D02*
X81465000Y-87358000D01*
G75*
G02*
X81600000Y-87493000I0J-135000D01*
G01*
X81600000Y-87763000D01*
G75*
G02*
X81465000Y-87898000I-135000J0D01*
G01*
X81095000Y-87898000D01*
G75*
G02*
X80960000Y-87763000I0J135000D01*
G01*
X80960000Y-87493000D01*
G75*
G02*
X81095000Y-87358000I135000J0D01*
G01*
G37*
G36*
G01*
X84187000Y-65590000D02*
X84187000Y-65220000D01*
G75*
G02*
X84322000Y-65085000I135000J0D01*
G01*
X84592000Y-65085000D01*
G75*
G02*
X84727000Y-65220000I0J-135000D01*
G01*
X84727000Y-65590000D01*
G75*
G02*
X84592000Y-65725000I-135000J0D01*
G01*
X84322000Y-65725000D01*
G75*
G02*
X84187000Y-65590000I0J135000D01*
G01*
G37*
G36*
G01*
X83167000Y-65590000D02*
X83167000Y-65220000D01*
G75*
G02*
X83302000Y-65085000I135000J0D01*
G01*
X83572000Y-65085000D01*
G75*
G02*
X83707000Y-65220000I0J-135000D01*
G01*
X83707000Y-65590000D01*
G75*
G02*
X83572000Y-65725000I-135000J0D01*
G01*
X83302000Y-65725000D01*
G75*
G02*
X83167000Y-65590000I0J135000D01*
G01*
G37*
G36*
G01*
X76643200Y-56039600D02*
X76643200Y-55669600D01*
G75*
G02*
X76778200Y-55534600I135000J0D01*
G01*
X77048200Y-55534600D01*
G75*
G02*
X77183200Y-55669600I0J-135000D01*
G01*
X77183200Y-56039600D01*
G75*
G02*
X77048200Y-56174600I-135000J0D01*
G01*
X76778200Y-56174600D01*
G75*
G02*
X76643200Y-56039600I0J135000D01*
G01*
G37*
G36*
G01*
X75623200Y-56039600D02*
X75623200Y-55669600D01*
G75*
G02*
X75758200Y-55534600I135000J0D01*
G01*
X76028200Y-55534600D01*
G75*
G02*
X76163200Y-55669600I0J-135000D01*
G01*
X76163200Y-56039600D01*
G75*
G02*
X76028200Y-56174600I-135000J0D01*
G01*
X75758200Y-56174600D01*
G75*
G02*
X75623200Y-56039600I0J135000D01*
G01*
G37*
D21*
X130810000Y-90860000D03*
X130810000Y-94560000D03*
D22*
X103655999Y-92345999D03*
X105656001Y-92345999D03*
D23*
X101305999Y-98096000D03*
X108006001Y-98096000D03*
G36*
G01*
X92011000Y-87040500D02*
X92011000Y-86695500D01*
G75*
G02*
X92158500Y-86548000I147500J0D01*
G01*
X92453500Y-86548000D01*
G75*
G02*
X92601000Y-86695500I0J-147500D01*
G01*
X92601000Y-87040500D01*
G75*
G02*
X92453500Y-87188000I-147500J0D01*
G01*
X92158500Y-87188000D01*
G75*
G02*
X92011000Y-87040500I0J147500D01*
G01*
G37*
G36*
G01*
X91041000Y-87040500D02*
X91041000Y-86695500D01*
G75*
G02*
X91188500Y-86548000I147500J0D01*
G01*
X91483500Y-86548000D01*
G75*
G02*
X91631000Y-86695500I0J-147500D01*
G01*
X91631000Y-87040500D01*
G75*
G02*
X91483500Y-87188000I-147500J0D01*
G01*
X91188500Y-87188000D01*
G75*
G02*
X91041000Y-87040500I0J147500D01*
G01*
G37*
G36*
G01*
X87038000Y-91367000D02*
X86698000Y-91367000D01*
G75*
G02*
X86558000Y-91227000I0J140000D01*
G01*
X86558000Y-90947000D01*
G75*
G02*
X86698000Y-90807000I140000J0D01*
G01*
X87038000Y-90807000D01*
G75*
G02*
X87178000Y-90947000I0J-140000D01*
G01*
X87178000Y-91227000D01*
G75*
G02*
X87038000Y-91367000I-140000J0D01*
G01*
G37*
G36*
G01*
X87038000Y-92327000D02*
X86698000Y-92327000D01*
G75*
G02*
X86558000Y-92187000I0J140000D01*
G01*
X86558000Y-91907000D01*
G75*
G02*
X86698000Y-91767000I140000J0D01*
G01*
X87038000Y-91767000D01*
G75*
G02*
X87178000Y-91907000I0J-140000D01*
G01*
X87178000Y-92187000D01*
G75*
G02*
X87038000Y-92327000I-140000J0D01*
G01*
G37*
G36*
G01*
X93705500Y-91303500D02*
X93365500Y-91303500D01*
G75*
G02*
X93225500Y-91163500I0J140000D01*
G01*
X93225500Y-90883500D01*
G75*
G02*
X93365500Y-90743500I140000J0D01*
G01*
X93705500Y-90743500D01*
G75*
G02*
X93845500Y-90883500I0J-140000D01*
G01*
X93845500Y-91163500D01*
G75*
G02*
X93705500Y-91303500I-140000J0D01*
G01*
G37*
G36*
G01*
X93705500Y-92263500D02*
X93365500Y-92263500D01*
G75*
G02*
X93225500Y-92123500I0J140000D01*
G01*
X93225500Y-91843500D01*
G75*
G02*
X93365500Y-91703500I140000J0D01*
G01*
X93705500Y-91703500D01*
G75*
G02*
X93845500Y-91843500I0J-140000D01*
G01*
X93845500Y-92123500D01*
G75*
G02*
X93705500Y-92263500I-140000J0D01*
G01*
G37*
G36*
G01*
X130707000Y-97897000D02*
X131657000Y-97897000D01*
G75*
G02*
X131907000Y-98147000I0J-250000D01*
G01*
X131907000Y-98647000D01*
G75*
G02*
X131657000Y-98897000I-250000J0D01*
G01*
X130707000Y-98897000D01*
G75*
G02*
X130457000Y-98647000I0J250000D01*
G01*
X130457000Y-98147000D01*
G75*
G02*
X130707000Y-97897000I250000J0D01*
G01*
G37*
G36*
G01*
X130707000Y-95997000D02*
X131657000Y-95997000D01*
G75*
G02*
X131907000Y-96247000I0J-250000D01*
G01*
X131907000Y-96747000D01*
G75*
G02*
X131657000Y-96997000I-250000J0D01*
G01*
X130707000Y-96997000D01*
G75*
G02*
X130457000Y-96747000I0J250000D01*
G01*
X130457000Y-96247000D01*
G75*
G02*
X130707000Y-95997000I250000J0D01*
G01*
G37*
G36*
G01*
X126048000Y-95585000D02*
X126048000Y-95245000D01*
G75*
G02*
X126188000Y-95105000I140000J0D01*
G01*
X126468000Y-95105000D01*
G75*
G02*
X126608000Y-95245000I0J-140000D01*
G01*
X126608000Y-95585000D01*
G75*
G02*
X126468000Y-95725000I-140000J0D01*
G01*
X126188000Y-95725000D01*
G75*
G02*
X126048000Y-95585000I0J140000D01*
G01*
G37*
G36*
G01*
X125088000Y-95585000D02*
X125088000Y-95245000D01*
G75*
G02*
X125228000Y-95105000I140000J0D01*
G01*
X125508000Y-95105000D01*
G75*
G02*
X125648000Y-95245000I0J-140000D01*
G01*
X125648000Y-95585000D01*
G75*
G02*
X125508000Y-95725000I-140000J0D01*
G01*
X125228000Y-95725000D01*
G75*
G02*
X125088000Y-95585000I0J140000D01*
G01*
G37*
G36*
G01*
X120695000Y-89911000D02*
X120695000Y-90251000D01*
G75*
G02*
X120555000Y-90391000I-140000J0D01*
G01*
X120275000Y-90391000D01*
G75*
G02*
X120135000Y-90251000I0J140000D01*
G01*
X120135000Y-89911000D01*
G75*
G02*
X120275000Y-89771000I140000J0D01*
G01*
X120555000Y-89771000D01*
G75*
G02*
X120695000Y-89911000I0J-140000D01*
G01*
G37*
G36*
G01*
X121655000Y-89911000D02*
X121655000Y-90251000D01*
G75*
G02*
X121515000Y-90391000I-140000J0D01*
G01*
X121235000Y-90391000D01*
G75*
G02*
X121095000Y-90251000I0J140000D01*
G01*
X121095000Y-89911000D01*
G75*
G02*
X121235000Y-89771000I140000J0D01*
G01*
X121515000Y-89771000D01*
G75*
G02*
X121655000Y-89911000I0J-140000D01*
G01*
G37*
G36*
G01*
X123244000Y-87587000D02*
X123244000Y-87927000D01*
G75*
G02*
X123104000Y-88067000I-140000J0D01*
G01*
X122824000Y-88067000D01*
G75*
G02*
X122684000Y-87927000I0J140000D01*
G01*
X122684000Y-87587000D01*
G75*
G02*
X122824000Y-87447000I140000J0D01*
G01*
X123104000Y-87447000D01*
G75*
G02*
X123244000Y-87587000I0J-140000D01*
G01*
G37*
G36*
G01*
X124204000Y-87587000D02*
X124204000Y-87927000D01*
G75*
G02*
X124064000Y-88067000I-140000J0D01*
G01*
X123784000Y-88067000D01*
G75*
G02*
X123644000Y-87927000I0J140000D01*
G01*
X123644000Y-87587000D01*
G75*
G02*
X123784000Y-87447000I140000J0D01*
G01*
X124064000Y-87447000D01*
G75*
G02*
X124204000Y-87587000I0J-140000D01*
G01*
G37*
G36*
G01*
X130100000Y-88408000D02*
X129760000Y-88408000D01*
G75*
G02*
X129620000Y-88268000I0J140000D01*
G01*
X129620000Y-87988000D01*
G75*
G02*
X129760000Y-87848000I140000J0D01*
G01*
X130100000Y-87848000D01*
G75*
G02*
X130240000Y-87988000I0J-140000D01*
G01*
X130240000Y-88268000D01*
G75*
G02*
X130100000Y-88408000I-140000J0D01*
G01*
G37*
G36*
G01*
X130100000Y-89368000D02*
X129760000Y-89368000D01*
G75*
G02*
X129620000Y-89228000I0J140000D01*
G01*
X129620000Y-88948000D01*
G75*
G02*
X129760000Y-88808000I140000J0D01*
G01*
X130100000Y-88808000D01*
G75*
G02*
X130240000Y-88948000I0J-140000D01*
G01*
X130240000Y-89228000D01*
G75*
G02*
X130100000Y-89368000I-140000J0D01*
G01*
G37*
G36*
G01*
X128957000Y-88408000D02*
X128617000Y-88408000D01*
G75*
G02*
X128477000Y-88268000I0J140000D01*
G01*
X128477000Y-87988000D01*
G75*
G02*
X128617000Y-87848000I140000J0D01*
G01*
X128957000Y-87848000D01*
G75*
G02*
X129097000Y-87988000I0J-140000D01*
G01*
X129097000Y-88268000D01*
G75*
G02*
X128957000Y-88408000I-140000J0D01*
G01*
G37*
G36*
G01*
X128957000Y-89368000D02*
X128617000Y-89368000D01*
G75*
G02*
X128477000Y-89228000I0J140000D01*
G01*
X128477000Y-88948000D01*
G75*
G02*
X128617000Y-88808000I140000J0D01*
G01*
X128957000Y-88808000D01*
G75*
G02*
X129097000Y-88948000I0J-140000D01*
G01*
X129097000Y-89228000D01*
G75*
G02*
X128957000Y-89368000I-140000J0D01*
G01*
G37*
G36*
G01*
X72844000Y-79164000D02*
X72844000Y-78824000D01*
G75*
G02*
X72984000Y-78684000I140000J0D01*
G01*
X73264000Y-78684000D01*
G75*
G02*
X73404000Y-78824000I0J-140000D01*
G01*
X73404000Y-79164000D01*
G75*
G02*
X73264000Y-79304000I-140000J0D01*
G01*
X72984000Y-79304000D01*
G75*
G02*
X72844000Y-79164000I0J140000D01*
G01*
G37*
G36*
G01*
X71884000Y-79164000D02*
X71884000Y-78824000D01*
G75*
G02*
X72024000Y-78684000I140000J0D01*
G01*
X72304000Y-78684000D01*
G75*
G02*
X72444000Y-78824000I0J-140000D01*
G01*
X72444000Y-79164000D01*
G75*
G02*
X72304000Y-79304000I-140000J0D01*
G01*
X72024000Y-79304000D01*
G75*
G02*
X71884000Y-79164000I0J140000D01*
G01*
G37*
G36*
G01*
X81480000Y-79100500D02*
X81480000Y-78760500D01*
G75*
G02*
X81620000Y-78620500I140000J0D01*
G01*
X81900000Y-78620500D01*
G75*
G02*
X82040000Y-78760500I0J-140000D01*
G01*
X82040000Y-79100500D01*
G75*
G02*
X81900000Y-79240500I-140000J0D01*
G01*
X81620000Y-79240500D01*
G75*
G02*
X81480000Y-79100500I0J140000D01*
G01*
G37*
G36*
G01*
X80520000Y-79100500D02*
X80520000Y-78760500D01*
G75*
G02*
X80660000Y-78620500I140000J0D01*
G01*
X80940000Y-78620500D01*
G75*
G02*
X81080000Y-78760500I0J-140000D01*
G01*
X81080000Y-79100500D01*
G75*
G02*
X80940000Y-79240500I-140000J0D01*
G01*
X80660000Y-79240500D01*
G75*
G02*
X80520000Y-79100500I0J140000D01*
G01*
G37*
G36*
G01*
X68877000Y-86005000D02*
X68537000Y-86005000D01*
G75*
G02*
X68397000Y-85865000I0J140000D01*
G01*
X68397000Y-85585000D01*
G75*
G02*
X68537000Y-85445000I140000J0D01*
G01*
X68877000Y-85445000D01*
G75*
G02*
X69017000Y-85585000I0J-140000D01*
G01*
X69017000Y-85865000D01*
G75*
G02*
X68877000Y-86005000I-140000J0D01*
G01*
G37*
G36*
G01*
X68877000Y-86965000D02*
X68537000Y-86965000D01*
G75*
G02*
X68397000Y-86825000I0J140000D01*
G01*
X68397000Y-86545000D01*
G75*
G02*
X68537000Y-86405000I140000J0D01*
G01*
X68877000Y-86405000D01*
G75*
G02*
X69017000Y-86545000I0J-140000D01*
G01*
X69017000Y-86825000D01*
G75*
G02*
X68877000Y-86965000I-140000J0D01*
G01*
G37*
G36*
G01*
X84625000Y-86160000D02*
X84285000Y-86160000D01*
G75*
G02*
X84145000Y-86020000I0J140000D01*
G01*
X84145000Y-85740000D01*
G75*
G02*
X84285000Y-85600000I140000J0D01*
G01*
X84625000Y-85600000D01*
G75*
G02*
X84765000Y-85740000I0J-140000D01*
G01*
X84765000Y-86020000D01*
G75*
G02*
X84625000Y-86160000I-140000J0D01*
G01*
G37*
G36*
G01*
X84625000Y-87120000D02*
X84285000Y-87120000D01*
G75*
G02*
X84145000Y-86980000I0J140000D01*
G01*
X84145000Y-86700000D01*
G75*
G02*
X84285000Y-86560000I140000J0D01*
G01*
X84625000Y-86560000D01*
G75*
G02*
X84765000Y-86700000I0J-140000D01*
G01*
X84765000Y-86980000D01*
G75*
G02*
X84625000Y-87120000I-140000J0D01*
G01*
G37*
G36*
G01*
X67999000Y-79205000D02*
X67999000Y-79545000D01*
G75*
G02*
X67859000Y-79685000I-140000J0D01*
G01*
X67579000Y-79685000D01*
G75*
G02*
X67439000Y-79545000I0J140000D01*
G01*
X67439000Y-79205000D01*
G75*
G02*
X67579000Y-79065000I140000J0D01*
G01*
X67859000Y-79065000D01*
G75*
G02*
X67999000Y-79205000I0J-140000D01*
G01*
G37*
G36*
G01*
X68959000Y-79205000D02*
X68959000Y-79545000D01*
G75*
G02*
X68819000Y-79685000I-140000J0D01*
G01*
X68539000Y-79685000D01*
G75*
G02*
X68399000Y-79545000I0J140000D01*
G01*
X68399000Y-79205000D01*
G75*
G02*
X68539000Y-79065000I140000J0D01*
G01*
X68819000Y-79065000D01*
G75*
G02*
X68959000Y-79205000I0J-140000D01*
G01*
G37*
G36*
G01*
X83810500Y-79205000D02*
X83810500Y-79545000D01*
G75*
G02*
X83670500Y-79685000I-140000J0D01*
G01*
X83390500Y-79685000D01*
G75*
G02*
X83250500Y-79545000I0J140000D01*
G01*
X83250500Y-79205000D01*
G75*
G02*
X83390500Y-79065000I140000J0D01*
G01*
X83670500Y-79065000D01*
G75*
G02*
X83810500Y-79205000I0J-140000D01*
G01*
G37*
G36*
G01*
X84770500Y-79205000D02*
X84770500Y-79545000D01*
G75*
G02*
X84630500Y-79685000I-140000J0D01*
G01*
X84350500Y-79685000D01*
G75*
G02*
X84210500Y-79545000I0J140000D01*
G01*
X84210500Y-79205000D01*
G75*
G02*
X84350500Y-79065000I140000J0D01*
G01*
X84630500Y-79065000D01*
G75*
G02*
X84770500Y-79205000I0J-140000D01*
G01*
G37*
G36*
G01*
X90000000Y-87576000D02*
X90340000Y-87576000D01*
G75*
G02*
X90480000Y-87716000I0J-140000D01*
G01*
X90480000Y-87996000D01*
G75*
G02*
X90340000Y-88136000I-140000J0D01*
G01*
X90000000Y-88136000D01*
G75*
G02*
X89860000Y-87996000I0J140000D01*
G01*
X89860000Y-87716000D01*
G75*
G02*
X90000000Y-87576000I140000J0D01*
G01*
G37*
G36*
G01*
X90000000Y-86616000D02*
X90340000Y-86616000D01*
G75*
G02*
X90480000Y-86756000I0J-140000D01*
G01*
X90480000Y-87036000D01*
G75*
G02*
X90340000Y-87176000I-140000J0D01*
G01*
X90000000Y-87176000D01*
G75*
G02*
X89860000Y-87036000I0J140000D01*
G01*
X89860000Y-86756000D01*
G75*
G02*
X90000000Y-86616000I140000J0D01*
G01*
G37*
G36*
G01*
X86560000Y-85514000D02*
X86560000Y-85174000D01*
G75*
G02*
X86700000Y-85034000I140000J0D01*
G01*
X86980000Y-85034000D01*
G75*
G02*
X87120000Y-85174000I0J-140000D01*
G01*
X87120000Y-85514000D01*
G75*
G02*
X86980000Y-85654000I-140000J0D01*
G01*
X86700000Y-85654000D01*
G75*
G02*
X86560000Y-85514000I0J140000D01*
G01*
G37*
G36*
G01*
X85600000Y-85514000D02*
X85600000Y-85174000D01*
G75*
G02*
X85740000Y-85034000I140000J0D01*
G01*
X86020000Y-85034000D01*
G75*
G02*
X86160000Y-85174000I0J-140000D01*
G01*
X86160000Y-85514000D01*
G75*
G02*
X86020000Y-85654000I-140000J0D01*
G01*
X85740000Y-85654000D01*
G75*
G02*
X85600000Y-85514000I0J140000D01*
G01*
G37*
G36*
G01*
X70911000Y-85387000D02*
X70911000Y-85047000D01*
G75*
G02*
X71051000Y-84907000I140000J0D01*
G01*
X71331000Y-84907000D01*
G75*
G02*
X71471000Y-85047000I0J-140000D01*
G01*
X71471000Y-85387000D01*
G75*
G02*
X71331000Y-85527000I-140000J0D01*
G01*
X71051000Y-85527000D01*
G75*
G02*
X70911000Y-85387000I0J140000D01*
G01*
G37*
G36*
G01*
X69951000Y-85387000D02*
X69951000Y-85047000D01*
G75*
G02*
X70091000Y-84907000I140000J0D01*
G01*
X70371000Y-84907000D01*
G75*
G02*
X70511000Y-85047000I0J-140000D01*
G01*
X70511000Y-85387000D01*
G75*
G02*
X70371000Y-85527000I-140000J0D01*
G01*
X70091000Y-85527000D01*
G75*
G02*
X69951000Y-85387000I0J140000D01*
G01*
G37*
G36*
G01*
X77132000Y-79556000D02*
X76792000Y-79556000D01*
G75*
G02*
X76652000Y-79416000I0J140000D01*
G01*
X76652000Y-79136000D01*
G75*
G02*
X76792000Y-78996000I140000J0D01*
G01*
X77132000Y-78996000D01*
G75*
G02*
X77272000Y-79136000I0J-140000D01*
G01*
X77272000Y-79416000D01*
G75*
G02*
X77132000Y-79556000I-140000J0D01*
G01*
G37*
G36*
G01*
X77132000Y-80516000D02*
X76792000Y-80516000D01*
G75*
G02*
X76652000Y-80376000I0J140000D01*
G01*
X76652000Y-80096000D01*
G75*
G02*
X76792000Y-79956000I140000J0D01*
G01*
X77132000Y-79956000D01*
G75*
G02*
X77272000Y-80096000I0J-140000D01*
G01*
X77272000Y-80376000D01*
G75*
G02*
X77132000Y-80516000I-140000J0D01*
G01*
G37*
G36*
G01*
X58747000Y-94023000D02*
X58747000Y-93683000D01*
G75*
G02*
X58887000Y-93543000I140000J0D01*
G01*
X59167000Y-93543000D01*
G75*
G02*
X59307000Y-93683000I0J-140000D01*
G01*
X59307000Y-94023000D01*
G75*
G02*
X59167000Y-94163000I-140000J0D01*
G01*
X58887000Y-94163000D01*
G75*
G02*
X58747000Y-94023000I0J140000D01*
G01*
G37*
G36*
G01*
X57787000Y-94023000D02*
X57787000Y-93683000D01*
G75*
G02*
X57927000Y-93543000I140000J0D01*
G01*
X58207000Y-93543000D01*
G75*
G02*
X58347000Y-93683000I0J-140000D01*
G01*
X58347000Y-94023000D01*
G75*
G02*
X58207000Y-94163000I-140000J0D01*
G01*
X57927000Y-94163000D01*
G75*
G02*
X57787000Y-94023000I0J140000D01*
G01*
G37*
G36*
G01*
X62060000Y-52778000D02*
X62400000Y-52778000D01*
G75*
G02*
X62540000Y-52918000I0J-140000D01*
G01*
X62540000Y-53198000D01*
G75*
G02*
X62400000Y-53338000I-140000J0D01*
G01*
X62060000Y-53338000D01*
G75*
G02*
X61920000Y-53198000I0J140000D01*
G01*
X61920000Y-52918000D01*
G75*
G02*
X62060000Y-52778000I140000J0D01*
G01*
G37*
G36*
G01*
X62060000Y-51818000D02*
X62400000Y-51818000D01*
G75*
G02*
X62540000Y-51958000I0J-140000D01*
G01*
X62540000Y-52238000D01*
G75*
G02*
X62400000Y-52378000I-140000J0D01*
G01*
X62060000Y-52378000D01*
G75*
G02*
X61920000Y-52238000I0J140000D01*
G01*
X61920000Y-51958000D01*
G75*
G02*
X62060000Y-51818000I140000J0D01*
G01*
G37*
G36*
G01*
X78097200Y-55146600D02*
X77757200Y-55146600D01*
G75*
G02*
X77617200Y-55006600I0J140000D01*
G01*
X77617200Y-54726600D01*
G75*
G02*
X77757200Y-54586600I140000J0D01*
G01*
X78097200Y-54586600D01*
G75*
G02*
X78237200Y-54726600I0J-140000D01*
G01*
X78237200Y-55006600D01*
G75*
G02*
X78097200Y-55146600I-140000J0D01*
G01*
G37*
G36*
G01*
X78097200Y-56106600D02*
X77757200Y-56106600D01*
G75*
G02*
X77617200Y-55966600I0J140000D01*
G01*
X77617200Y-55686600D01*
G75*
G02*
X77757200Y-55546600I140000J0D01*
G01*
X78097200Y-55546600D01*
G75*
G02*
X78237200Y-55686600I0J-140000D01*
G01*
X78237200Y-55966600D01*
G75*
G02*
X78097200Y-56106600I-140000J0D01*
G01*
G37*
G36*
G01*
X75049200Y-55146600D02*
X74709200Y-55146600D01*
G75*
G02*
X74569200Y-55006600I0J140000D01*
G01*
X74569200Y-54726600D01*
G75*
G02*
X74709200Y-54586600I140000J0D01*
G01*
X75049200Y-54586600D01*
G75*
G02*
X75189200Y-54726600I0J-140000D01*
G01*
X75189200Y-55006600D01*
G75*
G02*
X75049200Y-55146600I-140000J0D01*
G01*
G37*
G36*
G01*
X75049200Y-56106600D02*
X74709200Y-56106600D01*
G75*
G02*
X74569200Y-55966600I0J140000D01*
G01*
X74569200Y-55686600D01*
G75*
G02*
X74709200Y-55546600I140000J0D01*
G01*
X75049200Y-55546600D01*
G75*
G02*
X75189200Y-55686600I0J-140000D01*
G01*
X75189200Y-55966600D01*
G75*
G02*
X75049200Y-56106600I-140000J0D01*
G01*
G37*
G36*
G01*
X65224000Y-73576000D02*
X65224000Y-73236000D01*
G75*
G02*
X65364000Y-73096000I140000J0D01*
G01*
X65644000Y-73096000D01*
G75*
G02*
X65784000Y-73236000I0J-140000D01*
G01*
X65784000Y-73576000D01*
G75*
G02*
X65644000Y-73716000I-140000J0D01*
G01*
X65364000Y-73716000D01*
G75*
G02*
X65224000Y-73576000I0J140000D01*
G01*
G37*
G36*
G01*
X64264000Y-73576000D02*
X64264000Y-73236000D01*
G75*
G02*
X64404000Y-73096000I140000J0D01*
G01*
X64684000Y-73096000D01*
G75*
G02*
X64824000Y-73236000I0J-140000D01*
G01*
X64824000Y-73576000D01*
G75*
G02*
X64684000Y-73716000I-140000J0D01*
G01*
X64404000Y-73716000D01*
G75*
G02*
X64264000Y-73576000I0J140000D01*
G01*
G37*
D24*
X51450000Y-91860000D03*
X52450000Y-78350000D03*
D25*
X65600000Y-80310000D03*
X65600000Y-86010000D03*
D26*
X55300000Y-79500000D03*
X55300000Y-80600000D03*
X55100000Y-81700000D03*
X55300000Y-82800000D03*
X55100000Y-83900000D03*
X55300000Y-85000000D03*
X55700000Y-86100000D03*
X55300000Y-87200000D03*
D27*
X53505000Y-61105000D03*
X51905000Y-61105000D03*
X51905000Y-57005000D03*
X53505000Y-57005000D03*
D28*
X68598000Y-51778000D03*
X68598000Y-53378000D03*
X64498000Y-53378000D03*
X64498000Y-51778000D03*
G36*
G01*
X51593500Y-52689000D02*
X51248500Y-52689000D01*
G75*
G02*
X51101000Y-52541500I0J147500D01*
G01*
X51101000Y-52246500D01*
G75*
G02*
X51248500Y-52099000I147500J0D01*
G01*
X51593500Y-52099000D01*
G75*
G02*
X51741000Y-52246500I0J-147500D01*
G01*
X51741000Y-52541500D01*
G75*
G02*
X51593500Y-52689000I-147500J0D01*
G01*
G37*
G36*
G01*
X51593500Y-53659000D02*
X51248500Y-53659000D01*
G75*
G02*
X51101000Y-53511500I0J147500D01*
G01*
X51101000Y-53216500D01*
G75*
G02*
X51248500Y-53069000I147500J0D01*
G01*
X51593500Y-53069000D01*
G75*
G02*
X51741000Y-53216500I0J-147500D01*
G01*
X51741000Y-53511500D01*
G75*
G02*
X51593500Y-53659000I-147500J0D01*
G01*
G37*
G36*
G01*
X52693500Y-52689000D02*
X52348500Y-52689000D01*
G75*
G02*
X52201000Y-52541500I0J147500D01*
G01*
X52201000Y-52246500D01*
G75*
G02*
X52348500Y-52099000I147500J0D01*
G01*
X52693500Y-52099000D01*
G75*
G02*
X52841000Y-52246500I0J-147500D01*
G01*
X52841000Y-52541500D01*
G75*
G02*
X52693500Y-52689000I-147500J0D01*
G01*
G37*
G36*
G01*
X52693500Y-53659000D02*
X52348500Y-53659000D01*
G75*
G02*
X52201000Y-53511500I0J147500D01*
G01*
X52201000Y-53216500D01*
G75*
G02*
X52348500Y-53069000I147500J0D01*
G01*
X52693500Y-53069000D01*
G75*
G02*
X52841000Y-53216500I0J-147500D01*
G01*
X52841000Y-53511500D01*
G75*
G02*
X52693500Y-53659000I-147500J0D01*
G01*
G37*
G36*
G01*
X53793500Y-52689000D02*
X53448500Y-52689000D01*
G75*
G02*
X53301000Y-52541500I0J147500D01*
G01*
X53301000Y-52246500D01*
G75*
G02*
X53448500Y-52099000I147500J0D01*
G01*
X53793500Y-52099000D01*
G75*
G02*
X53941000Y-52246500I0J-147500D01*
G01*
X53941000Y-52541500D01*
G75*
G02*
X53793500Y-52689000I-147500J0D01*
G01*
G37*
G36*
G01*
X53793500Y-53659000D02*
X53448500Y-53659000D01*
G75*
G02*
X53301000Y-53511500I0J147500D01*
G01*
X53301000Y-53216500D01*
G75*
G02*
X53448500Y-53069000I147500J0D01*
G01*
X53793500Y-53069000D01*
G75*
G02*
X53941000Y-53216500I0J-147500D01*
G01*
X53941000Y-53511500D01*
G75*
G02*
X53793500Y-53659000I-147500J0D01*
G01*
G37*
G36*
G01*
X53785000Y-63073500D02*
X53785000Y-63418500D01*
G75*
G02*
X53637500Y-63566000I-147500J0D01*
G01*
X53342500Y-63566000D01*
G75*
G02*
X53195000Y-63418500I0J147500D01*
G01*
X53195000Y-63073500D01*
G75*
G02*
X53342500Y-62926000I147500J0D01*
G01*
X53637500Y-62926000D01*
G75*
G02*
X53785000Y-63073500I0J-147500D01*
G01*
G37*
G36*
G01*
X54755000Y-63073500D02*
X54755000Y-63418500D01*
G75*
G02*
X54607500Y-63566000I-147500J0D01*
G01*
X54312500Y-63566000D01*
G75*
G02*
X54165000Y-63418500I0J147500D01*
G01*
X54165000Y-63073500D01*
G75*
G02*
X54312500Y-62926000I147500J0D01*
G01*
X54607500Y-62926000D01*
G75*
G02*
X54755000Y-63073500I0J-147500D01*
G01*
G37*
D29*
X57296000Y-51379000D03*
X55546000Y-51379000D03*
X55546000Y-52379000D03*
X57296000Y-52379000D03*
M02*
