G04 #@! TF.GenerationSoftware,KiCad,Pcbnew,5.1.10-88a1d61d58~90~ubuntu20.04.1*
G04 #@! TF.CreationDate,2021-08-09T16:52:55-07:00*
G04 #@! TF.ProjectId,PatchV3,50617463-6856-4332-9e6b-696361645f70,rev?*
G04 #@! TF.SameCoordinates,Original*
G04 #@! TF.FileFunction,Copper,L4,Bot*
G04 #@! TF.FilePolarity,Positive*
%FSLAX46Y46*%
G04 Gerber Fmt 4.6, Leading zero omitted, Abs format (unit mm)*
G04 Created by KiCad (PCBNEW 5.1.10-88a1d61d58~90~ubuntu20.04.1) date 2021-08-09 16:52:55*
%MOMM*%
%LPD*%
G01*
G04 APERTURE LIST*
G04 #@! TA.AperFunction,ComponentPad*
%ADD10O,1.700000X1.700000*%
G04 #@! TD*
G04 #@! TA.AperFunction,ComponentPad*
%ADD11R,1.700000X1.700000*%
G04 #@! TD*
G04 #@! TA.AperFunction,ComponentPad*
%ADD12C,3.000000*%
G04 #@! TD*
G04 #@! TA.AperFunction,ComponentPad*
%ADD13O,1.000000X1.000000*%
G04 #@! TD*
G04 #@! TA.AperFunction,ComponentPad*
%ADD14R,1.000000X1.000000*%
G04 #@! TD*
G04 #@! TA.AperFunction,SMDPad,CuDef*
%ADD15R,4.000000X3.000000*%
G04 #@! TD*
G04 #@! TA.AperFunction,ComponentPad*
%ADD16C,5.000000*%
G04 #@! TD*
G04 #@! TA.AperFunction,SMDPad,CuDef*
%ADD17R,1.000001X3.500001*%
G04 #@! TD*
G04 #@! TA.AperFunction,SMDPad,CuDef*
%ADD18R,1.500000X3.400001*%
G04 #@! TD*
G04 #@! TA.AperFunction,ViaPad*
%ADD19C,0.700000*%
G04 #@! TD*
G04 #@! TA.AperFunction,ViaPad*
%ADD20C,0.800000*%
G04 #@! TD*
G04 #@! TA.AperFunction,Conductor*
%ADD21C,0.381000*%
G04 #@! TD*
G04 #@! TA.AperFunction,Conductor*
%ADD22C,0.177800*%
G04 #@! TD*
G04 #@! TA.AperFunction,Conductor*
%ADD23C,0.254000*%
G04 #@! TD*
G04 #@! TA.AperFunction,Conductor*
%ADD24C,0.100000*%
G04 #@! TD*
G04 APERTURE END LIST*
D10*
X51689000Y-66802000D03*
X54229000Y-66802000D03*
X51689000Y-69342000D03*
X54229000Y-69342000D03*
X51689000Y-71882000D03*
X54229000Y-71882000D03*
X51689000Y-74422000D03*
D11*
X54229000Y-74422000D03*
D12*
X100500000Y-69000000D03*
X139500000Y-69000000D03*
D10*
X117348000Y-92837000D03*
X117348000Y-95377000D03*
D11*
X117348000Y-97917000D03*
D10*
X127880000Y-97828000D03*
D11*
X125340000Y-97828000D03*
D13*
X85979000Y-63119000D03*
X85979000Y-61849000D03*
X84709000Y-63119000D03*
X84709000Y-61849000D03*
X83439000Y-63119000D03*
X83439000Y-61849000D03*
X82169000Y-63119000D03*
D14*
X82169000Y-61849000D03*
D15*
X127879000Y-78692000D03*
X127879000Y-72692000D03*
D16*
X90800000Y-52800000D03*
X112500000Y-97200000D03*
X147200000Y-52800000D03*
X147200000Y-97200000D03*
X52800000Y-97200000D03*
D17*
X83000001Y-92349999D03*
X80999999Y-92349999D03*
D18*
X85350001Y-98100000D03*
X78649999Y-98100000D03*
D17*
X73000001Y-92349999D03*
X70999999Y-92349999D03*
D18*
X75350001Y-98100000D03*
X68649999Y-98100000D03*
D19*
X85021068Y-54445642D03*
X85036396Y-53059128D03*
X85027384Y-51671198D03*
X76427629Y-57126600D03*
X73254739Y-57128045D03*
X74880356Y-57126599D03*
X79437377Y-57127728D03*
X80943382Y-57064058D03*
X82198108Y-56271701D03*
X82706115Y-54877137D03*
X77926229Y-57126600D03*
X75801491Y-52090800D03*
X74289982Y-52090800D03*
X72917459Y-52555990D03*
X71224128Y-54025626D03*
X70253585Y-54929798D03*
X70201000Y-56316791D03*
X77313000Y-52090800D03*
X72614000Y-53995800D03*
X76962000Y-78486000D03*
X66167000Y-73279000D03*
X83058000Y-89916000D03*
X73025000Y-90043000D03*
X83058000Y-81153000D03*
X71755000Y-85090000D03*
X129921000Y-87503000D03*
X127253922Y-95503922D03*
X128905000Y-91567000D03*
X119761000Y-90043000D03*
X120396000Y-94996000D03*
X125175369Y-88235208D03*
X127012108Y-84654148D03*
X95504000Y-51054000D03*
X100584000Y-51054000D03*
X105664000Y-51054000D03*
X110744000Y-51054000D03*
X115824000Y-51054000D03*
X120904000Y-51054000D03*
X125984000Y-51054000D03*
X131064000Y-51054000D03*
X136144000Y-51054000D03*
X141224000Y-51054000D03*
X95504000Y-56134000D03*
X100584000Y-56134000D03*
X105664000Y-56134000D03*
X110744000Y-56134000D03*
X115824000Y-56134000D03*
X120904000Y-56134000D03*
X125984000Y-56134000D03*
X131064000Y-56134000D03*
X136144000Y-56134000D03*
X141224000Y-56134000D03*
X141224000Y-56134000D03*
X136144000Y-61214000D03*
X141224000Y-61214000D03*
X146304000Y-61214000D03*
X146304000Y-66294000D03*
X146304000Y-71374000D03*
X146304000Y-76454000D03*
X146304000Y-81534000D03*
X146304000Y-86614000D03*
X88900000Y-61722000D03*
X93980000Y-61722000D03*
X99060000Y-61722000D03*
X104140000Y-61722000D03*
X109220000Y-61722000D03*
X114300000Y-61722000D03*
X119380000Y-61722000D03*
X124460000Y-61722000D03*
X129540000Y-61722000D03*
X104140000Y-61722000D03*
X109220000Y-61722000D03*
X114300000Y-61722000D03*
X119380000Y-61722000D03*
X104140000Y-66802000D03*
X109220000Y-66802000D03*
X114300000Y-66802000D03*
X119380000Y-66802000D03*
X104140000Y-66802000D03*
X109220000Y-66802000D03*
X114300000Y-66802000D03*
X119380000Y-66802000D03*
X99060000Y-71882000D03*
X104140000Y-71882000D03*
X109220000Y-71882000D03*
X114300000Y-71882000D03*
X119380000Y-71882000D03*
X104140000Y-71882000D03*
X109220000Y-71882000D03*
X99060000Y-76962000D03*
X104140000Y-76962000D03*
X109220000Y-76962000D03*
X99060000Y-82042000D03*
X104140000Y-82042000D03*
X109220000Y-82042000D03*
X99060000Y-87122000D03*
X104140000Y-87122000D03*
X109220000Y-87122000D03*
D20*
X57321000Y-53279000D03*
D19*
X53721000Y-83820000D03*
X56515000Y-83820000D03*
X63627000Y-73406000D03*
X64516000Y-74041000D03*
X58039000Y-94742000D03*
X94297500Y-92011500D03*
X93472000Y-86106000D03*
X94234000Y-86868000D03*
X77724000Y-80264000D03*
X76200000Y-80264000D03*
X70231000Y-85979000D03*
X85979000Y-86233000D03*
X90170000Y-86106000D03*
X89281000Y-86868000D03*
X69469000Y-62738000D03*
X75692000Y-89916000D03*
X78232000Y-89916000D03*
X68072000Y-84836000D03*
X67056000Y-79375000D03*
X87757000Y-92075000D03*
X88646000Y-92837000D03*
X83820000Y-84836000D03*
X82804000Y-79375000D03*
X81280000Y-86868000D03*
X71764146Y-87649467D03*
X70612000Y-68643500D03*
X85979000Y-68389500D03*
X134493000Y-92456000D03*
X137541000Y-96647000D03*
X125984000Y-94361000D03*
X130937000Y-88918290D03*
X59563000Y-66548000D03*
X58547000Y-80645000D03*
X57531000Y-82804000D03*
X58643295Y-64148866D03*
X59563000Y-67818000D03*
X59182000Y-84963000D03*
X60198000Y-86106000D03*
X60198000Y-65278000D03*
X77597000Y-83947000D03*
X82550000Y-83820000D03*
X72390000Y-84328000D03*
X76327000Y-84328000D03*
X69469000Y-68262500D03*
X122045400Y-89631240D03*
X84074000Y-59690000D03*
X126936500Y-64579500D03*
X128270000Y-94632942D03*
X123063000Y-95377000D03*
X76708000Y-63373000D03*
X56777420Y-63635420D03*
X76581000Y-62103000D03*
X70866000Y-89662000D03*
X81280000Y-89662000D03*
X122662110Y-90404110D03*
X88519000Y-63500000D03*
X75692000Y-86106000D03*
X72343609Y-86249585D03*
X81407000Y-85217000D03*
X78232000Y-85090000D03*
X62039500Y-58801000D03*
X122389894Y-91625765D03*
X126619000Y-93599000D03*
D21*
X83000001Y-89973999D02*
X83058000Y-89916000D01*
X83000001Y-92349999D02*
X83000001Y-89973999D01*
X73000001Y-90067999D02*
X73025000Y-90043000D01*
X73000001Y-92349999D02*
X73000001Y-90067999D01*
D22*
X55345701Y-68225299D02*
X55345701Y-66574299D01*
X54229000Y-69342000D02*
X55345701Y-68225299D01*
X59182000Y-62738000D02*
X69469000Y-62738000D01*
X55345701Y-66574299D02*
X59182000Y-62738000D01*
X70612000Y-68643500D02*
X80073500Y-68643500D01*
X84709000Y-64008000D02*
X84709000Y-63119000D01*
X80073500Y-68643500D02*
X84709000Y-64008000D01*
X85979000Y-68389500D02*
X85979000Y-63119000D01*
X58547000Y-67564000D02*
X58547000Y-80645000D01*
X59563000Y-66548000D02*
X58547000Y-67564000D01*
X57531000Y-82804000D02*
X57531000Y-65261161D01*
X57531000Y-65261161D02*
X58643295Y-64148866D01*
X59182000Y-68199000D02*
X59182000Y-84963000D01*
X59563000Y-67818000D02*
X59182000Y-68199000D01*
X60198000Y-86106000D02*
X60198000Y-65278000D01*
X82423000Y-83947000D02*
X82550000Y-83820000D01*
X77597000Y-83947000D02*
X82423000Y-83947000D01*
X72390000Y-84328000D02*
X76327000Y-84328000D01*
X126716091Y-84037447D02*
X122045400Y-88708138D01*
X69469000Y-68262500D02*
X73152000Y-64579500D01*
X126936500Y-64579500D02*
X134048500Y-71691500D01*
X134048500Y-77828647D02*
X127839700Y-84037447D01*
X127839700Y-84037447D02*
X126716091Y-84037447D01*
X134048500Y-71691500D02*
X134048500Y-77828647D01*
X122045400Y-88708138D02*
X122045400Y-89631240D01*
X73152000Y-64579500D02*
X77025500Y-64579500D01*
X81915000Y-59690000D02*
X84074000Y-59690000D01*
X77025500Y-64579500D02*
X81915000Y-59690000D01*
D21*
X128270000Y-94632942D02*
X127109058Y-94632942D01*
X127109058Y-94632942D02*
X126365000Y-95377000D01*
X126365000Y-95377000D02*
X123063000Y-95377000D01*
D22*
X76708000Y-63373000D02*
X74930000Y-61595000D01*
X74930000Y-61595000D02*
X58817840Y-61595000D01*
X58817840Y-61595000D02*
X56777420Y-63635420D01*
X76581000Y-62103000D02*
X74295000Y-59817000D01*
X74295000Y-59817000D02*
X55245000Y-59817000D01*
X52805701Y-68225299D02*
X51689000Y-69342000D01*
X52805701Y-62256299D02*
X52805701Y-68225299D01*
X55245000Y-59817000D02*
X52805701Y-62256299D01*
X70999999Y-89795999D02*
X70866000Y-89662000D01*
X70999999Y-92349999D02*
X70999999Y-89795999D01*
X80999999Y-89942001D02*
X81280000Y-89662000D01*
X80999999Y-92349999D02*
X80999999Y-89942001D01*
X122662110Y-89876307D02*
X134810500Y-77727917D01*
X122662110Y-90404110D02*
X122662110Y-89876307D01*
X134810500Y-77727917D02*
X134810500Y-70802500D01*
X134810500Y-70802500D02*
X127254000Y-63246000D01*
X88773000Y-63246000D02*
X88519000Y-63500000D01*
X127254000Y-63246000D02*
X88773000Y-63246000D01*
X72487194Y-86106000D02*
X72343609Y-86249585D01*
X75692000Y-86106000D02*
X72487194Y-86106000D01*
X78359000Y-85217000D02*
X78232000Y-85090000D01*
X81407000Y-85217000D02*
X78359000Y-85217000D01*
X133286500Y-89535000D02*
X127312408Y-89535000D01*
X135255000Y-69786500D02*
X135255000Y-87566500D01*
X124269500Y-58801000D02*
X135255000Y-69786500D01*
X125221643Y-91625765D02*
X122389894Y-91625765D01*
X127312408Y-89535000D02*
X125221643Y-91625765D01*
X135255000Y-87566500D02*
X133286500Y-89535000D01*
X62039500Y-58801000D02*
X124269500Y-58801000D01*
D21*
X126619000Y-93599000D02*
X123190000Y-93599000D01*
X123190000Y-93599000D02*
X118872000Y-97917000D01*
X118872000Y-97917000D02*
X117348000Y-97917000D01*
D23*
X76307200Y-78421508D02*
X76307200Y-78550492D01*
X76332364Y-78676998D01*
X76381724Y-78796164D01*
X76453384Y-78903410D01*
X76544590Y-78994616D01*
X76651836Y-79066276D01*
X76771002Y-79115636D01*
X76897508Y-79140800D01*
X77026492Y-79140800D01*
X77152998Y-79115636D01*
X77272164Y-79066276D01*
X77379410Y-78994616D01*
X77470616Y-78903410D01*
X77542276Y-78796164D01*
X77591636Y-78676998D01*
X77616800Y-78550492D01*
X77616800Y-78421508D01*
X77604366Y-78359000D01*
X89408000Y-78359000D01*
X89408000Y-86225634D01*
X89345492Y-86213200D01*
X89216508Y-86213200D01*
X89090002Y-86238364D01*
X88970836Y-86287724D01*
X88863590Y-86359384D01*
X88772384Y-86450590D01*
X88700724Y-86557836D01*
X88651364Y-86677002D01*
X88626200Y-86803508D01*
X88626200Y-86932492D01*
X88651364Y-87058998D01*
X88700724Y-87178164D01*
X88772384Y-87285410D01*
X88863590Y-87376616D01*
X88970836Y-87448276D01*
X89090002Y-87497636D01*
X89216508Y-87522800D01*
X89345492Y-87522800D01*
X89408000Y-87510366D01*
X89408000Y-95758000D01*
X66675000Y-95758000D01*
X66675000Y-90599999D01*
X70193725Y-90599999D01*
X70193725Y-94099999D01*
X70199610Y-94159750D01*
X70217039Y-94217205D01*
X70245341Y-94270156D01*
X70283431Y-94316567D01*
X70329842Y-94354657D01*
X70382793Y-94382959D01*
X70440248Y-94400388D01*
X70499999Y-94406273D01*
X71499999Y-94406273D01*
X71559750Y-94400388D01*
X71617205Y-94382959D01*
X71670156Y-94354657D01*
X71716567Y-94316567D01*
X71754657Y-94270156D01*
X71782959Y-94217205D01*
X71800388Y-94159750D01*
X71806273Y-94099999D01*
X71806273Y-90599999D01*
X72193727Y-90599999D01*
X72193727Y-94099999D01*
X72199612Y-94159750D01*
X72217041Y-94217205D01*
X72245343Y-94270156D01*
X72283433Y-94316567D01*
X72329844Y-94354657D01*
X72382795Y-94382959D01*
X72440250Y-94400388D01*
X72500001Y-94406273D01*
X73500001Y-94406273D01*
X73559752Y-94400388D01*
X73617207Y-94382959D01*
X73670158Y-94354657D01*
X73716569Y-94316567D01*
X73754659Y-94270156D01*
X73782961Y-94217205D01*
X73800390Y-94159750D01*
X73806275Y-94099999D01*
X73806275Y-90599999D01*
X80193725Y-90599999D01*
X80193725Y-94099999D01*
X80199610Y-94159750D01*
X80217039Y-94217205D01*
X80245341Y-94270156D01*
X80283431Y-94316567D01*
X80329842Y-94354657D01*
X80382793Y-94382959D01*
X80440248Y-94400388D01*
X80499999Y-94406273D01*
X81499999Y-94406273D01*
X81559750Y-94400388D01*
X81617205Y-94382959D01*
X81670156Y-94354657D01*
X81716567Y-94316567D01*
X81754657Y-94270156D01*
X81782959Y-94217205D01*
X81800388Y-94159750D01*
X81806273Y-94099999D01*
X81806273Y-90599999D01*
X82193727Y-90599999D01*
X82193727Y-94099999D01*
X82199612Y-94159750D01*
X82217041Y-94217205D01*
X82245343Y-94270156D01*
X82283433Y-94316567D01*
X82329844Y-94354657D01*
X82382795Y-94382959D01*
X82440250Y-94400388D01*
X82500001Y-94406273D01*
X83500001Y-94406273D01*
X83559752Y-94400388D01*
X83617207Y-94382959D01*
X83670158Y-94354657D01*
X83716569Y-94316567D01*
X83754659Y-94270156D01*
X83782961Y-94217205D01*
X83800390Y-94159750D01*
X83806275Y-94099999D01*
X83806275Y-90599999D01*
X83800390Y-90540248D01*
X83782961Y-90482793D01*
X83754659Y-90429842D01*
X83716569Y-90383431D01*
X83670158Y-90345341D01*
X83617207Y-90317039D01*
X83584238Y-90307038D01*
X83638276Y-90226164D01*
X83687636Y-90106998D01*
X83712800Y-89980492D01*
X83712800Y-89851508D01*
X83687636Y-89725002D01*
X83638276Y-89605836D01*
X83566616Y-89498590D01*
X83475410Y-89407384D01*
X83368164Y-89335724D01*
X83248998Y-89286364D01*
X83122492Y-89261200D01*
X82993508Y-89261200D01*
X82867002Y-89286364D01*
X82747836Y-89335724D01*
X82640590Y-89407384D01*
X82549384Y-89498590D01*
X82477724Y-89605836D01*
X82428364Y-89725002D01*
X82403200Y-89851508D01*
X82403200Y-89980492D01*
X82428364Y-90106998D01*
X82477724Y-90226164D01*
X82504702Y-90266539D01*
X82504702Y-90293725D01*
X82500001Y-90293725D01*
X82440250Y-90299610D01*
X82382795Y-90317039D01*
X82329844Y-90345341D01*
X82283433Y-90383431D01*
X82245343Y-90429842D01*
X82217041Y-90482793D01*
X82199612Y-90540248D01*
X82193727Y-90599999D01*
X81806273Y-90599999D01*
X81800388Y-90540248D01*
X81782959Y-90482793D01*
X81754657Y-90429842D01*
X81716567Y-90383431D01*
X81670156Y-90345341D01*
X81617205Y-90317039D01*
X81559750Y-90299610D01*
X81499999Y-90293725D01*
X81460496Y-90293725D01*
X81470998Y-90291636D01*
X81590164Y-90242276D01*
X81697410Y-90170616D01*
X81788616Y-90079410D01*
X81860276Y-89972164D01*
X81909636Y-89852998D01*
X81934800Y-89726492D01*
X81934800Y-89597508D01*
X81909636Y-89471002D01*
X81860276Y-89351836D01*
X81788616Y-89244590D01*
X81697410Y-89153384D01*
X81590164Y-89081724D01*
X81470998Y-89032364D01*
X81344492Y-89007200D01*
X81215508Y-89007200D01*
X81089002Y-89032364D01*
X80969836Y-89081724D01*
X80862590Y-89153384D01*
X80771384Y-89244590D01*
X80699724Y-89351836D01*
X80650364Y-89471002D01*
X80625200Y-89597508D01*
X80625200Y-89726492D01*
X80637020Y-89785913D01*
X80634509Y-89790611D01*
X80625926Y-89818905D01*
X80611997Y-89864822D01*
X80610326Y-89881785D01*
X80604396Y-89942001D01*
X80606300Y-89961333D01*
X80606300Y-90293725D01*
X80499999Y-90293725D01*
X80440248Y-90299610D01*
X80382793Y-90317039D01*
X80329842Y-90345341D01*
X80283431Y-90383431D01*
X80245341Y-90429842D01*
X80217039Y-90482793D01*
X80199610Y-90540248D01*
X80193725Y-90599999D01*
X73806275Y-90599999D01*
X73800390Y-90540248D01*
X73782961Y-90482793D01*
X73754659Y-90429842D01*
X73716569Y-90383431D01*
X73670158Y-90345341D01*
X73619690Y-90318366D01*
X73654636Y-90233998D01*
X73679800Y-90107492D01*
X73679800Y-89978508D01*
X73654636Y-89852002D01*
X73605276Y-89732836D01*
X73533616Y-89625590D01*
X73442410Y-89534384D01*
X73335164Y-89462724D01*
X73215998Y-89413364D01*
X73089492Y-89388200D01*
X72960508Y-89388200D01*
X72834002Y-89413364D01*
X72714836Y-89462724D01*
X72607590Y-89534384D01*
X72516384Y-89625590D01*
X72444724Y-89732836D01*
X72395364Y-89852002D01*
X72370200Y-89978508D01*
X72370200Y-90107492D01*
X72395364Y-90233998D01*
X72424518Y-90304382D01*
X72382795Y-90317039D01*
X72329844Y-90345341D01*
X72283433Y-90383431D01*
X72245343Y-90429842D01*
X72217041Y-90482793D01*
X72199612Y-90540248D01*
X72193727Y-90599999D01*
X71806273Y-90599999D01*
X71800388Y-90540248D01*
X71782959Y-90482793D01*
X71754657Y-90429842D01*
X71716567Y-90383431D01*
X71670156Y-90345341D01*
X71617205Y-90317039D01*
X71559750Y-90299610D01*
X71499999Y-90293725D01*
X71393699Y-90293725D01*
X71393699Y-90050850D01*
X71446276Y-89972164D01*
X71495636Y-89852998D01*
X71520800Y-89726492D01*
X71520800Y-89597508D01*
X71495636Y-89471002D01*
X71446276Y-89351836D01*
X71374616Y-89244590D01*
X71283410Y-89153384D01*
X71176164Y-89081724D01*
X71056998Y-89032364D01*
X70930492Y-89007200D01*
X70801508Y-89007200D01*
X70675002Y-89032364D01*
X70555836Y-89081724D01*
X70448590Y-89153384D01*
X70357384Y-89244590D01*
X70285724Y-89351836D01*
X70236364Y-89471002D01*
X70211200Y-89597508D01*
X70211200Y-89726492D01*
X70236364Y-89852998D01*
X70285724Y-89972164D01*
X70357384Y-90079410D01*
X70448590Y-90170616D01*
X70555836Y-90242276D01*
X70606300Y-90263179D01*
X70606300Y-90293725D01*
X70499999Y-90293725D01*
X70440248Y-90299610D01*
X70382793Y-90317039D01*
X70329842Y-90345341D01*
X70283431Y-90383431D01*
X70245341Y-90429842D01*
X70217039Y-90482793D01*
X70199610Y-90540248D01*
X70193725Y-90599999D01*
X66675000Y-90599999D01*
X66675000Y-85914508D01*
X69576200Y-85914508D01*
X69576200Y-86043492D01*
X69601364Y-86169998D01*
X69650724Y-86289164D01*
X69722384Y-86396410D01*
X69813590Y-86487616D01*
X69920836Y-86559276D01*
X70040002Y-86608636D01*
X70166508Y-86633800D01*
X70295492Y-86633800D01*
X70421998Y-86608636D01*
X70541164Y-86559276D01*
X70648410Y-86487616D01*
X70739616Y-86396410D01*
X70811276Y-86289164D01*
X70860636Y-86169998D01*
X70885800Y-86043492D01*
X70885800Y-85914508D01*
X70860636Y-85788002D01*
X70811276Y-85668836D01*
X70739616Y-85561590D01*
X70648410Y-85470384D01*
X70541164Y-85398724D01*
X70421998Y-85349364D01*
X70295492Y-85324200D01*
X70166508Y-85324200D01*
X70040002Y-85349364D01*
X69920836Y-85398724D01*
X69813590Y-85470384D01*
X69722384Y-85561590D01*
X69650724Y-85668836D01*
X69601364Y-85788002D01*
X69576200Y-85914508D01*
X66675000Y-85914508D01*
X66675000Y-85025508D01*
X71100200Y-85025508D01*
X71100200Y-85154492D01*
X71125364Y-85280998D01*
X71174724Y-85400164D01*
X71246384Y-85507410D01*
X71337590Y-85598616D01*
X71444836Y-85670276D01*
X71564002Y-85719636D01*
X71690508Y-85744800D01*
X71819492Y-85744800D01*
X71945998Y-85719636D01*
X71977906Y-85706419D01*
X71926199Y-85740969D01*
X71834993Y-85832175D01*
X71763333Y-85939421D01*
X71713973Y-86058587D01*
X71688809Y-86185093D01*
X71688809Y-86314077D01*
X71713973Y-86440583D01*
X71763333Y-86559749D01*
X71834993Y-86666995D01*
X71926199Y-86758201D01*
X72033445Y-86829861D01*
X72152611Y-86879221D01*
X72279117Y-86904385D01*
X72408101Y-86904385D01*
X72534607Y-86879221D01*
X72653773Y-86829861D01*
X72761019Y-86758201D01*
X72852225Y-86666995D01*
X72923885Y-86559749D01*
X72948758Y-86499700D01*
X75167541Y-86499700D01*
X75183384Y-86523410D01*
X75274590Y-86614616D01*
X75381836Y-86686276D01*
X75501002Y-86735636D01*
X75627508Y-86760800D01*
X75756492Y-86760800D01*
X75882998Y-86735636D01*
X76002164Y-86686276D01*
X76109410Y-86614616D01*
X76200616Y-86523410D01*
X76272276Y-86416164D01*
X76321636Y-86296998D01*
X76346800Y-86170492D01*
X76346800Y-86168508D01*
X85324200Y-86168508D01*
X85324200Y-86297492D01*
X85349364Y-86423998D01*
X85398724Y-86543164D01*
X85470384Y-86650410D01*
X85561590Y-86741616D01*
X85668836Y-86813276D01*
X85788002Y-86862636D01*
X85914508Y-86887800D01*
X86043492Y-86887800D01*
X86169998Y-86862636D01*
X86289164Y-86813276D01*
X86396410Y-86741616D01*
X86487616Y-86650410D01*
X86559276Y-86543164D01*
X86608636Y-86423998D01*
X86633800Y-86297492D01*
X86633800Y-86168508D01*
X86608636Y-86042002D01*
X86559276Y-85922836D01*
X86487616Y-85815590D01*
X86396410Y-85724384D01*
X86289164Y-85652724D01*
X86169998Y-85603364D01*
X86043492Y-85578200D01*
X85914508Y-85578200D01*
X85788002Y-85603364D01*
X85668836Y-85652724D01*
X85561590Y-85724384D01*
X85470384Y-85815590D01*
X85398724Y-85922836D01*
X85349364Y-86042002D01*
X85324200Y-86168508D01*
X76346800Y-86168508D01*
X76346800Y-86041508D01*
X76321636Y-85915002D01*
X76272276Y-85795836D01*
X76200616Y-85688590D01*
X76109410Y-85597384D01*
X76002164Y-85525724D01*
X75882998Y-85476364D01*
X75756492Y-85451200D01*
X75627508Y-85451200D01*
X75501002Y-85476364D01*
X75381836Y-85525724D01*
X75274590Y-85597384D01*
X75183384Y-85688590D01*
X75167541Y-85712300D01*
X72718113Y-85712300D01*
X72653773Y-85669309D01*
X72534607Y-85619949D01*
X72408101Y-85594785D01*
X72279117Y-85594785D01*
X72152611Y-85619949D01*
X72120703Y-85633166D01*
X72172410Y-85598616D01*
X72263616Y-85507410D01*
X72335276Y-85400164D01*
X72384636Y-85280998D01*
X72409800Y-85154492D01*
X72409800Y-85025508D01*
X72401305Y-84982800D01*
X72454492Y-84982800D01*
X72580998Y-84957636D01*
X72700164Y-84908276D01*
X72807410Y-84836616D01*
X72898616Y-84745410D01*
X72914459Y-84721700D01*
X75802541Y-84721700D01*
X75818384Y-84745410D01*
X75909590Y-84836616D01*
X76016836Y-84908276D01*
X76136002Y-84957636D01*
X76262508Y-84982800D01*
X76391492Y-84982800D01*
X76517998Y-84957636D01*
X76637164Y-84908276D01*
X76744410Y-84836616D01*
X76835616Y-84745410D01*
X76907276Y-84638164D01*
X76956636Y-84518998D01*
X76981800Y-84392492D01*
X76981800Y-84263508D01*
X76956636Y-84137002D01*
X76907276Y-84017836D01*
X76835616Y-83910590D01*
X76807534Y-83882508D01*
X76942200Y-83882508D01*
X76942200Y-84011492D01*
X76967364Y-84137998D01*
X77016724Y-84257164D01*
X77088384Y-84364410D01*
X77179590Y-84455616D01*
X77286836Y-84527276D01*
X77406002Y-84576636D01*
X77532508Y-84601800D01*
X77661492Y-84601800D01*
X77787998Y-84576636D01*
X77876655Y-84539913D01*
X77814590Y-84581384D01*
X77723384Y-84672590D01*
X77651724Y-84779836D01*
X77602364Y-84899002D01*
X77577200Y-85025508D01*
X77577200Y-85154492D01*
X77602364Y-85280998D01*
X77651724Y-85400164D01*
X77723384Y-85507410D01*
X77814590Y-85598616D01*
X77921836Y-85670276D01*
X78041002Y-85719636D01*
X78167508Y-85744800D01*
X78296492Y-85744800D01*
X78422998Y-85719636D01*
X78542164Y-85670276D01*
X78631325Y-85610700D01*
X80882541Y-85610700D01*
X80898384Y-85634410D01*
X80989590Y-85725616D01*
X81096836Y-85797276D01*
X81216002Y-85846636D01*
X81342508Y-85871800D01*
X81471492Y-85871800D01*
X81597998Y-85846636D01*
X81717164Y-85797276D01*
X81824410Y-85725616D01*
X81915616Y-85634410D01*
X81987276Y-85527164D01*
X82036636Y-85407998D01*
X82061800Y-85281492D01*
X82061800Y-85152508D01*
X82036636Y-85026002D01*
X81987276Y-84906836D01*
X81915616Y-84799590D01*
X81824410Y-84708384D01*
X81717164Y-84636724D01*
X81597998Y-84587364D01*
X81471492Y-84562200D01*
X81342508Y-84562200D01*
X81216002Y-84587364D01*
X81096836Y-84636724D01*
X80989590Y-84708384D01*
X80898384Y-84799590D01*
X80882541Y-84823300D01*
X78830279Y-84823300D01*
X78812276Y-84779836D01*
X78740616Y-84672590D01*
X78649410Y-84581384D01*
X78542164Y-84509724D01*
X78422998Y-84460364D01*
X78296492Y-84435200D01*
X78167508Y-84435200D01*
X78041002Y-84460364D01*
X77952345Y-84497087D01*
X78014410Y-84455616D01*
X78105616Y-84364410D01*
X78121459Y-84340700D01*
X82150675Y-84340700D01*
X82239836Y-84400276D01*
X82359002Y-84449636D01*
X82485508Y-84474800D01*
X82614492Y-84474800D01*
X82740998Y-84449636D01*
X82860164Y-84400276D01*
X82967410Y-84328616D01*
X83058616Y-84237410D01*
X83130276Y-84130164D01*
X83179636Y-84010998D01*
X83204800Y-83884492D01*
X83204800Y-83755508D01*
X83179636Y-83629002D01*
X83130276Y-83509836D01*
X83058616Y-83402590D01*
X82967410Y-83311384D01*
X82860164Y-83239724D01*
X82740998Y-83190364D01*
X82614492Y-83165200D01*
X82485508Y-83165200D01*
X82359002Y-83190364D01*
X82239836Y-83239724D01*
X82132590Y-83311384D01*
X82041384Y-83402590D01*
X81969724Y-83509836D01*
X81951721Y-83553300D01*
X78121459Y-83553300D01*
X78105616Y-83529590D01*
X78014410Y-83438384D01*
X77907164Y-83366724D01*
X77787998Y-83317364D01*
X77661492Y-83292200D01*
X77532508Y-83292200D01*
X77406002Y-83317364D01*
X77286836Y-83366724D01*
X77179590Y-83438384D01*
X77088384Y-83529590D01*
X77016724Y-83636836D01*
X76967364Y-83756002D01*
X76942200Y-83882508D01*
X76807534Y-83882508D01*
X76744410Y-83819384D01*
X76637164Y-83747724D01*
X76517998Y-83698364D01*
X76391492Y-83673200D01*
X76262508Y-83673200D01*
X76136002Y-83698364D01*
X76016836Y-83747724D01*
X75909590Y-83819384D01*
X75818384Y-83910590D01*
X75802541Y-83934300D01*
X72914459Y-83934300D01*
X72898616Y-83910590D01*
X72807410Y-83819384D01*
X72700164Y-83747724D01*
X72580998Y-83698364D01*
X72454492Y-83673200D01*
X72325508Y-83673200D01*
X72199002Y-83698364D01*
X72079836Y-83747724D01*
X71972590Y-83819384D01*
X71881384Y-83910590D01*
X71809724Y-84017836D01*
X71760364Y-84137002D01*
X71735200Y-84263508D01*
X71735200Y-84392492D01*
X71743695Y-84435200D01*
X71690508Y-84435200D01*
X71564002Y-84460364D01*
X71444836Y-84509724D01*
X71337590Y-84581384D01*
X71246384Y-84672590D01*
X71174724Y-84779836D01*
X71125364Y-84899002D01*
X71100200Y-85025508D01*
X66675000Y-85025508D01*
X66675000Y-81088508D01*
X82403200Y-81088508D01*
X82403200Y-81217492D01*
X82428364Y-81343998D01*
X82477724Y-81463164D01*
X82549384Y-81570410D01*
X82640590Y-81661616D01*
X82747836Y-81733276D01*
X82867002Y-81782636D01*
X82993508Y-81807800D01*
X83122492Y-81807800D01*
X83248998Y-81782636D01*
X83368164Y-81733276D01*
X83475410Y-81661616D01*
X83566616Y-81570410D01*
X83638276Y-81463164D01*
X83687636Y-81343998D01*
X83712800Y-81217492D01*
X83712800Y-81088508D01*
X83687636Y-80962002D01*
X83638276Y-80842836D01*
X83566616Y-80735590D01*
X83475410Y-80644384D01*
X83368164Y-80572724D01*
X83248998Y-80523364D01*
X83122492Y-80498200D01*
X82993508Y-80498200D01*
X82867002Y-80523364D01*
X82747836Y-80572724D01*
X82640590Y-80644384D01*
X82549384Y-80735590D01*
X82477724Y-80842836D01*
X82428364Y-80962002D01*
X82403200Y-81088508D01*
X66675000Y-81088508D01*
X66675000Y-80199508D01*
X75545200Y-80199508D01*
X75545200Y-80328492D01*
X75570364Y-80454998D01*
X75619724Y-80574164D01*
X75691384Y-80681410D01*
X75782590Y-80772616D01*
X75889836Y-80844276D01*
X76009002Y-80893636D01*
X76135508Y-80918800D01*
X76264492Y-80918800D01*
X76390998Y-80893636D01*
X76510164Y-80844276D01*
X76617410Y-80772616D01*
X76708616Y-80681410D01*
X76780276Y-80574164D01*
X76829636Y-80454998D01*
X76854800Y-80328492D01*
X76854800Y-80199508D01*
X77069200Y-80199508D01*
X77069200Y-80328492D01*
X77094364Y-80454998D01*
X77143724Y-80574164D01*
X77215384Y-80681410D01*
X77306590Y-80772616D01*
X77413836Y-80844276D01*
X77533002Y-80893636D01*
X77659508Y-80918800D01*
X77788492Y-80918800D01*
X77914998Y-80893636D01*
X78034164Y-80844276D01*
X78141410Y-80772616D01*
X78232616Y-80681410D01*
X78304276Y-80574164D01*
X78353636Y-80454998D01*
X78378800Y-80328492D01*
X78378800Y-80199508D01*
X78353636Y-80073002D01*
X78304276Y-79953836D01*
X78232616Y-79846590D01*
X78141410Y-79755384D01*
X78034164Y-79683724D01*
X77914998Y-79634364D01*
X77788492Y-79609200D01*
X77659508Y-79609200D01*
X77533002Y-79634364D01*
X77413836Y-79683724D01*
X77306590Y-79755384D01*
X77215384Y-79846590D01*
X77143724Y-79953836D01*
X77094364Y-80073002D01*
X77069200Y-80199508D01*
X76854800Y-80199508D01*
X76829636Y-80073002D01*
X76780276Y-79953836D01*
X76708616Y-79846590D01*
X76617410Y-79755384D01*
X76510164Y-79683724D01*
X76390998Y-79634364D01*
X76264492Y-79609200D01*
X76135508Y-79609200D01*
X76009002Y-79634364D01*
X75889836Y-79683724D01*
X75782590Y-79755384D01*
X75691384Y-79846590D01*
X75619724Y-79953836D01*
X75570364Y-80073002D01*
X75545200Y-80199508D01*
X66675000Y-80199508D01*
X66675000Y-78359000D01*
X76319634Y-78359000D01*
X76307200Y-78421508D01*
G04 #@! TA.AperFunction,Conductor*
D24*
G36*
X76307200Y-78421508D02*
G01*
X76307200Y-78550492D01*
X76332364Y-78676998D01*
X76381724Y-78796164D01*
X76453384Y-78903410D01*
X76544590Y-78994616D01*
X76651836Y-79066276D01*
X76771002Y-79115636D01*
X76897508Y-79140800D01*
X77026492Y-79140800D01*
X77152998Y-79115636D01*
X77272164Y-79066276D01*
X77379410Y-78994616D01*
X77470616Y-78903410D01*
X77542276Y-78796164D01*
X77591636Y-78676998D01*
X77616800Y-78550492D01*
X77616800Y-78421508D01*
X77604366Y-78359000D01*
X89408000Y-78359000D01*
X89408000Y-86225634D01*
X89345492Y-86213200D01*
X89216508Y-86213200D01*
X89090002Y-86238364D01*
X88970836Y-86287724D01*
X88863590Y-86359384D01*
X88772384Y-86450590D01*
X88700724Y-86557836D01*
X88651364Y-86677002D01*
X88626200Y-86803508D01*
X88626200Y-86932492D01*
X88651364Y-87058998D01*
X88700724Y-87178164D01*
X88772384Y-87285410D01*
X88863590Y-87376616D01*
X88970836Y-87448276D01*
X89090002Y-87497636D01*
X89216508Y-87522800D01*
X89345492Y-87522800D01*
X89408000Y-87510366D01*
X89408000Y-95758000D01*
X66675000Y-95758000D01*
X66675000Y-90599999D01*
X70193725Y-90599999D01*
X70193725Y-94099999D01*
X70199610Y-94159750D01*
X70217039Y-94217205D01*
X70245341Y-94270156D01*
X70283431Y-94316567D01*
X70329842Y-94354657D01*
X70382793Y-94382959D01*
X70440248Y-94400388D01*
X70499999Y-94406273D01*
X71499999Y-94406273D01*
X71559750Y-94400388D01*
X71617205Y-94382959D01*
X71670156Y-94354657D01*
X71716567Y-94316567D01*
X71754657Y-94270156D01*
X71782959Y-94217205D01*
X71800388Y-94159750D01*
X71806273Y-94099999D01*
X71806273Y-90599999D01*
X72193727Y-90599999D01*
X72193727Y-94099999D01*
X72199612Y-94159750D01*
X72217041Y-94217205D01*
X72245343Y-94270156D01*
X72283433Y-94316567D01*
X72329844Y-94354657D01*
X72382795Y-94382959D01*
X72440250Y-94400388D01*
X72500001Y-94406273D01*
X73500001Y-94406273D01*
X73559752Y-94400388D01*
X73617207Y-94382959D01*
X73670158Y-94354657D01*
X73716569Y-94316567D01*
X73754659Y-94270156D01*
X73782961Y-94217205D01*
X73800390Y-94159750D01*
X73806275Y-94099999D01*
X73806275Y-90599999D01*
X80193725Y-90599999D01*
X80193725Y-94099999D01*
X80199610Y-94159750D01*
X80217039Y-94217205D01*
X80245341Y-94270156D01*
X80283431Y-94316567D01*
X80329842Y-94354657D01*
X80382793Y-94382959D01*
X80440248Y-94400388D01*
X80499999Y-94406273D01*
X81499999Y-94406273D01*
X81559750Y-94400388D01*
X81617205Y-94382959D01*
X81670156Y-94354657D01*
X81716567Y-94316567D01*
X81754657Y-94270156D01*
X81782959Y-94217205D01*
X81800388Y-94159750D01*
X81806273Y-94099999D01*
X81806273Y-90599999D01*
X82193727Y-90599999D01*
X82193727Y-94099999D01*
X82199612Y-94159750D01*
X82217041Y-94217205D01*
X82245343Y-94270156D01*
X82283433Y-94316567D01*
X82329844Y-94354657D01*
X82382795Y-94382959D01*
X82440250Y-94400388D01*
X82500001Y-94406273D01*
X83500001Y-94406273D01*
X83559752Y-94400388D01*
X83617207Y-94382959D01*
X83670158Y-94354657D01*
X83716569Y-94316567D01*
X83754659Y-94270156D01*
X83782961Y-94217205D01*
X83800390Y-94159750D01*
X83806275Y-94099999D01*
X83806275Y-90599999D01*
X83800390Y-90540248D01*
X83782961Y-90482793D01*
X83754659Y-90429842D01*
X83716569Y-90383431D01*
X83670158Y-90345341D01*
X83617207Y-90317039D01*
X83584238Y-90307038D01*
X83638276Y-90226164D01*
X83687636Y-90106998D01*
X83712800Y-89980492D01*
X83712800Y-89851508D01*
X83687636Y-89725002D01*
X83638276Y-89605836D01*
X83566616Y-89498590D01*
X83475410Y-89407384D01*
X83368164Y-89335724D01*
X83248998Y-89286364D01*
X83122492Y-89261200D01*
X82993508Y-89261200D01*
X82867002Y-89286364D01*
X82747836Y-89335724D01*
X82640590Y-89407384D01*
X82549384Y-89498590D01*
X82477724Y-89605836D01*
X82428364Y-89725002D01*
X82403200Y-89851508D01*
X82403200Y-89980492D01*
X82428364Y-90106998D01*
X82477724Y-90226164D01*
X82504702Y-90266539D01*
X82504702Y-90293725D01*
X82500001Y-90293725D01*
X82440250Y-90299610D01*
X82382795Y-90317039D01*
X82329844Y-90345341D01*
X82283433Y-90383431D01*
X82245343Y-90429842D01*
X82217041Y-90482793D01*
X82199612Y-90540248D01*
X82193727Y-90599999D01*
X81806273Y-90599999D01*
X81800388Y-90540248D01*
X81782959Y-90482793D01*
X81754657Y-90429842D01*
X81716567Y-90383431D01*
X81670156Y-90345341D01*
X81617205Y-90317039D01*
X81559750Y-90299610D01*
X81499999Y-90293725D01*
X81460496Y-90293725D01*
X81470998Y-90291636D01*
X81590164Y-90242276D01*
X81697410Y-90170616D01*
X81788616Y-90079410D01*
X81860276Y-89972164D01*
X81909636Y-89852998D01*
X81934800Y-89726492D01*
X81934800Y-89597508D01*
X81909636Y-89471002D01*
X81860276Y-89351836D01*
X81788616Y-89244590D01*
X81697410Y-89153384D01*
X81590164Y-89081724D01*
X81470998Y-89032364D01*
X81344492Y-89007200D01*
X81215508Y-89007200D01*
X81089002Y-89032364D01*
X80969836Y-89081724D01*
X80862590Y-89153384D01*
X80771384Y-89244590D01*
X80699724Y-89351836D01*
X80650364Y-89471002D01*
X80625200Y-89597508D01*
X80625200Y-89726492D01*
X80637020Y-89785913D01*
X80634509Y-89790611D01*
X80625926Y-89818905D01*
X80611997Y-89864822D01*
X80610326Y-89881785D01*
X80604396Y-89942001D01*
X80606300Y-89961333D01*
X80606300Y-90293725D01*
X80499999Y-90293725D01*
X80440248Y-90299610D01*
X80382793Y-90317039D01*
X80329842Y-90345341D01*
X80283431Y-90383431D01*
X80245341Y-90429842D01*
X80217039Y-90482793D01*
X80199610Y-90540248D01*
X80193725Y-90599999D01*
X73806275Y-90599999D01*
X73800390Y-90540248D01*
X73782961Y-90482793D01*
X73754659Y-90429842D01*
X73716569Y-90383431D01*
X73670158Y-90345341D01*
X73619690Y-90318366D01*
X73654636Y-90233998D01*
X73679800Y-90107492D01*
X73679800Y-89978508D01*
X73654636Y-89852002D01*
X73605276Y-89732836D01*
X73533616Y-89625590D01*
X73442410Y-89534384D01*
X73335164Y-89462724D01*
X73215998Y-89413364D01*
X73089492Y-89388200D01*
X72960508Y-89388200D01*
X72834002Y-89413364D01*
X72714836Y-89462724D01*
X72607590Y-89534384D01*
X72516384Y-89625590D01*
X72444724Y-89732836D01*
X72395364Y-89852002D01*
X72370200Y-89978508D01*
X72370200Y-90107492D01*
X72395364Y-90233998D01*
X72424518Y-90304382D01*
X72382795Y-90317039D01*
X72329844Y-90345341D01*
X72283433Y-90383431D01*
X72245343Y-90429842D01*
X72217041Y-90482793D01*
X72199612Y-90540248D01*
X72193727Y-90599999D01*
X71806273Y-90599999D01*
X71800388Y-90540248D01*
X71782959Y-90482793D01*
X71754657Y-90429842D01*
X71716567Y-90383431D01*
X71670156Y-90345341D01*
X71617205Y-90317039D01*
X71559750Y-90299610D01*
X71499999Y-90293725D01*
X71393699Y-90293725D01*
X71393699Y-90050850D01*
X71446276Y-89972164D01*
X71495636Y-89852998D01*
X71520800Y-89726492D01*
X71520800Y-89597508D01*
X71495636Y-89471002D01*
X71446276Y-89351836D01*
X71374616Y-89244590D01*
X71283410Y-89153384D01*
X71176164Y-89081724D01*
X71056998Y-89032364D01*
X70930492Y-89007200D01*
X70801508Y-89007200D01*
X70675002Y-89032364D01*
X70555836Y-89081724D01*
X70448590Y-89153384D01*
X70357384Y-89244590D01*
X70285724Y-89351836D01*
X70236364Y-89471002D01*
X70211200Y-89597508D01*
X70211200Y-89726492D01*
X70236364Y-89852998D01*
X70285724Y-89972164D01*
X70357384Y-90079410D01*
X70448590Y-90170616D01*
X70555836Y-90242276D01*
X70606300Y-90263179D01*
X70606300Y-90293725D01*
X70499999Y-90293725D01*
X70440248Y-90299610D01*
X70382793Y-90317039D01*
X70329842Y-90345341D01*
X70283431Y-90383431D01*
X70245341Y-90429842D01*
X70217039Y-90482793D01*
X70199610Y-90540248D01*
X70193725Y-90599999D01*
X66675000Y-90599999D01*
X66675000Y-85914508D01*
X69576200Y-85914508D01*
X69576200Y-86043492D01*
X69601364Y-86169998D01*
X69650724Y-86289164D01*
X69722384Y-86396410D01*
X69813590Y-86487616D01*
X69920836Y-86559276D01*
X70040002Y-86608636D01*
X70166508Y-86633800D01*
X70295492Y-86633800D01*
X70421998Y-86608636D01*
X70541164Y-86559276D01*
X70648410Y-86487616D01*
X70739616Y-86396410D01*
X70811276Y-86289164D01*
X70860636Y-86169998D01*
X70885800Y-86043492D01*
X70885800Y-85914508D01*
X70860636Y-85788002D01*
X70811276Y-85668836D01*
X70739616Y-85561590D01*
X70648410Y-85470384D01*
X70541164Y-85398724D01*
X70421998Y-85349364D01*
X70295492Y-85324200D01*
X70166508Y-85324200D01*
X70040002Y-85349364D01*
X69920836Y-85398724D01*
X69813590Y-85470384D01*
X69722384Y-85561590D01*
X69650724Y-85668836D01*
X69601364Y-85788002D01*
X69576200Y-85914508D01*
X66675000Y-85914508D01*
X66675000Y-85025508D01*
X71100200Y-85025508D01*
X71100200Y-85154492D01*
X71125364Y-85280998D01*
X71174724Y-85400164D01*
X71246384Y-85507410D01*
X71337590Y-85598616D01*
X71444836Y-85670276D01*
X71564002Y-85719636D01*
X71690508Y-85744800D01*
X71819492Y-85744800D01*
X71945998Y-85719636D01*
X71977906Y-85706419D01*
X71926199Y-85740969D01*
X71834993Y-85832175D01*
X71763333Y-85939421D01*
X71713973Y-86058587D01*
X71688809Y-86185093D01*
X71688809Y-86314077D01*
X71713973Y-86440583D01*
X71763333Y-86559749D01*
X71834993Y-86666995D01*
X71926199Y-86758201D01*
X72033445Y-86829861D01*
X72152611Y-86879221D01*
X72279117Y-86904385D01*
X72408101Y-86904385D01*
X72534607Y-86879221D01*
X72653773Y-86829861D01*
X72761019Y-86758201D01*
X72852225Y-86666995D01*
X72923885Y-86559749D01*
X72948758Y-86499700D01*
X75167541Y-86499700D01*
X75183384Y-86523410D01*
X75274590Y-86614616D01*
X75381836Y-86686276D01*
X75501002Y-86735636D01*
X75627508Y-86760800D01*
X75756492Y-86760800D01*
X75882998Y-86735636D01*
X76002164Y-86686276D01*
X76109410Y-86614616D01*
X76200616Y-86523410D01*
X76272276Y-86416164D01*
X76321636Y-86296998D01*
X76346800Y-86170492D01*
X76346800Y-86168508D01*
X85324200Y-86168508D01*
X85324200Y-86297492D01*
X85349364Y-86423998D01*
X85398724Y-86543164D01*
X85470384Y-86650410D01*
X85561590Y-86741616D01*
X85668836Y-86813276D01*
X85788002Y-86862636D01*
X85914508Y-86887800D01*
X86043492Y-86887800D01*
X86169998Y-86862636D01*
X86289164Y-86813276D01*
X86396410Y-86741616D01*
X86487616Y-86650410D01*
X86559276Y-86543164D01*
X86608636Y-86423998D01*
X86633800Y-86297492D01*
X86633800Y-86168508D01*
X86608636Y-86042002D01*
X86559276Y-85922836D01*
X86487616Y-85815590D01*
X86396410Y-85724384D01*
X86289164Y-85652724D01*
X86169998Y-85603364D01*
X86043492Y-85578200D01*
X85914508Y-85578200D01*
X85788002Y-85603364D01*
X85668836Y-85652724D01*
X85561590Y-85724384D01*
X85470384Y-85815590D01*
X85398724Y-85922836D01*
X85349364Y-86042002D01*
X85324200Y-86168508D01*
X76346800Y-86168508D01*
X76346800Y-86041508D01*
X76321636Y-85915002D01*
X76272276Y-85795836D01*
X76200616Y-85688590D01*
X76109410Y-85597384D01*
X76002164Y-85525724D01*
X75882998Y-85476364D01*
X75756492Y-85451200D01*
X75627508Y-85451200D01*
X75501002Y-85476364D01*
X75381836Y-85525724D01*
X75274590Y-85597384D01*
X75183384Y-85688590D01*
X75167541Y-85712300D01*
X72718113Y-85712300D01*
X72653773Y-85669309D01*
X72534607Y-85619949D01*
X72408101Y-85594785D01*
X72279117Y-85594785D01*
X72152611Y-85619949D01*
X72120703Y-85633166D01*
X72172410Y-85598616D01*
X72263616Y-85507410D01*
X72335276Y-85400164D01*
X72384636Y-85280998D01*
X72409800Y-85154492D01*
X72409800Y-85025508D01*
X72401305Y-84982800D01*
X72454492Y-84982800D01*
X72580998Y-84957636D01*
X72700164Y-84908276D01*
X72807410Y-84836616D01*
X72898616Y-84745410D01*
X72914459Y-84721700D01*
X75802541Y-84721700D01*
X75818384Y-84745410D01*
X75909590Y-84836616D01*
X76016836Y-84908276D01*
X76136002Y-84957636D01*
X76262508Y-84982800D01*
X76391492Y-84982800D01*
X76517998Y-84957636D01*
X76637164Y-84908276D01*
X76744410Y-84836616D01*
X76835616Y-84745410D01*
X76907276Y-84638164D01*
X76956636Y-84518998D01*
X76981800Y-84392492D01*
X76981800Y-84263508D01*
X76956636Y-84137002D01*
X76907276Y-84017836D01*
X76835616Y-83910590D01*
X76807534Y-83882508D01*
X76942200Y-83882508D01*
X76942200Y-84011492D01*
X76967364Y-84137998D01*
X77016724Y-84257164D01*
X77088384Y-84364410D01*
X77179590Y-84455616D01*
X77286836Y-84527276D01*
X77406002Y-84576636D01*
X77532508Y-84601800D01*
X77661492Y-84601800D01*
X77787998Y-84576636D01*
X77876655Y-84539913D01*
X77814590Y-84581384D01*
X77723384Y-84672590D01*
X77651724Y-84779836D01*
X77602364Y-84899002D01*
X77577200Y-85025508D01*
X77577200Y-85154492D01*
X77602364Y-85280998D01*
X77651724Y-85400164D01*
X77723384Y-85507410D01*
X77814590Y-85598616D01*
X77921836Y-85670276D01*
X78041002Y-85719636D01*
X78167508Y-85744800D01*
X78296492Y-85744800D01*
X78422998Y-85719636D01*
X78542164Y-85670276D01*
X78631325Y-85610700D01*
X80882541Y-85610700D01*
X80898384Y-85634410D01*
X80989590Y-85725616D01*
X81096836Y-85797276D01*
X81216002Y-85846636D01*
X81342508Y-85871800D01*
X81471492Y-85871800D01*
X81597998Y-85846636D01*
X81717164Y-85797276D01*
X81824410Y-85725616D01*
X81915616Y-85634410D01*
X81987276Y-85527164D01*
X82036636Y-85407998D01*
X82061800Y-85281492D01*
X82061800Y-85152508D01*
X82036636Y-85026002D01*
X81987276Y-84906836D01*
X81915616Y-84799590D01*
X81824410Y-84708384D01*
X81717164Y-84636724D01*
X81597998Y-84587364D01*
X81471492Y-84562200D01*
X81342508Y-84562200D01*
X81216002Y-84587364D01*
X81096836Y-84636724D01*
X80989590Y-84708384D01*
X80898384Y-84799590D01*
X80882541Y-84823300D01*
X78830279Y-84823300D01*
X78812276Y-84779836D01*
X78740616Y-84672590D01*
X78649410Y-84581384D01*
X78542164Y-84509724D01*
X78422998Y-84460364D01*
X78296492Y-84435200D01*
X78167508Y-84435200D01*
X78041002Y-84460364D01*
X77952345Y-84497087D01*
X78014410Y-84455616D01*
X78105616Y-84364410D01*
X78121459Y-84340700D01*
X82150675Y-84340700D01*
X82239836Y-84400276D01*
X82359002Y-84449636D01*
X82485508Y-84474800D01*
X82614492Y-84474800D01*
X82740998Y-84449636D01*
X82860164Y-84400276D01*
X82967410Y-84328616D01*
X83058616Y-84237410D01*
X83130276Y-84130164D01*
X83179636Y-84010998D01*
X83204800Y-83884492D01*
X83204800Y-83755508D01*
X83179636Y-83629002D01*
X83130276Y-83509836D01*
X83058616Y-83402590D01*
X82967410Y-83311384D01*
X82860164Y-83239724D01*
X82740998Y-83190364D01*
X82614492Y-83165200D01*
X82485508Y-83165200D01*
X82359002Y-83190364D01*
X82239836Y-83239724D01*
X82132590Y-83311384D01*
X82041384Y-83402590D01*
X81969724Y-83509836D01*
X81951721Y-83553300D01*
X78121459Y-83553300D01*
X78105616Y-83529590D01*
X78014410Y-83438384D01*
X77907164Y-83366724D01*
X77787998Y-83317364D01*
X77661492Y-83292200D01*
X77532508Y-83292200D01*
X77406002Y-83317364D01*
X77286836Y-83366724D01*
X77179590Y-83438384D01*
X77088384Y-83529590D01*
X77016724Y-83636836D01*
X76967364Y-83756002D01*
X76942200Y-83882508D01*
X76807534Y-83882508D01*
X76744410Y-83819384D01*
X76637164Y-83747724D01*
X76517998Y-83698364D01*
X76391492Y-83673200D01*
X76262508Y-83673200D01*
X76136002Y-83698364D01*
X76016836Y-83747724D01*
X75909590Y-83819384D01*
X75818384Y-83910590D01*
X75802541Y-83934300D01*
X72914459Y-83934300D01*
X72898616Y-83910590D01*
X72807410Y-83819384D01*
X72700164Y-83747724D01*
X72580998Y-83698364D01*
X72454492Y-83673200D01*
X72325508Y-83673200D01*
X72199002Y-83698364D01*
X72079836Y-83747724D01*
X71972590Y-83819384D01*
X71881384Y-83910590D01*
X71809724Y-84017836D01*
X71760364Y-84137002D01*
X71735200Y-84263508D01*
X71735200Y-84392492D01*
X71743695Y-84435200D01*
X71690508Y-84435200D01*
X71564002Y-84460364D01*
X71444836Y-84509724D01*
X71337590Y-84581384D01*
X71246384Y-84672590D01*
X71174724Y-84779836D01*
X71125364Y-84899002D01*
X71100200Y-85025508D01*
X66675000Y-85025508D01*
X66675000Y-81088508D01*
X82403200Y-81088508D01*
X82403200Y-81217492D01*
X82428364Y-81343998D01*
X82477724Y-81463164D01*
X82549384Y-81570410D01*
X82640590Y-81661616D01*
X82747836Y-81733276D01*
X82867002Y-81782636D01*
X82993508Y-81807800D01*
X83122492Y-81807800D01*
X83248998Y-81782636D01*
X83368164Y-81733276D01*
X83475410Y-81661616D01*
X83566616Y-81570410D01*
X83638276Y-81463164D01*
X83687636Y-81343998D01*
X83712800Y-81217492D01*
X83712800Y-81088508D01*
X83687636Y-80962002D01*
X83638276Y-80842836D01*
X83566616Y-80735590D01*
X83475410Y-80644384D01*
X83368164Y-80572724D01*
X83248998Y-80523364D01*
X83122492Y-80498200D01*
X82993508Y-80498200D01*
X82867002Y-80523364D01*
X82747836Y-80572724D01*
X82640590Y-80644384D01*
X82549384Y-80735590D01*
X82477724Y-80842836D01*
X82428364Y-80962002D01*
X82403200Y-81088508D01*
X66675000Y-81088508D01*
X66675000Y-80199508D01*
X75545200Y-80199508D01*
X75545200Y-80328492D01*
X75570364Y-80454998D01*
X75619724Y-80574164D01*
X75691384Y-80681410D01*
X75782590Y-80772616D01*
X75889836Y-80844276D01*
X76009002Y-80893636D01*
X76135508Y-80918800D01*
X76264492Y-80918800D01*
X76390998Y-80893636D01*
X76510164Y-80844276D01*
X76617410Y-80772616D01*
X76708616Y-80681410D01*
X76780276Y-80574164D01*
X76829636Y-80454998D01*
X76854800Y-80328492D01*
X76854800Y-80199508D01*
X77069200Y-80199508D01*
X77069200Y-80328492D01*
X77094364Y-80454998D01*
X77143724Y-80574164D01*
X77215384Y-80681410D01*
X77306590Y-80772616D01*
X77413836Y-80844276D01*
X77533002Y-80893636D01*
X77659508Y-80918800D01*
X77788492Y-80918800D01*
X77914998Y-80893636D01*
X78034164Y-80844276D01*
X78141410Y-80772616D01*
X78232616Y-80681410D01*
X78304276Y-80574164D01*
X78353636Y-80454998D01*
X78378800Y-80328492D01*
X78378800Y-80199508D01*
X78353636Y-80073002D01*
X78304276Y-79953836D01*
X78232616Y-79846590D01*
X78141410Y-79755384D01*
X78034164Y-79683724D01*
X77914998Y-79634364D01*
X77788492Y-79609200D01*
X77659508Y-79609200D01*
X77533002Y-79634364D01*
X77413836Y-79683724D01*
X77306590Y-79755384D01*
X77215384Y-79846590D01*
X77143724Y-79953836D01*
X77094364Y-80073002D01*
X77069200Y-80199508D01*
X76854800Y-80199508D01*
X76829636Y-80073002D01*
X76780276Y-79953836D01*
X76708616Y-79846590D01*
X76617410Y-79755384D01*
X76510164Y-79683724D01*
X76390998Y-79634364D01*
X76264492Y-79609200D01*
X76135508Y-79609200D01*
X76009002Y-79634364D01*
X75889836Y-79683724D01*
X75782590Y-79755384D01*
X75691384Y-79846590D01*
X75619724Y-79953836D01*
X75570364Y-80073002D01*
X75545200Y-80199508D01*
X66675000Y-80199508D01*
X66675000Y-78359000D01*
X76319634Y-78359000D01*
X76307200Y-78421508D01*
G37*
G04 #@! TD.AperFunction*
D23*
X89012044Y-50621370D02*
X88621370Y-51012044D01*
X88314419Y-51471429D01*
X88102987Y-51981870D01*
X87995200Y-52523751D01*
X87995200Y-53076249D01*
X88102987Y-53618130D01*
X88314419Y-54128571D01*
X88621370Y-54587956D01*
X89012044Y-54978630D01*
X89471429Y-55285581D01*
X89981870Y-55497013D01*
X90523751Y-55604800D01*
X91076249Y-55604800D01*
X91618130Y-55497013D01*
X92128571Y-55285581D01*
X92587956Y-54978630D01*
X92978630Y-54587956D01*
X93285581Y-54128571D01*
X93497013Y-53618130D01*
X93604800Y-53076249D01*
X93604800Y-52523751D01*
X93497013Y-51981870D01*
X93285581Y-51471429D01*
X92978630Y-51012044D01*
X92587956Y-50621370D01*
X92151590Y-50329800D01*
X145848410Y-50329800D01*
X145412044Y-50621370D01*
X145021370Y-51012044D01*
X144714419Y-51471429D01*
X144502987Y-51981870D01*
X144395200Y-52523751D01*
X144395200Y-53076249D01*
X144502987Y-53618130D01*
X144714419Y-54128571D01*
X145021370Y-54587956D01*
X145412044Y-54978630D01*
X145871429Y-55285581D01*
X146381870Y-55497013D01*
X146923751Y-55604800D01*
X147476249Y-55604800D01*
X148018130Y-55497013D01*
X148528571Y-55285581D01*
X148987956Y-54978630D01*
X149378630Y-54587956D01*
X149670200Y-54151590D01*
X149670201Y-95848411D01*
X149378630Y-95412044D01*
X148987956Y-95021370D01*
X148528571Y-94714419D01*
X148018130Y-94502987D01*
X147476249Y-94395200D01*
X146923751Y-94395200D01*
X146381870Y-94502987D01*
X145871429Y-94714419D01*
X145412044Y-95021370D01*
X145021370Y-95412044D01*
X144714419Y-95871429D01*
X144502987Y-96381870D01*
X144395200Y-96923751D01*
X144395200Y-97476249D01*
X144502987Y-98018130D01*
X144714419Y-98528571D01*
X145021370Y-98987956D01*
X145412044Y-99378630D01*
X145848410Y-99670200D01*
X113851590Y-99670200D01*
X114287956Y-99378630D01*
X114678630Y-98987956D01*
X114985581Y-98528571D01*
X115197013Y-98018130D01*
X115304800Y-97476249D01*
X115304800Y-97127873D01*
X115337162Y-97154432D01*
X115389858Y-97182598D01*
X115447036Y-97199943D01*
X115506500Y-97205800D01*
X116191726Y-97205800D01*
X116191726Y-98767000D01*
X116197611Y-98826751D01*
X116215040Y-98884206D01*
X116243342Y-98937157D01*
X116281432Y-98983568D01*
X116327843Y-99021658D01*
X116380794Y-99049960D01*
X116438249Y-99067389D01*
X116498000Y-99073274D01*
X118198000Y-99073274D01*
X118257751Y-99067389D01*
X118315206Y-99049960D01*
X118368157Y-99021658D01*
X118414568Y-98983568D01*
X118452658Y-98937157D01*
X118480960Y-98884206D01*
X118498389Y-98826751D01*
X118504274Y-98767000D01*
X118504274Y-98412300D01*
X118847683Y-98412300D01*
X118872000Y-98414695D01*
X118896317Y-98412300D01*
X118896327Y-98412300D01*
X118969096Y-98405133D01*
X119062460Y-98376811D01*
X119148505Y-98330819D01*
X119223924Y-98268924D01*
X119239434Y-98250025D01*
X120511459Y-96978000D01*
X124183726Y-96978000D01*
X124183726Y-98678000D01*
X124189611Y-98737751D01*
X124207040Y-98795206D01*
X124235342Y-98848157D01*
X124273432Y-98894568D01*
X124319843Y-98932658D01*
X124372794Y-98960960D01*
X124430249Y-98978389D01*
X124490000Y-98984274D01*
X126190000Y-98984274D01*
X126249751Y-98978389D01*
X126307206Y-98960960D01*
X126360157Y-98932658D01*
X126406568Y-98894568D01*
X126444658Y-98848157D01*
X126472960Y-98795206D01*
X126490389Y-98737751D01*
X126496274Y-98678000D01*
X126496274Y-97714262D01*
X126725200Y-97714262D01*
X126725200Y-97941738D01*
X126769578Y-98164843D01*
X126856629Y-98375003D01*
X126983008Y-98564142D01*
X127143858Y-98724992D01*
X127332997Y-98851371D01*
X127543157Y-98938422D01*
X127766262Y-98982800D01*
X127993738Y-98982800D01*
X128216843Y-98938422D01*
X128427003Y-98851371D01*
X128616142Y-98724992D01*
X128776992Y-98564142D01*
X128903371Y-98375003D01*
X128990422Y-98164843D01*
X129034800Y-97941738D01*
X129034800Y-97714262D01*
X128990422Y-97491157D01*
X128903371Y-97280997D01*
X128776992Y-97091858D01*
X128616142Y-96931008D01*
X128427003Y-96804629D01*
X128216843Y-96717578D01*
X127993738Y-96673200D01*
X127766262Y-96673200D01*
X127543157Y-96717578D01*
X127332997Y-96804629D01*
X127143858Y-96931008D01*
X126983008Y-97091858D01*
X126856629Y-97280997D01*
X126769578Y-97491157D01*
X126725200Y-97714262D01*
X126496274Y-97714262D01*
X126496274Y-96978000D01*
X126490389Y-96918249D01*
X126472960Y-96860794D01*
X126444658Y-96807843D01*
X126406568Y-96761432D01*
X126360157Y-96723342D01*
X126307206Y-96695040D01*
X126249751Y-96677611D01*
X126190000Y-96671726D01*
X124490000Y-96671726D01*
X124430249Y-96677611D01*
X124372794Y-96695040D01*
X124319843Y-96723342D01*
X124273432Y-96761432D01*
X124235342Y-96807843D01*
X124207040Y-96860794D01*
X124189611Y-96918249D01*
X124183726Y-96978000D01*
X120511459Y-96978000D01*
X120906951Y-96582508D01*
X136886200Y-96582508D01*
X136886200Y-96711492D01*
X136911364Y-96837998D01*
X136960724Y-96957164D01*
X137032384Y-97064410D01*
X137123590Y-97155616D01*
X137230836Y-97227276D01*
X137350002Y-97276636D01*
X137476508Y-97301800D01*
X137605492Y-97301800D01*
X137731998Y-97276636D01*
X137851164Y-97227276D01*
X137958410Y-97155616D01*
X138049616Y-97064410D01*
X138121276Y-96957164D01*
X138170636Y-96837998D01*
X138195800Y-96711492D01*
X138195800Y-96582508D01*
X138170636Y-96456002D01*
X138121276Y-96336836D01*
X138049616Y-96229590D01*
X137958410Y-96138384D01*
X137851164Y-96066724D01*
X137731998Y-96017364D01*
X137605492Y-95992200D01*
X137476508Y-95992200D01*
X137350002Y-96017364D01*
X137230836Y-96066724D01*
X137123590Y-96138384D01*
X137032384Y-96229590D01*
X136960724Y-96336836D01*
X136911364Y-96456002D01*
X136886200Y-96582508D01*
X120906951Y-96582508D01*
X123395160Y-94094300D01*
X125385721Y-94094300D01*
X125354364Y-94170002D01*
X125329200Y-94296508D01*
X125329200Y-94425492D01*
X125354364Y-94551998D01*
X125403724Y-94671164D01*
X125475384Y-94778410D01*
X125566590Y-94869616D01*
X125584675Y-94881700D01*
X123493726Y-94881700D01*
X123480410Y-94868384D01*
X123373164Y-94796724D01*
X123253998Y-94747364D01*
X123127492Y-94722200D01*
X122998508Y-94722200D01*
X122872002Y-94747364D01*
X122752836Y-94796724D01*
X122645590Y-94868384D01*
X122554384Y-94959590D01*
X122482724Y-95066836D01*
X122433364Y-95186002D01*
X122408200Y-95312508D01*
X122408200Y-95441492D01*
X122433364Y-95567998D01*
X122482724Y-95687164D01*
X122554384Y-95794410D01*
X122645590Y-95885616D01*
X122752836Y-95957276D01*
X122872002Y-96006636D01*
X122998508Y-96031800D01*
X123127492Y-96031800D01*
X123253998Y-96006636D01*
X123373164Y-95957276D01*
X123480410Y-95885616D01*
X123493726Y-95872300D01*
X126340683Y-95872300D01*
X126365000Y-95874695D01*
X126389317Y-95872300D01*
X126389327Y-95872300D01*
X126462096Y-95865133D01*
X126555460Y-95836811D01*
X126641505Y-95790819D01*
X126716924Y-95728924D01*
X126732434Y-95710025D01*
X127314218Y-95128242D01*
X127839274Y-95128242D01*
X127852590Y-95141558D01*
X127959836Y-95213218D01*
X128079002Y-95262578D01*
X128205508Y-95287742D01*
X128334492Y-95287742D01*
X128460998Y-95262578D01*
X128580164Y-95213218D01*
X128687410Y-95141558D01*
X128778616Y-95050352D01*
X128850276Y-94943106D01*
X128899636Y-94823940D01*
X128924800Y-94697434D01*
X128924800Y-94568450D01*
X128899636Y-94441944D01*
X128850276Y-94322778D01*
X128778616Y-94215532D01*
X128687410Y-94124326D01*
X128580164Y-94052666D01*
X128460998Y-94003306D01*
X128334492Y-93978142D01*
X128205508Y-93978142D01*
X128079002Y-94003306D01*
X127959836Y-94052666D01*
X127852590Y-94124326D01*
X127839274Y-94137642D01*
X127133375Y-94137642D01*
X127109058Y-94135247D01*
X127084741Y-94137642D01*
X127084731Y-94137642D01*
X127011962Y-94144809D01*
X126954793Y-94162151D01*
X127036410Y-94107616D01*
X127127616Y-94016410D01*
X127199276Y-93909164D01*
X127248636Y-93789998D01*
X127273800Y-93663492D01*
X127273800Y-93534508D01*
X127248636Y-93408002D01*
X127199276Y-93288836D01*
X127127616Y-93181590D01*
X127036410Y-93090384D01*
X126929164Y-93018724D01*
X126809998Y-92969364D01*
X126683492Y-92944200D01*
X126554508Y-92944200D01*
X126428002Y-92969364D01*
X126308836Y-93018724D01*
X126201590Y-93090384D01*
X126188274Y-93103700D01*
X123214316Y-93103700D01*
X123189999Y-93101305D01*
X123165682Y-93103700D01*
X123165673Y-93103700D01*
X123092904Y-93110867D01*
X122999540Y-93139189D01*
X122984620Y-93147164D01*
X122913494Y-93185181D01*
X122856971Y-93231569D01*
X122838076Y-93247076D01*
X122822570Y-93265970D01*
X119303800Y-96784741D01*
X119303800Y-92391508D01*
X133838200Y-92391508D01*
X133838200Y-92520492D01*
X133863364Y-92646998D01*
X133912724Y-92766164D01*
X133984384Y-92873410D01*
X134075590Y-92964616D01*
X134182836Y-93036276D01*
X134302002Y-93085636D01*
X134428508Y-93110800D01*
X134557492Y-93110800D01*
X134683998Y-93085636D01*
X134803164Y-93036276D01*
X134910410Y-92964616D01*
X135001616Y-92873410D01*
X135073276Y-92766164D01*
X135122636Y-92646998D01*
X135147800Y-92520492D01*
X135147800Y-92391508D01*
X135122636Y-92265002D01*
X135073276Y-92145836D01*
X135001616Y-92038590D01*
X134910410Y-91947384D01*
X134803164Y-91875724D01*
X134683998Y-91826364D01*
X134557492Y-91801200D01*
X134428508Y-91801200D01*
X134302002Y-91826364D01*
X134182836Y-91875724D01*
X134075590Y-91947384D01*
X133984384Y-92038590D01*
X133912724Y-92145836D01*
X133863364Y-92265002D01*
X133838200Y-92391508D01*
X119303800Y-92391508D01*
X119303800Y-82092800D01*
X129227572Y-82092800D01*
X127676625Y-83643747D01*
X126735416Y-83643747D01*
X126716091Y-83641844D01*
X126696766Y-83643747D01*
X126696758Y-83643747D01*
X126638912Y-83649444D01*
X126564700Y-83671957D01*
X126496305Y-83708514D01*
X126451373Y-83745389D01*
X126451370Y-83745392D01*
X126436357Y-83757713D01*
X126424035Y-83772727D01*
X121780685Y-88416078D01*
X121765666Y-88428404D01*
X121716467Y-88488353D01*
X121679910Y-88556748D01*
X121657397Y-88630960D01*
X121651700Y-88688806D01*
X121651700Y-88688816D01*
X121649797Y-88708138D01*
X121651700Y-88727461D01*
X121651700Y-89106781D01*
X121627990Y-89122624D01*
X121536784Y-89213830D01*
X121465124Y-89321076D01*
X121415764Y-89440242D01*
X121390600Y-89566748D01*
X121390600Y-89695732D01*
X121415764Y-89822238D01*
X121465124Y-89941404D01*
X121536784Y-90048650D01*
X121627990Y-90139856D01*
X121735236Y-90211516D01*
X121854402Y-90260876D01*
X121980908Y-90286040D01*
X122017967Y-90286040D01*
X122007310Y-90339618D01*
X122007310Y-90468602D01*
X122032474Y-90595108D01*
X122081834Y-90714274D01*
X122153494Y-90821520D01*
X122244700Y-90912726D01*
X122331860Y-90970965D01*
X122325402Y-90970965D01*
X122198896Y-90996129D01*
X122079730Y-91045489D01*
X121972484Y-91117149D01*
X121881278Y-91208355D01*
X121809618Y-91315601D01*
X121760258Y-91434767D01*
X121735094Y-91561273D01*
X121735094Y-91690257D01*
X121760258Y-91816763D01*
X121809618Y-91935929D01*
X121881278Y-92043175D01*
X121972484Y-92134381D01*
X122079730Y-92206041D01*
X122198896Y-92255401D01*
X122325402Y-92280565D01*
X122454386Y-92280565D01*
X122580892Y-92255401D01*
X122700058Y-92206041D01*
X122807304Y-92134381D01*
X122898510Y-92043175D01*
X122914353Y-92019465D01*
X125202321Y-92019465D01*
X125221643Y-92021368D01*
X125240965Y-92019465D01*
X125240976Y-92019465D01*
X125298822Y-92013768D01*
X125373034Y-91991255D01*
X125441429Y-91954698D01*
X125501377Y-91905499D01*
X125513703Y-91890480D01*
X127475484Y-89928700D01*
X133267178Y-89928700D01*
X133286500Y-89930603D01*
X133305822Y-89928700D01*
X133305833Y-89928700D01*
X133363679Y-89923003D01*
X133437891Y-89900490D01*
X133506286Y-89863933D01*
X133566234Y-89814734D01*
X133578560Y-89799715D01*
X135519720Y-87858556D01*
X135534734Y-87846234D01*
X135547058Y-87831218D01*
X135583933Y-87786287D01*
X135620489Y-87717892D01*
X135620490Y-87717891D01*
X135643003Y-87643679D01*
X135648700Y-87585833D01*
X135648700Y-87585823D01*
X135650603Y-87566501D01*
X135648700Y-87547178D01*
X135648700Y-69805822D01*
X135650603Y-69786499D01*
X135648700Y-69767177D01*
X135648700Y-69767167D01*
X135643003Y-69709321D01*
X135620490Y-69635109D01*
X135583933Y-69566714D01*
X135579888Y-69561785D01*
X135547058Y-69521782D01*
X135547055Y-69521779D01*
X135534734Y-69506766D01*
X135519722Y-69494446D01*
X134847519Y-68822243D01*
X137695200Y-68822243D01*
X137695200Y-69177757D01*
X137764557Y-69526441D01*
X137900607Y-69854894D01*
X138098120Y-70150493D01*
X138349507Y-70401880D01*
X138645106Y-70599393D01*
X138973559Y-70735443D01*
X139322243Y-70804800D01*
X139677757Y-70804800D01*
X140026441Y-70735443D01*
X140354894Y-70599393D01*
X140650493Y-70401880D01*
X140901880Y-70150493D01*
X141099393Y-69854894D01*
X141235443Y-69526441D01*
X141304800Y-69177757D01*
X141304800Y-68822243D01*
X141235443Y-68473559D01*
X141099393Y-68145106D01*
X140901880Y-67849507D01*
X140650493Y-67598120D01*
X140354894Y-67400607D01*
X140026441Y-67264557D01*
X139677757Y-67195200D01*
X139322243Y-67195200D01*
X138973559Y-67264557D01*
X138645106Y-67400607D01*
X138349507Y-67598120D01*
X138098120Y-67849507D01*
X137900607Y-68145106D01*
X137764557Y-68473559D01*
X137695200Y-68822243D01*
X134847519Y-68822243D01*
X124561560Y-58536285D01*
X124549234Y-58521266D01*
X124489286Y-58472067D01*
X124420891Y-58435510D01*
X124346679Y-58412997D01*
X124288833Y-58407300D01*
X124288822Y-58407300D01*
X124269500Y-58405397D01*
X124250178Y-58407300D01*
X62563959Y-58407300D01*
X62548116Y-58383590D01*
X62456910Y-58292384D01*
X62349664Y-58220724D01*
X62230498Y-58171364D01*
X62103992Y-58146200D01*
X61975008Y-58146200D01*
X61848502Y-58171364D01*
X61729336Y-58220724D01*
X61622090Y-58292384D01*
X61530884Y-58383590D01*
X61459224Y-58490836D01*
X61409864Y-58610002D01*
X61384700Y-58736508D01*
X61384700Y-58865492D01*
X61409864Y-58991998D01*
X61459224Y-59111164D01*
X61530884Y-59218410D01*
X61622090Y-59309616D01*
X61729336Y-59381276D01*
X61830791Y-59423300D01*
X55264325Y-59423300D01*
X55245000Y-59421397D01*
X55225675Y-59423300D01*
X55225667Y-59423300D01*
X55167821Y-59428997D01*
X55093609Y-59451510D01*
X55025214Y-59488067D01*
X54980282Y-59524942D01*
X54980279Y-59524945D01*
X54965266Y-59537266D01*
X54952944Y-59552280D01*
X52540986Y-61964239D01*
X52525967Y-61976565D01*
X52476768Y-62036514D01*
X52440211Y-62104909D01*
X52417698Y-62179121D01*
X52412001Y-62236967D01*
X52412001Y-62236977D01*
X52410098Y-62256299D01*
X52412001Y-62275621D01*
X52412002Y-65512496D01*
X52320252Y-65457843D01*
X52045891Y-65360519D01*
X51816000Y-65481186D01*
X51816000Y-66675000D01*
X51836000Y-66675000D01*
X51836000Y-66929000D01*
X51816000Y-66929000D01*
X51816000Y-66949000D01*
X51562000Y-66949000D01*
X51562000Y-66929000D01*
X51542000Y-66929000D01*
X51542000Y-66675000D01*
X51562000Y-66675000D01*
X51562000Y-65481186D01*
X51332109Y-65360519D01*
X51057748Y-65457843D01*
X50807645Y-65606822D01*
X50591412Y-65801731D01*
X50417359Y-66035080D01*
X50329800Y-66218908D01*
X50329800Y-53209583D01*
X56616200Y-53209583D01*
X56616200Y-53348417D01*
X56643285Y-53484583D01*
X56696415Y-53612848D01*
X56773546Y-53728284D01*
X56871716Y-53826454D01*
X56987152Y-53903585D01*
X57115417Y-53956715D01*
X57251583Y-53983800D01*
X57390417Y-53983800D01*
X57526583Y-53956715D01*
X57654848Y-53903585D01*
X57770284Y-53826454D01*
X57868454Y-53728284D01*
X57945585Y-53612848D01*
X57998715Y-53484583D01*
X58025800Y-53348417D01*
X58025800Y-53209583D01*
X57998715Y-53073417D01*
X57945585Y-52945152D01*
X57868454Y-52829716D01*
X57770284Y-52731546D01*
X57654848Y-52654415D01*
X57526583Y-52601285D01*
X57390417Y-52574200D01*
X57251583Y-52574200D01*
X57115417Y-52601285D01*
X56987152Y-52654415D01*
X56871716Y-52731546D01*
X56773546Y-52829716D01*
X56696415Y-52945152D01*
X56643285Y-53073417D01*
X56616200Y-53209583D01*
X50329800Y-53209583D01*
X50329800Y-50329800D01*
X89448410Y-50329800D01*
X89012044Y-50621370D01*
G04 #@! TA.AperFunction,Conductor*
D24*
G36*
X89012044Y-50621370D02*
G01*
X88621370Y-51012044D01*
X88314419Y-51471429D01*
X88102987Y-51981870D01*
X87995200Y-52523751D01*
X87995200Y-53076249D01*
X88102987Y-53618130D01*
X88314419Y-54128571D01*
X88621370Y-54587956D01*
X89012044Y-54978630D01*
X89471429Y-55285581D01*
X89981870Y-55497013D01*
X90523751Y-55604800D01*
X91076249Y-55604800D01*
X91618130Y-55497013D01*
X92128571Y-55285581D01*
X92587956Y-54978630D01*
X92978630Y-54587956D01*
X93285581Y-54128571D01*
X93497013Y-53618130D01*
X93604800Y-53076249D01*
X93604800Y-52523751D01*
X93497013Y-51981870D01*
X93285581Y-51471429D01*
X92978630Y-51012044D01*
X92587956Y-50621370D01*
X92151590Y-50329800D01*
X145848410Y-50329800D01*
X145412044Y-50621370D01*
X145021370Y-51012044D01*
X144714419Y-51471429D01*
X144502987Y-51981870D01*
X144395200Y-52523751D01*
X144395200Y-53076249D01*
X144502987Y-53618130D01*
X144714419Y-54128571D01*
X145021370Y-54587956D01*
X145412044Y-54978630D01*
X145871429Y-55285581D01*
X146381870Y-55497013D01*
X146923751Y-55604800D01*
X147476249Y-55604800D01*
X148018130Y-55497013D01*
X148528571Y-55285581D01*
X148987956Y-54978630D01*
X149378630Y-54587956D01*
X149670200Y-54151590D01*
X149670201Y-95848411D01*
X149378630Y-95412044D01*
X148987956Y-95021370D01*
X148528571Y-94714419D01*
X148018130Y-94502987D01*
X147476249Y-94395200D01*
X146923751Y-94395200D01*
X146381870Y-94502987D01*
X145871429Y-94714419D01*
X145412044Y-95021370D01*
X145021370Y-95412044D01*
X144714419Y-95871429D01*
X144502987Y-96381870D01*
X144395200Y-96923751D01*
X144395200Y-97476249D01*
X144502987Y-98018130D01*
X144714419Y-98528571D01*
X145021370Y-98987956D01*
X145412044Y-99378630D01*
X145848410Y-99670200D01*
X113851590Y-99670200D01*
X114287956Y-99378630D01*
X114678630Y-98987956D01*
X114985581Y-98528571D01*
X115197013Y-98018130D01*
X115304800Y-97476249D01*
X115304800Y-97127873D01*
X115337162Y-97154432D01*
X115389858Y-97182598D01*
X115447036Y-97199943D01*
X115506500Y-97205800D01*
X116191726Y-97205800D01*
X116191726Y-98767000D01*
X116197611Y-98826751D01*
X116215040Y-98884206D01*
X116243342Y-98937157D01*
X116281432Y-98983568D01*
X116327843Y-99021658D01*
X116380794Y-99049960D01*
X116438249Y-99067389D01*
X116498000Y-99073274D01*
X118198000Y-99073274D01*
X118257751Y-99067389D01*
X118315206Y-99049960D01*
X118368157Y-99021658D01*
X118414568Y-98983568D01*
X118452658Y-98937157D01*
X118480960Y-98884206D01*
X118498389Y-98826751D01*
X118504274Y-98767000D01*
X118504274Y-98412300D01*
X118847683Y-98412300D01*
X118872000Y-98414695D01*
X118896317Y-98412300D01*
X118896327Y-98412300D01*
X118969096Y-98405133D01*
X119062460Y-98376811D01*
X119148505Y-98330819D01*
X119223924Y-98268924D01*
X119239434Y-98250025D01*
X120511459Y-96978000D01*
X124183726Y-96978000D01*
X124183726Y-98678000D01*
X124189611Y-98737751D01*
X124207040Y-98795206D01*
X124235342Y-98848157D01*
X124273432Y-98894568D01*
X124319843Y-98932658D01*
X124372794Y-98960960D01*
X124430249Y-98978389D01*
X124490000Y-98984274D01*
X126190000Y-98984274D01*
X126249751Y-98978389D01*
X126307206Y-98960960D01*
X126360157Y-98932658D01*
X126406568Y-98894568D01*
X126444658Y-98848157D01*
X126472960Y-98795206D01*
X126490389Y-98737751D01*
X126496274Y-98678000D01*
X126496274Y-97714262D01*
X126725200Y-97714262D01*
X126725200Y-97941738D01*
X126769578Y-98164843D01*
X126856629Y-98375003D01*
X126983008Y-98564142D01*
X127143858Y-98724992D01*
X127332997Y-98851371D01*
X127543157Y-98938422D01*
X127766262Y-98982800D01*
X127993738Y-98982800D01*
X128216843Y-98938422D01*
X128427003Y-98851371D01*
X128616142Y-98724992D01*
X128776992Y-98564142D01*
X128903371Y-98375003D01*
X128990422Y-98164843D01*
X129034800Y-97941738D01*
X129034800Y-97714262D01*
X128990422Y-97491157D01*
X128903371Y-97280997D01*
X128776992Y-97091858D01*
X128616142Y-96931008D01*
X128427003Y-96804629D01*
X128216843Y-96717578D01*
X127993738Y-96673200D01*
X127766262Y-96673200D01*
X127543157Y-96717578D01*
X127332997Y-96804629D01*
X127143858Y-96931008D01*
X126983008Y-97091858D01*
X126856629Y-97280997D01*
X126769578Y-97491157D01*
X126725200Y-97714262D01*
X126496274Y-97714262D01*
X126496274Y-96978000D01*
X126490389Y-96918249D01*
X126472960Y-96860794D01*
X126444658Y-96807843D01*
X126406568Y-96761432D01*
X126360157Y-96723342D01*
X126307206Y-96695040D01*
X126249751Y-96677611D01*
X126190000Y-96671726D01*
X124490000Y-96671726D01*
X124430249Y-96677611D01*
X124372794Y-96695040D01*
X124319843Y-96723342D01*
X124273432Y-96761432D01*
X124235342Y-96807843D01*
X124207040Y-96860794D01*
X124189611Y-96918249D01*
X124183726Y-96978000D01*
X120511459Y-96978000D01*
X120906951Y-96582508D01*
X136886200Y-96582508D01*
X136886200Y-96711492D01*
X136911364Y-96837998D01*
X136960724Y-96957164D01*
X137032384Y-97064410D01*
X137123590Y-97155616D01*
X137230836Y-97227276D01*
X137350002Y-97276636D01*
X137476508Y-97301800D01*
X137605492Y-97301800D01*
X137731998Y-97276636D01*
X137851164Y-97227276D01*
X137958410Y-97155616D01*
X138049616Y-97064410D01*
X138121276Y-96957164D01*
X138170636Y-96837998D01*
X138195800Y-96711492D01*
X138195800Y-96582508D01*
X138170636Y-96456002D01*
X138121276Y-96336836D01*
X138049616Y-96229590D01*
X137958410Y-96138384D01*
X137851164Y-96066724D01*
X137731998Y-96017364D01*
X137605492Y-95992200D01*
X137476508Y-95992200D01*
X137350002Y-96017364D01*
X137230836Y-96066724D01*
X137123590Y-96138384D01*
X137032384Y-96229590D01*
X136960724Y-96336836D01*
X136911364Y-96456002D01*
X136886200Y-96582508D01*
X120906951Y-96582508D01*
X123395160Y-94094300D01*
X125385721Y-94094300D01*
X125354364Y-94170002D01*
X125329200Y-94296508D01*
X125329200Y-94425492D01*
X125354364Y-94551998D01*
X125403724Y-94671164D01*
X125475384Y-94778410D01*
X125566590Y-94869616D01*
X125584675Y-94881700D01*
X123493726Y-94881700D01*
X123480410Y-94868384D01*
X123373164Y-94796724D01*
X123253998Y-94747364D01*
X123127492Y-94722200D01*
X122998508Y-94722200D01*
X122872002Y-94747364D01*
X122752836Y-94796724D01*
X122645590Y-94868384D01*
X122554384Y-94959590D01*
X122482724Y-95066836D01*
X122433364Y-95186002D01*
X122408200Y-95312508D01*
X122408200Y-95441492D01*
X122433364Y-95567998D01*
X122482724Y-95687164D01*
X122554384Y-95794410D01*
X122645590Y-95885616D01*
X122752836Y-95957276D01*
X122872002Y-96006636D01*
X122998508Y-96031800D01*
X123127492Y-96031800D01*
X123253998Y-96006636D01*
X123373164Y-95957276D01*
X123480410Y-95885616D01*
X123493726Y-95872300D01*
X126340683Y-95872300D01*
X126365000Y-95874695D01*
X126389317Y-95872300D01*
X126389327Y-95872300D01*
X126462096Y-95865133D01*
X126555460Y-95836811D01*
X126641505Y-95790819D01*
X126716924Y-95728924D01*
X126732434Y-95710025D01*
X127314218Y-95128242D01*
X127839274Y-95128242D01*
X127852590Y-95141558D01*
X127959836Y-95213218D01*
X128079002Y-95262578D01*
X128205508Y-95287742D01*
X128334492Y-95287742D01*
X128460998Y-95262578D01*
X128580164Y-95213218D01*
X128687410Y-95141558D01*
X128778616Y-95050352D01*
X128850276Y-94943106D01*
X128899636Y-94823940D01*
X128924800Y-94697434D01*
X128924800Y-94568450D01*
X128899636Y-94441944D01*
X128850276Y-94322778D01*
X128778616Y-94215532D01*
X128687410Y-94124326D01*
X128580164Y-94052666D01*
X128460998Y-94003306D01*
X128334492Y-93978142D01*
X128205508Y-93978142D01*
X128079002Y-94003306D01*
X127959836Y-94052666D01*
X127852590Y-94124326D01*
X127839274Y-94137642D01*
X127133375Y-94137642D01*
X127109058Y-94135247D01*
X127084741Y-94137642D01*
X127084731Y-94137642D01*
X127011962Y-94144809D01*
X126954793Y-94162151D01*
X127036410Y-94107616D01*
X127127616Y-94016410D01*
X127199276Y-93909164D01*
X127248636Y-93789998D01*
X127273800Y-93663492D01*
X127273800Y-93534508D01*
X127248636Y-93408002D01*
X127199276Y-93288836D01*
X127127616Y-93181590D01*
X127036410Y-93090384D01*
X126929164Y-93018724D01*
X126809998Y-92969364D01*
X126683492Y-92944200D01*
X126554508Y-92944200D01*
X126428002Y-92969364D01*
X126308836Y-93018724D01*
X126201590Y-93090384D01*
X126188274Y-93103700D01*
X123214316Y-93103700D01*
X123189999Y-93101305D01*
X123165682Y-93103700D01*
X123165673Y-93103700D01*
X123092904Y-93110867D01*
X122999540Y-93139189D01*
X122984620Y-93147164D01*
X122913494Y-93185181D01*
X122856971Y-93231569D01*
X122838076Y-93247076D01*
X122822570Y-93265970D01*
X119303800Y-96784741D01*
X119303800Y-92391508D01*
X133838200Y-92391508D01*
X133838200Y-92520492D01*
X133863364Y-92646998D01*
X133912724Y-92766164D01*
X133984384Y-92873410D01*
X134075590Y-92964616D01*
X134182836Y-93036276D01*
X134302002Y-93085636D01*
X134428508Y-93110800D01*
X134557492Y-93110800D01*
X134683998Y-93085636D01*
X134803164Y-93036276D01*
X134910410Y-92964616D01*
X135001616Y-92873410D01*
X135073276Y-92766164D01*
X135122636Y-92646998D01*
X135147800Y-92520492D01*
X135147800Y-92391508D01*
X135122636Y-92265002D01*
X135073276Y-92145836D01*
X135001616Y-92038590D01*
X134910410Y-91947384D01*
X134803164Y-91875724D01*
X134683998Y-91826364D01*
X134557492Y-91801200D01*
X134428508Y-91801200D01*
X134302002Y-91826364D01*
X134182836Y-91875724D01*
X134075590Y-91947384D01*
X133984384Y-92038590D01*
X133912724Y-92145836D01*
X133863364Y-92265002D01*
X133838200Y-92391508D01*
X119303800Y-92391508D01*
X119303800Y-82092800D01*
X129227572Y-82092800D01*
X127676625Y-83643747D01*
X126735416Y-83643747D01*
X126716091Y-83641844D01*
X126696766Y-83643747D01*
X126696758Y-83643747D01*
X126638912Y-83649444D01*
X126564700Y-83671957D01*
X126496305Y-83708514D01*
X126451373Y-83745389D01*
X126451370Y-83745392D01*
X126436357Y-83757713D01*
X126424035Y-83772727D01*
X121780685Y-88416078D01*
X121765666Y-88428404D01*
X121716467Y-88488353D01*
X121679910Y-88556748D01*
X121657397Y-88630960D01*
X121651700Y-88688806D01*
X121651700Y-88688816D01*
X121649797Y-88708138D01*
X121651700Y-88727461D01*
X121651700Y-89106781D01*
X121627990Y-89122624D01*
X121536784Y-89213830D01*
X121465124Y-89321076D01*
X121415764Y-89440242D01*
X121390600Y-89566748D01*
X121390600Y-89695732D01*
X121415764Y-89822238D01*
X121465124Y-89941404D01*
X121536784Y-90048650D01*
X121627990Y-90139856D01*
X121735236Y-90211516D01*
X121854402Y-90260876D01*
X121980908Y-90286040D01*
X122017967Y-90286040D01*
X122007310Y-90339618D01*
X122007310Y-90468602D01*
X122032474Y-90595108D01*
X122081834Y-90714274D01*
X122153494Y-90821520D01*
X122244700Y-90912726D01*
X122331860Y-90970965D01*
X122325402Y-90970965D01*
X122198896Y-90996129D01*
X122079730Y-91045489D01*
X121972484Y-91117149D01*
X121881278Y-91208355D01*
X121809618Y-91315601D01*
X121760258Y-91434767D01*
X121735094Y-91561273D01*
X121735094Y-91690257D01*
X121760258Y-91816763D01*
X121809618Y-91935929D01*
X121881278Y-92043175D01*
X121972484Y-92134381D01*
X122079730Y-92206041D01*
X122198896Y-92255401D01*
X122325402Y-92280565D01*
X122454386Y-92280565D01*
X122580892Y-92255401D01*
X122700058Y-92206041D01*
X122807304Y-92134381D01*
X122898510Y-92043175D01*
X122914353Y-92019465D01*
X125202321Y-92019465D01*
X125221643Y-92021368D01*
X125240965Y-92019465D01*
X125240976Y-92019465D01*
X125298822Y-92013768D01*
X125373034Y-91991255D01*
X125441429Y-91954698D01*
X125501377Y-91905499D01*
X125513703Y-91890480D01*
X127475484Y-89928700D01*
X133267178Y-89928700D01*
X133286500Y-89930603D01*
X133305822Y-89928700D01*
X133305833Y-89928700D01*
X133363679Y-89923003D01*
X133437891Y-89900490D01*
X133506286Y-89863933D01*
X133566234Y-89814734D01*
X133578560Y-89799715D01*
X135519720Y-87858556D01*
X135534734Y-87846234D01*
X135547058Y-87831218D01*
X135583933Y-87786287D01*
X135620489Y-87717892D01*
X135620490Y-87717891D01*
X135643003Y-87643679D01*
X135648700Y-87585833D01*
X135648700Y-87585823D01*
X135650603Y-87566501D01*
X135648700Y-87547178D01*
X135648700Y-69805822D01*
X135650603Y-69786499D01*
X135648700Y-69767177D01*
X135648700Y-69767167D01*
X135643003Y-69709321D01*
X135620490Y-69635109D01*
X135583933Y-69566714D01*
X135579888Y-69561785D01*
X135547058Y-69521782D01*
X135547055Y-69521779D01*
X135534734Y-69506766D01*
X135519722Y-69494446D01*
X134847519Y-68822243D01*
X137695200Y-68822243D01*
X137695200Y-69177757D01*
X137764557Y-69526441D01*
X137900607Y-69854894D01*
X138098120Y-70150493D01*
X138349507Y-70401880D01*
X138645106Y-70599393D01*
X138973559Y-70735443D01*
X139322243Y-70804800D01*
X139677757Y-70804800D01*
X140026441Y-70735443D01*
X140354894Y-70599393D01*
X140650493Y-70401880D01*
X140901880Y-70150493D01*
X141099393Y-69854894D01*
X141235443Y-69526441D01*
X141304800Y-69177757D01*
X141304800Y-68822243D01*
X141235443Y-68473559D01*
X141099393Y-68145106D01*
X140901880Y-67849507D01*
X140650493Y-67598120D01*
X140354894Y-67400607D01*
X140026441Y-67264557D01*
X139677757Y-67195200D01*
X139322243Y-67195200D01*
X138973559Y-67264557D01*
X138645106Y-67400607D01*
X138349507Y-67598120D01*
X138098120Y-67849507D01*
X137900607Y-68145106D01*
X137764557Y-68473559D01*
X137695200Y-68822243D01*
X134847519Y-68822243D01*
X124561560Y-58536285D01*
X124549234Y-58521266D01*
X124489286Y-58472067D01*
X124420891Y-58435510D01*
X124346679Y-58412997D01*
X124288833Y-58407300D01*
X124288822Y-58407300D01*
X124269500Y-58405397D01*
X124250178Y-58407300D01*
X62563959Y-58407300D01*
X62548116Y-58383590D01*
X62456910Y-58292384D01*
X62349664Y-58220724D01*
X62230498Y-58171364D01*
X62103992Y-58146200D01*
X61975008Y-58146200D01*
X61848502Y-58171364D01*
X61729336Y-58220724D01*
X61622090Y-58292384D01*
X61530884Y-58383590D01*
X61459224Y-58490836D01*
X61409864Y-58610002D01*
X61384700Y-58736508D01*
X61384700Y-58865492D01*
X61409864Y-58991998D01*
X61459224Y-59111164D01*
X61530884Y-59218410D01*
X61622090Y-59309616D01*
X61729336Y-59381276D01*
X61830791Y-59423300D01*
X55264325Y-59423300D01*
X55245000Y-59421397D01*
X55225675Y-59423300D01*
X55225667Y-59423300D01*
X55167821Y-59428997D01*
X55093609Y-59451510D01*
X55025214Y-59488067D01*
X54980282Y-59524942D01*
X54980279Y-59524945D01*
X54965266Y-59537266D01*
X54952944Y-59552280D01*
X52540986Y-61964239D01*
X52525967Y-61976565D01*
X52476768Y-62036514D01*
X52440211Y-62104909D01*
X52417698Y-62179121D01*
X52412001Y-62236967D01*
X52412001Y-62236977D01*
X52410098Y-62256299D01*
X52412001Y-62275621D01*
X52412002Y-65512496D01*
X52320252Y-65457843D01*
X52045891Y-65360519D01*
X51816000Y-65481186D01*
X51816000Y-66675000D01*
X51836000Y-66675000D01*
X51836000Y-66929000D01*
X51816000Y-66929000D01*
X51816000Y-66949000D01*
X51562000Y-66949000D01*
X51562000Y-66929000D01*
X51542000Y-66929000D01*
X51542000Y-66675000D01*
X51562000Y-66675000D01*
X51562000Y-65481186D01*
X51332109Y-65360519D01*
X51057748Y-65457843D01*
X50807645Y-65606822D01*
X50591412Y-65801731D01*
X50417359Y-66035080D01*
X50329800Y-66218908D01*
X50329800Y-53209583D01*
X56616200Y-53209583D01*
X56616200Y-53348417D01*
X56643285Y-53484583D01*
X56696415Y-53612848D01*
X56773546Y-53728284D01*
X56871716Y-53826454D01*
X56987152Y-53903585D01*
X57115417Y-53956715D01*
X57251583Y-53983800D01*
X57390417Y-53983800D01*
X57526583Y-53956715D01*
X57654848Y-53903585D01*
X57770284Y-53826454D01*
X57868454Y-53728284D01*
X57945585Y-53612848D01*
X57998715Y-53484583D01*
X58025800Y-53348417D01*
X58025800Y-53209583D01*
X57998715Y-53073417D01*
X57945585Y-52945152D01*
X57868454Y-52829716D01*
X57770284Y-52731546D01*
X57654848Y-52654415D01*
X57526583Y-52601285D01*
X57390417Y-52574200D01*
X57251583Y-52574200D01*
X57115417Y-52601285D01*
X56987152Y-52654415D01*
X56871716Y-52731546D01*
X56773546Y-52829716D01*
X56696415Y-52945152D01*
X56643285Y-53073417D01*
X56616200Y-53209583D01*
X50329800Y-53209583D01*
X50329800Y-50329800D01*
X89448410Y-50329800D01*
X89012044Y-50621370D01*
G37*
G04 #@! TD.AperFunction*
D23*
X83565384Y-59272590D02*
X83549541Y-59296300D01*
X81934322Y-59296300D01*
X81914999Y-59294397D01*
X81895677Y-59296300D01*
X81895667Y-59296300D01*
X81837821Y-59301997D01*
X81763609Y-59324510D01*
X81695214Y-59361067D01*
X81650282Y-59397942D01*
X81650279Y-59397945D01*
X81635266Y-59410266D01*
X81622944Y-59425280D01*
X76862425Y-64185800D01*
X73171325Y-64185800D01*
X73152000Y-64183897D01*
X73132675Y-64185800D01*
X73132667Y-64185800D01*
X73074821Y-64191497D01*
X73000609Y-64214010D01*
X72932214Y-64250567D01*
X72887282Y-64287442D01*
X72887279Y-64287445D01*
X72872266Y-64299766D01*
X72859944Y-64314780D01*
X69561461Y-67613264D01*
X69533492Y-67607700D01*
X69404508Y-67607700D01*
X69278002Y-67632864D01*
X69158836Y-67682224D01*
X69051590Y-67753884D01*
X68960384Y-67845090D01*
X68888724Y-67952336D01*
X68839364Y-68071502D01*
X68814200Y-68198008D01*
X68814200Y-68326992D01*
X68839364Y-68453498D01*
X68888724Y-68572664D01*
X68960384Y-68679910D01*
X69051590Y-68771116D01*
X69158836Y-68842776D01*
X69278002Y-68892136D01*
X69404508Y-68917300D01*
X69533492Y-68917300D01*
X69659998Y-68892136D01*
X69779164Y-68842776D01*
X69886410Y-68771116D01*
X69957200Y-68700326D01*
X69957200Y-68707992D01*
X69982364Y-68834498D01*
X70031724Y-68953664D01*
X70103384Y-69060910D01*
X70194590Y-69152116D01*
X70301836Y-69223776D01*
X70421002Y-69273136D01*
X70547508Y-69298300D01*
X70676492Y-69298300D01*
X70802998Y-69273136D01*
X70922164Y-69223776D01*
X71029410Y-69152116D01*
X71120616Y-69060910D01*
X71136459Y-69037200D01*
X80054178Y-69037200D01*
X80073500Y-69039103D01*
X80092822Y-69037200D01*
X80092833Y-69037200D01*
X80150679Y-69031503D01*
X80224891Y-69008990D01*
X80293286Y-68972433D01*
X80353234Y-68923234D01*
X80365560Y-68908215D01*
X84973722Y-64300054D01*
X84988734Y-64287734D01*
X85003834Y-64269336D01*
X85037933Y-64227786D01*
X85074490Y-64159391D01*
X85083516Y-64129636D01*
X85097003Y-64085179D01*
X85102700Y-64027333D01*
X85102700Y-64027323D01*
X85104603Y-64008000D01*
X85102700Y-63988678D01*
X85102700Y-63823862D01*
X85222030Y-63744129D01*
X85334129Y-63632030D01*
X85344000Y-63617257D01*
X85353871Y-63632030D01*
X85465970Y-63744129D01*
X85585301Y-63823863D01*
X85585300Y-67865041D01*
X85561590Y-67880884D01*
X85470384Y-67972090D01*
X85398724Y-68079336D01*
X85349364Y-68198502D01*
X85324200Y-68325008D01*
X85324200Y-68453992D01*
X85349364Y-68580498D01*
X85398724Y-68699664D01*
X85470384Y-68806910D01*
X85561590Y-68898116D01*
X85668836Y-68969776D01*
X85788002Y-69019136D01*
X85914508Y-69044300D01*
X86043492Y-69044300D01*
X86050912Y-69042824D01*
X98355098Y-69042824D01*
X98404666Y-69460451D01*
X98534757Y-69860383D01*
X98692786Y-70156038D01*
X99008347Y-70312048D01*
X100320395Y-69000000D01*
X100679605Y-69000000D01*
X101991653Y-70312048D01*
X102307214Y-70156038D01*
X102498020Y-69781255D01*
X102612044Y-69376449D01*
X102644902Y-68957176D01*
X102595334Y-68539549D01*
X102465243Y-68139617D01*
X102307214Y-67843962D01*
X101991653Y-67687952D01*
X100679605Y-69000000D01*
X100320395Y-69000000D01*
X99008347Y-67687952D01*
X98692786Y-67843962D01*
X98501980Y-68218745D01*
X98387956Y-68623551D01*
X98355098Y-69042824D01*
X86050912Y-69042824D01*
X86169998Y-69019136D01*
X86289164Y-68969776D01*
X86396410Y-68898116D01*
X86487616Y-68806910D01*
X86559276Y-68699664D01*
X86608636Y-68580498D01*
X86633800Y-68453992D01*
X86633800Y-68325008D01*
X86608636Y-68198502D01*
X86559276Y-68079336D01*
X86487616Y-67972090D01*
X86396410Y-67880884D01*
X86372700Y-67865041D01*
X86372700Y-67508347D01*
X99187952Y-67508347D01*
X100500000Y-68820395D01*
X101812048Y-67508347D01*
X101656038Y-67192786D01*
X101281255Y-67001980D01*
X100876449Y-66887956D01*
X100457176Y-66855098D01*
X100039549Y-66904666D01*
X99639617Y-67034757D01*
X99343962Y-67192786D01*
X99187952Y-67508347D01*
X86372700Y-67508347D01*
X86372700Y-63823862D01*
X86492030Y-63744129D01*
X86604129Y-63632030D01*
X86692204Y-63500216D01*
X86752872Y-63353751D01*
X86783800Y-63198266D01*
X86783800Y-63039734D01*
X86752872Y-62884249D01*
X86692204Y-62737784D01*
X86604129Y-62605970D01*
X86492030Y-62493871D01*
X86477257Y-62484000D01*
X86492030Y-62474129D01*
X86604129Y-62362030D01*
X86692204Y-62230216D01*
X86752872Y-62083751D01*
X86783800Y-61928266D01*
X86783800Y-61769734D01*
X86752872Y-61614249D01*
X86692204Y-61467784D01*
X86604129Y-61335970D01*
X86492030Y-61223871D01*
X86360216Y-61135796D01*
X86213751Y-61075128D01*
X86058266Y-61044200D01*
X85899734Y-61044200D01*
X85744249Y-61075128D01*
X85597784Y-61135796D01*
X85592709Y-61139187D01*
X85451020Y-60990135D01*
X85269206Y-60861877D01*
X85065864Y-60771554D01*
X85010874Y-60754881D01*
X84836000Y-60881046D01*
X84836000Y-61722000D01*
X84856000Y-61722000D01*
X84856000Y-61976000D01*
X84836000Y-61976000D01*
X84836000Y-61996000D01*
X84582000Y-61996000D01*
X84582000Y-61976000D01*
X84562000Y-61976000D01*
X84562000Y-61722000D01*
X84582000Y-61722000D01*
X84582000Y-60881046D01*
X84407126Y-60754881D01*
X84352136Y-60771554D01*
X84148794Y-60861877D01*
X83966980Y-60990135D01*
X83825291Y-61139187D01*
X83820216Y-61135796D01*
X83673751Y-61075128D01*
X83518266Y-61044200D01*
X83359734Y-61044200D01*
X83204249Y-61075128D01*
X83057784Y-61135796D01*
X82942000Y-61213160D01*
X82923658Y-61178843D01*
X82885568Y-61132432D01*
X82839157Y-61094342D01*
X82786206Y-61066040D01*
X82728751Y-61048611D01*
X82669000Y-61042726D01*
X81669000Y-61042726D01*
X81609249Y-61048611D01*
X81551794Y-61066040D01*
X81498843Y-61094342D01*
X81452432Y-61132432D01*
X81414342Y-61178843D01*
X81386040Y-61231794D01*
X81368611Y-61289249D01*
X81362726Y-61349000D01*
X81362726Y-62349000D01*
X81368611Y-62408751D01*
X81386040Y-62466206D01*
X81414342Y-62519157D01*
X81452432Y-62565568D01*
X81498843Y-62603658D01*
X81533160Y-62622000D01*
X81455796Y-62737784D01*
X81395128Y-62884249D01*
X81364200Y-63039734D01*
X81364200Y-63198266D01*
X81395128Y-63353751D01*
X81455796Y-63500216D01*
X81543871Y-63632030D01*
X81655970Y-63744129D01*
X81787784Y-63832204D01*
X81934249Y-63892872D01*
X82089734Y-63923800D01*
X82248266Y-63923800D01*
X82403751Y-63892872D01*
X82550216Y-63832204D01*
X82682030Y-63744129D01*
X82794129Y-63632030D01*
X82804000Y-63617257D01*
X82813871Y-63632030D01*
X82925970Y-63744129D01*
X83057784Y-63832204D01*
X83204249Y-63892872D01*
X83359734Y-63923800D01*
X83518266Y-63923800D01*
X83673751Y-63892872D01*
X83820216Y-63832204D01*
X83952030Y-63744129D01*
X84064129Y-63632030D01*
X84074000Y-63617257D01*
X84083871Y-63632030D01*
X84195970Y-63744129D01*
X84315300Y-63823863D01*
X84315300Y-63844924D01*
X79910425Y-68249800D01*
X71136459Y-68249800D01*
X71120616Y-68226090D01*
X71029410Y-68134884D01*
X70922164Y-68063224D01*
X70802998Y-68013864D01*
X70676492Y-67988700D01*
X70547508Y-67988700D01*
X70421002Y-68013864D01*
X70301836Y-68063224D01*
X70194590Y-68134884D01*
X70123800Y-68205674D01*
X70123800Y-68198008D01*
X70118236Y-68170039D01*
X73315076Y-64973200D01*
X77006178Y-64973200D01*
X77025500Y-64975103D01*
X77044822Y-64973200D01*
X77044833Y-64973200D01*
X77102679Y-64967503D01*
X77176891Y-64944990D01*
X77245286Y-64908433D01*
X77305234Y-64859234D01*
X77317560Y-64844215D01*
X82078076Y-60083700D01*
X83549541Y-60083700D01*
X83565384Y-60107410D01*
X83656590Y-60198616D01*
X83763836Y-60270276D01*
X83883002Y-60319636D01*
X84009508Y-60344800D01*
X84138492Y-60344800D01*
X84264998Y-60319636D01*
X84384164Y-60270276D01*
X84491410Y-60198616D01*
X84582616Y-60107410D01*
X84654276Y-60000164D01*
X84703636Y-59880998D01*
X84728800Y-59754492D01*
X84728800Y-59625508D01*
X84703636Y-59499002D01*
X84654276Y-59379836D01*
X84582616Y-59272590D01*
X84504726Y-59194700D01*
X124106425Y-59194700D01*
X134861300Y-69949576D01*
X134861300Y-70296524D01*
X127546060Y-62981285D01*
X127533734Y-62966266D01*
X127473786Y-62917067D01*
X127405391Y-62880510D01*
X127331179Y-62857997D01*
X127273333Y-62852300D01*
X127273322Y-62852300D01*
X127254000Y-62850397D01*
X127234678Y-62852300D01*
X88792322Y-62852300D01*
X88772999Y-62850397D01*
X88753677Y-62852300D01*
X88753667Y-62852300D01*
X88695821Y-62857997D01*
X88676814Y-62863763D01*
X88583492Y-62845200D01*
X88454508Y-62845200D01*
X88328002Y-62870364D01*
X88208836Y-62919724D01*
X88101590Y-62991384D01*
X88010384Y-63082590D01*
X87938724Y-63189836D01*
X87889364Y-63309002D01*
X87864200Y-63435508D01*
X87864200Y-63564492D01*
X87889364Y-63690998D01*
X87938724Y-63810164D01*
X88010384Y-63917410D01*
X88101590Y-64008616D01*
X88208836Y-64080276D01*
X88328002Y-64129636D01*
X88454508Y-64154800D01*
X88583492Y-64154800D01*
X88709998Y-64129636D01*
X88829164Y-64080276D01*
X88936410Y-64008616D01*
X89027616Y-63917410D01*
X89099276Y-63810164D01*
X89148636Y-63690998D01*
X89158840Y-63639700D01*
X127090925Y-63639700D01*
X134416801Y-70965577D01*
X134416801Y-71549375D01*
X134413990Y-71540109D01*
X134377433Y-71471714D01*
X134328234Y-71411766D01*
X134313222Y-71399446D01*
X127585736Y-64671961D01*
X127591300Y-64643992D01*
X127591300Y-64515008D01*
X127566136Y-64388502D01*
X127516776Y-64269336D01*
X127445116Y-64162090D01*
X127353910Y-64070884D01*
X127246664Y-63999224D01*
X127127498Y-63949864D01*
X127000992Y-63924700D01*
X126872008Y-63924700D01*
X126745502Y-63949864D01*
X126626336Y-63999224D01*
X126519090Y-64070884D01*
X126427884Y-64162090D01*
X126356224Y-64269336D01*
X126306864Y-64388502D01*
X126281700Y-64515008D01*
X126281700Y-64643992D01*
X126306864Y-64770498D01*
X126356224Y-64889664D01*
X126427884Y-64996910D01*
X126519090Y-65088116D01*
X126626336Y-65159776D01*
X126745502Y-65209136D01*
X126872008Y-65234300D01*
X127000992Y-65234300D01*
X127028961Y-65228736D01*
X133654800Y-71854576D01*
X133654801Y-77665570D01*
X131368800Y-79951571D01*
X131368800Y-75438000D01*
X131362943Y-75378536D01*
X131345598Y-75321358D01*
X131317432Y-75268662D01*
X131279526Y-75222474D01*
X131233338Y-75184568D01*
X131180642Y-75156402D01*
X131123464Y-75139057D01*
X131064000Y-75133200D01*
X115570000Y-75133200D01*
X115511421Y-75138882D01*
X115454192Y-75156058D01*
X115401413Y-75184068D01*
X115355112Y-75221837D01*
X115317070Y-75267913D01*
X115288748Y-75320525D01*
X115271234Y-75377652D01*
X115265201Y-75437098D01*
X115203143Y-96412688D01*
X115197013Y-96381870D01*
X114985581Y-95871429D01*
X114678630Y-95412044D01*
X114287956Y-95021370D01*
X113828571Y-94714419D01*
X113318130Y-94502987D01*
X112776249Y-94395200D01*
X112223751Y-94395200D01*
X111681870Y-94502987D01*
X111171429Y-94714419D01*
X110712044Y-95021370D01*
X110321370Y-95412044D01*
X110014419Y-95871429D01*
X109802987Y-96381870D01*
X109695200Y-96923751D01*
X109695200Y-97476249D01*
X109802987Y-98018130D01*
X110014419Y-98528571D01*
X110321370Y-98987956D01*
X110712044Y-99378630D01*
X111148410Y-99670200D01*
X86406275Y-99670200D01*
X86406275Y-96400000D01*
X86400390Y-96340249D01*
X86382961Y-96282794D01*
X86354659Y-96229843D01*
X86321795Y-96189800D01*
X89535000Y-96189800D01*
X89594464Y-96183943D01*
X89651642Y-96166598D01*
X89704338Y-96138432D01*
X89750526Y-96100526D01*
X89788432Y-96054338D01*
X89816598Y-96001642D01*
X89833943Y-95944464D01*
X89839800Y-95885000D01*
X89839800Y-91947008D01*
X93642700Y-91947008D01*
X93642700Y-92075992D01*
X93667864Y-92202498D01*
X93717224Y-92321664D01*
X93788884Y-92428910D01*
X93880090Y-92520116D01*
X93987336Y-92591776D01*
X94106502Y-92641136D01*
X94233008Y-92666300D01*
X94361992Y-92666300D01*
X94488498Y-92641136D01*
X94607664Y-92591776D01*
X94714910Y-92520116D01*
X94806116Y-92428910D01*
X94877776Y-92321664D01*
X94927136Y-92202498D01*
X94952300Y-92075992D01*
X94952300Y-91947008D01*
X94927136Y-91820502D01*
X94877776Y-91701336D01*
X94806116Y-91594090D01*
X94714910Y-91502884D01*
X94607664Y-91431224D01*
X94488498Y-91381864D01*
X94361992Y-91356700D01*
X94233008Y-91356700D01*
X94106502Y-91381864D01*
X93987336Y-91431224D01*
X93880090Y-91502884D01*
X93788884Y-91594090D01*
X93717224Y-91701336D01*
X93667864Y-91820502D01*
X93642700Y-91947008D01*
X89839800Y-91947008D01*
X89839800Y-87210305D01*
X89861276Y-87178164D01*
X89910636Y-87058998D01*
X89935800Y-86932492D01*
X89935800Y-86803508D01*
X89917208Y-86710040D01*
X89979002Y-86735636D01*
X90105508Y-86760800D01*
X90234492Y-86760800D01*
X90360998Y-86735636D01*
X90480164Y-86686276D01*
X90587410Y-86614616D01*
X90678616Y-86523410D01*
X90750276Y-86416164D01*
X90799636Y-86296998D01*
X90824800Y-86170492D01*
X90824800Y-86041508D01*
X92817200Y-86041508D01*
X92817200Y-86170492D01*
X92842364Y-86296998D01*
X92891724Y-86416164D01*
X92963384Y-86523410D01*
X93054590Y-86614616D01*
X93161836Y-86686276D01*
X93281002Y-86735636D01*
X93407508Y-86760800D01*
X93536492Y-86760800D01*
X93589805Y-86750195D01*
X93579200Y-86803508D01*
X93579200Y-86932492D01*
X93604364Y-87058998D01*
X93653724Y-87178164D01*
X93725384Y-87285410D01*
X93816590Y-87376616D01*
X93923836Y-87448276D01*
X94043002Y-87497636D01*
X94169508Y-87522800D01*
X94298492Y-87522800D01*
X94424998Y-87497636D01*
X94544164Y-87448276D01*
X94651410Y-87376616D01*
X94742616Y-87285410D01*
X94814276Y-87178164D01*
X94863636Y-87058998D01*
X94888800Y-86932492D01*
X94888800Y-86803508D01*
X94863636Y-86677002D01*
X94814276Y-86557836D01*
X94742616Y-86450590D01*
X94651410Y-86359384D01*
X94544164Y-86287724D01*
X94424998Y-86238364D01*
X94298492Y-86213200D01*
X94169508Y-86213200D01*
X94116195Y-86223805D01*
X94126800Y-86170492D01*
X94126800Y-86041508D01*
X94101636Y-85915002D01*
X94052276Y-85795836D01*
X93980616Y-85688590D01*
X93889410Y-85597384D01*
X93782164Y-85525724D01*
X93662998Y-85476364D01*
X93536492Y-85451200D01*
X93407508Y-85451200D01*
X93281002Y-85476364D01*
X93161836Y-85525724D01*
X93054590Y-85597384D01*
X92963384Y-85688590D01*
X92891724Y-85795836D01*
X92842364Y-85915002D01*
X92817200Y-86041508D01*
X90824800Y-86041508D01*
X90799636Y-85915002D01*
X90750276Y-85795836D01*
X90678616Y-85688590D01*
X90587410Y-85597384D01*
X90480164Y-85525724D01*
X90360998Y-85476364D01*
X90234492Y-85451200D01*
X90105508Y-85451200D01*
X89979002Y-85476364D01*
X89859836Y-85525724D01*
X89839800Y-85539112D01*
X89839800Y-78232000D01*
X89833943Y-78172536D01*
X89816598Y-78115358D01*
X89788432Y-78062662D01*
X89750526Y-78016474D01*
X89704338Y-77978568D01*
X89651642Y-77950402D01*
X89594464Y-77933057D01*
X89535000Y-77927200D01*
X66548000Y-77927200D01*
X66488536Y-77933057D01*
X66431358Y-77950402D01*
X66378662Y-77978568D01*
X66332474Y-78016474D01*
X66294568Y-78062662D01*
X66266402Y-78115358D01*
X66249057Y-78172536D01*
X66243200Y-78232000D01*
X66243200Y-95885000D01*
X66249057Y-95944464D01*
X66266402Y-96001642D01*
X66294568Y-96054338D01*
X66332474Y-96100526D01*
X66378662Y-96138432D01*
X66431358Y-96166598D01*
X66488536Y-96183943D01*
X66548000Y-96189800D01*
X67678205Y-96189800D01*
X67645341Y-96229843D01*
X67617039Y-96282794D01*
X67599610Y-96340249D01*
X67593725Y-96400000D01*
X67593725Y-99670200D01*
X54151590Y-99670200D01*
X54587956Y-99378630D01*
X54978630Y-98987956D01*
X55285581Y-98528571D01*
X55497013Y-98018130D01*
X55604800Y-97476249D01*
X55604800Y-96923751D01*
X55497013Y-96381870D01*
X55285581Y-95871429D01*
X54978630Y-95412044D01*
X54587956Y-95021370D01*
X54128571Y-94714419D01*
X54039461Y-94677508D01*
X57384200Y-94677508D01*
X57384200Y-94806492D01*
X57409364Y-94932998D01*
X57458724Y-95052164D01*
X57530384Y-95159410D01*
X57621590Y-95250616D01*
X57728836Y-95322276D01*
X57848002Y-95371636D01*
X57974508Y-95396800D01*
X58103492Y-95396800D01*
X58229998Y-95371636D01*
X58349164Y-95322276D01*
X58456410Y-95250616D01*
X58547616Y-95159410D01*
X58619276Y-95052164D01*
X58668636Y-94932998D01*
X58693800Y-94806492D01*
X58693800Y-94677508D01*
X58668636Y-94551002D01*
X58619276Y-94431836D01*
X58547616Y-94324590D01*
X58456410Y-94233384D01*
X58349164Y-94161724D01*
X58229998Y-94112364D01*
X58103492Y-94087200D01*
X57974508Y-94087200D01*
X57848002Y-94112364D01*
X57728836Y-94161724D01*
X57621590Y-94233384D01*
X57530384Y-94324590D01*
X57458724Y-94431836D01*
X57409364Y-94551002D01*
X57384200Y-94677508D01*
X54039461Y-94677508D01*
X53618130Y-94502987D01*
X53076249Y-94395200D01*
X52523751Y-94395200D01*
X51981870Y-94502987D01*
X51471429Y-94714419D01*
X51012044Y-95021370D01*
X50621370Y-95412044D01*
X50329800Y-95848410D01*
X50329800Y-83755508D01*
X53066200Y-83755508D01*
X53066200Y-83884492D01*
X53091364Y-84010998D01*
X53140724Y-84130164D01*
X53212384Y-84237410D01*
X53303590Y-84328616D01*
X53410836Y-84400276D01*
X53530002Y-84449636D01*
X53656508Y-84474800D01*
X53785492Y-84474800D01*
X53911998Y-84449636D01*
X54031164Y-84400276D01*
X54138410Y-84328616D01*
X54229616Y-84237410D01*
X54301276Y-84130164D01*
X54350636Y-84010998D01*
X54375800Y-83884492D01*
X54375800Y-83755508D01*
X55860200Y-83755508D01*
X55860200Y-83884492D01*
X55885364Y-84010998D01*
X55934724Y-84130164D01*
X56006384Y-84237410D01*
X56097590Y-84328616D01*
X56204836Y-84400276D01*
X56324002Y-84449636D01*
X56450508Y-84474800D01*
X56579492Y-84474800D01*
X56705998Y-84449636D01*
X56825164Y-84400276D01*
X56932410Y-84328616D01*
X57023616Y-84237410D01*
X57095276Y-84130164D01*
X57144636Y-84010998D01*
X57169800Y-83884492D01*
X57169800Y-83755508D01*
X57144636Y-83629002D01*
X57095276Y-83509836D01*
X57023616Y-83402590D01*
X56932410Y-83311384D01*
X56825164Y-83239724D01*
X56705998Y-83190364D01*
X56579492Y-83165200D01*
X56450508Y-83165200D01*
X56324002Y-83190364D01*
X56204836Y-83239724D01*
X56097590Y-83311384D01*
X56006384Y-83402590D01*
X55934724Y-83509836D01*
X55885364Y-83629002D01*
X55860200Y-83755508D01*
X54375800Y-83755508D01*
X54350636Y-83629002D01*
X54301276Y-83509836D01*
X54229616Y-83402590D01*
X54138410Y-83311384D01*
X54031164Y-83239724D01*
X53911998Y-83190364D01*
X53785492Y-83165200D01*
X53656508Y-83165200D01*
X53530002Y-83190364D01*
X53410836Y-83239724D01*
X53303590Y-83311384D01*
X53212384Y-83402590D01*
X53140724Y-83509836D01*
X53091364Y-83629002D01*
X53066200Y-83755508D01*
X50329800Y-83755508D01*
X50329800Y-74308262D01*
X50534200Y-74308262D01*
X50534200Y-74535738D01*
X50578578Y-74758843D01*
X50665629Y-74969003D01*
X50792008Y-75158142D01*
X50952858Y-75318992D01*
X51141997Y-75445371D01*
X51352157Y-75532422D01*
X51575262Y-75576800D01*
X51802738Y-75576800D01*
X52025843Y-75532422D01*
X52236003Y-75445371D01*
X52425142Y-75318992D01*
X52585992Y-75158142D01*
X52712371Y-74969003D01*
X52799422Y-74758843D01*
X52843800Y-74535738D01*
X52843800Y-74308262D01*
X52799422Y-74085157D01*
X52712371Y-73874997D01*
X52585992Y-73685858D01*
X52472134Y-73572000D01*
X53072726Y-73572000D01*
X53072726Y-75272000D01*
X53078611Y-75331751D01*
X53096040Y-75389206D01*
X53124342Y-75442157D01*
X53162432Y-75488568D01*
X53208843Y-75526658D01*
X53261794Y-75554960D01*
X53319249Y-75572389D01*
X53379000Y-75578274D01*
X55079000Y-75578274D01*
X55138751Y-75572389D01*
X55196206Y-75554960D01*
X55249157Y-75526658D01*
X55295568Y-75488568D01*
X55333658Y-75442157D01*
X55361960Y-75389206D01*
X55379389Y-75331751D01*
X55385274Y-75272000D01*
X55385274Y-73572000D01*
X55379389Y-73512249D01*
X55361960Y-73454794D01*
X55333658Y-73401843D01*
X55295568Y-73355432D01*
X55249157Y-73317342D01*
X55196206Y-73289040D01*
X55138751Y-73271611D01*
X55079000Y-73265726D01*
X53379000Y-73265726D01*
X53319249Y-73271611D01*
X53261794Y-73289040D01*
X53208843Y-73317342D01*
X53162432Y-73355432D01*
X53124342Y-73401843D01*
X53096040Y-73454794D01*
X53078611Y-73512249D01*
X53072726Y-73572000D01*
X52472134Y-73572000D01*
X52425142Y-73525008D01*
X52236003Y-73398629D01*
X52025843Y-73311578D01*
X51802738Y-73267200D01*
X51575262Y-73267200D01*
X51352157Y-73311578D01*
X51141997Y-73398629D01*
X50952858Y-73525008D01*
X50792008Y-73685858D01*
X50665629Y-73874997D01*
X50578578Y-74085157D01*
X50534200Y-74308262D01*
X50329800Y-74308262D01*
X50329800Y-71768262D01*
X50534200Y-71768262D01*
X50534200Y-71995738D01*
X50578578Y-72218843D01*
X50665629Y-72429003D01*
X50792008Y-72618142D01*
X50952858Y-72778992D01*
X51141997Y-72905371D01*
X51352157Y-72992422D01*
X51575262Y-73036800D01*
X51802738Y-73036800D01*
X52025843Y-72992422D01*
X52236003Y-72905371D01*
X52425142Y-72778992D01*
X52585992Y-72618142D01*
X52712371Y-72429003D01*
X52799422Y-72218843D01*
X52843800Y-71995738D01*
X52843800Y-71768262D01*
X53074200Y-71768262D01*
X53074200Y-71995738D01*
X53118578Y-72218843D01*
X53205629Y-72429003D01*
X53332008Y-72618142D01*
X53492858Y-72778992D01*
X53681997Y-72905371D01*
X53892157Y-72992422D01*
X54115262Y-73036800D01*
X54342738Y-73036800D01*
X54565843Y-72992422D01*
X54776003Y-72905371D01*
X54965142Y-72778992D01*
X55125992Y-72618142D01*
X55252371Y-72429003D01*
X55339422Y-72218843D01*
X55383800Y-71995738D01*
X55383800Y-71768262D01*
X55339422Y-71545157D01*
X55252371Y-71334997D01*
X55125992Y-71145858D01*
X54965142Y-70985008D01*
X54776003Y-70858629D01*
X54565843Y-70771578D01*
X54342738Y-70727200D01*
X54115262Y-70727200D01*
X53892157Y-70771578D01*
X53681997Y-70858629D01*
X53492858Y-70985008D01*
X53332008Y-71145858D01*
X53205629Y-71334997D01*
X53118578Y-71545157D01*
X53074200Y-71768262D01*
X52843800Y-71768262D01*
X52799422Y-71545157D01*
X52712371Y-71334997D01*
X52585992Y-71145858D01*
X52425142Y-70985008D01*
X52236003Y-70858629D01*
X52025843Y-70771578D01*
X51802738Y-70727200D01*
X51575262Y-70727200D01*
X51352157Y-70771578D01*
X51141997Y-70858629D01*
X50952858Y-70985008D01*
X50792008Y-71145858D01*
X50665629Y-71334997D01*
X50578578Y-71545157D01*
X50534200Y-71768262D01*
X50329800Y-71768262D01*
X50329800Y-67385092D01*
X50417359Y-67568920D01*
X50591412Y-67802269D01*
X50807645Y-67997178D01*
X51057748Y-68146157D01*
X51327429Y-68241821D01*
X51141997Y-68318629D01*
X50952858Y-68445008D01*
X50792008Y-68605858D01*
X50665629Y-68794997D01*
X50578578Y-69005157D01*
X50534200Y-69228262D01*
X50534200Y-69455738D01*
X50578578Y-69678843D01*
X50665629Y-69889003D01*
X50792008Y-70078142D01*
X50952858Y-70238992D01*
X51141997Y-70365371D01*
X51352157Y-70452422D01*
X51575262Y-70496800D01*
X51802738Y-70496800D01*
X52025843Y-70452422D01*
X52236003Y-70365371D01*
X52425142Y-70238992D01*
X52585992Y-70078142D01*
X52712371Y-69889003D01*
X52799422Y-69678843D01*
X52843800Y-69455738D01*
X52843800Y-69228262D01*
X52799422Y-69005157D01*
X52735922Y-68851854D01*
X53070421Y-68517355D01*
X53085435Y-68505033D01*
X53104105Y-68482285D01*
X53134634Y-68445085D01*
X53171191Y-68376690D01*
X53193704Y-68302478D01*
X53193704Y-68302477D01*
X53199401Y-68244632D01*
X53199401Y-68244624D01*
X53201304Y-68225299D01*
X53199401Y-68205974D01*
X53199401Y-67863553D01*
X53347645Y-67997178D01*
X53597748Y-68146157D01*
X53867429Y-68241821D01*
X53681997Y-68318629D01*
X53492858Y-68445008D01*
X53332008Y-68605858D01*
X53205629Y-68794997D01*
X53118578Y-69005157D01*
X53074200Y-69228262D01*
X53074200Y-69455738D01*
X53118578Y-69678843D01*
X53205629Y-69889003D01*
X53332008Y-70078142D01*
X53492858Y-70238992D01*
X53681997Y-70365371D01*
X53892157Y-70452422D01*
X54115262Y-70496800D01*
X54342738Y-70496800D01*
X54565843Y-70452422D01*
X54776003Y-70365371D01*
X54965142Y-70238992D01*
X55125992Y-70078142D01*
X55252371Y-69889003D01*
X55339422Y-69678843D01*
X55383800Y-69455738D01*
X55383800Y-69228262D01*
X55339422Y-69005157D01*
X55275922Y-68851854D01*
X55610423Y-68517353D01*
X55625435Y-68505033D01*
X55644105Y-68482285D01*
X55674634Y-68445085D01*
X55711191Y-68376690D01*
X55733704Y-68302478D01*
X55733704Y-68302477D01*
X55739401Y-68244632D01*
X55739401Y-68244624D01*
X55741304Y-68225299D01*
X55739401Y-68205974D01*
X55739401Y-66737374D01*
X57137301Y-65339474D01*
X57137300Y-82279541D01*
X57113590Y-82295384D01*
X57022384Y-82386590D01*
X56950724Y-82493836D01*
X56901364Y-82613002D01*
X56876200Y-82739508D01*
X56876200Y-82868492D01*
X56901364Y-82994998D01*
X56950724Y-83114164D01*
X57022384Y-83221410D01*
X57113590Y-83312616D01*
X57220836Y-83384276D01*
X57340002Y-83433636D01*
X57466508Y-83458800D01*
X57595492Y-83458800D01*
X57721998Y-83433636D01*
X57841164Y-83384276D01*
X57948410Y-83312616D01*
X58039616Y-83221410D01*
X58111276Y-83114164D01*
X58160636Y-82994998D01*
X58185800Y-82868492D01*
X58185800Y-82739508D01*
X58160636Y-82613002D01*
X58111276Y-82493836D01*
X58039616Y-82386590D01*
X57948410Y-82295384D01*
X57924700Y-82279541D01*
X57924700Y-80853709D01*
X57966724Y-80955164D01*
X58038384Y-81062410D01*
X58129590Y-81153616D01*
X58236836Y-81225276D01*
X58356002Y-81274636D01*
X58482508Y-81299800D01*
X58611492Y-81299800D01*
X58737998Y-81274636D01*
X58788301Y-81253800D01*
X58788301Y-84438541D01*
X58764590Y-84454384D01*
X58673384Y-84545590D01*
X58601724Y-84652836D01*
X58552364Y-84772002D01*
X58527200Y-84898508D01*
X58527200Y-85027492D01*
X58552364Y-85153998D01*
X58601724Y-85273164D01*
X58673384Y-85380410D01*
X58764590Y-85471616D01*
X58871836Y-85543276D01*
X58991002Y-85592636D01*
X59117508Y-85617800D01*
X59246492Y-85617800D01*
X59372998Y-85592636D01*
X59492164Y-85543276D01*
X59599410Y-85471616D01*
X59690616Y-85380410D01*
X59762276Y-85273164D01*
X59804300Y-85171709D01*
X59804300Y-85581541D01*
X59780590Y-85597384D01*
X59689384Y-85688590D01*
X59617724Y-85795836D01*
X59568364Y-85915002D01*
X59543200Y-86041508D01*
X59543200Y-86170492D01*
X59568364Y-86296998D01*
X59617724Y-86416164D01*
X59689384Y-86523410D01*
X59780590Y-86614616D01*
X59887836Y-86686276D01*
X60007002Y-86735636D01*
X60133508Y-86760800D01*
X60262492Y-86760800D01*
X60388998Y-86735636D01*
X60508164Y-86686276D01*
X60615410Y-86614616D01*
X60706616Y-86523410D01*
X60778276Y-86416164D01*
X60827636Y-86296998D01*
X60852800Y-86170492D01*
X60852800Y-86041508D01*
X60827636Y-85915002D01*
X60778276Y-85795836D01*
X60706616Y-85688590D01*
X60615410Y-85597384D01*
X60591700Y-85581541D01*
X60591700Y-73341508D01*
X62972200Y-73341508D01*
X62972200Y-73470492D01*
X62997364Y-73596998D01*
X63046724Y-73716164D01*
X63118384Y-73823410D01*
X63209590Y-73914616D01*
X63316836Y-73986276D01*
X63436002Y-74035636D01*
X63562508Y-74060800D01*
X63691492Y-74060800D01*
X63817998Y-74035636D01*
X63861200Y-74017741D01*
X63861200Y-74105492D01*
X63886364Y-74231998D01*
X63935724Y-74351164D01*
X64007384Y-74458410D01*
X64098590Y-74549616D01*
X64205836Y-74621276D01*
X64325002Y-74670636D01*
X64451508Y-74695800D01*
X64580492Y-74695800D01*
X64706998Y-74670636D01*
X64826164Y-74621276D01*
X64933410Y-74549616D01*
X65024616Y-74458410D01*
X65096276Y-74351164D01*
X65145636Y-74231998D01*
X65153592Y-74192000D01*
X125240928Y-74192000D01*
X125253188Y-74316482D01*
X125289498Y-74436180D01*
X125348463Y-74546494D01*
X125427815Y-74643185D01*
X125524506Y-74722537D01*
X125634820Y-74781502D01*
X125754518Y-74817812D01*
X125879000Y-74830072D01*
X127593250Y-74827000D01*
X127752000Y-74668250D01*
X127752000Y-72819000D01*
X128006000Y-72819000D01*
X128006000Y-74668250D01*
X128164750Y-74827000D01*
X129879000Y-74830072D01*
X130003482Y-74817812D01*
X130123180Y-74781502D01*
X130233494Y-74722537D01*
X130330185Y-74643185D01*
X130409537Y-74546494D01*
X130468502Y-74436180D01*
X130504812Y-74316482D01*
X130517072Y-74192000D01*
X130514000Y-72977750D01*
X130355250Y-72819000D01*
X128006000Y-72819000D01*
X127752000Y-72819000D01*
X125402750Y-72819000D01*
X125244000Y-72977750D01*
X125240928Y-74192000D01*
X65153592Y-74192000D01*
X65170800Y-74105492D01*
X65170800Y-73976508D01*
X65145636Y-73850002D01*
X65096276Y-73730836D01*
X65024616Y-73623590D01*
X64933410Y-73532384D01*
X64826164Y-73460724D01*
X64706998Y-73411364D01*
X64580492Y-73386200D01*
X64451508Y-73386200D01*
X64325002Y-73411364D01*
X64281800Y-73429259D01*
X64281800Y-73341508D01*
X64256636Y-73215002D01*
X64207276Y-73095836D01*
X64135616Y-72988590D01*
X64044410Y-72897384D01*
X63937164Y-72825724D01*
X63817998Y-72776364D01*
X63691492Y-72751200D01*
X63562508Y-72751200D01*
X63436002Y-72776364D01*
X63316836Y-72825724D01*
X63209590Y-72897384D01*
X63118384Y-72988590D01*
X63046724Y-73095836D01*
X62997364Y-73215002D01*
X62972200Y-73341508D01*
X60591700Y-73341508D01*
X60591700Y-71192000D01*
X125240928Y-71192000D01*
X125244000Y-72406250D01*
X125402750Y-72565000D01*
X127752000Y-72565000D01*
X127752000Y-70715750D01*
X128006000Y-70715750D01*
X128006000Y-72565000D01*
X130355250Y-72565000D01*
X130514000Y-72406250D01*
X130517072Y-71192000D01*
X130504812Y-71067518D01*
X130468502Y-70947820D01*
X130409537Y-70837506D01*
X130330185Y-70740815D01*
X130233494Y-70661463D01*
X130123180Y-70602498D01*
X130003482Y-70566188D01*
X129879000Y-70553928D01*
X128164750Y-70557000D01*
X128006000Y-70715750D01*
X127752000Y-70715750D01*
X127593250Y-70557000D01*
X125879000Y-70553928D01*
X125754518Y-70566188D01*
X125634820Y-70602498D01*
X125524506Y-70661463D01*
X125427815Y-70740815D01*
X125348463Y-70837506D01*
X125289498Y-70947820D01*
X125253188Y-71067518D01*
X125240928Y-71192000D01*
X60591700Y-71192000D01*
X60591700Y-70491653D01*
X99187952Y-70491653D01*
X99343962Y-70807214D01*
X99718745Y-70998020D01*
X100123551Y-71112044D01*
X100542824Y-71144902D01*
X100960451Y-71095334D01*
X101360383Y-70965243D01*
X101656038Y-70807214D01*
X101812048Y-70491653D01*
X100500000Y-69179605D01*
X99187952Y-70491653D01*
X60591700Y-70491653D01*
X60591700Y-65802459D01*
X60615410Y-65786616D01*
X60706616Y-65695410D01*
X60778276Y-65588164D01*
X60827636Y-65468998D01*
X60852800Y-65342492D01*
X60852800Y-65213508D01*
X60827636Y-65087002D01*
X60778276Y-64967836D01*
X60706616Y-64860590D01*
X60615410Y-64769384D01*
X60508164Y-64697724D01*
X60388998Y-64648364D01*
X60262492Y-64623200D01*
X60133508Y-64623200D01*
X60007002Y-64648364D01*
X59887836Y-64697724D01*
X59780590Y-64769384D01*
X59689384Y-64860590D01*
X59617724Y-64967836D01*
X59568364Y-65087002D01*
X59543200Y-65213508D01*
X59543200Y-65342492D01*
X59568364Y-65468998D01*
X59617724Y-65588164D01*
X59689384Y-65695410D01*
X59780590Y-65786616D01*
X59804301Y-65802459D01*
X59804301Y-65939200D01*
X59753998Y-65918364D01*
X59627492Y-65893200D01*
X59498508Y-65893200D01*
X59372002Y-65918364D01*
X59252836Y-65967724D01*
X59145590Y-66039384D01*
X59054384Y-66130590D01*
X58982724Y-66237836D01*
X58933364Y-66357002D01*
X58908200Y-66483508D01*
X58908200Y-66612492D01*
X58913763Y-66640461D01*
X58282285Y-67271940D01*
X58267266Y-67284266D01*
X58218067Y-67344215D01*
X58181510Y-67412610D01*
X58158997Y-67486822D01*
X58153300Y-67544668D01*
X58153300Y-67544678D01*
X58151397Y-67564000D01*
X58153300Y-67583322D01*
X58153301Y-80120541D01*
X58129590Y-80136384D01*
X58038384Y-80227590D01*
X57966724Y-80334836D01*
X57924700Y-80436291D01*
X57924700Y-65424236D01*
X58550834Y-64798103D01*
X58578803Y-64803666D01*
X58707787Y-64803666D01*
X58834293Y-64778502D01*
X58953459Y-64729142D01*
X59060705Y-64657482D01*
X59151911Y-64566276D01*
X59223571Y-64459030D01*
X59272931Y-64339864D01*
X59298095Y-64213358D01*
X59298095Y-64084374D01*
X59272931Y-63957868D01*
X59223571Y-63838702D01*
X59151911Y-63731456D01*
X59060705Y-63640250D01*
X58953459Y-63568590D01*
X58921446Y-63555330D01*
X59345076Y-63131700D01*
X68944541Y-63131700D01*
X68960384Y-63155410D01*
X69051590Y-63246616D01*
X69158836Y-63318276D01*
X69278002Y-63367636D01*
X69404508Y-63392800D01*
X69533492Y-63392800D01*
X69659998Y-63367636D01*
X69779164Y-63318276D01*
X69886410Y-63246616D01*
X69977616Y-63155410D01*
X70049276Y-63048164D01*
X70098636Y-62928998D01*
X70123800Y-62802492D01*
X70123800Y-62673508D01*
X70098636Y-62547002D01*
X70049276Y-62427836D01*
X69977616Y-62320590D01*
X69886410Y-62229384D01*
X69779164Y-62157724D01*
X69659998Y-62108364D01*
X69533492Y-62083200D01*
X69404508Y-62083200D01*
X69278002Y-62108364D01*
X69158836Y-62157724D01*
X69051590Y-62229384D01*
X68960384Y-62320590D01*
X68944541Y-62344300D01*
X59201322Y-62344300D01*
X59181999Y-62342397D01*
X59162677Y-62344300D01*
X59162667Y-62344300D01*
X59104821Y-62349997D01*
X59030609Y-62372510D01*
X58962214Y-62409067D01*
X58917282Y-62445942D01*
X58917279Y-62445945D01*
X58902266Y-62458266D01*
X58889944Y-62473280D01*
X55426946Y-65936279D01*
X55326588Y-65801731D01*
X55110355Y-65606822D01*
X54860252Y-65457843D01*
X54585891Y-65360519D01*
X54356000Y-65481186D01*
X54356000Y-66675000D01*
X54376000Y-66675000D01*
X54376000Y-66929000D01*
X54356000Y-66929000D01*
X54356000Y-66949000D01*
X54102000Y-66949000D01*
X54102000Y-66929000D01*
X54082000Y-66929000D01*
X54082000Y-66675000D01*
X54102000Y-66675000D01*
X54102000Y-65481186D01*
X53872109Y-65360519D01*
X53597748Y-65457843D01*
X53347645Y-65606822D01*
X53199401Y-65740447D01*
X53199401Y-62419374D01*
X55408076Y-60210700D01*
X74131925Y-60210700D01*
X75931763Y-62010539D01*
X75926877Y-62035102D01*
X75222060Y-61330285D01*
X75209734Y-61315266D01*
X75149786Y-61266067D01*
X75081391Y-61229510D01*
X75007179Y-61206997D01*
X74949333Y-61201300D01*
X74949322Y-61201300D01*
X74930000Y-61199397D01*
X74910678Y-61201300D01*
X58837165Y-61201300D01*
X58817840Y-61199397D01*
X58798515Y-61201300D01*
X58798507Y-61201300D01*
X58740661Y-61206997D01*
X58666449Y-61229510D01*
X58598054Y-61266067D01*
X58553122Y-61302942D01*
X58553119Y-61302945D01*
X58538106Y-61315266D01*
X58525784Y-61330280D01*
X56869881Y-62986184D01*
X56841912Y-62980620D01*
X56712928Y-62980620D01*
X56586422Y-63005784D01*
X56467256Y-63055144D01*
X56360010Y-63126804D01*
X56268804Y-63218010D01*
X56197144Y-63325256D01*
X56147784Y-63444422D01*
X56122620Y-63570928D01*
X56122620Y-63699912D01*
X56147784Y-63826418D01*
X56197144Y-63945584D01*
X56268804Y-64052830D01*
X56360010Y-64144036D01*
X56467256Y-64215696D01*
X56586422Y-64265056D01*
X56712928Y-64290220D01*
X56841912Y-64290220D01*
X56968418Y-64265056D01*
X57087584Y-64215696D01*
X57194830Y-64144036D01*
X57286036Y-64052830D01*
X57357696Y-63945584D01*
X57407056Y-63826418D01*
X57432220Y-63699912D01*
X57432220Y-63570928D01*
X57426656Y-63542959D01*
X58980916Y-61988700D01*
X74766925Y-61988700D01*
X76058763Y-63280539D01*
X76053200Y-63308508D01*
X76053200Y-63437492D01*
X76078364Y-63563998D01*
X76127724Y-63683164D01*
X76199384Y-63790410D01*
X76290590Y-63881616D01*
X76397836Y-63953276D01*
X76517002Y-64002636D01*
X76643508Y-64027800D01*
X76772492Y-64027800D01*
X76898998Y-64002636D01*
X77018164Y-63953276D01*
X77125410Y-63881616D01*
X77216616Y-63790410D01*
X77288276Y-63683164D01*
X77337636Y-63563998D01*
X77362800Y-63437492D01*
X77362800Y-63308508D01*
X77337636Y-63182002D01*
X77288276Y-63062836D01*
X77216616Y-62955590D01*
X77125410Y-62864384D01*
X77018164Y-62792724D01*
X76898998Y-62743364D01*
X76795703Y-62722817D01*
X76891164Y-62683276D01*
X76998410Y-62611616D01*
X77089616Y-62520410D01*
X77161276Y-62413164D01*
X77210636Y-62293998D01*
X77235800Y-62167492D01*
X77235800Y-62038508D01*
X77210636Y-61912002D01*
X77161276Y-61792836D01*
X77089616Y-61685590D01*
X76998410Y-61594384D01*
X76891164Y-61522724D01*
X76771998Y-61473364D01*
X76645492Y-61448200D01*
X76516508Y-61448200D01*
X76488539Y-61453763D01*
X74587060Y-59552285D01*
X74574734Y-59537266D01*
X74514786Y-59488067D01*
X74446391Y-59451510D01*
X74372179Y-59428997D01*
X74314333Y-59423300D01*
X74314322Y-59423300D01*
X74295000Y-59421397D01*
X74275678Y-59423300D01*
X62248209Y-59423300D01*
X62349664Y-59381276D01*
X62456910Y-59309616D01*
X62548116Y-59218410D01*
X62563959Y-59194700D01*
X83643274Y-59194700D01*
X83565384Y-59272590D01*
G04 #@! TA.AperFunction,Conductor*
D24*
G36*
X83565384Y-59272590D02*
G01*
X83549541Y-59296300D01*
X81934322Y-59296300D01*
X81914999Y-59294397D01*
X81895677Y-59296300D01*
X81895667Y-59296300D01*
X81837821Y-59301997D01*
X81763609Y-59324510D01*
X81695214Y-59361067D01*
X81650282Y-59397942D01*
X81650279Y-59397945D01*
X81635266Y-59410266D01*
X81622944Y-59425280D01*
X76862425Y-64185800D01*
X73171325Y-64185800D01*
X73152000Y-64183897D01*
X73132675Y-64185800D01*
X73132667Y-64185800D01*
X73074821Y-64191497D01*
X73000609Y-64214010D01*
X72932214Y-64250567D01*
X72887282Y-64287442D01*
X72887279Y-64287445D01*
X72872266Y-64299766D01*
X72859944Y-64314780D01*
X69561461Y-67613264D01*
X69533492Y-67607700D01*
X69404508Y-67607700D01*
X69278002Y-67632864D01*
X69158836Y-67682224D01*
X69051590Y-67753884D01*
X68960384Y-67845090D01*
X68888724Y-67952336D01*
X68839364Y-68071502D01*
X68814200Y-68198008D01*
X68814200Y-68326992D01*
X68839364Y-68453498D01*
X68888724Y-68572664D01*
X68960384Y-68679910D01*
X69051590Y-68771116D01*
X69158836Y-68842776D01*
X69278002Y-68892136D01*
X69404508Y-68917300D01*
X69533492Y-68917300D01*
X69659998Y-68892136D01*
X69779164Y-68842776D01*
X69886410Y-68771116D01*
X69957200Y-68700326D01*
X69957200Y-68707992D01*
X69982364Y-68834498D01*
X70031724Y-68953664D01*
X70103384Y-69060910D01*
X70194590Y-69152116D01*
X70301836Y-69223776D01*
X70421002Y-69273136D01*
X70547508Y-69298300D01*
X70676492Y-69298300D01*
X70802998Y-69273136D01*
X70922164Y-69223776D01*
X71029410Y-69152116D01*
X71120616Y-69060910D01*
X71136459Y-69037200D01*
X80054178Y-69037200D01*
X80073500Y-69039103D01*
X80092822Y-69037200D01*
X80092833Y-69037200D01*
X80150679Y-69031503D01*
X80224891Y-69008990D01*
X80293286Y-68972433D01*
X80353234Y-68923234D01*
X80365560Y-68908215D01*
X84973722Y-64300054D01*
X84988734Y-64287734D01*
X85003834Y-64269336D01*
X85037933Y-64227786D01*
X85074490Y-64159391D01*
X85083516Y-64129636D01*
X85097003Y-64085179D01*
X85102700Y-64027333D01*
X85102700Y-64027323D01*
X85104603Y-64008000D01*
X85102700Y-63988678D01*
X85102700Y-63823862D01*
X85222030Y-63744129D01*
X85334129Y-63632030D01*
X85344000Y-63617257D01*
X85353871Y-63632030D01*
X85465970Y-63744129D01*
X85585301Y-63823863D01*
X85585300Y-67865041D01*
X85561590Y-67880884D01*
X85470384Y-67972090D01*
X85398724Y-68079336D01*
X85349364Y-68198502D01*
X85324200Y-68325008D01*
X85324200Y-68453992D01*
X85349364Y-68580498D01*
X85398724Y-68699664D01*
X85470384Y-68806910D01*
X85561590Y-68898116D01*
X85668836Y-68969776D01*
X85788002Y-69019136D01*
X85914508Y-69044300D01*
X86043492Y-69044300D01*
X86050912Y-69042824D01*
X98355098Y-69042824D01*
X98404666Y-69460451D01*
X98534757Y-69860383D01*
X98692786Y-70156038D01*
X99008347Y-70312048D01*
X100320395Y-69000000D01*
X100679605Y-69000000D01*
X101991653Y-70312048D01*
X102307214Y-70156038D01*
X102498020Y-69781255D01*
X102612044Y-69376449D01*
X102644902Y-68957176D01*
X102595334Y-68539549D01*
X102465243Y-68139617D01*
X102307214Y-67843962D01*
X101991653Y-67687952D01*
X100679605Y-69000000D01*
X100320395Y-69000000D01*
X99008347Y-67687952D01*
X98692786Y-67843962D01*
X98501980Y-68218745D01*
X98387956Y-68623551D01*
X98355098Y-69042824D01*
X86050912Y-69042824D01*
X86169998Y-69019136D01*
X86289164Y-68969776D01*
X86396410Y-68898116D01*
X86487616Y-68806910D01*
X86559276Y-68699664D01*
X86608636Y-68580498D01*
X86633800Y-68453992D01*
X86633800Y-68325008D01*
X86608636Y-68198502D01*
X86559276Y-68079336D01*
X86487616Y-67972090D01*
X86396410Y-67880884D01*
X86372700Y-67865041D01*
X86372700Y-67508347D01*
X99187952Y-67508347D01*
X100500000Y-68820395D01*
X101812048Y-67508347D01*
X101656038Y-67192786D01*
X101281255Y-67001980D01*
X100876449Y-66887956D01*
X100457176Y-66855098D01*
X100039549Y-66904666D01*
X99639617Y-67034757D01*
X99343962Y-67192786D01*
X99187952Y-67508347D01*
X86372700Y-67508347D01*
X86372700Y-63823862D01*
X86492030Y-63744129D01*
X86604129Y-63632030D01*
X86692204Y-63500216D01*
X86752872Y-63353751D01*
X86783800Y-63198266D01*
X86783800Y-63039734D01*
X86752872Y-62884249D01*
X86692204Y-62737784D01*
X86604129Y-62605970D01*
X86492030Y-62493871D01*
X86477257Y-62484000D01*
X86492030Y-62474129D01*
X86604129Y-62362030D01*
X86692204Y-62230216D01*
X86752872Y-62083751D01*
X86783800Y-61928266D01*
X86783800Y-61769734D01*
X86752872Y-61614249D01*
X86692204Y-61467784D01*
X86604129Y-61335970D01*
X86492030Y-61223871D01*
X86360216Y-61135796D01*
X86213751Y-61075128D01*
X86058266Y-61044200D01*
X85899734Y-61044200D01*
X85744249Y-61075128D01*
X85597784Y-61135796D01*
X85592709Y-61139187D01*
X85451020Y-60990135D01*
X85269206Y-60861877D01*
X85065864Y-60771554D01*
X85010874Y-60754881D01*
X84836000Y-60881046D01*
X84836000Y-61722000D01*
X84856000Y-61722000D01*
X84856000Y-61976000D01*
X84836000Y-61976000D01*
X84836000Y-61996000D01*
X84582000Y-61996000D01*
X84582000Y-61976000D01*
X84562000Y-61976000D01*
X84562000Y-61722000D01*
X84582000Y-61722000D01*
X84582000Y-60881046D01*
X84407126Y-60754881D01*
X84352136Y-60771554D01*
X84148794Y-60861877D01*
X83966980Y-60990135D01*
X83825291Y-61139187D01*
X83820216Y-61135796D01*
X83673751Y-61075128D01*
X83518266Y-61044200D01*
X83359734Y-61044200D01*
X83204249Y-61075128D01*
X83057784Y-61135796D01*
X82942000Y-61213160D01*
X82923658Y-61178843D01*
X82885568Y-61132432D01*
X82839157Y-61094342D01*
X82786206Y-61066040D01*
X82728751Y-61048611D01*
X82669000Y-61042726D01*
X81669000Y-61042726D01*
X81609249Y-61048611D01*
X81551794Y-61066040D01*
X81498843Y-61094342D01*
X81452432Y-61132432D01*
X81414342Y-61178843D01*
X81386040Y-61231794D01*
X81368611Y-61289249D01*
X81362726Y-61349000D01*
X81362726Y-62349000D01*
X81368611Y-62408751D01*
X81386040Y-62466206D01*
X81414342Y-62519157D01*
X81452432Y-62565568D01*
X81498843Y-62603658D01*
X81533160Y-62622000D01*
X81455796Y-62737784D01*
X81395128Y-62884249D01*
X81364200Y-63039734D01*
X81364200Y-63198266D01*
X81395128Y-63353751D01*
X81455796Y-63500216D01*
X81543871Y-63632030D01*
X81655970Y-63744129D01*
X81787784Y-63832204D01*
X81934249Y-63892872D01*
X82089734Y-63923800D01*
X82248266Y-63923800D01*
X82403751Y-63892872D01*
X82550216Y-63832204D01*
X82682030Y-63744129D01*
X82794129Y-63632030D01*
X82804000Y-63617257D01*
X82813871Y-63632030D01*
X82925970Y-63744129D01*
X83057784Y-63832204D01*
X83204249Y-63892872D01*
X83359734Y-63923800D01*
X83518266Y-63923800D01*
X83673751Y-63892872D01*
X83820216Y-63832204D01*
X83952030Y-63744129D01*
X84064129Y-63632030D01*
X84074000Y-63617257D01*
X84083871Y-63632030D01*
X84195970Y-63744129D01*
X84315300Y-63823863D01*
X84315300Y-63844924D01*
X79910425Y-68249800D01*
X71136459Y-68249800D01*
X71120616Y-68226090D01*
X71029410Y-68134884D01*
X70922164Y-68063224D01*
X70802998Y-68013864D01*
X70676492Y-67988700D01*
X70547508Y-67988700D01*
X70421002Y-68013864D01*
X70301836Y-68063224D01*
X70194590Y-68134884D01*
X70123800Y-68205674D01*
X70123800Y-68198008D01*
X70118236Y-68170039D01*
X73315076Y-64973200D01*
X77006178Y-64973200D01*
X77025500Y-64975103D01*
X77044822Y-64973200D01*
X77044833Y-64973200D01*
X77102679Y-64967503D01*
X77176891Y-64944990D01*
X77245286Y-64908433D01*
X77305234Y-64859234D01*
X77317560Y-64844215D01*
X82078076Y-60083700D01*
X83549541Y-60083700D01*
X83565384Y-60107410D01*
X83656590Y-60198616D01*
X83763836Y-60270276D01*
X83883002Y-60319636D01*
X84009508Y-60344800D01*
X84138492Y-60344800D01*
X84264998Y-60319636D01*
X84384164Y-60270276D01*
X84491410Y-60198616D01*
X84582616Y-60107410D01*
X84654276Y-60000164D01*
X84703636Y-59880998D01*
X84728800Y-59754492D01*
X84728800Y-59625508D01*
X84703636Y-59499002D01*
X84654276Y-59379836D01*
X84582616Y-59272590D01*
X84504726Y-59194700D01*
X124106425Y-59194700D01*
X134861300Y-69949576D01*
X134861300Y-70296524D01*
X127546060Y-62981285D01*
X127533734Y-62966266D01*
X127473786Y-62917067D01*
X127405391Y-62880510D01*
X127331179Y-62857997D01*
X127273333Y-62852300D01*
X127273322Y-62852300D01*
X127254000Y-62850397D01*
X127234678Y-62852300D01*
X88792322Y-62852300D01*
X88772999Y-62850397D01*
X88753677Y-62852300D01*
X88753667Y-62852300D01*
X88695821Y-62857997D01*
X88676814Y-62863763D01*
X88583492Y-62845200D01*
X88454508Y-62845200D01*
X88328002Y-62870364D01*
X88208836Y-62919724D01*
X88101590Y-62991384D01*
X88010384Y-63082590D01*
X87938724Y-63189836D01*
X87889364Y-63309002D01*
X87864200Y-63435508D01*
X87864200Y-63564492D01*
X87889364Y-63690998D01*
X87938724Y-63810164D01*
X88010384Y-63917410D01*
X88101590Y-64008616D01*
X88208836Y-64080276D01*
X88328002Y-64129636D01*
X88454508Y-64154800D01*
X88583492Y-64154800D01*
X88709998Y-64129636D01*
X88829164Y-64080276D01*
X88936410Y-64008616D01*
X89027616Y-63917410D01*
X89099276Y-63810164D01*
X89148636Y-63690998D01*
X89158840Y-63639700D01*
X127090925Y-63639700D01*
X134416801Y-70965577D01*
X134416801Y-71549375D01*
X134413990Y-71540109D01*
X134377433Y-71471714D01*
X134328234Y-71411766D01*
X134313222Y-71399446D01*
X127585736Y-64671961D01*
X127591300Y-64643992D01*
X127591300Y-64515008D01*
X127566136Y-64388502D01*
X127516776Y-64269336D01*
X127445116Y-64162090D01*
X127353910Y-64070884D01*
X127246664Y-63999224D01*
X127127498Y-63949864D01*
X127000992Y-63924700D01*
X126872008Y-63924700D01*
X126745502Y-63949864D01*
X126626336Y-63999224D01*
X126519090Y-64070884D01*
X126427884Y-64162090D01*
X126356224Y-64269336D01*
X126306864Y-64388502D01*
X126281700Y-64515008D01*
X126281700Y-64643992D01*
X126306864Y-64770498D01*
X126356224Y-64889664D01*
X126427884Y-64996910D01*
X126519090Y-65088116D01*
X126626336Y-65159776D01*
X126745502Y-65209136D01*
X126872008Y-65234300D01*
X127000992Y-65234300D01*
X127028961Y-65228736D01*
X133654800Y-71854576D01*
X133654801Y-77665570D01*
X131368800Y-79951571D01*
X131368800Y-75438000D01*
X131362943Y-75378536D01*
X131345598Y-75321358D01*
X131317432Y-75268662D01*
X131279526Y-75222474D01*
X131233338Y-75184568D01*
X131180642Y-75156402D01*
X131123464Y-75139057D01*
X131064000Y-75133200D01*
X115570000Y-75133200D01*
X115511421Y-75138882D01*
X115454192Y-75156058D01*
X115401413Y-75184068D01*
X115355112Y-75221837D01*
X115317070Y-75267913D01*
X115288748Y-75320525D01*
X115271234Y-75377652D01*
X115265201Y-75437098D01*
X115203143Y-96412688D01*
X115197013Y-96381870D01*
X114985581Y-95871429D01*
X114678630Y-95412044D01*
X114287956Y-95021370D01*
X113828571Y-94714419D01*
X113318130Y-94502987D01*
X112776249Y-94395200D01*
X112223751Y-94395200D01*
X111681870Y-94502987D01*
X111171429Y-94714419D01*
X110712044Y-95021370D01*
X110321370Y-95412044D01*
X110014419Y-95871429D01*
X109802987Y-96381870D01*
X109695200Y-96923751D01*
X109695200Y-97476249D01*
X109802987Y-98018130D01*
X110014419Y-98528571D01*
X110321370Y-98987956D01*
X110712044Y-99378630D01*
X111148410Y-99670200D01*
X86406275Y-99670200D01*
X86406275Y-96400000D01*
X86400390Y-96340249D01*
X86382961Y-96282794D01*
X86354659Y-96229843D01*
X86321795Y-96189800D01*
X89535000Y-96189800D01*
X89594464Y-96183943D01*
X89651642Y-96166598D01*
X89704338Y-96138432D01*
X89750526Y-96100526D01*
X89788432Y-96054338D01*
X89816598Y-96001642D01*
X89833943Y-95944464D01*
X89839800Y-95885000D01*
X89839800Y-91947008D01*
X93642700Y-91947008D01*
X93642700Y-92075992D01*
X93667864Y-92202498D01*
X93717224Y-92321664D01*
X93788884Y-92428910D01*
X93880090Y-92520116D01*
X93987336Y-92591776D01*
X94106502Y-92641136D01*
X94233008Y-92666300D01*
X94361992Y-92666300D01*
X94488498Y-92641136D01*
X94607664Y-92591776D01*
X94714910Y-92520116D01*
X94806116Y-92428910D01*
X94877776Y-92321664D01*
X94927136Y-92202498D01*
X94952300Y-92075992D01*
X94952300Y-91947008D01*
X94927136Y-91820502D01*
X94877776Y-91701336D01*
X94806116Y-91594090D01*
X94714910Y-91502884D01*
X94607664Y-91431224D01*
X94488498Y-91381864D01*
X94361992Y-91356700D01*
X94233008Y-91356700D01*
X94106502Y-91381864D01*
X93987336Y-91431224D01*
X93880090Y-91502884D01*
X93788884Y-91594090D01*
X93717224Y-91701336D01*
X93667864Y-91820502D01*
X93642700Y-91947008D01*
X89839800Y-91947008D01*
X89839800Y-87210305D01*
X89861276Y-87178164D01*
X89910636Y-87058998D01*
X89935800Y-86932492D01*
X89935800Y-86803508D01*
X89917208Y-86710040D01*
X89979002Y-86735636D01*
X90105508Y-86760800D01*
X90234492Y-86760800D01*
X90360998Y-86735636D01*
X90480164Y-86686276D01*
X90587410Y-86614616D01*
X90678616Y-86523410D01*
X90750276Y-86416164D01*
X90799636Y-86296998D01*
X90824800Y-86170492D01*
X90824800Y-86041508D01*
X92817200Y-86041508D01*
X92817200Y-86170492D01*
X92842364Y-86296998D01*
X92891724Y-86416164D01*
X92963384Y-86523410D01*
X93054590Y-86614616D01*
X93161836Y-86686276D01*
X93281002Y-86735636D01*
X93407508Y-86760800D01*
X93536492Y-86760800D01*
X93589805Y-86750195D01*
X93579200Y-86803508D01*
X93579200Y-86932492D01*
X93604364Y-87058998D01*
X93653724Y-87178164D01*
X93725384Y-87285410D01*
X93816590Y-87376616D01*
X93923836Y-87448276D01*
X94043002Y-87497636D01*
X94169508Y-87522800D01*
X94298492Y-87522800D01*
X94424998Y-87497636D01*
X94544164Y-87448276D01*
X94651410Y-87376616D01*
X94742616Y-87285410D01*
X94814276Y-87178164D01*
X94863636Y-87058998D01*
X94888800Y-86932492D01*
X94888800Y-86803508D01*
X94863636Y-86677002D01*
X94814276Y-86557836D01*
X94742616Y-86450590D01*
X94651410Y-86359384D01*
X94544164Y-86287724D01*
X94424998Y-86238364D01*
X94298492Y-86213200D01*
X94169508Y-86213200D01*
X94116195Y-86223805D01*
X94126800Y-86170492D01*
X94126800Y-86041508D01*
X94101636Y-85915002D01*
X94052276Y-85795836D01*
X93980616Y-85688590D01*
X93889410Y-85597384D01*
X93782164Y-85525724D01*
X93662998Y-85476364D01*
X93536492Y-85451200D01*
X93407508Y-85451200D01*
X93281002Y-85476364D01*
X93161836Y-85525724D01*
X93054590Y-85597384D01*
X92963384Y-85688590D01*
X92891724Y-85795836D01*
X92842364Y-85915002D01*
X92817200Y-86041508D01*
X90824800Y-86041508D01*
X90799636Y-85915002D01*
X90750276Y-85795836D01*
X90678616Y-85688590D01*
X90587410Y-85597384D01*
X90480164Y-85525724D01*
X90360998Y-85476364D01*
X90234492Y-85451200D01*
X90105508Y-85451200D01*
X89979002Y-85476364D01*
X89859836Y-85525724D01*
X89839800Y-85539112D01*
X89839800Y-78232000D01*
X89833943Y-78172536D01*
X89816598Y-78115358D01*
X89788432Y-78062662D01*
X89750526Y-78016474D01*
X89704338Y-77978568D01*
X89651642Y-77950402D01*
X89594464Y-77933057D01*
X89535000Y-77927200D01*
X66548000Y-77927200D01*
X66488536Y-77933057D01*
X66431358Y-77950402D01*
X66378662Y-77978568D01*
X66332474Y-78016474D01*
X66294568Y-78062662D01*
X66266402Y-78115358D01*
X66249057Y-78172536D01*
X66243200Y-78232000D01*
X66243200Y-95885000D01*
X66249057Y-95944464D01*
X66266402Y-96001642D01*
X66294568Y-96054338D01*
X66332474Y-96100526D01*
X66378662Y-96138432D01*
X66431358Y-96166598D01*
X66488536Y-96183943D01*
X66548000Y-96189800D01*
X67678205Y-96189800D01*
X67645341Y-96229843D01*
X67617039Y-96282794D01*
X67599610Y-96340249D01*
X67593725Y-96400000D01*
X67593725Y-99670200D01*
X54151590Y-99670200D01*
X54587956Y-99378630D01*
X54978630Y-98987956D01*
X55285581Y-98528571D01*
X55497013Y-98018130D01*
X55604800Y-97476249D01*
X55604800Y-96923751D01*
X55497013Y-96381870D01*
X55285581Y-95871429D01*
X54978630Y-95412044D01*
X54587956Y-95021370D01*
X54128571Y-94714419D01*
X54039461Y-94677508D01*
X57384200Y-94677508D01*
X57384200Y-94806492D01*
X57409364Y-94932998D01*
X57458724Y-95052164D01*
X57530384Y-95159410D01*
X57621590Y-95250616D01*
X57728836Y-95322276D01*
X57848002Y-95371636D01*
X57974508Y-95396800D01*
X58103492Y-95396800D01*
X58229998Y-95371636D01*
X58349164Y-95322276D01*
X58456410Y-95250616D01*
X58547616Y-95159410D01*
X58619276Y-95052164D01*
X58668636Y-94932998D01*
X58693800Y-94806492D01*
X58693800Y-94677508D01*
X58668636Y-94551002D01*
X58619276Y-94431836D01*
X58547616Y-94324590D01*
X58456410Y-94233384D01*
X58349164Y-94161724D01*
X58229998Y-94112364D01*
X58103492Y-94087200D01*
X57974508Y-94087200D01*
X57848002Y-94112364D01*
X57728836Y-94161724D01*
X57621590Y-94233384D01*
X57530384Y-94324590D01*
X57458724Y-94431836D01*
X57409364Y-94551002D01*
X57384200Y-94677508D01*
X54039461Y-94677508D01*
X53618130Y-94502987D01*
X53076249Y-94395200D01*
X52523751Y-94395200D01*
X51981870Y-94502987D01*
X51471429Y-94714419D01*
X51012044Y-95021370D01*
X50621370Y-95412044D01*
X50329800Y-95848410D01*
X50329800Y-83755508D01*
X53066200Y-83755508D01*
X53066200Y-83884492D01*
X53091364Y-84010998D01*
X53140724Y-84130164D01*
X53212384Y-84237410D01*
X53303590Y-84328616D01*
X53410836Y-84400276D01*
X53530002Y-84449636D01*
X53656508Y-84474800D01*
X53785492Y-84474800D01*
X53911998Y-84449636D01*
X54031164Y-84400276D01*
X54138410Y-84328616D01*
X54229616Y-84237410D01*
X54301276Y-84130164D01*
X54350636Y-84010998D01*
X54375800Y-83884492D01*
X54375800Y-83755508D01*
X55860200Y-83755508D01*
X55860200Y-83884492D01*
X55885364Y-84010998D01*
X55934724Y-84130164D01*
X56006384Y-84237410D01*
X56097590Y-84328616D01*
X56204836Y-84400276D01*
X56324002Y-84449636D01*
X56450508Y-84474800D01*
X56579492Y-84474800D01*
X56705998Y-84449636D01*
X56825164Y-84400276D01*
X56932410Y-84328616D01*
X57023616Y-84237410D01*
X57095276Y-84130164D01*
X57144636Y-84010998D01*
X57169800Y-83884492D01*
X57169800Y-83755508D01*
X57144636Y-83629002D01*
X57095276Y-83509836D01*
X57023616Y-83402590D01*
X56932410Y-83311384D01*
X56825164Y-83239724D01*
X56705998Y-83190364D01*
X56579492Y-83165200D01*
X56450508Y-83165200D01*
X56324002Y-83190364D01*
X56204836Y-83239724D01*
X56097590Y-83311384D01*
X56006384Y-83402590D01*
X55934724Y-83509836D01*
X55885364Y-83629002D01*
X55860200Y-83755508D01*
X54375800Y-83755508D01*
X54350636Y-83629002D01*
X54301276Y-83509836D01*
X54229616Y-83402590D01*
X54138410Y-83311384D01*
X54031164Y-83239724D01*
X53911998Y-83190364D01*
X53785492Y-83165200D01*
X53656508Y-83165200D01*
X53530002Y-83190364D01*
X53410836Y-83239724D01*
X53303590Y-83311384D01*
X53212384Y-83402590D01*
X53140724Y-83509836D01*
X53091364Y-83629002D01*
X53066200Y-83755508D01*
X50329800Y-83755508D01*
X50329800Y-74308262D01*
X50534200Y-74308262D01*
X50534200Y-74535738D01*
X50578578Y-74758843D01*
X50665629Y-74969003D01*
X50792008Y-75158142D01*
X50952858Y-75318992D01*
X51141997Y-75445371D01*
X51352157Y-75532422D01*
X51575262Y-75576800D01*
X51802738Y-75576800D01*
X52025843Y-75532422D01*
X52236003Y-75445371D01*
X52425142Y-75318992D01*
X52585992Y-75158142D01*
X52712371Y-74969003D01*
X52799422Y-74758843D01*
X52843800Y-74535738D01*
X52843800Y-74308262D01*
X52799422Y-74085157D01*
X52712371Y-73874997D01*
X52585992Y-73685858D01*
X52472134Y-73572000D01*
X53072726Y-73572000D01*
X53072726Y-75272000D01*
X53078611Y-75331751D01*
X53096040Y-75389206D01*
X53124342Y-75442157D01*
X53162432Y-75488568D01*
X53208843Y-75526658D01*
X53261794Y-75554960D01*
X53319249Y-75572389D01*
X53379000Y-75578274D01*
X55079000Y-75578274D01*
X55138751Y-75572389D01*
X55196206Y-75554960D01*
X55249157Y-75526658D01*
X55295568Y-75488568D01*
X55333658Y-75442157D01*
X55361960Y-75389206D01*
X55379389Y-75331751D01*
X55385274Y-75272000D01*
X55385274Y-73572000D01*
X55379389Y-73512249D01*
X55361960Y-73454794D01*
X55333658Y-73401843D01*
X55295568Y-73355432D01*
X55249157Y-73317342D01*
X55196206Y-73289040D01*
X55138751Y-73271611D01*
X55079000Y-73265726D01*
X53379000Y-73265726D01*
X53319249Y-73271611D01*
X53261794Y-73289040D01*
X53208843Y-73317342D01*
X53162432Y-73355432D01*
X53124342Y-73401843D01*
X53096040Y-73454794D01*
X53078611Y-73512249D01*
X53072726Y-73572000D01*
X52472134Y-73572000D01*
X52425142Y-73525008D01*
X52236003Y-73398629D01*
X52025843Y-73311578D01*
X51802738Y-73267200D01*
X51575262Y-73267200D01*
X51352157Y-73311578D01*
X51141997Y-73398629D01*
X50952858Y-73525008D01*
X50792008Y-73685858D01*
X50665629Y-73874997D01*
X50578578Y-74085157D01*
X50534200Y-74308262D01*
X50329800Y-74308262D01*
X50329800Y-71768262D01*
X50534200Y-71768262D01*
X50534200Y-71995738D01*
X50578578Y-72218843D01*
X50665629Y-72429003D01*
X50792008Y-72618142D01*
X50952858Y-72778992D01*
X51141997Y-72905371D01*
X51352157Y-72992422D01*
X51575262Y-73036800D01*
X51802738Y-73036800D01*
X52025843Y-72992422D01*
X52236003Y-72905371D01*
X52425142Y-72778992D01*
X52585992Y-72618142D01*
X52712371Y-72429003D01*
X52799422Y-72218843D01*
X52843800Y-71995738D01*
X52843800Y-71768262D01*
X53074200Y-71768262D01*
X53074200Y-71995738D01*
X53118578Y-72218843D01*
X53205629Y-72429003D01*
X53332008Y-72618142D01*
X53492858Y-72778992D01*
X53681997Y-72905371D01*
X53892157Y-72992422D01*
X54115262Y-73036800D01*
X54342738Y-73036800D01*
X54565843Y-72992422D01*
X54776003Y-72905371D01*
X54965142Y-72778992D01*
X55125992Y-72618142D01*
X55252371Y-72429003D01*
X55339422Y-72218843D01*
X55383800Y-71995738D01*
X55383800Y-71768262D01*
X55339422Y-71545157D01*
X55252371Y-71334997D01*
X55125992Y-71145858D01*
X54965142Y-70985008D01*
X54776003Y-70858629D01*
X54565843Y-70771578D01*
X54342738Y-70727200D01*
X54115262Y-70727200D01*
X53892157Y-70771578D01*
X53681997Y-70858629D01*
X53492858Y-70985008D01*
X53332008Y-71145858D01*
X53205629Y-71334997D01*
X53118578Y-71545157D01*
X53074200Y-71768262D01*
X52843800Y-71768262D01*
X52799422Y-71545157D01*
X52712371Y-71334997D01*
X52585992Y-71145858D01*
X52425142Y-70985008D01*
X52236003Y-70858629D01*
X52025843Y-70771578D01*
X51802738Y-70727200D01*
X51575262Y-70727200D01*
X51352157Y-70771578D01*
X51141997Y-70858629D01*
X50952858Y-70985008D01*
X50792008Y-71145858D01*
X50665629Y-71334997D01*
X50578578Y-71545157D01*
X50534200Y-71768262D01*
X50329800Y-71768262D01*
X50329800Y-67385092D01*
X50417359Y-67568920D01*
X50591412Y-67802269D01*
X50807645Y-67997178D01*
X51057748Y-68146157D01*
X51327429Y-68241821D01*
X51141997Y-68318629D01*
X50952858Y-68445008D01*
X50792008Y-68605858D01*
X50665629Y-68794997D01*
X50578578Y-69005157D01*
X50534200Y-69228262D01*
X50534200Y-69455738D01*
X50578578Y-69678843D01*
X50665629Y-69889003D01*
X50792008Y-70078142D01*
X50952858Y-70238992D01*
X51141997Y-70365371D01*
X51352157Y-70452422D01*
X51575262Y-70496800D01*
X51802738Y-70496800D01*
X52025843Y-70452422D01*
X52236003Y-70365371D01*
X52425142Y-70238992D01*
X52585992Y-70078142D01*
X52712371Y-69889003D01*
X52799422Y-69678843D01*
X52843800Y-69455738D01*
X52843800Y-69228262D01*
X52799422Y-69005157D01*
X52735922Y-68851854D01*
X53070421Y-68517355D01*
X53085435Y-68505033D01*
X53104105Y-68482285D01*
X53134634Y-68445085D01*
X53171191Y-68376690D01*
X53193704Y-68302478D01*
X53193704Y-68302477D01*
X53199401Y-68244632D01*
X53199401Y-68244624D01*
X53201304Y-68225299D01*
X53199401Y-68205974D01*
X53199401Y-67863553D01*
X53347645Y-67997178D01*
X53597748Y-68146157D01*
X53867429Y-68241821D01*
X53681997Y-68318629D01*
X53492858Y-68445008D01*
X53332008Y-68605858D01*
X53205629Y-68794997D01*
X53118578Y-69005157D01*
X53074200Y-69228262D01*
X53074200Y-69455738D01*
X53118578Y-69678843D01*
X53205629Y-69889003D01*
X53332008Y-70078142D01*
X53492858Y-70238992D01*
X53681997Y-70365371D01*
X53892157Y-70452422D01*
X54115262Y-70496800D01*
X54342738Y-70496800D01*
X54565843Y-70452422D01*
X54776003Y-70365371D01*
X54965142Y-70238992D01*
X55125992Y-70078142D01*
X55252371Y-69889003D01*
X55339422Y-69678843D01*
X55383800Y-69455738D01*
X55383800Y-69228262D01*
X55339422Y-69005157D01*
X55275922Y-68851854D01*
X55610423Y-68517353D01*
X55625435Y-68505033D01*
X55644105Y-68482285D01*
X55674634Y-68445085D01*
X55711191Y-68376690D01*
X55733704Y-68302478D01*
X55733704Y-68302477D01*
X55739401Y-68244632D01*
X55739401Y-68244624D01*
X55741304Y-68225299D01*
X55739401Y-68205974D01*
X55739401Y-66737374D01*
X57137301Y-65339474D01*
X57137300Y-82279541D01*
X57113590Y-82295384D01*
X57022384Y-82386590D01*
X56950724Y-82493836D01*
X56901364Y-82613002D01*
X56876200Y-82739508D01*
X56876200Y-82868492D01*
X56901364Y-82994998D01*
X56950724Y-83114164D01*
X57022384Y-83221410D01*
X57113590Y-83312616D01*
X57220836Y-83384276D01*
X57340002Y-83433636D01*
X57466508Y-83458800D01*
X57595492Y-83458800D01*
X57721998Y-83433636D01*
X57841164Y-83384276D01*
X57948410Y-83312616D01*
X58039616Y-83221410D01*
X58111276Y-83114164D01*
X58160636Y-82994998D01*
X58185800Y-82868492D01*
X58185800Y-82739508D01*
X58160636Y-82613002D01*
X58111276Y-82493836D01*
X58039616Y-82386590D01*
X57948410Y-82295384D01*
X57924700Y-82279541D01*
X57924700Y-80853709D01*
X57966724Y-80955164D01*
X58038384Y-81062410D01*
X58129590Y-81153616D01*
X58236836Y-81225276D01*
X58356002Y-81274636D01*
X58482508Y-81299800D01*
X58611492Y-81299800D01*
X58737998Y-81274636D01*
X58788301Y-81253800D01*
X58788301Y-84438541D01*
X58764590Y-84454384D01*
X58673384Y-84545590D01*
X58601724Y-84652836D01*
X58552364Y-84772002D01*
X58527200Y-84898508D01*
X58527200Y-85027492D01*
X58552364Y-85153998D01*
X58601724Y-85273164D01*
X58673384Y-85380410D01*
X58764590Y-85471616D01*
X58871836Y-85543276D01*
X58991002Y-85592636D01*
X59117508Y-85617800D01*
X59246492Y-85617800D01*
X59372998Y-85592636D01*
X59492164Y-85543276D01*
X59599410Y-85471616D01*
X59690616Y-85380410D01*
X59762276Y-85273164D01*
X59804300Y-85171709D01*
X59804300Y-85581541D01*
X59780590Y-85597384D01*
X59689384Y-85688590D01*
X59617724Y-85795836D01*
X59568364Y-85915002D01*
X59543200Y-86041508D01*
X59543200Y-86170492D01*
X59568364Y-86296998D01*
X59617724Y-86416164D01*
X59689384Y-86523410D01*
X59780590Y-86614616D01*
X59887836Y-86686276D01*
X60007002Y-86735636D01*
X60133508Y-86760800D01*
X60262492Y-86760800D01*
X60388998Y-86735636D01*
X60508164Y-86686276D01*
X60615410Y-86614616D01*
X60706616Y-86523410D01*
X60778276Y-86416164D01*
X60827636Y-86296998D01*
X60852800Y-86170492D01*
X60852800Y-86041508D01*
X60827636Y-85915002D01*
X60778276Y-85795836D01*
X60706616Y-85688590D01*
X60615410Y-85597384D01*
X60591700Y-85581541D01*
X60591700Y-73341508D01*
X62972200Y-73341508D01*
X62972200Y-73470492D01*
X62997364Y-73596998D01*
X63046724Y-73716164D01*
X63118384Y-73823410D01*
X63209590Y-73914616D01*
X63316836Y-73986276D01*
X63436002Y-74035636D01*
X63562508Y-74060800D01*
X63691492Y-74060800D01*
X63817998Y-74035636D01*
X63861200Y-74017741D01*
X63861200Y-74105492D01*
X63886364Y-74231998D01*
X63935724Y-74351164D01*
X64007384Y-74458410D01*
X64098590Y-74549616D01*
X64205836Y-74621276D01*
X64325002Y-74670636D01*
X64451508Y-74695800D01*
X64580492Y-74695800D01*
X64706998Y-74670636D01*
X64826164Y-74621276D01*
X64933410Y-74549616D01*
X65024616Y-74458410D01*
X65096276Y-74351164D01*
X65145636Y-74231998D01*
X65153592Y-74192000D01*
X125240928Y-74192000D01*
X125253188Y-74316482D01*
X125289498Y-74436180D01*
X125348463Y-74546494D01*
X125427815Y-74643185D01*
X125524506Y-74722537D01*
X125634820Y-74781502D01*
X125754518Y-74817812D01*
X125879000Y-74830072D01*
X127593250Y-74827000D01*
X127752000Y-74668250D01*
X127752000Y-72819000D01*
X128006000Y-72819000D01*
X128006000Y-74668250D01*
X128164750Y-74827000D01*
X129879000Y-74830072D01*
X130003482Y-74817812D01*
X130123180Y-74781502D01*
X130233494Y-74722537D01*
X130330185Y-74643185D01*
X130409537Y-74546494D01*
X130468502Y-74436180D01*
X130504812Y-74316482D01*
X130517072Y-74192000D01*
X130514000Y-72977750D01*
X130355250Y-72819000D01*
X128006000Y-72819000D01*
X127752000Y-72819000D01*
X125402750Y-72819000D01*
X125244000Y-72977750D01*
X125240928Y-74192000D01*
X65153592Y-74192000D01*
X65170800Y-74105492D01*
X65170800Y-73976508D01*
X65145636Y-73850002D01*
X65096276Y-73730836D01*
X65024616Y-73623590D01*
X64933410Y-73532384D01*
X64826164Y-73460724D01*
X64706998Y-73411364D01*
X64580492Y-73386200D01*
X64451508Y-73386200D01*
X64325002Y-73411364D01*
X64281800Y-73429259D01*
X64281800Y-73341508D01*
X64256636Y-73215002D01*
X64207276Y-73095836D01*
X64135616Y-72988590D01*
X64044410Y-72897384D01*
X63937164Y-72825724D01*
X63817998Y-72776364D01*
X63691492Y-72751200D01*
X63562508Y-72751200D01*
X63436002Y-72776364D01*
X63316836Y-72825724D01*
X63209590Y-72897384D01*
X63118384Y-72988590D01*
X63046724Y-73095836D01*
X62997364Y-73215002D01*
X62972200Y-73341508D01*
X60591700Y-73341508D01*
X60591700Y-71192000D01*
X125240928Y-71192000D01*
X125244000Y-72406250D01*
X125402750Y-72565000D01*
X127752000Y-72565000D01*
X127752000Y-70715750D01*
X128006000Y-70715750D01*
X128006000Y-72565000D01*
X130355250Y-72565000D01*
X130514000Y-72406250D01*
X130517072Y-71192000D01*
X130504812Y-71067518D01*
X130468502Y-70947820D01*
X130409537Y-70837506D01*
X130330185Y-70740815D01*
X130233494Y-70661463D01*
X130123180Y-70602498D01*
X130003482Y-70566188D01*
X129879000Y-70553928D01*
X128164750Y-70557000D01*
X128006000Y-70715750D01*
X127752000Y-70715750D01*
X127593250Y-70557000D01*
X125879000Y-70553928D01*
X125754518Y-70566188D01*
X125634820Y-70602498D01*
X125524506Y-70661463D01*
X125427815Y-70740815D01*
X125348463Y-70837506D01*
X125289498Y-70947820D01*
X125253188Y-71067518D01*
X125240928Y-71192000D01*
X60591700Y-71192000D01*
X60591700Y-70491653D01*
X99187952Y-70491653D01*
X99343962Y-70807214D01*
X99718745Y-70998020D01*
X100123551Y-71112044D01*
X100542824Y-71144902D01*
X100960451Y-71095334D01*
X101360383Y-70965243D01*
X101656038Y-70807214D01*
X101812048Y-70491653D01*
X100500000Y-69179605D01*
X99187952Y-70491653D01*
X60591700Y-70491653D01*
X60591700Y-65802459D01*
X60615410Y-65786616D01*
X60706616Y-65695410D01*
X60778276Y-65588164D01*
X60827636Y-65468998D01*
X60852800Y-65342492D01*
X60852800Y-65213508D01*
X60827636Y-65087002D01*
X60778276Y-64967836D01*
X60706616Y-64860590D01*
X60615410Y-64769384D01*
X60508164Y-64697724D01*
X60388998Y-64648364D01*
X60262492Y-64623200D01*
X60133508Y-64623200D01*
X60007002Y-64648364D01*
X59887836Y-64697724D01*
X59780590Y-64769384D01*
X59689384Y-64860590D01*
X59617724Y-64967836D01*
X59568364Y-65087002D01*
X59543200Y-65213508D01*
X59543200Y-65342492D01*
X59568364Y-65468998D01*
X59617724Y-65588164D01*
X59689384Y-65695410D01*
X59780590Y-65786616D01*
X59804301Y-65802459D01*
X59804301Y-65939200D01*
X59753998Y-65918364D01*
X59627492Y-65893200D01*
X59498508Y-65893200D01*
X59372002Y-65918364D01*
X59252836Y-65967724D01*
X59145590Y-66039384D01*
X59054384Y-66130590D01*
X58982724Y-66237836D01*
X58933364Y-66357002D01*
X58908200Y-66483508D01*
X58908200Y-66612492D01*
X58913763Y-66640461D01*
X58282285Y-67271940D01*
X58267266Y-67284266D01*
X58218067Y-67344215D01*
X58181510Y-67412610D01*
X58158997Y-67486822D01*
X58153300Y-67544668D01*
X58153300Y-67544678D01*
X58151397Y-67564000D01*
X58153300Y-67583322D01*
X58153301Y-80120541D01*
X58129590Y-80136384D01*
X58038384Y-80227590D01*
X57966724Y-80334836D01*
X57924700Y-80436291D01*
X57924700Y-65424236D01*
X58550834Y-64798103D01*
X58578803Y-64803666D01*
X58707787Y-64803666D01*
X58834293Y-64778502D01*
X58953459Y-64729142D01*
X59060705Y-64657482D01*
X59151911Y-64566276D01*
X59223571Y-64459030D01*
X59272931Y-64339864D01*
X59298095Y-64213358D01*
X59298095Y-64084374D01*
X59272931Y-63957868D01*
X59223571Y-63838702D01*
X59151911Y-63731456D01*
X59060705Y-63640250D01*
X58953459Y-63568590D01*
X58921446Y-63555330D01*
X59345076Y-63131700D01*
X68944541Y-63131700D01*
X68960384Y-63155410D01*
X69051590Y-63246616D01*
X69158836Y-63318276D01*
X69278002Y-63367636D01*
X69404508Y-63392800D01*
X69533492Y-63392800D01*
X69659998Y-63367636D01*
X69779164Y-63318276D01*
X69886410Y-63246616D01*
X69977616Y-63155410D01*
X70049276Y-63048164D01*
X70098636Y-62928998D01*
X70123800Y-62802492D01*
X70123800Y-62673508D01*
X70098636Y-62547002D01*
X70049276Y-62427836D01*
X69977616Y-62320590D01*
X69886410Y-62229384D01*
X69779164Y-62157724D01*
X69659998Y-62108364D01*
X69533492Y-62083200D01*
X69404508Y-62083200D01*
X69278002Y-62108364D01*
X69158836Y-62157724D01*
X69051590Y-62229384D01*
X68960384Y-62320590D01*
X68944541Y-62344300D01*
X59201322Y-62344300D01*
X59181999Y-62342397D01*
X59162677Y-62344300D01*
X59162667Y-62344300D01*
X59104821Y-62349997D01*
X59030609Y-62372510D01*
X58962214Y-62409067D01*
X58917282Y-62445942D01*
X58917279Y-62445945D01*
X58902266Y-62458266D01*
X58889944Y-62473280D01*
X55426946Y-65936279D01*
X55326588Y-65801731D01*
X55110355Y-65606822D01*
X54860252Y-65457843D01*
X54585891Y-65360519D01*
X54356000Y-65481186D01*
X54356000Y-66675000D01*
X54376000Y-66675000D01*
X54376000Y-66929000D01*
X54356000Y-66929000D01*
X54356000Y-66949000D01*
X54102000Y-66949000D01*
X54102000Y-66929000D01*
X54082000Y-66929000D01*
X54082000Y-66675000D01*
X54102000Y-66675000D01*
X54102000Y-65481186D01*
X53872109Y-65360519D01*
X53597748Y-65457843D01*
X53347645Y-65606822D01*
X53199401Y-65740447D01*
X53199401Y-62419374D01*
X55408076Y-60210700D01*
X74131925Y-60210700D01*
X75931763Y-62010539D01*
X75926877Y-62035102D01*
X75222060Y-61330285D01*
X75209734Y-61315266D01*
X75149786Y-61266067D01*
X75081391Y-61229510D01*
X75007179Y-61206997D01*
X74949333Y-61201300D01*
X74949322Y-61201300D01*
X74930000Y-61199397D01*
X74910678Y-61201300D01*
X58837165Y-61201300D01*
X58817840Y-61199397D01*
X58798515Y-61201300D01*
X58798507Y-61201300D01*
X58740661Y-61206997D01*
X58666449Y-61229510D01*
X58598054Y-61266067D01*
X58553122Y-61302942D01*
X58553119Y-61302945D01*
X58538106Y-61315266D01*
X58525784Y-61330280D01*
X56869881Y-62986184D01*
X56841912Y-62980620D01*
X56712928Y-62980620D01*
X56586422Y-63005784D01*
X56467256Y-63055144D01*
X56360010Y-63126804D01*
X56268804Y-63218010D01*
X56197144Y-63325256D01*
X56147784Y-63444422D01*
X56122620Y-63570928D01*
X56122620Y-63699912D01*
X56147784Y-63826418D01*
X56197144Y-63945584D01*
X56268804Y-64052830D01*
X56360010Y-64144036D01*
X56467256Y-64215696D01*
X56586422Y-64265056D01*
X56712928Y-64290220D01*
X56841912Y-64290220D01*
X56968418Y-64265056D01*
X57087584Y-64215696D01*
X57194830Y-64144036D01*
X57286036Y-64052830D01*
X57357696Y-63945584D01*
X57407056Y-63826418D01*
X57432220Y-63699912D01*
X57432220Y-63570928D01*
X57426656Y-63542959D01*
X58980916Y-61988700D01*
X74766925Y-61988700D01*
X76058763Y-63280539D01*
X76053200Y-63308508D01*
X76053200Y-63437492D01*
X76078364Y-63563998D01*
X76127724Y-63683164D01*
X76199384Y-63790410D01*
X76290590Y-63881616D01*
X76397836Y-63953276D01*
X76517002Y-64002636D01*
X76643508Y-64027800D01*
X76772492Y-64027800D01*
X76898998Y-64002636D01*
X77018164Y-63953276D01*
X77125410Y-63881616D01*
X77216616Y-63790410D01*
X77288276Y-63683164D01*
X77337636Y-63563998D01*
X77362800Y-63437492D01*
X77362800Y-63308508D01*
X77337636Y-63182002D01*
X77288276Y-63062836D01*
X77216616Y-62955590D01*
X77125410Y-62864384D01*
X77018164Y-62792724D01*
X76898998Y-62743364D01*
X76795703Y-62722817D01*
X76891164Y-62683276D01*
X76998410Y-62611616D01*
X77089616Y-62520410D01*
X77161276Y-62413164D01*
X77210636Y-62293998D01*
X77235800Y-62167492D01*
X77235800Y-62038508D01*
X77210636Y-61912002D01*
X77161276Y-61792836D01*
X77089616Y-61685590D01*
X76998410Y-61594384D01*
X76891164Y-61522724D01*
X76771998Y-61473364D01*
X76645492Y-61448200D01*
X76516508Y-61448200D01*
X76488539Y-61453763D01*
X74587060Y-59552285D01*
X74574734Y-59537266D01*
X74514786Y-59488067D01*
X74446391Y-59451510D01*
X74372179Y-59428997D01*
X74314333Y-59423300D01*
X74314322Y-59423300D01*
X74295000Y-59421397D01*
X74275678Y-59423300D01*
X62248209Y-59423300D01*
X62349664Y-59381276D01*
X62456910Y-59309616D01*
X62548116Y-59218410D01*
X62563959Y-59194700D01*
X83643274Y-59194700D01*
X83565384Y-59272590D01*
G37*
G04 #@! TD.AperFunction*
D23*
X134861301Y-87403423D02*
X133123425Y-89141300D01*
X131553376Y-89141300D01*
X131566636Y-89109288D01*
X131591800Y-88982782D01*
X131591800Y-88853798D01*
X131566636Y-88727292D01*
X131517276Y-88608126D01*
X131445616Y-88500880D01*
X131354410Y-88409674D01*
X131247164Y-88338014D01*
X131127998Y-88288654D01*
X131001492Y-88263490D01*
X130872508Y-88263490D01*
X130746002Y-88288654D01*
X130626836Y-88338014D01*
X130519590Y-88409674D01*
X130428384Y-88500880D01*
X130356724Y-88608126D01*
X130307364Y-88727292D01*
X130282200Y-88853798D01*
X130282200Y-88982782D01*
X130307364Y-89109288D01*
X130320624Y-89141300D01*
X127331730Y-89141300D01*
X127312407Y-89139397D01*
X127293085Y-89141300D01*
X127293075Y-89141300D01*
X127235229Y-89146997D01*
X127161017Y-89169510D01*
X127092622Y-89206067D01*
X127047690Y-89242942D01*
X127047687Y-89242945D01*
X127032674Y-89255266D01*
X127020352Y-89270280D01*
X125058568Y-91232065D01*
X122914353Y-91232065D01*
X122898510Y-91208355D01*
X122807304Y-91117149D01*
X122720144Y-91058910D01*
X122726602Y-91058910D01*
X122853108Y-91033746D01*
X122972274Y-90984386D01*
X123079520Y-90912726D01*
X123170726Y-90821520D01*
X123242386Y-90714274D01*
X123291746Y-90595108D01*
X123316910Y-90468602D01*
X123316910Y-90339618D01*
X123291746Y-90213112D01*
X123242386Y-90093946D01*
X123170726Y-89986700D01*
X123139609Y-89955583D01*
X131002393Y-82092800D01*
X131064000Y-82092800D01*
X131123464Y-82086943D01*
X131180642Y-82069598D01*
X131233338Y-82041432D01*
X131279526Y-82003526D01*
X131317432Y-81957338D01*
X131345598Y-81904642D01*
X131362943Y-81847464D01*
X131368800Y-81788000D01*
X131368800Y-81726393D01*
X134861300Y-78233893D01*
X134861301Y-87403423D01*
G04 #@! TA.AperFunction,Conductor*
D24*
G36*
X134861301Y-87403423D02*
G01*
X133123425Y-89141300D01*
X131553376Y-89141300D01*
X131566636Y-89109288D01*
X131591800Y-88982782D01*
X131591800Y-88853798D01*
X131566636Y-88727292D01*
X131517276Y-88608126D01*
X131445616Y-88500880D01*
X131354410Y-88409674D01*
X131247164Y-88338014D01*
X131127998Y-88288654D01*
X131001492Y-88263490D01*
X130872508Y-88263490D01*
X130746002Y-88288654D01*
X130626836Y-88338014D01*
X130519590Y-88409674D01*
X130428384Y-88500880D01*
X130356724Y-88608126D01*
X130307364Y-88727292D01*
X130282200Y-88853798D01*
X130282200Y-88982782D01*
X130307364Y-89109288D01*
X130320624Y-89141300D01*
X127331730Y-89141300D01*
X127312407Y-89139397D01*
X127293085Y-89141300D01*
X127293075Y-89141300D01*
X127235229Y-89146997D01*
X127161017Y-89169510D01*
X127092622Y-89206067D01*
X127047690Y-89242942D01*
X127047687Y-89242945D01*
X127032674Y-89255266D01*
X127020352Y-89270280D01*
X125058568Y-91232065D01*
X122914353Y-91232065D01*
X122898510Y-91208355D01*
X122807304Y-91117149D01*
X122720144Y-91058910D01*
X122726602Y-91058910D01*
X122853108Y-91033746D01*
X122972274Y-90984386D01*
X123079520Y-90912726D01*
X123170726Y-90821520D01*
X123242386Y-90714274D01*
X123291746Y-90595108D01*
X123316910Y-90468602D01*
X123316910Y-90339618D01*
X123291746Y-90213112D01*
X123242386Y-90093946D01*
X123170726Y-89986700D01*
X123139609Y-89955583D01*
X131002393Y-82092800D01*
X131064000Y-82092800D01*
X131123464Y-82086943D01*
X131180642Y-82069598D01*
X131233338Y-82041432D01*
X131279526Y-82003526D01*
X131317432Y-81957338D01*
X131345598Y-81904642D01*
X131362943Y-81847464D01*
X131368800Y-81788000D01*
X131368800Y-81726393D01*
X134861300Y-78233893D01*
X134861301Y-87403423D01*
G37*
G04 #@! TD.AperFunction*
D23*
X122635895Y-89345747D02*
X122625676Y-89321076D01*
X122554016Y-89213830D01*
X122462810Y-89122624D01*
X122439100Y-89106781D01*
X122439100Y-88871213D01*
X126879167Y-84431147D01*
X127550495Y-84431147D01*
X122635895Y-89345747D01*
G04 #@! TA.AperFunction,Conductor*
D24*
G36*
X122635895Y-89345747D02*
G01*
X122625676Y-89321076D01*
X122554016Y-89213830D01*
X122462810Y-89122624D01*
X122439100Y-89106781D01*
X122439100Y-88871213D01*
X126879167Y-84431147D01*
X127550495Y-84431147D01*
X122635895Y-89345747D01*
G37*
G04 #@! TD.AperFunction*
D22*
X130975100Y-80399153D02*
X129675153Y-81699100D01*
X118999000Y-81699100D01*
X118981656Y-81700808D01*
X118964979Y-81705867D01*
X118949610Y-81714082D01*
X118936138Y-81725138D01*
X118925082Y-81738610D01*
X118916867Y-81753979D01*
X118911808Y-81770656D01*
X118910100Y-81788000D01*
X118910100Y-96812100D01*
X118276459Y-96812100D01*
X118250282Y-96804159D01*
X118198000Y-96799010D01*
X116498000Y-96799010D01*
X116445718Y-96804159D01*
X116419541Y-96812100D01*
X115595664Y-96812100D01*
X115599281Y-95589220D01*
X116251651Y-95589220D01*
X116253891Y-95600490D01*
X116318515Y-95809646D01*
X116422701Y-96002175D01*
X116562446Y-96170679D01*
X116732379Y-96308683D01*
X116925970Y-96410883D01*
X117135780Y-96473351D01*
X117309900Y-96426377D01*
X117309900Y-95415100D01*
X117386100Y-95415100D01*
X117386100Y-96426377D01*
X117560220Y-96473351D01*
X117770030Y-96410883D01*
X117963621Y-96308683D01*
X118133554Y-96170679D01*
X118273299Y-96002175D01*
X118377485Y-95809646D01*
X118442109Y-95600490D01*
X118444349Y-95589220D01*
X118397334Y-95415100D01*
X117386100Y-95415100D01*
X117309900Y-95415100D01*
X116298666Y-95415100D01*
X116251651Y-95589220D01*
X115599281Y-95589220D01*
X115600536Y-95164780D01*
X116251651Y-95164780D01*
X116298666Y-95338900D01*
X117309900Y-95338900D01*
X117309900Y-94327623D01*
X117386100Y-94327623D01*
X117386100Y-95338900D01*
X118397334Y-95338900D01*
X118444349Y-95164780D01*
X118442109Y-95153510D01*
X118377485Y-94944354D01*
X118273299Y-94751825D01*
X118133554Y-94583321D01*
X117963621Y-94445317D01*
X117770030Y-94343117D01*
X117560220Y-94280649D01*
X117386100Y-94327623D01*
X117309900Y-94327623D01*
X117135780Y-94280649D01*
X116925970Y-94343117D01*
X116732379Y-94445317D01*
X116562446Y-94583321D01*
X116422701Y-94751825D01*
X116318515Y-94944354D01*
X116253891Y-95153510D01*
X116251651Y-95164780D01*
X115600536Y-95164780D01*
X115607750Y-92727015D01*
X116231300Y-92727015D01*
X116231300Y-92946985D01*
X116274214Y-93162729D01*
X116358394Y-93365956D01*
X116480603Y-93548855D01*
X116636145Y-93704397D01*
X116819044Y-93826606D01*
X117022271Y-93910786D01*
X117238015Y-93953700D01*
X117457985Y-93953700D01*
X117673729Y-93910786D01*
X117876956Y-93826606D01*
X118059855Y-93704397D01*
X118215397Y-93548855D01*
X118337606Y-93365956D01*
X118421786Y-93162729D01*
X118464700Y-92946985D01*
X118464700Y-92727015D01*
X118421786Y-92511271D01*
X118337606Y-92308044D01*
X118215397Y-92125145D01*
X118059855Y-91969603D01*
X117876956Y-91847394D01*
X117673729Y-91763214D01*
X117457985Y-91720300D01*
X117238015Y-91720300D01*
X117022271Y-91763214D01*
X116819044Y-91847394D01*
X116636145Y-91969603D01*
X116480603Y-92125145D01*
X116358394Y-92308044D01*
X116274214Y-92511271D01*
X116231300Y-92727015D01*
X115607750Y-92727015D01*
X115644835Y-80192000D01*
X125611010Y-80192000D01*
X125616159Y-80244282D01*
X125631410Y-80294555D01*
X125656174Y-80340887D01*
X125689502Y-80381498D01*
X125730113Y-80414826D01*
X125776445Y-80439590D01*
X125826718Y-80454841D01*
X125879000Y-80459990D01*
X127774225Y-80458700D01*
X127840900Y-80392025D01*
X127840900Y-78730100D01*
X127917100Y-78730100D01*
X127917100Y-80392025D01*
X127983775Y-80458700D01*
X129879000Y-80459990D01*
X129931282Y-80454841D01*
X129981555Y-80439590D01*
X130027887Y-80414826D01*
X130068498Y-80381498D01*
X130101826Y-80340887D01*
X130126590Y-80294555D01*
X130141841Y-80244282D01*
X130146990Y-80192000D01*
X130145700Y-78796775D01*
X130079025Y-78730100D01*
X127917100Y-78730100D01*
X127840900Y-78730100D01*
X125678975Y-78730100D01*
X125612300Y-78796775D01*
X125611010Y-80192000D01*
X115644835Y-80192000D01*
X115653711Y-77192000D01*
X125611010Y-77192000D01*
X125612300Y-78587225D01*
X125678975Y-78653900D01*
X127840900Y-78653900D01*
X127840900Y-76991975D01*
X127917100Y-76991975D01*
X127917100Y-78653900D01*
X130079025Y-78653900D01*
X130145700Y-78587225D01*
X130146990Y-77192000D01*
X130141841Y-77139718D01*
X130126590Y-77089445D01*
X130101826Y-77043113D01*
X130068498Y-77002502D01*
X130027887Y-76969174D01*
X129981555Y-76944410D01*
X129931282Y-76929159D01*
X129879000Y-76924010D01*
X127983775Y-76925300D01*
X127917100Y-76991975D01*
X127840900Y-76991975D01*
X127774225Y-76925300D01*
X125879000Y-76924010D01*
X125826718Y-76929159D01*
X125776445Y-76944410D01*
X125730113Y-76969174D01*
X125689502Y-77002502D01*
X125656174Y-77043113D01*
X125631410Y-77089445D01*
X125616159Y-77139718D01*
X125611010Y-77192000D01*
X115653711Y-77192000D01*
X115658638Y-75526900D01*
X130975100Y-75526900D01*
X130975100Y-80399153D01*
G04 #@! TA.AperFunction,Conductor*
D24*
G36*
X130975100Y-80399153D02*
G01*
X129675153Y-81699100D01*
X118999000Y-81699100D01*
X118981656Y-81700808D01*
X118964979Y-81705867D01*
X118949610Y-81714082D01*
X118936138Y-81725138D01*
X118925082Y-81738610D01*
X118916867Y-81753979D01*
X118911808Y-81770656D01*
X118910100Y-81788000D01*
X118910100Y-96812100D01*
X118276459Y-96812100D01*
X118250282Y-96804159D01*
X118198000Y-96799010D01*
X116498000Y-96799010D01*
X116445718Y-96804159D01*
X116419541Y-96812100D01*
X115595664Y-96812100D01*
X115599281Y-95589220D01*
X116251651Y-95589220D01*
X116253891Y-95600490D01*
X116318515Y-95809646D01*
X116422701Y-96002175D01*
X116562446Y-96170679D01*
X116732379Y-96308683D01*
X116925970Y-96410883D01*
X117135780Y-96473351D01*
X117309900Y-96426377D01*
X117309900Y-95415100D01*
X117386100Y-95415100D01*
X117386100Y-96426377D01*
X117560220Y-96473351D01*
X117770030Y-96410883D01*
X117963621Y-96308683D01*
X118133554Y-96170679D01*
X118273299Y-96002175D01*
X118377485Y-95809646D01*
X118442109Y-95600490D01*
X118444349Y-95589220D01*
X118397334Y-95415100D01*
X117386100Y-95415100D01*
X117309900Y-95415100D01*
X116298666Y-95415100D01*
X116251651Y-95589220D01*
X115599281Y-95589220D01*
X115600536Y-95164780D01*
X116251651Y-95164780D01*
X116298666Y-95338900D01*
X117309900Y-95338900D01*
X117309900Y-94327623D01*
X117386100Y-94327623D01*
X117386100Y-95338900D01*
X118397334Y-95338900D01*
X118444349Y-95164780D01*
X118442109Y-95153510D01*
X118377485Y-94944354D01*
X118273299Y-94751825D01*
X118133554Y-94583321D01*
X117963621Y-94445317D01*
X117770030Y-94343117D01*
X117560220Y-94280649D01*
X117386100Y-94327623D01*
X117309900Y-94327623D01*
X117135780Y-94280649D01*
X116925970Y-94343117D01*
X116732379Y-94445317D01*
X116562446Y-94583321D01*
X116422701Y-94751825D01*
X116318515Y-94944354D01*
X116253891Y-95153510D01*
X116251651Y-95164780D01*
X115600536Y-95164780D01*
X115607750Y-92727015D01*
X116231300Y-92727015D01*
X116231300Y-92946985D01*
X116274214Y-93162729D01*
X116358394Y-93365956D01*
X116480603Y-93548855D01*
X116636145Y-93704397D01*
X116819044Y-93826606D01*
X117022271Y-93910786D01*
X117238015Y-93953700D01*
X117457985Y-93953700D01*
X117673729Y-93910786D01*
X117876956Y-93826606D01*
X118059855Y-93704397D01*
X118215397Y-93548855D01*
X118337606Y-93365956D01*
X118421786Y-93162729D01*
X118464700Y-92946985D01*
X118464700Y-92727015D01*
X118421786Y-92511271D01*
X118337606Y-92308044D01*
X118215397Y-92125145D01*
X118059855Y-91969603D01*
X117876956Y-91847394D01*
X117673729Y-91763214D01*
X117457985Y-91720300D01*
X117238015Y-91720300D01*
X117022271Y-91763214D01*
X116819044Y-91847394D01*
X116636145Y-91969603D01*
X116480603Y-92125145D01*
X116358394Y-92308044D01*
X116274214Y-92511271D01*
X116231300Y-92727015D01*
X115607750Y-92727015D01*
X115644835Y-80192000D01*
X125611010Y-80192000D01*
X125616159Y-80244282D01*
X125631410Y-80294555D01*
X125656174Y-80340887D01*
X125689502Y-80381498D01*
X125730113Y-80414826D01*
X125776445Y-80439590D01*
X125826718Y-80454841D01*
X125879000Y-80459990D01*
X127774225Y-80458700D01*
X127840900Y-80392025D01*
X127840900Y-78730100D01*
X127917100Y-78730100D01*
X127917100Y-80392025D01*
X127983775Y-80458700D01*
X129879000Y-80459990D01*
X129931282Y-80454841D01*
X129981555Y-80439590D01*
X130027887Y-80414826D01*
X130068498Y-80381498D01*
X130101826Y-80340887D01*
X130126590Y-80294555D01*
X130141841Y-80244282D01*
X130146990Y-80192000D01*
X130145700Y-78796775D01*
X130079025Y-78730100D01*
X127917100Y-78730100D01*
X127840900Y-78730100D01*
X125678975Y-78730100D01*
X125612300Y-78796775D01*
X125611010Y-80192000D01*
X115644835Y-80192000D01*
X115653711Y-77192000D01*
X125611010Y-77192000D01*
X125612300Y-78587225D01*
X125678975Y-78653900D01*
X127840900Y-78653900D01*
X127840900Y-76991975D01*
X127917100Y-76991975D01*
X127917100Y-78653900D01*
X130079025Y-78653900D01*
X130145700Y-78587225D01*
X130146990Y-77192000D01*
X130141841Y-77139718D01*
X130126590Y-77089445D01*
X130101826Y-77043113D01*
X130068498Y-77002502D01*
X130027887Y-76969174D01*
X129981555Y-76944410D01*
X129931282Y-76929159D01*
X129879000Y-76924010D01*
X127983775Y-76925300D01*
X127917100Y-76991975D01*
X127840900Y-76991975D01*
X127774225Y-76925300D01*
X125879000Y-76924010D01*
X125826718Y-76929159D01*
X125776445Y-76944410D01*
X125730113Y-76969174D01*
X125689502Y-77002502D01*
X125656174Y-77043113D01*
X125631410Y-77089445D01*
X125616159Y-77139718D01*
X125611010Y-77192000D01*
X115653711Y-77192000D01*
X115658638Y-75526900D01*
X130975100Y-75526900D01*
X130975100Y-80399153D01*
G37*
G04 #@! TD.AperFunction*
M02*
